<?xml version="1.0" standalone="no"?>
<!DOCTYPE svg PUBLIC "-//W3C//DTD SVG 20010904//EN"
 "http://www.w3.org/TR/2001/REC-SVG-20010904/DTD/svg10.dtd">
<svg version="1.0" xmlns="http://www.w3.org/2000/svg"
 width="226.000000pt" height="226.000000pt" viewBox="0 0 226.000000 226.000000"
 preserveAspectRatio="xMidYMid meet">
<metadata>
Created by potrace 1.11, written by Peter Selinger 2001-2013
</metadata>
<g transform="translate(0.000000,226.000000) scale(0.100000,-0.100000)"
fill="#000000" stroke="none">
<path d="M1990 1796 c-8 -7 -116 -76 -240 -153 -124 -78 -371 -233 -550 -345
-179 -112 -331 -207 -338 -212 -9 -6 -8 -14 8 -36 11 -15 20 -33 20 -39 0 -6
3 -11 8 -11 4 0 12 -10 18 -23 6 -12 41 -71 79 -132 37 -60 75 -122 84 -137 9
-16 19 -28 23 -28 4 0 120 71 258 158 138 86 276 173 308 193 259 161 551 345
568 359 21 16 21 17 -95 208 -64 105 -121 196 -127 202 -7 7 -15 5 -24 -4z"/>
<path d="M330 1354 c-107 -70 -197 -128 -198 -129 -4 -3 73 -132 219 -367 30
-48 105 -171 168 -273 62 -102 117 -185 121 -185 4 0 19 9 33 20 14 11 28 20
31 20 3 0 24 13 48 29 24 15 96 63 161 105 l117 76 -66 107 c-37 60 -150 245
-252 413 -101 168 -185 306 -186 307 -1 1 -89 -54 -196 -123z"/>
</g>
</svg>
