<svg version="1" xmlns="http://www.w3.org/2000/svg" width="301.333" height="301.333" viewBox="0 0 226 226"><path d="M199 46.4c-.8.7-11.6 7.6-24 15.3-12.4 7.8-37.1 23.3-55 34.5s-33.1 20.7-33.8 21.2c-.9.6-.8 1.4.8 3.6 1.1 1.5 2 3.3 2 3.9 0 .6.3 1.1.8 1.1.4 0 1.2 1 1.8 2.3.6 1.2 4.1 7.1 7.9 13.2 3.7 6 7.5 12.2 8.4 13.7.9 1.6 1.9 2.8 2.3 2.8.4 0 12-7.1 25.8-15.8 13.8-8.6 27.6-17.3 30.8-19.3 25.9-16.1 55.1-34.5 56.8-35.9 2.1-1.6 2.1-1.7-9.5-20.8-6.4-10.5-12.1-19.6-12.7-20.2-.7-.7-1.5-.5-2.4.4zM33 90.6c-10.7 7-19.7 12.8-19.8 12.9-.4.3 7.3 13.2 21.9 36.7 3 4.8 10.5 17.1 16.8 27.3C58.1 177.7 63.6 186 64 186c.4 0 1.9-.9 3.3-2s2.8-2 3.1-2c.3 0 2.4-1.3 4.8-2.9 2.4-1.5 9.6-6.3 16.1-10.5L103 161l-6.6-10.7c-3.7-6-15-24.5-25.2-41.3-10.1-16.8-18.5-30.6-18.6-30.7-.1-.1-8.9 5.4-19.6 12.3z"/></svg>