<?xml version="1.0" standalone="no"?>
<!DOCTYPE svg PUBLIC "-//W3C//DTD SVG 1.1//EN" "http://www.w3.org/Graphics/SVG/1.1/DTD/svg11.dtd" >
<svg xmlns="http://www.w3.org/2000/svg">
<metadata>Generated by IcoMoon</metadata>
<defs>
<font id="icomoon" horiz-adv-x="1024">
<font-face units-per-em="1024" ascent="960" descent="-64" />
<missing-glyph horiz-adv-x="1024" />
<glyph unicode="&#x20;" horiz-adv-x="512" d="" />
<glyph unicode="&#xe900;" glyph-name="comunicacion" horiz-adv-x="1259" d="M915.473 960h-844.582c-39.133-0.048-70.843-31.758-70.891-70.886v-506.7c0.048-39.133 31.758-70.843 70.886-70.891h54.78v-188.634c0.021-16.394 13.316-29.677 29.713-29.677 8.192 0 15.609 3.315 20.984 8.677l209.634 209.617h42.051c16.41 0 29.713 13.303 29.713 29.713s-13.303 29.713-29.713 29.713v0s-55.783-0.050-56.37-0.118c-7.453-0.5-14.078-3.689-18.986-8.595l-167.634-167.634s-0.050 148.514-0.151 149.269c-1.397 15.221-14.096 27.051-29.561 27.060h-84.439c-6.351 0-11.499 5.148-11.499 11.499v0 506.695c0 6.329 5.154 11.499 11.482 11.499h844.582c6.329 0 11.482-5.17 11.482-11.499v-194.392c0.395-16.103 13.543-29.007 29.704-29.007s29.309 12.903 29.704 28.97l0.001 0.037v194.392c-0.048 39.133-31.758 70.843-70.886 70.891h-0.005zM1182.468 590.689h-591.184c-39.133-0.048-70.843-31.758-70.891-70.886v-345.681c0.048-39.133 31.758-70.843 70.886-70.891h370.122l149.957-149.957c5.374-5.375 12.799-8.7 21-8.7 16.401 0 29.696 13.295 29.696 29.696 0 0.007 0 0.015 0 0.022v-0.001 128.94h20.413c39.139 0.048 70.853 31.768 70.891 70.904v345.646c-0.038 39.14-31.752 70.86-70.886 70.908h-0.005zM1193.967 174.122c-0.010-6.344-5.154-11.482-11.499-11.482h-50.092c-15.629 0-28.42-12.087-29.595-27.413-0.067-0.655-0.118-89.239-0.118-89.239l-108.175 108.175c-5.328 5.241-12.643 8.477-20.714 8.477-0.012 0-0.024 0-0.037 0h-382.471c-6.344 0.010-11.482 5.154-11.482 11.499v0 345.642c0 6.345 5.154 11.516 11.482 11.516h591.201c6.345 0 11.499-5.17 11.499-11.499v-345.676zM885.844 372.459c-16.41 0-29.713-13.303-29.713-29.713s13.303-29.713 29.713-29.713v0c16.41 0 29.713 13.303 29.713 29.713s-13.303 29.713-29.713 29.713v0zM771.693 758.557h-540.538c-0.298 0.011-0.647 0.017-0.999 0.017-16.41 0-29.713-13.303-29.713-29.713s13.303-29.713 29.713-29.713c0.351 0 0.701 0.006 1.049 0.018l-0.051-0.001h540.538c0.298-0.011 0.647-0.017 0.999-0.017 16.41 0 29.713 13.303 29.713 29.713s-13.303 29.713-29.713 29.713c-0.351 0-0.701-0.006-1.049-0.018l0.051 0.001zM436.291 557.115h-205.136c-0.298 0.011-0.647 0.017-0.999 0.017-16.41 0-29.713-13.303-29.713-29.713s13.303-29.713 29.713-29.713c0.351 0 0.701 0.006 1.049 0.018l-0.051-0.001h205.136c0.298-0.011 0.647-0.017 0.999-0.017 16.41 0 29.713 13.303 29.713 29.713s-13.303 29.713-29.713 29.713c-0.351 0-0.701-0.006-1.049-0.018l0.051 0.001zM751.549 372.459c-16.41 0-29.713-13.303-29.713-29.713s13.303-29.713 29.713-29.713v0c16.41 0 29.713 13.303 29.713 29.713s-13.303 29.713-29.713 29.713v0zM1036.926 372.459c-16.41 0-29.713-13.303-29.713-29.713s13.303-29.713 29.713-29.713v0c16.41 0 29.713 13.303 29.713 29.713s-13.303 29.713-29.713 29.713v0z" />
<glyph unicode="&#xe901;" glyph-name="enfocate" horiz-adv-x="1011" d="M585.095 664.765c1.067 2.608 1.686 5.635 1.686 8.807 0 9.993-6.146 18.551-14.865 22.099l-0.16 0.057c-33.614 13.76-72.625 21.747-113.501 21.747-0.185 0-0.37 0-0.555 0h0.029c-170.671 0-309.517-138.833-309.517-309.491 0-170.644 138.846-309.477 309.504-309.477 170.644 0 309.491 138.833 309.491 309.491 0 39.262-7.276 77.541-21.598 113.785-3.728 8.603-12.147 14.512-21.945 14.512-13.171 0-23.848-10.677-23.848-23.848 0-2.941 0.532-5.757 1.506-8.358l-0.054 0.165c11.553-28.389 18.257-61.325 18.257-95.826 0-0.151 0-0.303 0-0.454v0.024c0-144.357-117.45-261.794-261.794-261.794-144.384 0-261.834 117.437-261.834 261.794s117.45 261.794 261.821 261.794c33.347 0 65.792-6.184 96.418-18.365 2.608-1.067 5.635-1.686 8.807-1.686 9.993 0 18.551 6.146 22.099 14.865l0.057 0.16zM857.708 540.928c-10.063-2.947-17.288-12.094-17.288-22.928 0-2.334 0.335-4.589 0.96-6.721l-0.042 0.169c9.887-33.343 15.576-71.654 15.576-111.293 0-0.095 0-0.19 0-0.284v0.015c0.013-223.111-181.477-404.601-404.601-404.601s-404.628 181.504-404.628 404.615c0 223.124 181.517 404.642 404.628 404.642 37.996 0 75.587-5.255 111.751-15.643 1.662-0.414 3.571-0.651 5.535-0.651 13.171 0 23.848 10.677 23.848 23.848 0 10.446-6.716 19.323-16.065 22.549l-0.168 0.050c-37.347 11.118-80.259 17.516-124.665 17.516-0.083 0-0.167 0-0.25 0h0.013c-249.398 0-452.312-202.914-452.312-452.312s202.914-452.312 452.312-452.312c249.398 0 452.285 202.9 452.285 452.312 0 0.084 0 0.183 0 0.282 0 44.304-6.358 87.122-18.212 127.593l0.804-3.203c-2.951 10.057-12.095 17.276-22.925 17.276-2.335 0-4.592-0.336-6.724-0.961l0.169 0.042zM449.617 521.58c3.665 0 7.262-0.162 10.671-0.472 0.83-0.103 1.792-0.161 2.767-0.161 13.171 0 23.848 10.677 23.848 23.848 0 12.604-9.777 22.924-22.161 23.79l-0.075 0.004c-4.851 0.445-9.93 0.674-15.050 0.674-91.891 0-166.669-74.779-166.669-166.669s74.779-166.643 166.669-166.643c91.891 0 166.656 74.752 166.656 166.643 0 4.851-0.216 9.755-0.647 14.552-1.39 11.97-11.469 21.175-23.698 21.175-13.171 0-23.848-10.677-23.848-23.848 0-0.553 0.019-1.101 0.056-1.644l-0.004 0.074c0.296-3.382 0.458-6.872 0.458-10.307 0-65.603-53.369-118.973-118.973-118.973-65.617 0-118.986 53.369-118.986 118.973 0 65.617 53.383 118.986 118.986 118.986zM817.368 642.56c-4.321-4.292-10.269-6.95-16.839-6.966h-87.232l145.88 145.88 97.091-0.013-138.9-138.887zM686.552 773.389l138.914 138.887v-97.091l-145.893-145.866v87.229c0 6.36 2.466 12.342 6.966 16.842zM1000.327 799.717c-7.319 17.425-24.243 29.44-43.974 29.44-0.030 0-0.059 0-0.089 0h-83.128v83.133c0 0.025 0 0.055 0 0.085 0 19.731-12.015 36.656-29.127 43.857l-0.313 0.117c-5.399 2.311-11.681 3.654-18.277 3.654-13.159 0-25.069-5.347-33.676-13.987l-138.915-138.915c-12.918-12.865-20.911-30.666-20.911-50.334 0-0.077 0-0.154 0-0.231v0.012-134.912l-193.752-193.752c-4.089-4.274-6.606-10.081-6.606-16.476 0-13.171 10.677-23.848 23.848-23.848 6.392 0 12.196 2.514 16.478 6.608l193.743 193.743h134.912c19.106 0 37.053 7.437 50.567 20.938l138.9 138.914c8.641 8.609 13.988 20.519 13.988 33.678 0 6.596-1.343 12.878-3.772 18.588l0.118-0.311z" />
<glyph unicode="&#xe902;" glyph-name="facebook" horiz-adv-x="484" d="M451.015 454.684h-141.568v-504.519h-209.749v504.519h-99.698v178.29h99.698v115.342c0 82.603 39.253 211.684 211.684 211.684l155.42-0.597v-173.084h-112.811c-18.347 0-44.459-9.188-44.459-48.583v-104.789h159.801l-18.318-178.261z" />
<glyph unicode="&#xe903;" glyph-name="arrow" horiz-adv-x="422" d="M184.039 46.030l-146.171 146.171-37.868-37.828 218.353-218.373 203.294 203.294-37.868 37.868-146.171-146.171v929.009h-53.569v-913.97z" />
<glyph unicode="&#xe904;" glyph-name="times" horiz-adv-x="851" d="M827.844-17.455h-49.87v66.494h-83.117v169.931c0 44.883-22.315 86.575-59.658 111.47l-176.341 117.561 176.341 117.561c36.174 24.316 59.658 65.087 59.658 111.343 0 0.049 0 0.098 0 0.148v-0.008 169.918h83.117v66.494h49.87c9.181 0 16.623 7.443 16.623 16.623s-7.443 16.623-16.623 16.623v0h-797.922c-9.181 0-16.623-7.443-16.623-16.623s7.443-16.623 16.623-16.623v0h49.87v-66.494h83.117v-169.918c0-44.883 22.315-86.575 59.658-111.483l176.341-117.561-176.341-117.561c-36.174-24.316-59.658-65.087-59.658-111.343 0-0.045 0-0.089 0-0.134v0.007-169.931h-83.117v-66.494h-49.87c-9.181 0-16.623-7.443-16.623-16.623s7.443-16.623 16.623-16.623v0h797.922c9.181 0 16.623 7.443 16.623 16.623s-7.443 16.623-16.623 16.623v0zM113.039 880.208v33.247h631.688v-33.247h-631.688zM240.999 593.222c-27.192 18.29-44.843 48.945-44.843 83.723 0 0.030 0 0.060 0 0.090v-0.005 169.931h465.455v-169.918c0-0.027 0-0.058 0-0.090 0-34.784-17.657-65.443-44.497-83.504l-0.36-0.228-187.871-125.247-187.884 125.247zM196.156 218.97c0 0.025 0 0.055 0 0.085 0 34.778 17.651 65.433 44.484 83.495l0.359 0.228 187.884 125.247 187.871-125.247c27.199-18.289 44.857-48.949 44.857-83.732 0-0.027 0-0.054 0-0.080v0.004-169.931h-465.455v169.931zM113.039 15.792h631.688v-33.247h-631.688v33.247zM274.565 651.869c-9.241 6.218-15.24 16.638-15.24 28.459 0 0.014 0 0.028 0 0.043v-0.002 36.93c0 9.181-7.443 16.623-16.623 16.623s-16.623-7.443-16.623-16.623v0-36.93c0-22.634 11.237-43.62 30.055-56.16l77.093-51.399c2.593-1.756 5.791-2.803 9.234-2.803 5.743 0 10.805 2.915 13.788 7.345l0.038 0.059c1.75 2.593 2.793 5.788 2.793 9.227 0 5.743-2.91 10.806-7.335 13.796l-0.059 0.038-77.119 51.399zM594.997 267.457l-77.093 51.399c-2.593 1.752-5.789 2.797-9.229 2.797-9.183 0-16.627-7.444-16.627-16.627 0-5.743 2.911-10.806 7.339-13.793l0.059-0.038 77.106-51.399c9.248-6.208 15.254-16.626 15.254-28.446 0-0.014 0-0.028 0-0.042v0.002-36.944c0-9.181 7.443-16.623 16.623-16.623s16.623 7.443 16.623 16.623v0 36.944c0 22.634-11.237 43.62-30.055 56.147z" />
<glyph unicode="&#xe905;" glyph-name="instagram" d="M737.308 960h-456.277c-154.965 0-281.031-126.066-281.031-281.031v-456.249c0-154.965 126.066-281.031 281.031-281.031h456.249c154.965 0 281.031 126.066 281.031 281.031v456.249c0 154.965-126.066 281.031-281.031 281.031zM928 222.692c-0.113-105.27-85.421-190.578-190.68-190.692h-456.288c-105.277 0.097-190.594 85.415-190.692 190.682v456.286c0.113 105.27 85.421 190.578 190.68 190.692h456.26c105.27-0.113 190.578-85.421 190.692-190.68v-456.26zM509.156 713.216c-144.668 0-262.372-117.703-262.372-262.4s117.703-262.4 262.4-262.4c144.668 0 262.4 117.703 262.4 262.4s-117.732 262.4-262.428 262.4zM509.156 278.784c-94.965 0.113-171.919 77.067-172.032 172.021v0.011c0.097 94.987 77.073 171.963 172.051 172.060h0.009c94.975-0.113 171.935-77.083 172.032-172.051v-0.009c-0.113-94.965-77.067-171.919-172.021-172.032h-0.011zM782.592 789.817c-17.408 0-34.532-7.026-46.82-19.371-11.987-12.007-19.413-28.57-19.456-46.868v-0.008c0-17.408 7.111-34.503 19.456-46.876 12.015-11.926 28.549-19.313 46.809-19.371h0.011c17.465 0 34.503 7.111 46.848 19.371 11.949 12.025 19.35 28.582 19.399 46.867v0.009c-0.026 18.299-7.433 34.863-19.401 46.879l0.002-0.002c-12.011 11.95-28.563 19.344-46.843 19.371h-0.005z" />
<glyph unicode="&#xe906;" glyph-name="user" horiz-adv-x="1120" d="M995.424 165.504l-273.152 106.304c-6.848 2.272-10.272 6.848-11.424 10.272-1.12 4.576 1.152 9.152 5.728 14.88 5.696 6.848 137.152 160 137.152 321.12 0 169.152-137.152 306.304-306.304 306.304s-306.272-137.184-306.272-306.304c0-161.12 131.424-315.424 137.12-321.12 4.576-5.728 6.88-10.304 5.728-14.88s-5.728-8-11.424-10.272l-273.152-106.304c-38.848-14.848-67.424-57.12-67.424-96v-27.424c0.055-42.9 34.826-77.66 77.724-77.696h873.124c42.902 0.036 77.673 34.796 77.728 77.691v27.429c0 38.88-28.576 81.152-65.152 96zM1014.848 40.96c0-17.152-14.848-32-32-32h-873.088c-17.152 0-32 14.848-32 32v27.424c0 20.576 17.12 45.696 36.544 53.696l273.152 106.304c20.576 8 34.304 22.848 38.848 42.272 4.576 18.304-1.12 38.848-14.848 56-1.152 1.152-125.696 147.424-125.696 291.424 0 0.029 0 0.062 0 0.096 0 143.859 116.621 260.48 260.48 260.48 0.023 0 0.045 0 0.068 0h-0.004c0.029 0 0.062 0 0.096 0 143.859 0 260.48-116.621 260.48-260.48 0-0.034 0-0.067 0-0.101v0.005c0-144-124.576-290.272-125.696-291.424-13.728-16-19.424-36.576-14.88-56 4.576-18.272 19.456-34.272 38.88-42.272l273.12-106.304c19.456-8 36.576-32 36.576-53.696v-27.424z" />
<glyph unicode="&#xe907;" glyph-name="programa" horiz-adv-x="998" d="M949.442 888.527h-193.030v29.048c-0.346 16.004-13.402 28.845-29.456 28.845s-29.11-12.841-29.456-28.813l-0.001-0.032v-29.048h-172.11v29.048c0 16.272-13.191 29.463-29.463 29.463s-29.463-13.191-29.463-29.463v0-29.048h-164.786v29.048c-0.346 16.004-13.402 28.845-29.456 28.845s-29.11-12.841-29.456-28.813l-0.001-0.032v-29.048h-200.341c-16.272 0-29.463-13.191-29.463-29.463v0-665.639c0-16.272 13.191-29.463 29.463-29.463h180.807c28.97-123.787 140.197-216.297 272.695-216.297s243.725 92.51 272.695 216.297h180.82c16.266 0.007 29.45 13.195 29.45 29.463v0 665.639c0 0.004 0 0.008 0 0.013 0 16.265-13.185 29.45-29.45 29.45v0zM242.753 829.602v-26.624c0-16.272 13.191-29.463 29.463-29.463s29.463 13.191 29.463 29.463v0 26.624h164.786v-26.624c0-16.272 13.191-29.463 29.463-29.463s29.463 13.191 29.463 29.463v0 26.624h172.11v-26.624c0.346-16.004 13.402-28.845 29.456-28.845s29.11 12.841 29.456 28.813l0.001 0.032v26.624h163.581v-120.469h-848.118v120.469h170.878zM495.927 6.591c-121.973 0-221.197 99.237-221.197 221.197 0 121.973 99.224 221.21 221.197 221.21s221.21-99.224 221.21-221.21c0-121.973-99.237-221.197-221.21-221.197zM775.933 222.889c0.026 1.633 0.13 3.253 0.13 4.9 0 154.468-125.667 280.122-280.135 280.122-154.455 0-280.109-125.654-280.109-280.109 0-1.659 0.091-3.279 0.117-4.926h-144.060v427.332h848.105v-427.319h-144.047zM525.545 217.704v142.505c-0.346 16.004-13.402 28.845-29.456 28.845s-29.11-12.841-29.456-28.813l-0.001-0.032v-154.715c0-7.816 3.111-15.295 8.633-20.83l67.701-67.714c5.32-5.333 12.677-8.633 20.804-8.633 0.009 0 0.018 0 0.027 0h-0.001c16.269 0.004 29.456 13.193 29.456 29.463 0 8.134-3.296 15.499-8.626 20.83l-59.081 59.094z" />
<glyph unicode="&#xe908;" glyph-name="nuevo" d="M542.502 491.574h366.026c17.43 0 30.502-13.072 30.502-30.502s-13.072-30.502-30.502-30.502v0h-366.026v-366.026c0-17.43-13.072-30.502-30.502-30.502s-30.502 13.072-30.502 30.502v0 366.026h-366.026c-17.43 0-30.502 13.072-30.502 30.502s13.072 30.502 30.502 30.502v0h366.026v366.026c0 17.43 13.072 30.502 30.502 30.502s30.502-13.072 30.502-30.502v0c0 0 0-366.026 0-366.026z" />
<glyph unicode="&#xe909;" glyph-name="check" d="M352.211 256.141l-216.615 223.367-72.018-74.268 289.196-297.635 618.901 637.468-72.018 74.268-547.446-563.2z" />
<glyph unicode="&#xe90a;" glyph-name="clock" d="M951.847 863.705h-187.668v28.278c0 15.824-12.828 28.652-28.652 28.652s-28.652-12.828-28.652-28.652v0-28.278h-167.306v28.278c0 15.824-12.828 28.652-28.652 28.652s-28.652-12.828-28.652-28.652v0-28.278h-160.217v28.278c0 15.824-12.828 28.652-28.652 28.652s-28.652-12.828-28.652-28.652v0-28.278h-194.796c-15.813 0-28.633-12.819-28.633-28.633v0-647.207c0-15.793 12.839-28.633 28.633-28.633h175.813c28.16-120.359 136.31-210.314 265.137-210.314s236.977 89.954 265.137 210.314h175.813c0.012 0 0.026 0 0.039 0 15.813 0 28.633 12.819 28.633 28.633 0 0 0 0 0 0v0 647.207c0 0 0 0 0 0 0 15.813-12.819 28.633-28.633 28.633-0.014 0-0.028 0-0.042 0h0.002zM264.743 806.439v-25.876c0-15.824 12.828-28.652 28.652-28.652s28.652 12.828 28.652 28.652v0 25.836h160.217v-25.876c0-15.824 12.828-28.652 28.652-28.652s28.652 12.828 28.652 28.652v0 25.876h167.306v-25.876c0-15.824 12.828-28.652 28.652-28.652s28.652 12.828 28.652 28.652v0 25.876h159.035v-117.13h-824.596v117.13h166.124zM510.897 6.223c-118.7 0.157-214.883 96.34-215.040 215.025v0.015c0.112 118.734 96.312 214.962 215.025 215.119h0.015c118.731-0.134 214.945-96.348 215.079-215.066v-0.013c-0.134-118.717-96.326-214.922-215.025-215.079h-0.015zM783.163 216.537l0.118 4.726c-0.157 150.37-122.014 272.227-272.369 272.384h-0.015c-150.34-0.179-272.166-122.005-272.345-272.328v-0.017c0-1.615 0.079-3.19 0.118-4.805h-140.091v415.508h824.635v-415.508h-140.052zM539.569 214.055v138.555c0 15.824-12.828 28.652-28.652 28.652s-28.652-12.828-28.652-28.652v0-150.449c0-7.562 3.033-14.848 8.389-20.244l65.812-65.812c5.176-5.223 12.352-8.456 20.283-8.456s15.107 3.233 20.281 8.454l0.002 0.002c5.18 5.181 8.384 12.338 8.384 20.244s-3.204 15.062-8.384 20.244l-57.502 57.502z" />
<glyph unicode="&#xe90b;" glyph-name="photo" horiz-adv-x="1271" d="M1123.964-44.579h-977.073c-81.093 0.080-146.811 65.798-146.891 146.883v595.658c0.1 81.078 65.81 146.775 146.883 146.856h199.37l17.443 58.862c7.133 32.238 36.582 55.861 71.221 55.861h401.055c33.651 0 63.453-23.517 71.327-56.143l0.459-2.013 15.89-56.567h200.351c81.093-0.080 146.811-65.798 146.891-146.883v-595.623c-0.1-81.085-65.806-146.791-146.881-146.891h-0.010zM146.891 795.878c-54.056-0.040-97.87-43.83-97.951-97.872v-595.694c0.060-54.053 43.863-97.855 97.91-97.916h977.114c54.053 0.060 97.855 43.863 97.916 97.91v595.656c-0.080 54.043-43.899 97.825-97.949 97.845h-237.393l-26.801 95.585c-2.544 11.010-12.234 19.105-23.827 19.173h-401.028c-0.026 0-0.056 0-0.087 0-11.603 0-21.307-8.135-23.718-19.012l-0.030-0.161-28.319-95.585h-235.838zM635.48 103.442c-171.326 0-310.696 139.37-310.696 310.66 0 171.326 139.37 310.696 310.731 310.696 171.255 0 310.625-139.405 310.625-310.731 0-171.255-139.37-310.625-310.66-310.625zM635.48 675.822c-144.313 0-261.72-117.372-261.72-261.685 0-144.349 117.407-261.72 261.72-261.72s261.65 117.407 261.65 261.72-117.372 261.72-261.65 261.72zM1092.396 705.024c-0.533 0.022-1.158 0.035-1.786 0.035-24.962 0-45.197-20.235-45.197-45.197s20.235-45.197 45.197-45.197c0.628 0 1.253 0.013 1.875 0.038l-0.089-0.003c24.181 0.986 43.411 20.828 43.411 45.162s-19.23 44.176-43.322 45.159l-0.089 0.003z" />
<glyph unicode="&#xe90c;" glyph-name="back" horiz-adv-x="2374" d="M2118.749 510.092l-338.851 338.851 87.785 87.785 506.135-506.135-471.273-471.319-87.785 87.785 338.851 338.851h-2153.612v124.183h2118.749z" />
<glyph unicode="&#xe90d;" glyph-name="more" horiz-adv-x="3413" d="M901.291 502.272c-0.194 248.828-201.759 450.513-450.523 450.901h-0.037c-248.874-0.291-450.537-202.014-450.731-450.883v-0.019c0.291-248.72 201.84-450.269 450.532-450.56h0.028c248.754 0.291 450.342 201.819 450.731 450.522v0.038zM158.72 502.272c0 161.109 130.901 292.181 291.84 292.181 161.109 0 291.84-131.072 291.84-292.181 0-160.939-130.901-291.84-291.84-291.84s-291.84 131.072-291.84 291.84zM2138.453 502.272c-0.194 248.828-201.759 450.513-450.523 450.901h-0.037c-248.801-0.389-450.366-202.074-450.56-450.883v-0.018c0.291-248.72 201.84-450.269 450.532-450.56h0.028c248.681 0.388 450.172 201.879 450.56 450.523v0.037zM1687.893 210.432c-157.013 5.537-282.196 134.155-282.196 292.011s125.183 286.474 281.692 291.997l0.505 0.014c160.939 0 291.84-131.072 291.84-292.011s-130.901-291.84-291.84-291.84zM2925.227 953.173c-248.815-0.291-450.44-201.917-450.731-450.703v-0.027c0.291-248.72 201.84-450.269 450.532-450.56h0.028c248.754 0.291 450.342 201.819 450.731 450.522v0.038c-0.291 248.754-201.819 450.342-450.522 450.731h-0.038zM2925.227 210.603c-161.109 0-292.011 130.901-292.011 291.84s130.901 292.011 291.84 292.011c161.109 0 292.011-131.072 292.011-292.011s-130.901-291.84-291.84-291.84z" />
<glyph unicode="&#xe90e;" glyph-name="edit" d="M956.302 893.838c-40.82 40.878-97.244 66.165-159.573 66.165s-118.753-25.287-159.571-66.163l-585.276-584.991c-4.389-4.394-7.39-10.175-8.288-16.628l-0.018-0.154-43.349-321.138c-0.172-1.192-0.271-2.568-0.271-3.968 0-8.073 3.278-15.381 8.576-20.664l0.001-0.001c5.404-5.461 13.084-8.704 20.651-8.704 1.308 0 2.617 0 3.982 0.228l193.422 26.169c15.022 1.48 26.662 14.048 26.662 29.335 0 16.275-13.193 29.468-29.468 29.468-1.782 0-3.528-0.158-5.223-0.461l0.179 0.026-155.136-20.935 30.322 223.972 235.748-235.748c5.249-5.409 12.586-8.765 20.708-8.765s15.459 3.357 20.701 8.758l585.223 584.995c40.903 40.644 66.219 96.931 66.219 159.131 0 0.195 0 0.391-0.001 0.586v-0.030c0 60.359-23.495 117.020-66.219 159.516zM648.533 821.931l98.247-98.247-534.016-534.016-98.247 98.247 534.016 534.016zM350.606 51.94l-96.085 96.142 534.016 533.959 96.142-96.085-534.073-534.016zM925.582 627.996l-235.065 235.122c28.55 23.721 65.585 38.116 105.982 38.116 0.121 0 0.242 0 0.362 0h-0.019c44.658 0 86.471-17.408 118.044-48.811 31.63-31.346 48.811-73.387 48.811-118.101 0-39.424-13.483-76.459-38.116-106.325z" />
<glyph unicode="&#xe90f;" glyph-name="call" horiz-adv-x="1069" d="M295.624 480.991c-4.708-8.118-13.358-13.49-23.263-13.49-0.039 0-0.078 0-0.117 0h0.006c-12.391 0.028-22.818 8.404-25.956 19.801l-0.044 0.189c-4.795 17.216-7.551 36.986-7.551 57.4 0 20.292 2.723 39.948 7.824 58.623l-0.362-1.557c21.014 76.42 79.985 135.39 154.85 156.039l1.555 0.366c17.119 4.723 36.775 7.437 57.065 7.437 20.412 0 40.183-2.747 58.962-7.891l-1.562 0.365c14.381-3.829 22.929-18.655 19.1-32.946-3.284-11.624-13.797-19.999-26.265-19.999-2.405 0-4.738 0.312-6.96 0.897l0.19-0.043c-12.985 3.627-27.896 5.711-43.294 5.711-46.169 0-87.96-18.74-118.183-49.028l-0.003-0.003c-30.28-30.224-49.012-72.008-49.012-118.167 0-15.372 2.078-30.259 5.967-44.396l-0.275 1.172c0.602-2.115 0.948-4.544 0.948-7.054 0-4.946-1.344-9.578-3.687-13.551l0.068 0.125zM58.546 652.177c20.054 73.227 57.456 136.065 107.604 186.141l0.005 0.005c50.088 50.178 112.942 87.597 183.276 106.969l2.914 0.685c32.166 8.864 69.1 13.958 107.224 13.958 38.307 0 75.413-5.143 110.665-14.776l-2.938 0.684c7.028-1.897 12.779-6.4 16.271-12.384l0.068-0.127c2.294-3.86 3.65-8.511 3.65-13.478 0-2.491-0.341-4.902-0.979-7.189l0.045 0.188c-3.355-11.571-13.857-19.886-26.302-19.886-2.376 0-4.681 0.303-6.879 0.873l0.19-0.042c-28.116 7.776-60.401 12.245-93.73 12.245-33.207 0-65.377-4.436-95.952-12.748l2.557 0.592c-63.688-17.467-118.335-50.024-161.874-93.666l-0.007-0.007c-43.671-43.555-76.244-98.217-93.122-159.39l-0.597-2.536c-7.731-28.023-12.174-60.201-12.174-93.417 0-33.337 4.476-65.63 12.858-96.308l-0.595 2.556c0.562-2.057 0.884-4.419 0.884-6.857 0-14.892-12.045-26.97-26.924-27.025h-0.005c-12.396 0.011-22.832 8.395-25.957 19.801l-0.044 0.189c-8.95 32.289-14.094 69.365-14.094 107.643 0 38.156 5.111 75.118 14.686 110.239l-0.681-2.931zM167.713 303.393c37.265 30.72 70.478 45.011 104.403 45.011 30.497 0 62.063-12.065 96.434-36.953l2.404-1.692 0.089-0.089h0.089l0.445-0.401c12.377-9.35 45.412-39.669 49.241-43.186 4.799-3.416 10.769-5.476 17.219-5.521h0.011c1.336 0 2.226 0.134 2.449 0.178 0.579 0.178 60.55 18.076 173.724 129.514 111.304 113.085 129.336 173.056 129.425 173.323 0.106 0.936 0.166 2.021 0.166 3.12 0 6.376-2.030 12.277-5.48 17.092l0.060-0.089c-5.788 6.278-34.994 38.155-43.631 49.864-53.293 72.348-51.423 133.12 6.322 203.286 38.823 47.104 87.040 95.722 150.573 98.749 48.217 2.182 97.057-21.816 148.881-73.594 49.018-48.974 68.118-126.931 48.84-197.677-3.918-22.483-44.477-226.17-263.747-445.44s-422.957-259.873-444.639-263.569c-18.387-4.986-37.443-7.569-56.632-7.569-54.45 0-106.14 20.48-141.891 56.231-51.823 51.823-75.91 100.53-73.55 148.881 3.072 63.533 51.645 111.75 98.794 150.528zM180.625 42.095c25.734-25.689 63.443-40.47 103.513-40.47 14.692 0 29.295 2.003 43.409 5.921 0.671 0.185 1.647 0.402 2.636 0.584l0.258 0.039c2.003 0.312 204.444 36.196 417.080 248.877 212.191 212.191 248.52 414.987 248.877 417.035 0.168 1.132 0.37 2.096 0.622 3.039l-0.043-0.19c14.826 53.471 1.247 111.171-34.549 146.922-38.467 38.467-73.594 57.967-104.403 57.967-1.247 0-2.538 0-3.784-0.089-42.518-2.048-80.228-41.183-111.527-79.204-42.162-51.2-43.231-84.502-4.452-137.082 5.565-7.569 29.251-33.747 39.802-45.234 15.939-17.274 23.507-46.436 18.031-69.231-0.668-2.76-17.363-68.118-134.723-189.618-3.117-3.295-14.826-15.004-18.254-18.209-121.455-117.359-186.813-134.010-189.529-134.723-4.897-1.158-10.106-1.781-15.583-1.781-19.946 0-40.515 7.613-53.693 19.768-13.713 12.6-38.111 34.549-45.234 39.891-26.535 19.59-47.193 28.316-66.916 28.316-20.97 0-42.607-10.106-70.166-32.813-38.022-31.299-77.156-69.009-79.249-111.527-1.558-32.278 17.363-67.673 57.878-108.188z" />
<glyph unicode="&#xe910;" glyph-name="eye" horiz-adv-x="1463" d="M729.527 3.803c-155.794 0-323.584 77.019-485.083 222.793-73.219 66.15-138.388 138.652-195.507 217.375l-2.784 4.028c-6.001 9.16-9.571 20.383-9.571 32.439s3.57 23.278 9.711 32.667l-0.14-0.228c59.903 82.749 125.072 155.252 197.081 220.327l1.21 1.076c161.499 145.774 329.216 222.793 485.083 222.793 155.794 0 323.584-77.019 485.083-222.793 73.218-66.152 138.387-138.654 195.507-217.376l2.783-4.027c6.001-9.16 9.571-20.383 9.571-32.439s-3.57-23.278-9.711-32.667l0.14 0.228c-59.903-82.749-125.072-155.252-197.081-220.327l-1.21-1.076c-161.499-145.774-329.216-222.793-485.083-222.793zM129.463 480.475c30.135-38.839 87.040-107.154 162.085-174.665 102.985-92.599 262.51-202.971 437.979-202.971 175.543 0 334.994 110.446 437.979 202.971 58.694 53.296 111.802 110.392 159.821 171.667l2.263 2.998c-50.282 64.244-103.389 121.316-160.946 173.574l-1.138 1.018c-102.985 92.599-262.51 202.971-437.979 202.971-175.543 0-334.994-110.446-437.979-202.971-58.697-53.275-111.804-110.348-159.824-171.599l-2.261-2.993zM729.527 173.349c-169.554 0.166-306.96 137.572-307.127 307.111v0.016c0.208 169.523 137.598 306.887 307.111 307.054h0.016c74.459 0 146.286-26.99 202.313-76.069 10.362-9.123 16.866-22.417 16.866-37.23 0-27.351-22.173-49.524-49.524-49.524-12.538 0-23.988 4.66-32.713 12.341l0.055-0.047c-36.363 31.978-84.366 51.493-136.926 51.493-0.025 0-0.050 0-0.075 0h0.004c-114.835-0.125-207.893-93.183-208.018-208.006v-0.012c0.083-114.866 93.157-207.966 208.006-208.091h0.012c114.861 0.125 207.935 93.225 208.018 208.084v0.008c0 27.368 22.186 49.554 49.554 49.554s49.554-22.186 49.554-49.554v0c-0.125-169.586-137.547-307.034-307.111-307.2h-0.016zM729.527 381.44c-54.637 0.083-98.911 44.331-99.035 98.95v0.012c0 54.565 44.398 99.035 99.035 99.035s99.035-44.471 99.035-99.035c0-54.638-44.398-99.109-99.035-99.109z" />
<glyph unicode="&#xe911;" glyph-name="close" d="M602.453 448l347.051-346.965c12.041-11.652 19.516-27.96 19.516-46.013 0-35.346-28.654-64-64-64-18.075 0-34.399 7.493-46.037 19.541l-346.983 346.813-346.965-346.965c-11.652-12.041-27.96-19.516-46.013-19.516-35.346 0-64 28.654-64 64 0 18.075 7.493 34.399 19.541 46.037l346.813 347.069-346.88 346.965c-12.041 11.652-19.516 27.96-19.516 46.013 0 35.346 28.654 64 64 64 18.075 0 34.399-7.493 46.037-19.541l346.983-346.813 346.965 346.88c11.652 12.041 27.96 19.516 46.013 19.516 35.346 0 64-28.654 64-64 0-18.075-7.493-34.399-19.541-46.037l-346.813-346.983z" />
<glyph unicode="&#xe912;" glyph-name="pdf" horiz-adv-x="712" d="M403.1 128.824v150.35h-94.831v-150.35h-104.804l153.956-181.649 153.956 181.649zM206.848 545.369c-6.812 0-11.398-0.668-13.802-1.336v-43.631c2.805-0.623 6.322-0.846 11.13-0.846 17.809 0 28.717 8.993 28.717 24.086 0 13.624-9.394 21.727-26.045 21.727zM346.869 544.924c-7.435 0-12.243-0.668-15.137-1.336v-96.612c2.894-0.668 7.48-0.668 11.62-0.668 30.275-0.223 49.998 16.429 49.998 51.734 0.223 30.675-17.764 46.881-46.481 46.881zM659.411 657.965v80.807c-0.031 4.502-1.824 8.579-4.724 11.58l0.005-0.005-196.875 199.279c-2.538 3.206-7.747 4.897-11.665 4.897h-376.431c-9.098 0-16.473-7.375-16.473-16.473v0-280.131h-51.601v-326.389h51.645v-138.285c0-9.082 7.391-16.473 16.473-16.473h211.167v32.946h-194.783v121.811h540.405v-121.856h-196.074v-32.857h212.502c9.098 0 16.473 7.375 16.473 16.473v0 138.24h49.864v326.433h-49.864zM462.581 898.115l141.045-142.915h-141.045v142.915zM252.438 489.539c-11.442-10.774-28.316-15.583-48.039-15.583-0.234-0.002-0.511-0.004-0.788-0.004-3.74 0-7.423 0.244-11.034 0.717l0.425-0.045v-52.803h-33.080v145.675c12.343 1.974 26.574 3.102 41.068 3.102 1.434 0 2.865-0.011 4.293-0.033l-0.215 0.003c20.614 0 35.306-3.962 45.145-11.843 9.659-7.98 15.769-19.96 15.769-33.366 0-0.291-0.003-0.58-0.009-0.869l0.001 0.043c0-14.47-4.808-26.713-13.579-35.039zM404.302 439.318c-15.583-12.911-39.224-19.055-68.118-19.055-17.363 0-29.607 1.113-37.933 2.226v144.963c12.847 1.961 27.67 3.082 42.753 3.082 0.841 0 1.681-0.003 2.52-0.010l-0.128 0.001c28.049 0 46.214-5.031 60.461-15.805 15.36-11.398 24.977-29.562 24.977-55.652 0-28.271-10.285-47.772-24.531-59.837zM552.025 542.119h-56.765v-33.747h53.070v-27.158h-53.070v-59.392h-33.525v147.634h90.335v-27.381zM626.554 658.009h-540.405v263.702h343.574v-182.895c0-9.082 7.346-16.473 16.429-16.473h180.402v-64.334z" />
<glyph unicode="&#xe913;" glyph-name="logout" d="M722.944 186.307c6.963-6.963 15.729-10.486 25.395-10.486 0.103-0.001 0.224-0.002 0.346-0.002 9.79 0 18.643 4.012 25.004 10.483l236.344 236.344c1.675 1.509 3.113 3.234 4.284 5.142l0.058 0.101s0.86 0.819 0.86 1.72c0.727 1.674 1.605 3.117 2.651 4.42l-0.029-0.038c0 0.86 0 1.761 0.901 1.761 0.86 1.761 0.86 2.621 1.761 4.383 0.819 2.621 0.819 4.383 0.819 6.963 0 2.662 0 4.383-0.819 7.045-0.047 1.681-0.708 3.2-1.765 4.346l0.004-0.005c0 0.901 0 1.761-0.901 1.761-0.819 1.761-1.72 3.523-2.621 5.243 0 0 0 0.901-0.86 0.901-0.86 1.72-2.621 3.482-4.383 5.243l-236.339 236.339c-6.361 5.817-14.868 9.381-24.206 9.381-19.839 0-35.922-16.083-35.922-35.922 0-9.359 3.579-17.883 9.444-24.276l-0.024 0.026 175.022-175.063h-622.264c-0.11 0.001-0.24 0.002-0.371 0.002-19.613 0-35.512-15.899-35.512-35.512 0-0.13 0.001-0.26 0.002-0.39v0.020c0-20.111 15.729-35.881 35.881-35.881h622.264l-175.022-175.022c-14.008-12.288-14.008-35.021 0-49.029zM39.404-59.617h472.596c0.11-0.001 0.24-0.002 0.371-0.002 19.613 0 35.512 15.899 35.512 35.512 0 0.13-0.001 0.26-0.002 0.39v-0.020 352.707c0.001 0.11 0.002 0.24 0.002 0.371 0 19.613-15.899 35.512-35.512 35.512-0.13 0-0.26-0.001-0.39-0.002h0.020c-0.11 0.001-0.24 0.002-0.371 0.002-19.613 0-35.512-15.899-35.512-35.512 0-0.13 0.001-0.26 0.002-0.39v0.020-316.826h-400.835v872.571h400.835v-316.826c0-20.111 15.77-35.881 35.881-35.881 0.11-0.001 0.24-0.002 0.371-0.002 19.613 0 35.512 15.899 35.512 35.512 0 0.13-0.001 0.26-0.002 0.39v-0.020 352.707c0.002 0.122 0.002 0.267 0.002 0.412 0 19.613-15.899 35.512-35.512 35.512-0.13 0-0.261-0.001-0.391-0.002h-472.576c-0.122 0.002-0.267 0.002-0.412 0.002-19.613 0-35.512-15.899-35.512-35.512 0-0.145 0.001-0.29 0.003-0.434v0.022-944.333c0.901-20.152 16.63-35.881 35.922-35.881z" />
</font>
</defs>
</svg>
