<svg id="Capa_1" data-name="Capa 1" xmlns="http://www.w3.org/2000/svg" viewBox="0 0 426.79 169.22"><defs><style>.cls-1{fill:#fff}</style></defs><path class="cls-1" d="M368.45 436.53a16.58 16.58 0 0 1-9.92 3.43c-7.06 0-10.64-4.58-10.64-13.62V395h21.74v-28.09h-22.17v-33.42H317v33.42h-19.4V395h19.17v32.16c0 26.13 13 41.11 35.79 41.11 10.24 0 19.67-2.93 26.63-8.13zm354.87-69.62h-30.47v51.76c0 12.74-7.19 21.29-17.88 21.29s-18.1-8.56-18.1-21.29v-51.76h-30.48v54.32c0 28.6 19.06 47.08 48.57 47.08 28.92 0 48.36-18.92 48.36-47.08zm-236.78 0h-30.47v51.76c0 12.74-7.19 21.29-17.88 21.29s-18.1-8.56-18.1-21.29v-51.76h-30.48v54.32c0 28.6 19.06 47.08 48.57 47.08 28.92 0 48.35-18.92 48.35-47.08zM576.18 334v41c-5.84-7.3-17.48-10.28-27.9-10.28-26.91 0-46.44 21-46.44 51.41 0 29.75 20 52.19 46.44 52.19 10 0 21.63-5.43 27.9-13.42v10.23h30.47V334zm-21.12 104.84A22.84 22.84 0 1 1 577.91 416a22.84 22.84 0 0 1-22.84 22.84" transform="translate(-297.6 -299.09)"/><path class="cls-1" d="M379.53 45.19l47.26-29.06L416.87 0l-47.25 29.05 9.91 16.14zm-14.17-13.52l-.02.01-10.66-17.06-16.06 10.04 20.63 33 16.02-9.85-9.91-16.14z"/></svg>