<svg xmlns="http://www.w3.org/2000/svg" xmlns:xlink="http://www.w3.org/1999/xlink" width="98" height="40"><defs><path id="a" d="M.143.183h13.12v10.571H.144z"/></defs><g fill="none" fill-rule="evenodd"><path fill="#FF4B7D" d="M16.26 32.385a3.76 3.76 0 0 1-2.278.802c-1.62 0-2.443-1.072-2.443-3.187v-7.323h4.99v-6.578h-5.087V8.282H4.448v7.817H0v6.578h4.4V30.2c0 6.112 2.993 9.617 8.213 9.617 2.35 0 4.515-.686 6.113-1.902l-2.467-5.53zm81.445-16.286H90.71v12.108c0 2.979-1.65 4.98-4.104 4.98-2.485 0-4.153-2.001-4.153-4.98V16.099H75.46v12.706c0 6.69 4.375 11.012 11.147 11.012 6.637 0 11.098-4.425 11.098-11.012V16.099zm-54.343 0h-6.994v12.108c0 2.979-1.65 4.98-4.104 4.98-2.484 0-4.153-2.001-4.153-4.98V16.099h-6.994v12.706c0 6.69 4.375 11.012 11.147 11.012 6.638 0 11.098-4.425 11.098-11.012V16.099zm15.727 16.826c-2.895 0-5.242-2.393-5.242-5.343 0-2.951 2.347-5.344 5.242-5.344s5.243 2.393 5.243 5.344c0 2.95-2.348 5.343-5.243 5.343zm4.846-24.519v9.583c-1.34-1.707-4.012-2.405-6.402-2.405-6.176 0-10.658 4.922-10.658 12.025 0 6.96 4.582 12.208 10.658 12.208 2.29 0 4.964-1.27 6.402-3.14v2.393h6.993V8.406h-6.993z"/><g transform="translate(84.689 .051)"><mask id="b" fill="#fff"><use xlink:href="#a"/></mask><path fill="#FF4B7D" d="M2.417 10.754l10.847-6.798L10.986.183.143 6.978z" mask="url(#b)"/></g><path fill="#FF4B7D" d="M83.854 7.641l-.005.003-2.447-3.99-3.686 2.348 4.735 7.72 3.677-2.304z"/></g></svg>