<svg xmlns="http://www.w3.org/2000/svg" width="300" height="120"><path d="M52.562 38.688c.087-.242.179-.482.258-.727.031-.099.072-.137.182-.136.553.006 1.107.005 1.66 0 .1 0 .142.031.173.124.086.261.186.519.275.78.063.184.219.108.317.091.127-.022.018-.126 0-.177-.458-1.261-.924-2.347-1.384-3.607-.033-.089-.068-.036-.154-.036h-.226c.022 0-.016-.051-.037.007-.27.736-.54 1.386-.81 2.121-.201.547-.403 1.051-.602 1.599-.016.044-.081.08 0 .123.114.06.305-.04.348-.162zm.521-1.229c.224-.632.447-1.381.67-2.012.021-.058.048.063.08-.016l.85 2.569h-1.381c-.327 0-.326-.234-.219-.541zm18.013 14.388L49 51.849l-.02.521 22.023.043c.146.013.089-.034.09-.057.004-.168.003-.339.003-.509zm-.11.001v.001zM52.294 49.78c.192.024.389.01.583.004.062-.002.063-.07.079-.116.068-.196.14-.39.2-.589.029-.097.079-.125.176-.124.32.004.641-.001.962.003.175.001.394-.071.512.029.118.096.137.418.193.583.112.324.11.43.442.43h.114c.235 0 .236-.106.156-.325-.442-1.207-.884-2.468-1.327-3.675-.117-.318-.118-.338-.449-.348-.131-.002-.197.021-.242.152-.148.433-.313.854-.47 1.284-.31.848-.62 1.694-.928 2.543-.017.05-.088.139-.001.149zm1.104-1.387l.629-1.797.617 1.798-1.246-.001zm2.773 1.397c.614-.013 1.267.039 1.879-.027.443-.048.792-.283.938-.725.186-.559.026-1.018-.507-1.394.227-.133.39-.305.464-.545.176-.566-.053-1.354-.964-1.448-.576-.06-1.221-.009-1.799-.023-.133-.004-.182.078-.182.159v3.852c0 .071.045.153.171.151zm.712-3.582c.295.007.589-.003.884.004.355.011.58.225.594.55.015.339-.17.574-.529.607-.323.03-.651.013-.978.02-.079.001-.091-.038-.089-.105.002-.163 0-.327 0-.49 0-.151.004-.301-.002-.452-.004-.09.012-.136.12-.134zm-.12 1.854c-.002-.082.025-.109.107-.108.314.005.629-.007.942.009.395.02.621.266.612.64-.008.367-.254.6-.649.605-.295.004-.591-.002-.886.003-.1.001-.131-.031-.126-.129.008-.169.002-.34.002-.51 0-.171.004-.341-.002-.51zm6.641-3.748c.126 0 .175-.027.172-.166-.008-.535.001-1.07-.005-1.605-.001-.117.028-.149.145-.146.29.009.579.007.867 0 .096-.002.141.031.184.116.263.521.535 1.037.801 1.556.141.271.152.279.488.216-.01-.023-.016-.046-.027-.068-.29-.556-.58-1.112-.872-1.667-.052-.099-.093-.155.073-.2.54-.146.842-.613.788-1.172-.056-.596-.408-.963-.996-1.012-.539-.045-1.081-.005-1.621-.02-.125-.003-.154.035-.154.157.004 1.285.005 2.57 0 3.854-.001.129.038.156.157.157zm.166-3.746c-.001-.099.033-.129.131-.127.389.005.779-.011 1.167.005.345.014.638.14.772.497.126.336.05.724-.184.942a.851.851 0 0 1-.587.216c-.389.005-.778-.003-1.168.004-.114.002-.133-.042-.131-.142.007-.226.003-.453.003-.679 0-.238.004-.477-.003-.716zm-9.856.617c-.064.341-.048.689-.052 1.035.003.334-.002.667.043.999.01.075.027.148.05.22.172.55.727.904 1.403.896a1.347 1.347 0 0 0 1.294-.992c.066-.227.039-.253-.195-.228-.115.013-.093.103-.114.165-.172.496-.626.816-1.104.774-.562-.048-.941-.379-1.006-.939-.072-.6-.07-1.207.004-1.806.063-.497.393-.806.906-.89a1.04 1.04 0 0 1 1.096.561c.046.088.079.184.111.278.062.177.207.077.303.075.093-.002.026-.099.013-.149-.173-.668-.682-1.063-1.37-1.071-.671-.008-1.267.448-1.382 1.072zm-4.175 8.608c.666-.01 1.332-.004 1.998-.004.419 0 .414 0 .413-.429 0-.126-.039-.157-.16-.155-.554.006-1.106-.002-1.659.006-.14.002-.177-.03-.176-.173.007-.976.003-1.95.003-2.926 0-.488 0-.482-.487-.486-.144-.001-.16.052-.159.174.006.635.003 1.271.003 1.907v-.001c0 .623.009 1.246-.006 1.869-.003.189.056.221.23.218zm3.252-9.649c-.125.004-.171.03-.171.167a489.22 489.22 0 0 1 0 3.831c0 .126.025.176.164.174.129-.001.168-.033.167-.167-.007-.635-.003-1.27-.003-1.906 0-.642-.002-1.283.002-1.925 0-.123-.017-.179-.159-.174zm4.094.301c.289-.009.578-.004.867-.003.278.002.244-.032.244.236.002 1.158.002 2.315-.001 3.474-.001.115.019.165.151.162.125-.002.173-.024.17-.163-.008-.585-.003-1.171-.003-1.755 0-.58.006-1.158-.003-1.737-.003-.165.028-.233.211-.222.295.018.591 0 .886.007.11.003.157-.017.148-.141-.006-.1-.005-.158-.138-.156-.842.006-1.684.006-2.526 0-.133-.001-.136.057-.137.157-.001.098.013.145.131.141zm9.948 3.691c-.001.117.005.186.154.178.125-.006.188-.012.187-.169a349.627 349.627 0 0 1 0-3.832c.001-.159-.064-.161-.187-.168-.153-.01-.155.064-.154.179.004.635.002 1.271.002 1.906 0 .636.002 1.271-.002 1.906zm-16.32.179c.123-.002.159-.054.191-.155.219-.68.443-1.359.665-2.039l.602-1.841c.013-.039.071-.087-.002-.127-.115-.061-.302.016-.343.14l-.486 1.503-.624 1.927c-.284-.873-.55-1.695-.816-2.518-.103-.316-.203-.633-.306-.948-.031-.095-.23-.162-.33-.104-.089.052-.008.124.009.176.415 1.276.836 2.55 1.253 3.825.032.099.058.164.187.161zm-1.058-5.484c.736-.004 1.471-.004 2.207 0 .115 0 .16-.02.165-.151.006-.158-.081-.135-.174-.135-.623.001-1.245-.003-1.867.003-.121.001-.158-.028-.157-.155.006-.717.004-1.435.003-2.152-.001-.493-.006-.813-.01-1.305l.002.064H49v-.304c0 .028.144.057.144.085-.002 1.303.081 2.605.077 3.908-.001.126.127.143.234.142zm10.637 4.924c.38.491.888.667 1.484.55.624-.121.995-.535 1.085-1.163.043-.3.023-.603.016-.904 0-.264.009-.528-.002-.792-.016-.37-.126-.703-.419-.954-.45-.385-.962-.479-1.511-.278-.512.188-.829.557-.873 1.119a12.357 12.357 0 0 0-.005 1.753c.016.239.073.473.225.669zm.127-2.462c.076-.552.55-.914 1.087-.889.569.026.988.426 1.035 1 .022.276.026.553.042.866-.016.271-.012.582-.059.885a1.041 1.041 0 0 1-1.063.9c-.536-.008-.975-.359-1.045-.899a7.043 7.043 0 0 1 .003-1.863zm7.833 2.854c.074-.239.175-.47.25-.709.034-.11.087-.141.199-.139.534.007 1.069.006 1.603-.002.142-.002.197.049.237.174.078.245.168.485.257.727.035.096.228.166.328.108.1-.058.008-.132-.013-.19-.463-1.272-.932-2.542-1.396-3.815-.04-.107-.088-.155-.211-.156-.125-.001-.158.06-.194.156a771.97 771.97 0 0 1-1.414 3.849c-.051.139-.034.188.119.157.134.034.194-.03.235-.16zm1.262-3.551L70.167 43h-1.708l.855-2.404zm-28.616 5.699l-3.561-11.321-.013.026H33.47l6.001 17h2.491l5.964-17h-3.802zm80.648-2.965c.023-.228-.164-.297-.398-.311-.845-.048-.947-.06-.947-.907v-.213c0-.826.104-.808-.737-.817-.325-.003-.374.054-.364.388.024.851.061 1.53.061 2.53h.034c0 1-.042 1.939.013 2.893.05.871.485 1.274 1.339 1.376.853.104.935.025.916-.806-.005-.256-.058-.315-.325-.307-.549.021-.715-.163-.727-.73-.01-.515-.002-1.028-.002-1.542 0-.69.001-.708.692-.693.338.008.501-.073.447-.437a1.626 1.626 0 0 1-.002-.424zm-3.091 2.889c0-.55.007-1.101-.003-1.65-.009-.562-.197-1.038-.691-1.356-.929-.597-2.496-.407-3.24.403-.114.124-.383.292-.082.448.253.132.355.748.827.3.366-.348.81-.505 1.313-.436.306.042.623.126.634.518.01.411-.321.45-.623.507-.589.109-1.203.099-1.768.338-.663.28-.972.772-.95 1.505.02.637.371 1.128 1.013 1.352.753.262 1.495.205 2.218-.138.133-.063.251-.328.421.05.107.238.519.109.786.083.271-.027.133-.284.139-.433.018-.497.006-.994.006-1.491zm-2.588 1.012c-.073-.014-.253-.023-.416-.082a.523.523 0 0 1-.366-.474c-.016-.221.107-.366.289-.465.541-.296 1.174-.187 1.741-.39.147-.053.117.13.125.223.058.75-.408 1.185-1.373 1.188zm-2.121-4.24c-.215-.185-.61-.062-.921.032-.313.095-.561.285-.896.662.143-.627-.111-.725-.513-.661a.656.656 0 0 1-.212 0c-.385-.065-.514.063-.504.479.031 1.277.011 2.553.011 3.83 0 .844 0 .82.832.838.373.007.433-.132.422-.456-.021-.674-.009-1.348-.006-2.021.006-1.132.441-1.567 1.576-1.574.134-.001.315.075.301-.161-.019-.332.157-.755-.09-.968zM92.18 46.974c-.547.04-1.1-.014-1.647.018-.347.021-.404-.106-.401-.419.016-1.524.007-3.048.007-4.573 0-.927-.001-.904-.907-.92-.384-.007-.424.146-.418.461.016 1.01.006 2.021.006 3.031 0 1.063.001 2.127-.001 3.19 0 .218-.035.411.307.404 1.081-.02 2.163-.013 3.244-.002.238.002.316-.086.295-.31a1.543 1.543 0 0 1 0-.372c.054-.381-.064-.539-.485-.508zm32.514-4.073c-1.666-.013-2.908 1.157-2.894 2.721.015 1.502 1.232 2.674 2.787 2.681 1.597.007 2.815-1.147 2.826-2.68.011-1.532-1.165-2.71-2.719-2.722zm-.087 4.279c-.897-.009-1.548-.683-1.543-1.603.004-.879.666-1.561 1.526-1.571.876-.011 1.574.69 1.575 1.583h.001c.003.903-.68 1.598-1.559 1.591zm-17.378-4.279c-1.619-.002-2.801 1.129-2.805 2.682-.004 1.559 1.173 2.71 2.778 2.72 1.586.009 2.805-1.155 2.817-2.693.011-1.53-1.2-2.707-2.79-2.709zm-.023 4.279c-.883-.001-1.564-.705-1.551-1.603.013-.873.684-1.557 1.54-1.571.856-.014 1.576.71 1.578 1.586 0 .899-.68 1.588-1.567 1.588zM100 43.555v-1.611c0-.893-.129-.882-1.034-.86-.267.006-.432.065-.431.354.012 2.127-.027 4.254-.023 6.381 0 .112-.076.298.085.313.351.034.703.053 1.051.009.236-.029-.025-.362.176-.47.887.837 2.355.797 3.27-.083 1.03-.99 1.229-2.756.282-3.808-.947-1.049-2.376-1.163-3.376-.225zm1.155 3.569a1.506 1.506 0 0 1-1.521-1.557c.011-.861.689-1.501 1.581-1.49.851.011 1.464.667 1.449 1.549-.016.879-.648 1.507-1.509 1.498zM97.7 46.22c0-.551.004-1.101 0-1.65-.006-.564-.201-1.037-.692-1.355-.926-.599-2.496-.409-3.24.4-.113.123-.386.291-.085.448.254.133.357.746.828.301.367-.347.81-.504 1.313-.436.308.041.626.132.637.516.012.402-.315.45-.622.51-.555.107-1.13.092-1.668.304-.75.294-1.076.76-1.053 1.536.02.679.447 1.229 1.16 1.409.723.183 1.441.15 2.114-.224.149-.084.229-.213.377.077.123.242.518.112.785.086.274-.026.135-.283.141-.432.017-.495.005-.993.005-1.49zm-2.767.991c-.302-.051-.553-.174-.596-.503-.045-.35.21-.495.492-.59.518-.176 1.08-.119 1.625-.338.068 1.105-.5 1.606-1.521 1.431zm37.553-4.188a1.221 1.221 0 0 1-.372 0c-.41-.074-.5.1-.491.491.025 1.257.009 2.515.009 3.772 0 .909 0 .895.893.883.29-.003.351-.096.343-.363-.017-.726-.006-1.452-.006-2.179 0-.743-.015-1.488.009-2.231.008-.307-.09-.414-.385-.373zm-1.449.275c.032-.275-.074-.371-.356-.368-.582.003-1.076.171-1.523.658.123-.6-.224-.6-.602-.563a.893.893 0 0 1-.213-.001c-.338-.054-.452.067-.447.426.021 1.434.02 2.869.001 4.303-.004.325.08.458.411.409.141-.021.283-.021.424 0 .321.047.425-.063.412-.399a44.591 44.591 0 0 1-.007-2.284c.012-.869.544-1.417 1.408-1.349.478.038.532-.143.492-.514a1.301 1.301 0 0 1 0-.318zm6.92 2.839c0-.532.009-1.065-.003-1.597-.01-.565-.219-1.034-.715-1.343-.904-.563-2.413-.396-3.162.366-.129.132-.477.303-.113.522.241.145.368.716.829.262a1.475 1.475 0 0 1 1.317-.412c.313.05.612.151.604.542-.008.375-.314.418-.6.475-.555.11-1.131.094-1.67.301-.788.302-1.125.807-1.066 1.631.047.669.555 1.221 1.292 1.354.713.13 1.412.099 2.052-.306.096-.061.183-.228.286.045.145.383.514.15.773.167.285.018.166-.259.17-.409.015-.532.006-1.066.006-1.598zm-2.559 1.094c-.146-.003-.358-.015-.545-.134-.355-.227-.371-.64-.015-.862.544-.339 1.209-.197 1.789-.422.129-.05.109.139.115.234.048.759-.412 1.184-1.344 1.184zm5.38-3.991c-.328-.345-.436-.014-.62.132-.224.178-.324.332-.042.582.478.423.905.901 1.376 1.333.241.222.246.369.002.593a32.07 32.07 0 0 0-1.329 1.305c-.103.104-.33.195-.23.369.128.226.334.407.446.538.248.018.311-.085.383-.155.724-.706 1.437-1.424 2.167-2.124.209-.199.122-.314-.038-.47-.711-.697-1.429-1.384-2.115-2.103zm-54.147.712c.083-.083.204-.147.218-.438-.116-.092-.313-.24-.501-.398-.152-.128-.226.009-.306.087-.744.731-1.483 1.467-2.229 2.197-.146.143-.151.243-.001.389.738.713 1.47 1.431 2.194 2.157.363.365.463-.08.659-.199.24-.146.21-.311.007-.501-.49-.461-.953-.948-1.442-1.408-.206-.192-.201-.319.001-.51.477-.447.937-.913 1.4-1.376zm45.606-2.95c-.404.006-.75.35-.744.741.005.388.368.738.76.735a.749.749 0 0 0 .727-.752.718.718 0 0 0-.743-.724z" fill="#8F90AA"/><g fill="#8F90AA"><path d="M236.841 46.267a2.681 2.681 0 0 0-.234-.045c-.428-.056-.781-.239-1.04-.602-.536-.754-1.083-1.501-1.618-2.255-.138-.193-.128-.276.058-.424.373-.301.755-.594 1.144-.876.243-.176.521-.284.818-.334.105-.018.209-.039.312-.066.038-.011.098-.044.098-.069.004-.112.011-.232-.022-.335-.037-.115-.153-.059-.234-.052-.354.031-.705.08-1.059.099-.593.032-1.186.047-1.778.07-.132.005-.185.062-.193.203-.01.161.043.253.163.276.146.028.297.046.443.08.107.025.147.098.084.202-.053.087-.105.178-.173.254-.253.289-.511.573-.772.854-.2.212-.36.327-.653.346-.227.016-.182-.024-.182-.26V40h-.199l.048-2.794c.003-.162-.104-.157-.263-.115-.029.008-.058.071-.086.081-.68.23-1.359.481-2.036.716a.252.252 0 0 0-.125.13c-.057.144-.007.287.142.347.34.137.459.38.458.747-.008 2.047.002 4.096.002 6.143 0 .211-.018.423-.042.632-.021.189-.131.312-.322.342a6.872 6.872 0 0 1-.382.05c-.145.016-.202.092-.191.261.011.165.066.217.217.217 1.098-.002 2.195-.002 3.294-.002.123 0 .176-.052.188-.203.015-.164-.04-.258-.159-.274-.127-.019-.255-.033-.381-.057-.155-.029-.25-.129-.286-.283a1.083 1.083 0 0 1-.034-.226c-.011-.445-.016-.89-.021-1.335-.001-.054.01-.107.021-.161.021-.105.087-.147.192-.139.151.01.25.098.335.215.343.481.688.959 1.029 1.441.072.102.133.212.2.318.055.092.02.142-.072.166l-.234.055c-.122.03-.173.135-.146.296.024.134.091.184.217.184 1.137-.004 2.274-.006 3.412-.007.143 0 .2-.047.221-.203.017-.163-.03-.248-.159-.275zm-17.731-4.398c.052-.008.104-.019.155-.033.101-.027.158-.146.13-.286-.02-.103-.045-.194-.189-.193-.712.006-1.425.003-2.138.003-.134 0-.178.042-.197.194-.022.184.019.263.149.292.086.019.173.036.258.059.263.07.301.119.214.375-.151.451-.312.897-.481 1.341-.125.33-.265.654-.405 1-.031-.052-.051-.081-.066-.112-.248-.531-.501-1.062-.743-1.596-.104-.232-.188-.474-.281-.712-.048-.123-.008-.2.118-.23.176-.042.351-.087.528-.125.125-.028.177-.12.158-.304-.013-.117-.055-.19-.192-.183-.278.015-.559.024-.836.024-2.051-.003-4.102-.008-6.151-.016-.106 0-.156.045-.182.138-.058.202.011.324.215.37.244.056.469.139.604.375.048.085.099.169.141.258.666 1.389 1.334 2.778 1.991 4.172.087.184.203.25.391.249.19-.001.332-.037.429-.236.463-.951.94-1.893 1.414-2.839.022-.045.049-.089.083-.147l.049.09c.467.978.936 1.956 1.398 2.936.048.1.107.168.212.178.109.011.22.011.33 0 .104-.01.169-.074.213-.177.191-.45.382-.899.586-1.342.455-.989.921-1.973 1.375-2.961.146-.321.371-.519.72-.562zm-5.375 1.186c-.231.526-.478 1.046-.719 1.568l-.046-.01c-.066-.126-.137-.25-.199-.377-.268-.551-.533-1.104-.798-1.658a2.687 2.687 0 0 1-.108-.274c-.084-.256-.039-.354.224-.368a7.828 7.828 0 0 1 1.072.006c.343.028.636.403.626.755-.004.12-.006.251-.052.358zm-9.57-1.196l.012-.003c.11-.028.154-.125.132-.294-.018-.138-.069-.186-.193-.18-.266.011-.531.032-.796.03a41.887 41.887 0 0 1-1.328-.031c-.118-.004-.172.044-.199.15-.05.201.014.306.217.352.497.111.521.142.344.622-.25.67-.518 1.336-.779 2.004-.015.038-.035.073-.054.109l-.045.003-1.011-2.298c-.018-.041-.026-.086-.037-.129-.025-.098.003-.169.104-.195.185-.047.369-.093.553-.136.124-.029.172-.112.155-.279-.015-.162-.057-.203-.201-.202-1.762.014-3.524.03-5.287.039-.557.002-1.115-.022-1.674-.027-.057 0-.138.024-.168.067-.122.17-.04.4.16.43.37.055.597.273.753.605.674 1.42 1.355 2.836 2.03 4.256.06.128.148.185.275.195.073.005.149.005.225-.002a.304.304 0 0 0 .267-.186c.231-.481.47-.957.708-1.435.264-.528.532-1.055.806-1.599.024.038.035.053.043.069.455.949.912 1.896 1.363 2.848.13.275.182.316.483.304.163-.007.27-.067.345-.235.614-1.369 1.248-2.729 1.858-4.1.189-.43.455-.721.939-.752zm-5.551 1.319c-.211.479-.454.944-.685 1.414-.006.011-.017.02-.049.057-.282-.574-.557-1.127-.823-1.685a7.407 7.407 0 0 1-.285-.681c-.074-.209-.021-.291.197-.325a3.55 3.55 0 0 1 1.177.012c.27.048.551.382.551.67.001.18-.012.378-.083.538z"/><path d="M208.569 45.213c-.199.267-.453.464-.779.523a3.207 3.207 0 0 1-.726.048c-1.024-.055-1.794-.879-1.804-1.915-.002-.242.028-.273.271-.276.486-.004.469-.001 1.469-.001v-.011s.977.006 1.467-.002c.352-.006.466-.139.449-.496-.035-.739-.401-1.262-1.044-1.585-.527-.267-1.095-.309-1.672-.248-1.426.151-2.555 1.192-2.701 2.637-.085.84.127 1.59.721 2.2.857.88 2.472 1.115 3.601.536.497-.256.878-.63 1.152-1.122.074-.132.04-.257-.093-.345-.13-.086-.216-.07-.311.057zm-3.179-2.537c.135-.597.929-1.006 1.48-.765a.701.701 0 0 1 .369.845.275.275 0 0 1-.159.158 3.056 3.056 0 0 1-.494.085c-.126.013-.256.002-.384.002v-.018c-.2 0-.399.008-.598-.003-.204-.012-.261-.103-.214-.304zm18.495-.952c-1.311-.739-2.659-.725-3.96.037-.88.516-1.319 1.332-1.322 2.37-.005 1.116.496 1.924 1.484 2.413.552.274 1.143.368 1.92.377.168-.021.505-.043.832-.113 1.302-.283 2.229-1.137 2.316-2.527.068-1.102-.302-2.012-1.27-2.557zm-.808 2.607c.003.388-.021.773-.134 1.146a1.98 1.98 0 0 1-.103.262c-.307.64-1.071.757-1.556.241-.293-.315-.431-.708-.509-1.122-.137-.72-.15-1.438.06-2.149.066-.226.172-.433.339-.603.382-.394.949-.387 1.318.021.266.294.4.658.47 1.04.066.383.099.773.146 1.16l-.031.004z"/><path d="M227.821 42.38c.153.072.296.161.429.267.32.252.659.26 1.01.095.343-.161.509-.545.423-.943a.777.777 0 0 0-.755-.601c-.304-.009-.573.097-.825.255-.185.116-.359.246-.542.366-.116.075-.215.023-.211-.116.004-.152.03-.305.034-.457.002-.058-.014-.149-.051-.171-.064-.036-.171-.065-.229-.036-.639.325-1.313.555-2 .751-.098.028-.137.085-.146.179-.014.135.023.24.155.294.288.118.408.34.395.648-.003.054.003.108.003.163.001.737.003 1.475-.001 2.211a4.78 4.78 0 0 1-.042.632c-.034.244-.124.323-.36.36-.104.017-.212.022-.317.037-.13.017-.184.099-.172.262.013.163.062.213.207.209l1.678-.045c.629.016 1.208.026 1.787.045.146.004.171-.086.181-.195.019-.175-.03-.266-.148-.28a4.09 4.09 0 0 0-.332-.028c-.438-.021-.573-.094-.585-.636-.018-.859-.016-1.718-.015-2.577.001-.171.022-.34.063-.506.048-.21.171-.272.366-.183z"/></g><g fill="#8F90AA"><path d="M179.459 33.983c-4.029.003-8.058.003-12.086.003-4.038 0-8.075 0-12.113-.002-.127 0-.162.028-.162.16.004 3.354.004 6.709 0 10.063 0 .133.038.158.163.158 2.916-.003 5.833-.001 8.749-.005.131 0 .171.023.171.164-.005 3.11-.003 6.219-.009 9.329 0 .149.044.173.181.173 5.032-.003 10.064-.003 15.097 0 .136 0 .18-.024.18-.173-.004-6.567-.004-13.136 0-19.704-.001-.141-.039-.166-.171-.166zm-23.361 9.542c-.127 0-.16-.031-.16-.16.005-2.794.005-5.588 0-8.382 0-.127.03-.161.16-.161 3.755.004 7.51.003 11.266.003 3.754 0 7.51.001 11.265-.003.128 0 .159.031.159.16a3903.22 3903.22 0 0 0 0 8.382c0 .126-.029.16-.157.16-7.512-.002-15.023-.002-22.533.001zm22.689 9.512c.001.125-.029.152-.152.152-4.489-.003-8.979-.003-13.468 0-.137 0-.156-.043-.156-.165.004-2.835.004-5.671 0-8.507-.001-.13.033-.159.16-.159 2.247.004 4.494.002 6.741.002 2.237 0 4.475.001 6.713-.002.121 0 .163.02.163.155-.004 2.843-.004 5.684-.001 8.524z"/><path d="M167.431 40.299c.009-.139-.051-.162-.182-.147-.27.03-.354-.046-.356-.3-.005-.437 0-.875-.003-1.313 0-.076.018-.106.101-.108.13-.001.311.063.375-.027.065-.09.021-.261.023-.396.001-.009-.002-.019.001-.028.012-.078-.025-.096-.097-.092-.099.005-.198-.005-.296.003-.092.008-.111-.028-.107-.112.005-.16-.002-.32.003-.48.002-.071-.017-.1-.093-.098a10.16 10.16 0 0 1-.579 0c-.084-.002-.103.03-.101.107.005.165-.001.33.004.494.001.064-.014.098-.085.089-.038-.004-.075 0-.113 0-.223 0-.223 0-.223.219 0 .316 0 .318.316.324.08.001.105.022.104.103-.005.24-.002.48-.002.72 0 .235-.005.471.002.706.011.457.22.725.622.798.154.026.311.025.464-.003.262-.045.261-.047.238-.303-.004-.054-.018-.105-.016-.156zm6.158-.091c-.117-.02-.143-.071-.142-.185.004-.447.014-.896-.012-1.342-.035-.61-.511-.95-1.109-.822-.242.052-.419.2-.575.388a.708.708 0 0 1-.035-.26c.004-.083-.03-.102-.107-.101-.287.004-.575.011-.861-.002-.143-.006-.169.039-.164.17.01.304.003.309.295.362.08.014.11.034.109.12a98.947 98.947 0 0 0 0 1.541c.001.077-.027.102-.097.119-.273.068-.273.07-.273.354 0 .014.003.029 0 .042-.017.096.018.128.12.126.353-.007.706-.002 1.06-.002.268 0 .257 0 .271-.271.009-.159-.04-.233-.198-.241-.086-.004-.121-.05-.119-.147.007-.423.003-.848.003-1.271 0-.057 0-.109.04-.159.127-.155.411-.23.622-.159.173.059.261.2.262.438.002.391-.002.782.003 1.173.001.079-.028.103-.097.12-.236.061-.236.063-.236.304 0 .033.004.067-.001.099-.015.096.029.116.118.115.372-.004.744-.002 1.116-.002.236 0 .236 0 .236-.232-.001-.23.001-.237-.229-.275zm-5.515 10.011c-.109-.018-.141-.063-.14-.174.005-.541.002-1.083.002-1.625 0-.546-.001-1.093.003-1.64 0-.095-.022-.129-.123-.126-.298.006-.595.011-.892-.001-.139-.006-.173.035-.168.169.012.306.004.31.3.361.081.014.111.035.11.123-.003.928-.003 1.855 0 2.784.001.077-.025.104-.096.12-.274.066-.273.068-.273.354 0 .019.002.039-.001.056-.016.092.022.118.115.117.386-.006.772-.002 1.159-.002.233 0 .233 0 .233-.237.002-.235.003-.241-.229-.279zm.966-12.37c-.728-.098-1.213.251-1.399.969-.075.297-.039.609.025.909.098.461.365.824.829.968.494.153.824.128 1.231-.241.332-.301.273-.7.273-1.136v-.113c.001-.747-.261-1.262-.959-1.356zm.53 1.47c.006.205-.023.403-.114.589a.466.466 0 0 1-.456.271c-.208-.003-.369-.091-.447-.285a1.523 1.523 0 0 1-.002-1.167c.077-.195.235-.289.442-.292.211-.003.372.083.466.28.091.192.118.394.111.604zm7.573 2.242c-.866.005-1.732.003-2.599.003-.37 0-.365 0-.365.365 0 .098.029.102.127.101.481-.005.962-.029 1.441-.029h1.2c.341 0 .336.027.343-.319.002-.119-.029-.122-.147-.121zm-.616 7.725a1.83 1.83 0 0 0-.523-.202c-.178-.044-.363-.063-.53-.143-.211-.1-.243-.331-.062-.464.17-.124.361-.102.555-.055.173.042.244.155.256.32.008.116.063.161.182.144.12-.017.276.049.353-.027.071-.068.013-.223.018-.322 0-.064-.007-.113.002-.159.038-.184-.061-.271-.213-.339a2.087 2.087 0 0 0-1.212-.157.971.971 0 0 0-.633.365.735.735 0 0 0 .203 1.107c.18.106.377.167.58.212.159.035.322.066.468.147.104.059.176.142.159.273-.015.123-.094.193-.203.227a.907.907 0 0 1-.595-.019.16.16 0 0 1-.109-.117c-.031-.101-.02-.245-.107-.292-.085-.045-.211-.013-.319-.014-.038-.001-.076.002-.113-.001-.067-.006-.088.018-.084.089.008.146.011.292.001.438-.008.1.036.155.111.207a1.71 1.71 0 0 0 1.028.284c.327-.007.634-.076.89-.299a.743.743 0 0 0-.103-1.203zm-11.113-9.055c-.086-.018-.184-.007-.247-.106a38.254 38.254 0 0 0-.615-.929c-.034-.05-.038-.082.002-.133.142-.188.276-.38.414-.57a.169.169 0 0 1 .1-.071c.281-.078.28-.08.28-.367 0-.014-.003-.028.001-.042.015-.097-.021-.128-.123-.125-.361.006-.725.002-1.087.002-.194 0-.194 0-.193.191.001.089-.017.188.017.263.027.062.142.012.21.069-.12.171-.247.341-.362.517-.046.071-.105.075-.169.063-.078-.015-.039-.085-.039-.128-.003-.697-.003-1.394.001-2.091.001-.107-.026-.133-.132-.13-.311.007-.621.007-.933 0-.102-.002-.123.029-.122.125.004.337-.001.341.328.407.075.015.088.044.088.11-.002.932-.002 1.865.001 2.797 0 .069-.02.095-.089.112-.281.071-.28.075-.28.363 0 .028.002.057-.001.084-.004.052.011.077.069.076.443-.002.886-.001 1.329-.001.03 0 .07.005.071-.044.001-.127.002-.254-.002-.381-.001-.041-.039-.045-.071-.055-.083-.025-.206-.009-.244-.078-.041-.073-.014-.183-.015-.277-.002-.066-.006-.132.001-.197.005-.05-.037-.135.041-.141.096-.007.224-.058.29.037.145.206.269.427.41.656-.133-.014-.169.041-.156.148a.94.94 0 0 1 0 .225c-.009.088.022.111.109.11.287-.006.573-.002.861-.002.368 0 .365 0 .35-.375-.002-.072-.022-.097-.093-.112zm6.945 7.929c-.041-.039-.019-.088-.02-.131-.002-.419-.002-.838.002-1.257.001-.09-.021-.122-.116-.119-.287.006-.574.002-.861.002-.193 0-.193 0-.193.194 0 .277-.001.285.269.328.114.018.14.059.139.169a431.128 431.128 0 0 0-.001 3.009c0 .122-.053.28.021.354.073.073.231.02.353.021.293.003.293.001.336-.284.001-.006.013-.009.019-.014.402.57 1.448.474 1.72-.36.066-.207.101-.421.103-.638.005-.404-.042-.795-.261-1.151-.315-.51-1.141-.601-1.51-.123zm.94 1.677c-.049.188-.166.314-.369.339-.207.027-.393-.014-.537-.178a.237.237 0 0 1-.055-.168c.004-.174.001-.348.001-.522 0-.155.005-.311-.001-.466a.292.292 0 0 1 .089-.227.501.501 0 0 1 .844.167c.118.346.121.701.028 1.055zm-2.174.413c-.137.012-.146-.069-.145-.176.004-.414.003-.828.002-1.243-.002-.432-.206-.736-.614-.884-.486-.177-.958-.113-1.42.105-.163.077-.263.166-.228.36a.773.773 0 0 1 0 .24c-.016.131.021.191.165.172.089-.012.179-.012.268 0 .137.019.184-.044.187-.168.002-.077.013-.143.101-.182.437-.195.77.01.77.48 0 .019-.003.037 0 .056.012.077-.016.107-.099.103a5.994 5.994 0 0 0-.424 0 1.556 1.556 0 0 0-.721.165c-.299.16-.418.416-.394.749.026.338.187.584.509.693.424.144.815.077 1.159-.26.015.044.03.074.034.106.017.139.095.183.231.169.121-.012.244-.002.367-.002.369 0 .365 0 .356-.373 0-.08-.03-.116-.104-.11zm-1.187-.089c-.177.067-.361.1-.518-.042-.171-.158-.064-.469.184-.552a.862.862 0 0 1 .31-.033h.001c.296 0 .296 0 .296.271-.001.182-.071.278-.273.356zm1.918 6.601h-.003v-.311l-.002-.042c-.012-.196-.104-.317-.276-.362-.204-.051-.425.024-.514.177-.022.04-.057.095-.024.128.04.042.107.022.161.011.019-.003.027-.044.043-.067.07-.104.241-.128.337-.049.077.063.077.154.06.234-.017.077-.095.032-.144.036-.098.008-.196-.004-.291.032-.181.067-.257.199-.223.388.029.161.155.256.339.254a.435.435 0 0 0 .249-.083c.048-.034.075-.044.095.032.024.095.11.049.166.047.075-.002.025-.064.026-.098.004-.11.001-.219.001-.327zm-.212-.001c-.001.187-.238.327-.396.238-.055-.031-.074-.081-.072-.142.004-.079.046-.131.111-.166.101-.054.211-.028.316-.026.067.001.028.065.041.096zm-9.802-18.576c-.576-.617-1.675-.409-2.031.379-.146.325-.156.667-.132 1.01.04.536.393.995.878 1.134.467.134.922.076 1.355-.143.193-.099.192-.101.104-.306-.023-.056-.055-.109-.074-.167-.032-.094-.064-.135-.175-.071a1.228 1.228 0 0 1-.636.157c-.358-.003-.579-.188-.652-.537-.021-.099.01-.108.094-.106.246.004.49.001.735.001.249 0 .499-.002.749.002.079.001.107-.022.104-.104-.007-.131.004-.264-.004-.395-.016-.316-.091-.615-.315-.854zm-.444.795c-.016.059-.055.04-.088.04-.131.002-.263.001-.395.001-.122 0-.244.001-.367-.001-.031-.001-.072.017-.074-.05-.009-.334.286-.592.602-.521.202.047.375.336.322.531zm9.357 17.071c-.087.003-.154.058-.224.135-.001-.107-.039-.151-.137-.14-.109.012-.06.092-.061.14-.005.292.001.583-.004.874-.002.082.012.115.104.113.087-.002.099-.033.097-.107-.005-.188-.001-.376-.001-.564 0-.213.031-.255.242-.272.107-.009.089-.087.089-.143.002-.081-.071-.036-.105-.036zm1.815-.01c-.091.015-.157.075-.231.157-.004-.113-.024-.188-.144-.161-.107.025-.05.107-.052.158-.006.292 0 .582-.005.874-.001.078.019.104.101.103.079 0 .104-.02.103-.101-.006-.217.001-.434-.004-.649-.004-.116.063-.174.152-.209.18-.068.318.026.326.228.008.216.006.433.002.648-.002.076.029.086.091.081.054-.004.111.017.109-.079-.007-.235.004-.47-.007-.705-.011-.255-.189-.387-.441-.345zm2.212-.506c-.229-.029-.373.112-.384.374-.003.063.032.155-.092.14-.068-.009-.072.031-.075.085-.004.066.025.084.082.074.086-.013.087.04.086.103-.003.127 0 .254 0 .38v.001c0 .127.005.254-.003.381-.004.084.027.099.104.1.081.001.102-.025.101-.104-.006-.249 0-.499-.003-.748-.002-.077.004-.13.102-.113.053.008.098.006.099-.075 0-.088-.046-.086-.106-.086-.03.001-.067.017-.089-.021-.072-.119.032-.316.178-.323.061-.003.094-.015.1-.083.008-.083-.049-.079-.1-.085zm-7.011.518c-.066.019-.051.094-.062.143-.054.209-.098.42-.152.66-.08-.256-.151-.479-.217-.704-.019-.064-.035-.108-.118-.108-.09 0-.094.058-.111.115l-.211.695c-.061-.263-.117-.494-.167-.727-.024-.115-.111-.086-.177-.077-.09.011-.033.079-.023.118.082.299.166.597.249.894.016.057.021.112.111.112.084-.001.1-.046.117-.106.066-.226.136-.451.214-.706.08.256.152.481.22.708.02.065.038.104.119.104.089 0 .094-.055.11-.114.081-.294.164-.587.244-.881.01-.038.049-.089.017-.117-.043-.036-.112-.023-.163-.009zm7.602-.015a.395.395 0 0 0-.38.197.696.696 0 0 0-.01.734c.086.158.234.227.411.219a.43.43 0 0 0 .395-.249c.1-.2.103-.408.021-.613-.076-.195-.225-.288-.437-.288zm.252.787c-.037.122-.121.196-.244.198-.131.002-.215-.078-.256-.203-.023-.068-.023-.138-.026-.208h-.001a.608.608 0 0 1 .042-.249c.047-.104.122-.165.239-.163.118.001.196.063.236.168.056.15.056.304.01.457zm-6.963-.772c-.238-.074-.468.041-.567.288a.755.755 0 0 0-.029.444c.081.429.515.48.778.327.051-.029.091-.054.05-.131-.046-.085-.079-.039-.127-.013-.227.121-.427.053-.489-.162-.031-.104-.021-.172.115-.155.07.009.142.001.212.001h.269c.041 0 .066-.004.075-.058.037-.229-.092-.481-.287-.541zm.01.437l-.401.001a.348.348 0 0 1 .068-.199c.067-.091.161-.112.264-.076.103.036.127.13.143.225.011.064-.04.049-.074.049zm1.392-.282c.056.011.074-.018.069-.072-.005-.04.01-.1-.058-.087-.169.03-.148-.082-.144-.184.002-.066.004-.128-.096-.107-.101-.025-.115.029-.11.115.005.088.034.196-.127.179-.062-.007-.045.057-.049.097-.006.051.024.068.068.061.104-.017.111.041.109.122-.002.212-.005.423.01.634.013.173.183.267.34.211.054-.019.063-.048.053-.095-.007-.036-.005-.071-.066-.063-.107.015-.134-.058-.133-.149.001-.169.005-.338-.003-.508-.001-.103.002-.18.137-.154zm3.821.375c-.1-.039-.206-.059-.308-.092-.066-.022-.116-.064-.106-.145.008-.074.053-.119.123-.135.117-.027.218-.004.273.113.047.101.137.064.191.042.051-.02.006-.091-.018-.132-.08-.147-.212-.205-.376-.196-.209.001-.369.11-.394.27-.025.173.063.282.29.351.081.025.165.04.241.075.105.047.122.155.047.229-.105.104-.353.073-.396-.067-.039-.121-.131-.104-.185-.077-.071.036-.021.116.009.171.096.172.344.247.575.17.134-.044.228-.127.24-.28.015-.158-.074-.245-.206-.297zm4.87-.831h.001v.004h-.001z"/><path d="M178.936 55.567c-.228 0-.41.199-.411.449-.002.253.173.445.406.448.234.002.416-.187.42-.437.002-.255-.182-.46-.415-.46zm.159.774a.33.33 0 0 1-.434-.113c-.104-.157-.073-.385.063-.484.015-.011.021.001.029.01-.02-.048.025-.055.051-.066a.33.33 0 0 1 .431.159c.087.172.021.403-.14.494zm-19.749-16.018c.008-.154-.052-.19-.205-.17-.233.03-.33-.049-.333-.252-.007-.462-.001-.924-.003-1.386-.001-.061.02-.084.081-.083.099.003.198-.006.297.003.104.01.128-.032.122-.128a2.518 2.518 0 0 1 0-.325c.003-.073-.018-.101-.094-.096-.104.006-.208-.003-.311.002-.074.004-.1-.02-.098-.095.006-.16-.004-.321.004-.48.006-.097-.031-.118-.119-.115-.18.006-.358.006-.537 0-.088-.003-.127.015-.119.113.009.127.002.254.002.381 0 .194 0 .194-.189.194-.227 0-.227 0-.227.229 0 .306 0 .309.313.314.079.001.106-.114.104-.032-.006.245-.002.601-.002.601h.003c0 1-.006.615.001.855.016.501.307.847.807.85.122.002.244.025.365.003.182-.036.182-.017.158-.206-.008-.062-.022-.112-.02-.177zm18.72 15.732c-.159-.049-.307-.016-.413.129-.011.013-.027.022-.041.033-.15-.227-.337-.246-.614-.049.013-.12-.048-.139-.136-.13-.103.01-.054.086-.054.129-.005.301 0 .603-.004.904-.001.079.02.103.1.103s.104-.022.102-.103c-.006-.216-.003-.433-.001-.649.001-.128.079-.209.206-.221.151-.013.236.077.243.275a9.45 9.45 0 0 1 0 .607c-.002.083.032.091.1.089.06-.003.106.005.104-.085-.009-.188-.001-.376-.004-.564 0-.068.007-.133.037-.192.047-.089.121-.141.229-.128.106.011.156.078.172.176.009.055.014.112.015.168.002.184.004.367-.001.55-.002.083.044.078.098.075.048-.002.104.018.103-.07-.005-.234.003-.471-.008-.706-.008-.156-.072-.292-.233-.341zm-1.519-.005c-.096-.001-.169.05-.253.141.009-.124-.044-.156-.138-.143-.104.014-.054.094-.055.143-.005.296 0 .592-.004.889-.002.076.024.093.095.093.073 0 .111-.008.106-.097-.007-.173-.001-.348-.001-.522 0-.271-.001-.272.261-.326.091-.019.068-.093.071-.146.006-.066-.055-.031-.082-.032z"/><path d="M178.805 56.264c.07.005.047-.051.055-.089.008-.036-.027-.091.036-.104a.169.169 0 0 1 .094.012c.039.02.033.064.033.102 0 .045.001.089.065.079.063-.01.031-.061.03-.09-.002-.089-.046-.169-.004-.271.031-.08-.058-.141-.148-.146-.069-.003-.138 0-.208.001.001.14.001.28.005.42 0 .034-.02.083.042.086zm.116-.429c.047.006.1.006.102.068.003.057-.036.079-.103.08-.039.006-.065-.013-.061-.069.002-.042-.004-.087.062-.079z"/><path d="M178.758 55.758v-.003l-.004.003z"/></g><path d="M82.557 83.306a2.08 2.08 0 0 0-.151-.016 1.472 1.472 0 0 0-.154-.008.85.85 0 0 0-.403.083.526.526 0 0 0-.228.243v2.078h-.848V82.51h.802l.023.378a.948.948 0 0 1 .296-.321.725.725 0 0 1 .411-.116.91.91 0 0 1 .143.012c.05.009.09.017.122.026l-.013.817zm1.815 2.439a1.71 1.71 0 0 1-.662-.12 1.417 1.417 0 0 1-.808-.817 1.662 1.662 0 0 1-.107-.602v-.113c0-.241.035-.462.105-.662.069-.2.168-.373.296-.519a1.35 1.35 0 0 1 .467-.34 1.52 1.52 0 0 1 .615-.121c.228 0 .43.038.604.112.174.077.32.183.439.317.118.137.208.301.267.493.059.191.089.404.089.64v.361h-2.023a.894.894 0 0 0 .084.281.692.692 0 0 0 .392.355.817.817 0 0 0 .296.052c.154 0 .297-.029.428-.088a.84.84 0 0 0 .337-.27l.417.468a1.196 1.196 0 0 1-.191.211 1.468 1.468 0 0 1-.621.313 1.69 1.69 0 0 1-.424.049zm-.097-2.606a.571.571 0 0 0-.242.048.532.532 0 0 0-.179.136.72.72 0 0 0-.122.206c-.031.081-.054.17-.067.268h1.18v-.067a.844.844 0 0 0-.037-.235c-.022-.071-.057-.135-.103-.188s-.105-.094-.176-.123a.617.617 0 0 0-.254-.045zm4.747.989c0 .239-.026.457-.077.654a1.52 1.52 0 0 1-.23.512 1.064 1.064 0 0 1-.386.332c-.154.08-.335.119-.542.119-.184 0-.343-.035-.478-.104a1.057 1.057 0 0 1-.348-.293l-.038.338h-.763v-4.51h.849v1.618c.094-.109.204-.193.33-.254.126-.061.273-.09.442-.09.207 0 .389.04.544.121.155.08.285.19.388.334.104.144.182.313.233.512.05.196.076.413.076.647v.064zm-.848-.063c0-.125-.008-.243-.026-.356a.914.914 0 0 0-.096-.295.532.532 0 0 0-.187-.198.538.538 0 0 0-.3-.074.64.64 0 0 0-.35.087.561.561 0 0 0-.208.244v1.254a.581.581 0 0 0 .208.247.64.64 0 0 0 .355.089c.12 0 .218-.024.295-.071a.525.525 0 0 0 .186-.194.906.906 0 0 0 .096-.295c.017-.114.026-.239.026-.374v-.064h.001zm3.212 1.622a.926.926 0 0 1-.085-.284 1.036 1.036 0 0 1-.802.343c-.153 0-.295-.023-.427-.07-.132-.047-.247-.112-.343-.196s-.173-.185-.228-.302a.876.876 0 0 1-.082-.382c0-.167.031-.315.092-.443a.865.865 0 0 1 .277-.329 1.32 1.32 0 0 1 .459-.206c.184-.048.396-.07.639-.07h.379v-.183c0-.146-.038-.264-.113-.352s-.194-.132-.357-.132a.497.497 0 0 0-.335.103.348.348 0 0 0-.122.282h-.849c0-.138.032-.268.096-.391a.968.968 0 0 1 .271-.323c.117-.091.259-.166.426-.219.166-.054.352-.081.558-.081.184 0 .354.023.511.07.157.048.292.117.405.211a.945.945 0 0 1 .266.349c.063.141.095.303.095.489v1.344a2.71 2.71 0 0 0 .031.436.9.9 0 0 0 .095.286v.05h-.857zm-.702-.589a.746.746 0 0 0 .367-.095.617.617 0 0 0 .215-.213v-.547h-.35c-.111 0-.208.013-.291.036a.54.54 0 0 0-.203.104c-.053.044-.092.096-.117.155s-.038.125-.038.195c0 .106.037.192.111.262a.439.439 0 0 0 .306.103zm2.983-2.587v3.353c0 .177-.025.336-.074.473a.945.945 0 0 1-.211.35c-.092.094-.206.165-.339.213s-.287.071-.46.071a1.617 1.617 0 0 1-.419-.05v-.672a2.22 2.22 0 0 0 .267.027c.124 0 .219-.033.285-.099.066-.066.1-.171.1-.313v-3.353h.851zm-.919-.823c0-.127.043-.23.128-.313a.48.48 0 0 1 .348-.124.48.48 0 0 1 .348.124.418.418 0 0 1 .127.313.445.445 0 0 1-.129.318.446.446 0 0 1-.15.092.586.586 0 0 1-.197.032.571.571 0 0 1-.196-.032.421.421 0 0 1-.246-.232.466.466 0 0 1-.033-.178zm3.423 3.999a.926.926 0 0 1-.085-.284 1.032 1.032 0 0 1-.802.343c-.153 0-.295-.023-.427-.07s-.247-.112-.343-.196a.89.89 0 0 1-.31-.684c0-.167.031-.315.092-.443a.865.865 0 0 1 .277-.329c.124-.091.277-.159.459-.206a2.54 2.54 0 0 1 .639-.07h.379v-.183a.526.526 0 0 0-.113-.352c-.076-.088-.194-.132-.357-.132a.502.502 0 0 0-.336.103.351.351 0 0 0-.122.282h-.848c0-.138.032-.268.096-.391a.968.968 0 0 1 .271-.323 1.37 1.37 0 0 1 .426-.219c.167-.054.353-.081.558-.081.184 0 .354.023.511.07.157.048.292.117.405.211a.942.942 0 0 1 .265.349c.064.141.096.303.096.489v1.344a2.916 2.916 0 0 0 .032.436.86.86 0 0 0 .094.286v.05h-.857zm-.702-.589a.746.746 0 0 0 .367-.095.617.617 0 0 0 .215-.213v-.547h-.349c-.112 0-.209.013-.292.036a.556.556 0 0 0-.203.104.417.417 0 0 0-.117.155.502.502 0 0 0-.038.195c0 .106.037.192.112.262a.436.436 0 0 0 .305.103zm2.907-3.357v.77h.593v.419h-.593v1.97c0 .082.009.147.029.198.019.05.045.088.078.116a.262.262 0 0 0 .111.054.798.798 0 0 0 .273 0l.116-.022v.44a1.359 1.359 0 0 1-.417.059.947.947 0 0 1-.284-.042.585.585 0 0 1-.233-.142.713.713 0 0 1-.159-.264 1.168 1.168 0 0 1-.059-.4V82.93h-.579v-.419h.579v-.77h.545zm3.188 3.632c-.1.117-.226.209-.378.274a1.408 1.408 0 0 1-.552.098c-.157 0-.298-.022-.426-.065a.842.842 0 0 1-.329-.209.952.952 0 0 1-.213-.366 1.721 1.721 0 0 1-.075-.542v-2.052h.543v2.058c0 .143.017.261.049.354a.57.57 0 0 0 .133.22.434.434 0 0 0 .188.112c.071.021.144.03.217.03.222 0 .399-.041.533-.125a.754.754 0 0 0 .295-.338v-2.311h.543v3.176h-.517l-.011-.314zm3.204-.529a.534.534 0 0 0-.026-.166.348.348 0 0 0-.104-.146.755.755 0 0 0-.222-.129 2.38 2.38 0 0 0-.379-.108 3.437 3.437 0 0 1-.475-.132c-.141-.052-.261-.112-.36-.184s-.175-.155-.227-.254a.712.712 0 0 1-.08-.343.78.78 0 0 1 .084-.356.925.925 0 0 1 .237-.298c.102-.085.225-.153.37-.202.145-.05.306-.075.484-.075.19 0 .36.025.509.078.149.052.277.123.382.214a.897.897 0 0 1 .321.701h-.546a.484.484 0 0 0-.044-.196.554.554 0 0 0-.129-.177.659.659 0 0 0-.208-.125.784.784 0 0 0-.285-.049c-.113 0-.209.014-.289.04s-.144.062-.195.105a.419.419 0 0 0-.147.321c0 .059.01.112.029.159.02.047.057.089.112.127a.832.832 0 0 0 .225.105c.095.033.218.065.368.1.194.044.362.096.505.151.143.058.261.123.355.199a.72.72 0 0 1 .209.259c.046.1.069.212.069.341a.812.812 0 0 1-.335.678 1.19 1.19 0 0 1-.387.193 1.751 1.751 0 0 1-.502.068c-.211 0-.397-.029-.56-.088a1.269 1.269 0 0 1-.406-.233.984.984 0 0 1-.25-.332.902.902 0 0 1-.085-.383h.543a.564.564 0 0 0 .261.464c.072.047.152.08.238.1.086.021.172.03.258.03.112 0 .209-.012.294-.035a.7.7 0 0 0 .213-.098.41.41 0 0 0 .13-.146.354.354 0 0 0 .045-.178zm2.486.219c.079 0 .15-.013.214-.035s.121-.054.167-.095a.429.429 0 0 0 .11-.149.483.483 0 0 0 .042-.193h.796a1.122 1.122 0 0 1-.385.831 1.24 1.24 0 0 1-.415.239c-.16.057-.332.085-.515.085-.247 0-.462-.041-.646-.124-.184-.083-.336-.197-.458-.341s-.212-.313-.273-.508a2.095 2.095 0 0 1-.091-.63v-.082c0-.226.031-.437.091-.631.061-.196.151-.366.273-.512.122-.145.274-.258.456-.343.183-.083.397-.124.642-.124.196 0 .374.028.536.086.162.059.3.142.416.249s.205.237.27.391c.065.154.098.326.1.517h-.796a.673.673 0 0 0-.04-.216.516.516 0 0 0-.104-.176.475.475 0 0 0-.167-.119.554.554 0 0 0-.229-.044.537.537 0 0 0-.302.077.53.53 0 0 0-.184.203.918.918 0 0 0-.089.296c-.015.11-.023.226-.023.346v.082c0 .121.008.238.023.349a.93.93 0 0 0 .089.294.517.517 0 0 0 .184.201.573.573 0 0 0 .308.076zm3.717.301c-.1.12-.221.215-.364.281-.143.067-.311.1-.505.1-.157 0-.3-.022-.429-.065-.129-.045-.24-.114-.333-.209s-.166-.217-.216-.366a1.708 1.708 0 0 1-.076-.539v-2.055h.848v2.061a.68.68 0 0 0 .034.226.364.364 0 0 0 .237.235.58.58 0 0 0 .182.026.77.77 0 0 0 .373-.079.55.55 0 0 0 .221-.22v-2.249h.852v3.176h-.799l-.025-.323zm2.925.381c-.247 0-.468-.039-.663-.12a1.417 1.417 0 0 1-.808-.817 1.687 1.687 0 0 1-.107-.602v-.113c0-.241.035-.462.104-.662s.168-.373.297-.519c.128-.145.284-.258.466-.34.184-.08.388-.121.615-.121.229 0 .431.038.605.112.174.077.321.183.438.317.118.137.208.301.268.493.06.191.089.404.089.64v.361h-2.022c.013.103.042.197.083.281s.096.155.161.217a.702.702 0 0 0 .23.138.817.817 0 0 0 .296.052c.155 0 .298-.029.429-.088a.846.846 0 0 0 .337-.27l.417.468a1.263 1.263 0 0 1-.461.395 1.688 1.688 0 0 1-.774.178zm-.097-2.606a.576.576 0 0 0-.243.048.542.542 0 0 0-.179.136.72.72 0 0 0-.122.206c-.032.081-.054.17-.068.268h1.181v-.067a.882.882 0 0 0-.037-.235.521.521 0 0 0-.103-.188.45.45 0 0 0-.176-.123.618.618 0 0 0-.253-.045zm2.665-.628l.027.366c.109-.138.242-.243.396-.315.155-.073.327-.11.517-.11.15 0 .288.021.411.063a.748.748 0 0 1 .317.207.994.994 0 0 1 .205.376c.048.154.072.344.072.569v2.02h-.849v-2.025a.806.806 0 0 0-.033-.252.354.354 0 0 0-.258-.243.832.832 0 0 0-.217-.024.599.599 0 0 0-.321.082.628.628 0 0 0-.216.224v2.239h-.849v-3.176h.798zm3.602-.782v.781h.544v.622h-.544v1.586c0 .065.008.121.021.163a.23.23 0 0 0 .062.102.224.224 0 0 0 .101.05.66.66 0 0 0 .142.013c.051 0 .098-.001.14-.005.042-.005.079-.009.11-.014v.643c-.07.021-.147.039-.23.053a1.513 1.513 0 0 1-.283.022c-.139 0-.264-.017-.376-.052a.692.692 0 0 1-.47-.452 1.318 1.318 0 0 1-.064-.433v-1.676h-.464v-.622h.464v-.781h.847zm2.857 3.958a.954.954 0 0 1-.085-.284 1.03 1.03 0 0 1-.802.343c-.152 0-.295-.023-.427-.07s-.247-.112-.344-.196a.89.89 0 0 1-.309-.684c0-.167.03-.315.092-.443a.865.865 0 0 1 .277-.329c.124-.091.277-.159.459-.206.184-.048.396-.07.639-.07h.378v-.183c0-.146-.038-.264-.113-.352s-.194-.132-.357-.132a.502.502 0 0 0-.336.103.351.351 0 0 0-.122.282h-.848c0-.138.032-.268.096-.391a.968.968 0 0 1 .271-.323 1.38 1.38 0 0 1 .426-.219c.167-.054.354-.081.559-.081.184 0 .354.023.511.07.157.048.292.117.406.211a.956.956 0 0 1 .266.349c.063.141.095.303.095.489v1.344a2.208 2.208 0 0 0 .032.436.977.977 0 0 0 .094.286v.05h-.858zm-.701-.589a.733.733 0 0 0 .367-.095.617.617 0 0 0 .214-.213v-.547h-.349c-.112 0-.21.013-.292.036a.556.556 0 0 0-.203.104.417.417 0 0 0-.117.155.502.502 0 0 0-.038.195c0 .106.037.192.112.262a.439.439 0 0 0 .306.103zm3.805-.289a.267.267 0 0 0-.027-.122.266.266 0 0 0-.1-.105.989.989 0 0 0-.199-.092 2.697 2.697 0 0 0-.326-.086c-.164-.035-.314-.079-.451-.132s-.257-.118-.358-.197a.855.855 0 0 1-.235-.272.726.726 0 0 1-.086-.36c0-.134.029-.26.087-.379a.964.964 0 0 1 .249-.316c.11-.091.242-.163.399-.215a1.64 1.64 0 0 1 .533-.08c.207 0 .391.025.554.076.165.052.305.123.419.212.114.092.201.2.264.326a.909.909 0 0 1 .093.411h-.85a.41.41 0 0 0-.117-.302c-.078-.079-.2-.119-.366-.119a.51.51 0 0 0-.332.097.305.305 0 0 0-.118.247c0 .048.011.089.032.126a.32.32 0 0 0 .099.099c.046.03.106.059.182.084s.168.048.278.07c.171.033.332.074.479.124.146.049.273.111.38.189a.85.85 0 0 1 .251.28c.06.111.09.245.09.401a.813.813 0 0 1-.094.389.916.916 0 0 1-.269.308 1.368 1.368 0 0 1-.422.202 1.924 1.924 0 0 1-.551.073 1.69 1.69 0 0 1-.591-.094 1.42 1.42 0 0 1-.43-.246 1.044 1.044 0 0 1-.262-.343.934.934 0 0 1-.088-.386h.805a.482.482 0 0 0 .055.213c.032.06.075.108.127.146a.587.587 0 0 0 .183.082c.07.018.143.025.218.025.164 0 .287-.029.37-.092s.125-.142.125-.242zm1.101.757a.16.16 0 0 1 .038-.109.155.155 0 0 1 .118-.044c.051 0 .091.016.117.044.027.03.041.066.041.109a.146.146 0 0 1-.041.105c-.026.028-.066.043-.117.043-.053 0-.091-.015-.118-.043a.15.15 0 0 1-.038-.105zm1.325-.046a.352.352 0 0 0 .313-.173.28.28 0 0 0 .035-.115h.239a.432.432 0 0 1-.053.188.58.58 0 0 1-.311.264.671.671 0 0 1-.513-.019.596.596 0 0 1-.206-.161.689.689 0 0 1-.123-.234.945.945 0 0 1-.041-.283v-.057c0-.101.013-.194.041-.283a.623.623 0 0 1 .327-.396.673.673 0 0 1 .29-.059c.086 0 .166.013.236.041a.528.528 0 0 1 .353.494h-.24a.36.36 0 0 0-.103-.231.336.336 0 0 0-.247-.095.354.354 0 0 0-.318.169c-.032.05-.054.106-.067.17s-.019.127-.019.191v.057c0 .065.006.13.019.193s.035.12.066.17a.356.356 0 0 0 .322.169zm.804-.574c0-.107.016-.207.047-.299a.694.694 0 0 1 .134-.238.601.601 0 0 1 .211-.158.663.663 0 0 1 .279-.058.67.67 0 0 1 .282.058.618.618 0 0 1 .213.158.747.747 0 0 1 .134.238.928.928 0 0 1 .046.299v.029a.938.938 0 0 1-.046.3.641.641 0 0 1-.627.451.624.624 0 0 1-.491-.214.676.676 0 0 1-.135-.237.934.934 0 0 1-.047-.3v-.029zm.255.03c0 .074.008.144.025.209a.541.541 0 0 0 .078.174.37.37 0 0 0 .315.161.373.373 0 0 0 .315-.161.533.533 0 0 0 .079-.174.782.782 0 0 0 .026-.209v-.029a.793.793 0 0 0-.026-.209.539.539 0 0 0-.08-.173.386.386 0 0 0-.131-.12.392.392 0 0 0-.185-.043.373.373 0 0 0-.313.163.547.547 0 0 0-.078.173.837.837 0 0 0-.025.209v.029zm1.646-.756l.006.164a.566.566 0 0 1 .184-.141.616.616 0 0 1 .254-.05c.096 0 .18.02.253.057s.13.098.169.181c.05-.071.113-.128.191-.172s.172-.065.28-.065c.079 0 .149.01.21.03a.376.376 0 0 1 .155.097.418.418 0 0 1 .096.166.778.778 0 0 1 .034.241v.972h-.253v-.975a.456.456 0 0 0-.022-.154.252.252 0 0 0-.063-.098.232.232 0 0 0-.1-.051.526.526 0 0 0-.13-.016.405.405 0 0 0-.139.024.361.361 0 0 0-.102.067.355.355 0 0 0-.1.22v.983h-.254v-.973a.455.455 0 0 0-.022-.147.275.275 0 0 0-.065-.099.253.253 0 0 0-.099-.056.402.402 0 0 0-.129-.019c-.092 0-.164.021-.218.06s-.096.09-.124.152V85.7h-.252v-1.48h.24zm-62.727-3.909v4.034c0 1.389.542 2.696 1.526 3.68a5.173 5.173 0 0 0 3.68 1.526 5.211 5.211 0 0 0 5.206-5.206c0-2.695-2.104-4.974-4.791-5.188l-.226-.019-.103-.542-2.205 1.505 2.688 1.058-.084-.557.435.109a3.747 3.747 0 0 1 2.828 3.634c0 2.067-1.682 3.749-3.749 3.749s-3.749-1.682-3.749-3.749l.004-4.034h-1.46zm7.427 3.937h-1.456v2.55a2.327 2.327 0 0 0 1.456-1.522v-1.028zm-2.985-1.942h-1.456v2.97c.213.712.76 1.279 1.456 1.522v-4.492z" fill="#8F90AA"/><g fill="#8F90AA"><path d="M40.281 75.463c.076.457.098.898.1 1.34.012 2.732.016 5.465.032 8.197.001.227-.101.226-.269.229-.18.005-.261-.024-.261-.237.007-3.509.004-7.018.006-10.527 0-.1-.05-.252.143-.23.172.018.381-.1.468.198.445 1.524.908 3.043 1.365 4.563.489 1.625.99 3.246 1.443 4.886 0-.316.009-.634-.001-.95-.092-2.824-.025-5.65-.052-8.476-.002-.229.104-.224.271-.229.185-.007.258.029.257.24-.006 3.5-.004 6.998-.009 10.499 0 .088.084.263-.109.252-.177-.009-.406.123-.499-.191-.405-1.38-.831-2.754-1.244-4.132-.531-1.771-1.111-3.527-1.521-5.333-.008-.037-.009-.076-.12-.099zm9.98-5.261a9.404 9.404 0 0 0-1.789 1.738c-2.084 2.689-3.159 5.696-2.838 9.134.071.765.194 1.521.501 2.232.161.373.37.716.685.979.468.394 1.003.463 1.583.32.149-.036.214-.105.213-.27a398.584 398.584 0 0 1 0-3.788c0-.158-.042-.213-.204-.207-.29.013-.581-.012-.87.01-.236.017-.24-.115-.217-.273.02-.14-.106-.357.204-.348.477.016.954.01 1.431.001.159-.003.208.046.207.206a776.666 776.666 0 0 0 0 4.827c0 .143-.05.215-.174.279-1.104.573-2.29.283-2.992-.739-.516-.751-.747-1.609-.865-2.492-.435-3.234.204-6.229 2.072-8.93a8.946 8.946 0 0 1 2.722-2.593c.071-.044.146-.079.222-.115.012-.005.034.01.109.029zm-13.303 5.345c.577 3.132 1.155 6.263 1.728 9.395.018.095.13.272-.074.271-.162-.001-.414.165-.474-.194-.186-1.114-.404-2.224-.592-3.337-.033-.198-.11-.236-.289-.233-.533.01-1.066.017-1.599-.003-.211-.008-.266.072-.298.258-.186 1.085-.383 2.17-.576 3.255a.356.356 0 0 1-.507.262c-.125-.059-.049-.166-.036-.245.164-.929.333-1.855.502-2.783l1.092-6.008c.165-.088.329-.176.493-.262-.074.508-.14 1.017-.224 1.523a262.765 262.765 0 0 1-.541 3.174c-.031.173-.005.228.182.223.477-.014.953-.008 1.43-.002.139 0 .198-.018.168-.187-.279-1.608-.549-3.22-.821-4.831.127-.122.275-.208.436-.276zm13.553 4.183c0-1.73.004-3.459-.005-5.189-.001-.233.036-.324.3-.316.803.02 1.608.021 2.412 0 .311-.008.231.18.24.343.01.177.024.319-.247.31-.635-.023-1.271-.004-1.907-.01-.166-.003-.247.019-.245.222.01 1.28.008 2.562.001 3.843-.001.176.054.221.223.219.599-.01 1.198.01 1.795-.01.266-.01.231.146.22.301-.011.145.095.348-.212.338-.598-.018-1.197.002-1.795-.01-.186-.004-.232.053-.231.234.007 1.449.007 2.898 0 4.349-.001.191.043.254.245.251.692-.013 1.384.008 2.076-.012.25-.008.254.114.233.284-.018.148.105.362-.222.354a79.933 79.933 0 0 0-2.637-.001c-.201.002-.248-.06-.247-.253.006-1.748.003-3.498.003-5.247zm-7.899 12.964c-.031-1.786-.01-3.573-.012-5.359 0-.207.003-.412-.001-.618-.002-.122-.003-.212.169-.213.159-.001.184.062.184.198-.003 2.255-.002 4.511-.002 6.766 0 .09.024.192-.129.189-.135-.004-.238.003-.29-.176-.251-.87-.522-1.735-.783-2.603-.319-1.064-.666-2.121-.931-3.201-.011-.048.002-.118-.07-.138v1.508c.002 1.449.005 2.9.006 4.351 0 .117.059.263-.171.263-.226 0-.175-.14-.175-.261-.001-2.208-.002-4.417.003-6.625 0-.098-.084-.251.133-.27.189-.017.254.063.303.23.559 1.929 1.18 3.839 1.704 5.778.016.062.041.121.062.181zM54.64 79.728c0-1.739.004-3.479-.004-5.22-.001-.215.049-.289.276-.284.214.003.284.05.283.278-.008 3.264-.002 6.527-.012 9.792 0 .261.07.323.322.316.654-.018 1.31.01 1.964-.013.289-.01.225.162.227.317.002.163.052.324-.235.317a69.397 69.397 0 0 0-2.581-.003c-.206.003-.244-.068-.243-.256.005-1.747.003-3.496.003-5.244z"/><path d="M36.958 75.547a1.418 1.418 0 0 0-.436.275l-.193.099-.493.263c-.428.158-.847.344-1.304.416a2.618 2.618 0 0 1-.558.031c-.571-.031-.822-.391-.654-.935.121-.394.351-.724.625-1.021 1.079-1.164 2.35-2.013 3.931-2.334.1-.02.204-.027.306-.029.794-.014 1.101.45.75 1.168-.393.803-1.056 1.367-1.754 1.894-.075.056-.147.116-.22.173zm-.984-.049c.317-.149.62-.322.888-.551.559-.367 1.053-.803 1.411-1.375.107-.172.182-.361.071-.555-.106-.184-.302-.163-.478-.156-.566.025-1.07.255-1.554.518-.859.467-1.662 1.012-2.226 1.836-.13.191-.277.415-.12.645.146.215.399.159.622.146.037-.002.073-.014.109-.021a4.38 4.38 0 0 0 1.277-.487zm15.524 14.686c.615.407.643 1.057.748 1.668.09.525.166 1.053.243 1.579.011.074.125.188-.037.217-.13.023-.285.051-.315-.163-.049-.343-.115-.682-.168-1.023-.073-.461-.094-.932-.25-1.377-.182-.517-.458-.697-.984-.7-.186-.001-.21.064-.208.226.007.935.002 1.87.004 2.807 0 .134.02.25-.19.246-.202-.003-.17-.117-.17-.236 0-2.198.004-4.396-.006-6.595-.001-.215.099-.271.268-.311 1.041-.24 1.737.221 1.908 1.298.092.578.065 1.158-.21 1.698a1.743 1.743 0 0 1-.633.666zm-.971-1.729c0 .449.008.897-.004 1.347-.005.179.059.218.226.219.507.001.856-.233 1.061-.685.242-.533.244-1.089.107-1.646-.147-.602-.573-.877-1.19-.806-.15.018-.207.066-.204.224.011.45.004.899.004 1.347zm-3.502.861c0 .831-.005 1.664.003 2.495.004.338.062.671.198.983.131.3.321.527.688.521.362-.006.557-.232.683-.533.192-.458.213-.945.215-1.432.005-1.533 0-3.067.005-4.601 0-.09-.077-.237.126-.243.156-.006.236.015.231.205-.015.478-.004.954-.005 1.431-.001 1.15 0 2.301-.008 3.45-.003.498-.067.989-.277 1.448-.268.582-.773.832-1.318.658-.327-.104-.523-.345-.659-.646-.208-.463-.254-.957-.256-1.452-.009-1.618-.003-3.235-.005-4.853 0-.139-.011-.247.194-.247.222.001.177.137.177.26v2.553c.004.003.006.003.008.003zm-11.453 3.421c.228-1.527.525-3.03.787-4.538.088-.506.194-1.01.266-1.518.029-.208.151-.175.276-.17.206.009.087.153.075.224-.397 2.234-.8 4.468-1.203 6.702-.021.118-.027.226-.209.225-.194-.001-.178-.133-.197-.239-.399-2.225-.797-4.45-1.188-6.676-.013-.072-.124-.217.073-.235.143-.014.262-.021.296.188.313 1.917.711 3.82.975 5.746.013.097.033.194.049.291zm2.144-2.661c0-1.104.006-2.208-.006-3.312-.002-.218.063-.266.268-.259.486.015.973.011 1.459.001.156-.003.213.039.21.202-.003.149-.032.216-.201.211-.374-.013-.748.004-1.122-.008-.174-.006-.243.031-.24.226.012.777.012 1.554 0 2.329-.003.209.07.249.257.24.336-.014.674.006 1.01-.008.18-.006.189.081.192.221.004.146-.039.196-.189.191-.365-.009-.729.004-1.094-.005-.136-.004-.173.039-.172.174.005.926.007 1.852-.001 2.777-.001.173.067.197.214.194.421-.008.842.006 1.263-.007.184-.007.184.085.188.221.004.144-.036.194-.187.192a36.77 36.77 0 0 0-1.627.001c-.201.006-.224-.076-.223-.244.004-1.111.001-2.225.001-3.337zm15.486-.015c0-1.104.005-2.207-.005-3.312-.002-.199.053-.249.248-.243.486.014.973.012 1.459.001.17-.005.225.038.223.216-.002.167-.062.199-.212.195-.383-.008-.767.005-1.15-.006-.16-.005-.208.048-.207.205.007.796.007 1.59 0 2.385-.001.161.051.21.209.205.355-.011.711.008 1.066-.008.192-.008.173.098.181.225.009.147-.039.193-.187.188-.355-.011-.711.005-1.066-.007-.162-.006-.204.048-.203.205.006.907.007 1.814 0 2.722-.001.171.047.226.221.221.401-.013.804.001 1.206-.006.157-.003.255 0 .253.213-.002.202-.096.198-.239.196a45.713 45.713 0 0 0-1.571.003c-.186.005-.23-.052-.229-.232.007-1.122.003-2.244.003-3.366zm2.569 2.965c.078.047.132.083.189.113.602.328 1.165.134 1.398-.517.289-.802.15-1.55-.386-2.212-.211-.261-.464-.487-.679-.746-.604-.727-.739-1.541-.38-2.414.288-.699.963-.979 1.574-.707.229.102.254.231.152.437-.042.085-.067.119-.16.054-.513-.362-1.197-.186-1.352.717-.108.633.038 1.206.504 1.679.223.227.448.454.644.702.636.81.76 1.715.413 2.671-.282.775-.975 1.101-1.676.831-.388-.15-.41-.202-.241-.608zm-11.151-2.74c0-1.047-.004-2.095.004-3.143.001-.179-.039-.253-.23-.237-.205.017-.412-.006-.617.006-.157.01-.188-.06-.183-.197.004-.122-.001-.211.171-.208a79.89 79.89 0 0 0 2.077 0c.162-.003.183.064.178.198-.004.12.005.221-.17.208-.195-.015-.394.013-.588-.008-.229-.024-.275.064-.274.279.008 2.067.006 4.135 0 6.203 0 .091.083.24-.104.265-.167.023-.271.007-.269-.223.012-1.046.005-2.095.005-3.143z"/><path d="M35.974 75.498c.064-.365.139-.73.188-1.099.033-.245.207-.151.336-.167.127-.014.236-.008.255.169.02.184.071.364.108.546a3.87 3.87 0 0 1-.887.551z"/></g><g fill="#8F90AA"><path d="M150.806 80.295c1.262.001 2.229.145 3.182.396.116.029.16.08.184.194.208 1.021.186 2.043.036 3.067-.206 1.403-.626 2.735-1.396 3.939-.651 1.021-1.496 1.817-2.653 2.241a3.86 3.86 0 0 1-1.36.257c-.336-.003-.661-.129-.98-.238-2.244-.768-3.888-2.216-4.935-4.344a.405.405 0 0 1 .003-.392c1.128-2.37 2.963-3.925 5.452-4.72.89-.283 1.807-.404 2.467-.4z"/><path d="M148.65 74.136l.781-.126a.262.262 0 0 1 .204.051c2.051 1.447 3.544 3.309 4.274 5.738.005.012.001.025.001.074-2.078-.711-4.188-.871-6.322-.365-2.12.504-3.995 1.461-5.483 3.13a8.237 8.237 0 0 1 2.347-6.178 8.352 8.352 0 0 1 1.749-1.37c.111-.066.152-.044.207.063.735 1.438 1.969 2.188 3.503 2.514.194.041.392.076.589.092.33.027.609.16.867.359.215.166.435.326.716.371.175.029.346.02.511-.035.168-.058.312-.154.34-.352.029-.206-.027-.383-.199-.51-.247-.184-.524-.211-.814-.141a5.35 5.35 0 0 0-.438.131c-.379.129-.757.079-1.139.01-.936-.172-1.822-.46-2.593-1.042-.518-.39-.909-.885-1.229-1.442-.06-.105-.071-.166.059-.229.269-.129.538-.253.814-.365.07-.028.114-.035.164.041.482.744 1.208 1.179 1.993 1.521.4.174.765.383 1.077.691.264.262.588.408.974.348.332-.052.469-.321.303-.615a.72.72 0 0 0-.647-.392c-.188-.005-.368.046-.55.084-.442.093-.82-.094-1.197-.274-.667-.32-1.298-.693-1.769-1.286-.149-.188-.146-.192.072-.267.043-.016.091-.023.133-.042.37-.171.694-.188.923.23.048.086.154.146.244.202.214.129.384.295.514.512.139.234.368.337.631.363.151.016.299-.012.38-.159a.41.41 0 0 0-.027-.435c-.122-.189-.314-.254-.527-.271a1.425 1.425 0 0 0-.277.004c-.514.052-.846-.226-1.159-.633zm19.691 7.051c1.255-1.344 2.756-1.503 4.373-1.008.98.3 1.512 1.077 1.521 2.101.012 1.626.002 3.253.006 4.879.001.126-.035.155-.156.153a50.245 50.245 0 0 0-1.553.002c-.147.002-.17-.048-.17-.18.005-1.347.005-2.695.001-4.041a2.96 2.96 0 0 0-.047-.556c-.107-.551-.436-.914-.98-1.059-.686-.182-1.356-.137-1.987.201-.678.363-1 .948-1.004 1.707-.008 1.24-.006 2.482.002 3.723.002.17-.046.207-.208.204a30.964 30.964 0 0 0-1.493 0c-.165.005-.191-.051-.191-.199.003-3.153.003-6.306 0-9.459 0-.14.022-.194.182-.19a33.18 33.18 0 0 0 1.513.002c.153-.003.199.033.198.193-.008 1.096-.004 2.189-.004 3.285-.003.071-.003.142-.003.242zm-7.004 3.216c0-.91-.004-1.819.005-2.729.002-.162-.048-.195-.199-.19-.378.011-.756-.001-1.134.006-.11.002-.151-.024-.147-.142.006-.359.006-.717 0-1.076-.003-.113.032-.145.144-.142.371.007.744-.011 1.114.007.193.01.226-.059.223-.23-.008-.357-.026-.717.021-1.074.109-.807.538-1.254 1.347-1.399.784-.141 1.572-.048 2.36-.024.084.004.113.04.113.123-.004.379-.006.758.001 1.135.002.135-.071.107-.153.102a6.604 6.604 0 0 0-1.151-.025c-.439.037-.605.186-.649.621-.021.218-.006.438-.016.656-.006.131.077.113.156.113.544 0 1.089.004 1.632-.004.135-.002.187.026.182.173-.01.338-.01.677 0 1.015.005.145-.046.176-.181.174-.524-.008-1.049.004-1.573-.008-.169-.004-.221.033-.22.215.008 1.799.002 3.598.011 5.396 0 .189-.059.224-.23.221a41.282 41.282 0 0 0-1.493-.002c-.129.002-.164-.031-.164-.162.004-.92.001-1.836.001-2.75z"/><path d="M152.728 74.328c.352.021.653.191.971.317.069.028.051.096.049.155-.009.328-.147.602-.341.854-.153.202-.242.422-.204.685a.704.704 0 0 0 .113.293c.221.313.534.324.775.025.204-.253.239-.539.125-.842-.073-.191-.163-.375-.24-.565a1.66 1.66 0 0 1-.083-.265c-.015-.07-.043-.165.012-.21.061-.052.134.022.196.052.589.289.582.289.611 1.008.021.493-.078.937-.382 1.344-.28.375-.258.758.003 1.102.232.307.52.312.754.004.245-.322.283-.695.089-1.029-.357-.614-.349-1.28-.377-1.947 0-.014.004-.026.011-.079a8.23 8.23 0 0 1 3.018 3.329 8.245 8.245 0 0 1 .843 4.413c-.059.024-.075-.025-.098-.05-1.023-1.166-2.275-2.016-3.679-2.654a.46.46 0 0 1-.282-.313c-.4-1.298-1.083-2.442-1.92-3.5-.728-.919-1.533-1.758-2.516-2.411-.021-.014-.035-.032-.077-.07a7.491 7.491 0 0 1 1.589.088c.156.023.313.066.469.084.145.016.137.087.091.185-.055.114-.114.225-.165.339a.781.781 0 0 0 .229.932c.162.131.333.126.478-.025.211-.219.245-.48.154-.758-.056-.168-.14-.327-.211-.49l-.005-.001zm2.236 6.729c.53.16 1.003.438 1.47.726.737.454 1.403.996 2.016 1.607.106.108.146.207.113.367-.62 2.975-2.337 5.042-5.127 6.227-.013.005-.024.007-.053.015.001-.088.06-.147.097-.209a12.454 12.454 0 0 0 1.629-4.303c.251-1.427.238-2.849-.131-4.259-.015-.057-.036-.114-.012-.175l-.002.004zm15.387 8.796c-.324.026-.323.026-.338-.262a2.768 2.768 0 0 0-.032-.274c-.029-.177-.132-.271-.314-.261-.196.01-.458-.085-.569.039-.097.108-.019.365-.036.555-.006.075.088.212-.1.22-.117.003-.16-.021-.158-.15.008-.543.006-1.088 0-1.632 0-.112.033-.146.146-.144.251.008.503.002.755.003.301.004.484.113.559.326.086.243.007.475-.235.666.157.095.212.247.223.415.01.165.001.332.099.499zm-.935-1.02c.112-.005.226-.001.336-.018.189-.029.286-.16.272-.351-.013-.185-.112-.277-.31-.286-.112-.003-.226 0-.337 0-.313 0-.313 0-.313.305.001.345.001.345.352.35zm-4.295.07c0-.277.004-.558-.002-.836-.001-.093.023-.124.121-.122.365.005.729.005 1.093 0 .097-.002.127.027.127.122 0 .108-.058.113-.14.113-.265-.003-.53.003-.795-.003-.104-.004-.131.029-.134.132-.014.467-.017.467.438.467.146 0 .292.005.438-.002.09-.003.112.033.112.116 0 .082-.035.1-.108.1-.244-.003-.49.005-.735-.003-.116-.005-.142.037-.144.147-.011.504-.014.504.479.504.159 0 .318.005.478 0 .096-.005.124.031.125.126 0 .1-.053.103-.126.102-.371 0-.741-.004-1.112.003-.106.002-.115-.046-.115-.131.003-.278 0-.556 0-.835zm9.085-.216c0 .204.01.41-.003.615-.018.313-.199.524-.501.584a1.192 1.192 0 0 1-.59-.023c-.246-.075-.409-.24-.423-.495-.022-.442-.014-.887-.02-1.33-.001-.128.092-.081.154-.091.095-.016.106.036.106.115-.003.371-.007.742 0 1.114.006.315.166.483.464.515.327.034.542-.146.549-.476.006-.339-.007-.678.006-1.015.004-.088-.103-.254.125-.257.242-.003.12.172.132.265.019.157.005.319.005.479h-.004zm-12.319-.741c.155.014.342-.024.525.03.256.076.379.27.365.584-.012.286-.149.454-.408.509-.203.042-.409.027-.613.022-.114-.002-.147.034-.142.146.009.172-.004.346.004.518.006.107-.049.117-.132.111-.071-.005-.145.016-.145-.104.005-.569.004-1.139 0-1.71 0-.092.039-.109.119-.107.134.005.267.001.427.001zm.051.908c.099 0 .2.012.297-.001.188-.028.281-.154.276-.351-.005-.189-.11-.303-.307-.32-.072-.007-.146-.004-.219-.004-.37 0-.37 0-.37.368.001.317.001.317.323.308zm18.241 2.262c0-.207.003-.411-.001-.617-.001-.078.014-.119.107-.119.102 0 .104.054.1.126v.02c.016.162-.069.42.039.463.196.077.44.029.666.029.083 0 .063-.068.063-.118.002-.139.003-.277.001-.417-.001-.078.031-.103.107-.102.07.002.093.031.093.097-.002.431-.002.86.002 1.293 0 .078-.034.102-.108.102-.085.001-.096-.048-.095-.115.002-.146-.003-.291.002-.438.003-.085-.026-.122-.113-.112-.026.003-.053 0-.079 0-.186.005-.418-.056-.541.034-.115.085-.027.332-.035.509-.003.073-.006.124-.104.124-.095 0-.106-.044-.105-.121.004-.215.001-.427.001-.638zm2.569.224c0-.146.002-.291-.001-.437-.003-.128.107-.149.146-.087.065.106.093.048.148.013.069-.044.154-.083.227-.051.216.096.417.048.638.007.23-.044.34.087.344.322.002.205.001.411 0 .617-.001.066.026.152-.097.147-.124-.005-.088-.094-.089-.159-.003-.179-.001-.356-.001-.536 0-.135-.039-.242-.196-.241-.15.004-.259.072-.266.236-.008.185-.003.371-.002.556.001.075.011.147-.104.146-.11-.001-.088-.075-.088-.137a22.361 22.361 0 0 1 0-.518c.002-.143-.011-.283-.195-.279-.17.001-.268.111-.279.277-.012.172-.002.344-.005.518-.002.059.028.138-.085.138-.104 0-.094-.067-.094-.135l-.001-.397zm1.952-.468c.24-.121.452-.154.645.007.205.17.218.41.164.64-.082.352-.313.403-.687.328-.037-.008-.063-.065-.104-.035-.242.175-.203-.021-.204-.156-.002-.378-.002-.756 0-1.134.001-.059-.028-.137.084-.141.121-.003.1.077.102.147v.344zm.635.46c0-.232-.137-.397-.327-.397-.186.001-.324.175-.32.403.003.236.137.393.332.393.194-.001.315-.154.315-.399zm-19.836-.434c0-.154.002-.278 0-.404-.001-.065.008-.113.095-.113.097 0 .085.061.085.118v1.252c0 .057.002.153-.078.114-.179-.09-.34.049-.511.008-.062-.015-.129-.01-.189-.044-.229-.134-.317-.552-.17-.819.131-.237.424-.305.689-.157l.079.045zm0 .445c.003-.248-.131-.412-.334-.407-.182.004-.308.159-.314.39-.008.226.129.399.319.405.196.005.327-.149.329-.388zm21.402.05c-.079 0-.159.008-.237 0-.191-.02-.161.08-.102.187.104.191.391.212.512.029.057-.085.127-.116.19-.069.063.045-.006.118-.036.169-.11.177-.489.234-.685.108-.194-.126-.278-.438-.19-.697a.483.483 0 0 1 .518-.344c.247.015.457.267.439.523-.004.065-.021.097-.091.095-.106-.003-.212-.001-.318-.001zm-.082-.174c.026 0 .054.007.078 0 .069-.018.184.053.2-.047.015-.086-.067-.162-.157-.207a.283.283 0 0 0-.265.009c-.083.041-.151.119-.14.198.015.095.121.03.185.047.032.007.066 0 .099 0zm-25.45-.108c0-.2.006-.399-.001-.598-.004-.106.032-.136.136-.133.238.007.478.002.717.002.061 0 .118-.01.121.083.003.097-.046.106-.123.105-.173-.005-.346.005-.517-.005-.107-.005-.133.032-.135.136-.005.318-.01.317.305.318.093 0 .187.002.279-.001.064 0 .097.022.097.093 0 .067-.026.095-.094.095-.134-.003-.266.009-.398-.003-.141-.013-.209.02-.188.18.015.116.001.239.004.357.001.071 0 .129-.101.132-.098.002-.103-.051-.102-.126.003-.21 0-.423 0-.635zm15.816.26c.047.111-.087.281.088.388.012.008.007.077-.012.09-.056.043-.147.044-.185.01-.083-.08-.142-.042-.229-.012a.65.65 0 0 1-.409.007c-.121-.034-.164-.141-.164-.265-.002-.147.072-.244.201-.286.118-.04.244-.055.367-.079.074-.015.15-.031.147-.128-.003-.095-.069-.144-.153-.153-.126-.017-.265-.02-.319.128-.04.106-.124.085-.175.057-.063-.032-.015-.104.01-.155.082-.163.331-.242.583-.189.204.042.252.188.249.369l.001.218zm-.206-.028c-.134.025-.258.043-.378.074-.083.021-.136.082-.126.175.01.1.081.128.165.138.232.029.362-.114.339-.387zm1.568.05c-.08 0-.158-.004-.239.001-.05.002-.115-.025-.146.026-.032.058.009.118.038.167.111.185.391.198.512.015.054-.08.12-.103.177-.067.079.05.005.118-.024.167-.105.179-.482.242-.681.12-.194-.121-.283-.431-.198-.695a.485.485 0 0 1 .513-.351c.257.012.477.278.448.533-.008.074-.041.085-.102.084-.1-.002-.199 0-.298 0zm-.099-.174c.026 0 .053.005.078 0 .071-.015.189.046.205-.041.017-.097-.072-.175-.17-.218a.277.277 0 0 0-.229.002c-.092.041-.172.114-.16.204.015.106.129.033.196.053.026.007.054 0 .08 0zm-11.66.142c.044.117-.089.296.1.404.019.01.016.068-.017.086-.061.035-.153.043-.188.005-.085-.091-.146-.037-.229-.008a.748.748 0 0 1-.393.01c-.116-.021-.168-.117-.178-.233-.014-.149.044-.268.186-.314.123-.043.257-.058.385-.085.074-.017.149-.029.145-.131-.003-.099-.072-.141-.154-.152-.129-.018-.265-.015-.32.129-.037.097-.107.08-.158.061-.088-.032-.025-.103-.006-.148.072-.172.31-.252.573-.201.201.037.269.17.255.359-.004.066-.001.131-.001.218zm-.2-.014c-.133.022-.258.039-.379.07-.084.021-.141.085-.128.177.014.092.082.127.171.137.228.023.354-.111.336-.384zm15.895.014c.043.114-.088.294.1.4.009.005.002.072-.017.087-.049.043-.137.043-.166.013-.097-.096-.174-.03-.27-.008a1.076 1.076 0 0 1-.354.01c-.129-.017-.185-.119-.195-.24-.014-.149.048-.267.188-.315.117-.041.244-.053.366-.081.077-.016.166-.024.158-.137-.007-.108-.085-.145-.177-.15-.123-.01-.252-.002-.297.136-.034.104-.11.073-.157.057-.093-.031-.023-.103-.006-.146.068-.176.332-.261.591-.202.191.045.25.174.235.355-.003.064.001.131.001.221zm-.313.005c-.146.051-.384-.024-.384.235 0 .133.14.138.249.126.172-.017.265-.129.264-.286 0-.116-.063-.088-.129-.075zm-18.568-.044c0-.14.004-.278-.002-.418-.005-.127.104-.15.143-.091.081.124.128.027.186 0 .297-.14.557.016.563.34.003.191.002.385-.001.576-.001.059.03.139-.082.143-.11.003-.09-.072-.091-.135 0-.172.004-.345-.001-.517-.004-.141-.031-.269-.208-.285-.159-.015-.293.09-.31.267-.016.179-.01.358-.011.537 0 .067.008.133-.096.134-.107.002-.091-.068-.091-.134l.001-.417zm9.526.548c-.342.002-.517-.179-.518-.53-.001-.354.194-.566.521-.564.317 0 .514.21.521.55.008.31-.19.602-.524.544zm-.323-.535c0 .232.136.396.327.396.192-.001.322-.16.322-.397-.002-.233-.138-.4-.325-.397-.189.001-.325.168-.324.398zm-3.7.535c-.343 0-.518-.182-.519-.532-.001-.348.201-.564.526-.564.322.002.521.223.517.574-.004.352-.176.524-.524.522zm-.319-.532c.002.239.133.395.327.393.194-.003.318-.156.317-.398-.002-.234-.138-.399-.325-.396-.185.001-.32.17-.319.401zm-5.436-.001v.419c.001.063-.03.155-.087.107-.169-.141-.308.039-.468.015-.221-.034-.322-.085-.335-.306-.014-.225-.004-.45-.009-.676-.002-.075.022-.106.103-.104.085.003.094.051.092.117-.001.187.002.372-.001.557-.003.133.023.245.177.262.166.019.298-.052.323-.221.026-.175.009-.356.021-.533.004-.065-.058-.175.083-.181.153-.003.096.113.1.187.005.118.001.237.001.357zm10.495-.005c0-.146.005-.293-.002-.438-.005-.121.112-.128.136-.089.082.133.143.033.21.004.281-.125.536.02.552.322.01.206 0 .412.003.616.002.079-.01.128-.105.125-.096-.002-.083-.065-.083-.125 0-.178-.003-.358.002-.536.003-.154-.043-.271-.213-.273-.168-.003-.283.087-.298.259-.015.178-.008.358-.007.536 0 .08 0 .146-.11.14-.113-.005-.081-.084-.082-.143-.005-.133-.003-.266-.003-.398zm-4.004-.002c0-.146.004-.291 0-.437-.003-.099.091-.133.121-.09.093.137.159.025.232-.004.287-.111.529.041.536.347.005.191.002.383.001.576 0 .068.021.154-.099.149-.122-.005-.085-.097-.086-.161a10.21 10.21 0 0 1 0-.495c.002-.14-.028-.254-.188-.278a.283.283 0 0 0-.325.25c-.021.17-.006.344-.014.516-.003.065.05.174-.093.167-.124-.005-.081-.1-.084-.162-.005-.126-.001-.252-.001-.378zm2.161.538c-.218.033-.372-.059-.457-.26-.098-.23-.041-.552.117-.705.141-.138.377-.172.574-.09.09.037.16.096.198.185.018.044.065.106.007.141-.056.033-.136.039-.172-.039-.072-.154-.195-.193-.346-.147-.174.051-.219.199-.228.358-.007.157.02.308.177.391.147.079.31.029.382-.129.043-.094.106-.131.182-.092.079.041.016.116-.009.172-.081.183-.232.24-.425.215zm-4.504 0c-.221.028-.378-.054-.463-.26-.097-.24-.046-.552.118-.709.143-.137.404-.172.596-.078.08.039.142.098.178.18.02.048.06.11-.002.141-.057.028-.132.035-.17-.046-.079-.161-.212-.197-.366-.134-.193.082-.206.259-.197.437.009.159.073.29.24.326.142.029.27-.012.322-.162.032-.095.104-.116.169-.084.083.043.021.115-.004.171-.082.186-.231.243-.421.218zm7.819 0c-.184.017-.255-.073-.257-.233a22.36 22.36 0 0 1 0-.518c.001-.082.008-.163-.116-.152-.053.005-.064-.032-.063-.076.002-.04-.005-.094.051-.09.148.01.129-.092.129-.184 0-.063-.021-.136.087-.141.122-.007.1.077.098.146-.001.097-.012.193.136.175.061-.007.079.036.078.089-.001.057-.026.09-.084.083-.131-.018-.133.063-.13.157.005.119.004.239.001.356-.002.114-.022.234.154.232.064 0 .067.063.056.106-.024.084-.102.037-.14.05zm10.608-.923c.077-.086.146-.146.241-.163.046-.009.114-.036.125.047.007.064.022.135-.08.146-.234.028-.297.193-.302.396-.003.133-.001.265 0 .397.001.061-.013.1-.085.104-.078.001-.103-.031-.103-.106.003-.271-.001-.542.003-.813 0-.058-.04-.138.066-.157.116-.023.095.079.135.149zm-10.081-.005c.073-.071.128-.134.208-.15.052-.012.126-.054.146.031.014.063.036.143-.086.157-.207.027-.279.177-.28.369-.002.133-.003.266 0 .398.002.073-.005.126-.103.127-.108 0-.091-.071-.091-.136-.001-.264-.003-.528.002-.793.002-.055-.043-.136.07-.152.113-.014.1.078.134.149zm3.466.201c0 .192.002.384-.002.575-.001.064.037.157-.09.154-.111-.002-.08-.085-.08-.143a94.55 94.55 0 0 1 .001-1.191c.001-.062-.039-.158.089-.153.126.007.078.104.08.164.005.197.002.395.002.594zm-10.961.196c0 .146-.002.291.001.437 0 .063-.014.102-.088.099-.066-.004-.095-.028-.094-.096v-.875c-.001-.075.021-.109.101-.108.081 0 .081.05.08.105v.438zm.624-.685c.116-.146.133-.363.402-.276-.121.106-.164.286-.402.276zm-.628-.173c.01.093.005.141-.086.139-.087-.001-.09-.049-.091-.114-.001-.075.007-.126.104-.123.102.004.066.075.073.098z"/><path d="M154.966 81.053a.186.186 0 0 0-.02-.01c.003 0 .008-.003.01-.001l.008.015.002-.004z"/></g><g fill="#8F90AA"><path d="M259.162 30.852c.362.064.729.113 1.087.197a6.936 6.936 0 0 1 3.162 1.666c1.378 1.266 2.18 2.836 2.346 4.698.165 1.863-.344 3.549-1.47 5.043a6.832 6.832 0 0 1-1.927 1.741c-.236.143-.412.113-.517-.072-.102-.18-.04-.328.186-.473 1.642-1.052 2.667-2.532 3.019-4.445.503-2.732-.807-5.474-3.225-6.854a6.528 6.528 0 0 0-2.793-.838c-3.354-.253-6.32 2.121-6.923 5.37a6.529 6.529 0 0 0 2.998 6.752c.143.089.257.188.246.365-.008.126-.089.214-.208.268-.12.056-.218.013-.314-.047-1.081-.676-1.946-1.552-2.568-2.674a7.028 7.028 0 0 1-.895-3.438c-.006-1.685.513-3.203 1.565-4.526 1.073-1.349 2.462-2.198 4.137-2.586.235-.055.485-.036.708-.146l1.386-.001zM247.41 51.63c.644-.084 1.289-.021 1.935-.035.154-.004.171.111.172.233 0 .126-.053.198-.185.199-.119 0-.239.013-.355-.002-.211-.026-.279.038-.276.262.017.736.002 1.473.01 2.209.001.176-.039.295-.232.299-.208.002-.254-.128-.254-.311.005-.669.002-1.338.002-2.009 0-.447 0-.447-.439-.448-.132 0-.269.022-.376-.084-.002-.104-.002-.208-.002-.313z"/><path d="M260.89 38.256c-.028 1.293-.055 2.587-.087 3.881-.018.683-.044 1.366-.071 2.05a.618.618 0 0 0 .089.357c.708 1.191.814 2.607-.221 3.834-.579.686-1.214 1.308-1.957 1.812-.183.124-.381.31-.627.161-.253-.149-.208-.413-.174-.646a1.81 1.81 0 0 0-.058-.726c-.082-.308-.309-.498-.559-.67-.269-.186-.557-.341-.806-.558-.517-.45-.677-1.03-.626-1.687.048-.606.212-1.169.646-1.623.05-.052.04-.109.038-.166-.029-1.3-.058-2.602-.093-3.903-.021-.824-.052-1.649-.079-2.474-.003-.136-.012-.277.145-.342.162-.067.267.035.368.138.211.21.428.415.632.629.084.089.136.079.217 0 .228-.225.464-.441.695-.662.204-.194.298-.195.507.002.221.21.442.419.66.634.097.095.167.108.27-.002.203-.218.419-.423.631-.631.092-.091.185-.179.332-.106.139.068.148.189.144.321-.005.126-.002.253-.002.379-.005-.002-.009-.002-.014-.002zm-2.577 11.568c.086-.046.135-.065.176-.094a8.873 8.873 0 0 0 1.572-1.446c.289-.341.578-.696.704-1.13.253-.862.097-1.675-.391-2.422-.077-.117-.134-.227-.128-.369.025-.668.053-1.337.07-2.006.025-1.003.047-2.008.06-3.012.003-.307.065-.614.017-.945-.138.125-.255.236-.38.339-.266.221-.456.22-.709-.007-.198-.178-.396-.36-.588-.548-.081-.079-.135-.087-.219-.003-.167.169-.346.327-.518.492-.32.31-.535.308-.857-.009-.091-.09-.188-.177-.295-.276-.059.173-.007.311-.003.448.03 1.227.058 2.453.092 3.681.016.549-.003 1.1.039 1.65.014.172.062.371-.086.511-.396.377-.549.855-.597 1.379-.054.604.094 1.121.634 1.471.243.158.488.313.724.483.263.189.479.419.586.739.111.337.149.679.097 1.074zm-5.854 3.818c0-.579.004-1.159-.004-1.738-.003-.188.045-.313.251-.309.197.003.235.133.234.305-.004.856-.002 1.712-.001 2.568 0 .138.009.28-.169.319-.168.036-.288-.042-.364-.188-.284-.54-.567-1.08-.852-1.619a.77.77 0 0 0-.172-.236c0 .591-.002 1.182.002 1.773.001.133-.02.236-.168.272-.164.04-.305-.052-.305-.222-.005-.916-.003-1.831-.003-2.747 0-.097.031-.174.134-.207a.307.307 0 0 1 .33.073c.109.106.163.248.23.379.272.527.542 1.057.812 1.584a.606.606 0 0 0 .045-.007zm6.138-19.456l-1.085 1.834c-.223.377-.449.754-.673 1.131-.09.149-.208.258-.381.139-.155-.106-.112-.245-.026-.389.642-1.081 1.28-2.164 1.92-3.247.145-.245.341-.24.493.015.646 1.077 1.288 2.157 1.937 3.233.092.151.113.282-.046.384-.168.111-.279.008-.362-.131l-1.605-2.682-.172-.287zm1.99 18.996c0-.439.007-.879-.005-1.317-.005-.209.08-.283.277-.273.342.017.684-.028 1.023.038.387.076.624.31.673.676.063.466-.082.826-.436.983-.156.069-.14.127-.074.243.163.293.312.593.475.885.084.152.074.268-.087.351-.164.084-.264.012-.339-.136-.181-.359-.377-.71-.547-1.073-.101-.216-.276-.136-.422-.13-.152.006-.079.151-.082.231-.01.298-.01.595-.002.893.005.165-.079.239-.223.242-.156.002-.255-.073-.233-.25v-.022c.002-.448.002-.895.002-1.341zm.453-.653c0 .546 0 .546.514.527.377-.014.563-.199.552-.548-.011-.335-.175-.482-.553-.486-.513-.007-.513-.007-.513.507zm8.49.695c0 .261.005.521 0 .781a.778.778 0 0 1-.559.752 1.35 1.35 0 0 1-.727.022c-.43-.101-.63-.354-.659-.909-.026-.474-.041-.952.015-1.425.065-.545.292-.771.833-.846.541-.076 1.048.242 1.09.71.027.303.005.61.005.914l.002.001zm-.448-.006c0-.231.005-.462-.002-.692-.009-.332-.19-.503-.521-.506-.314-.002-.496.167-.501.498a38.65 38.65 0 0 0 0 1.362c.005.345.184.519.504.521.327.001.51-.185.52-.535.005-.217 0-.432 0-.648zm-10.952-.016v-.67c.001-.743.54-.998 1.131-.921.51.067.76.301.817.714.019.127.035.267-.147.291-.156.02-.288.013-.328-.198-.059-.303-.206-.402-.521-.396-.294.005-.438.11-.472.424a7.128 7.128 0 0 0 .003 1.559c.034.293.231.417.546.396.26-.018.43-.19.452-.462.002-.03 0-.059.002-.089.007-.342.007-.344-.333-.352-.135-.003-.244-.033-.246-.19-.003-.156.103-.197.239-.196.201.002.402.001.604 0 .108 0 .205.037.205.155-.001.326.051.653-.057.975a.775.775 0 0 1-.555.53 1.362 1.362 0 0 1-.662.016c-.423-.086-.661-.386-.674-.826-.007-.253-.001-.506-.001-.759l-.003-.001zm-.528.01c0 .261.008.521-.002.781a.817.817 0 0 1-.79.811c-.11.006-.223.007-.333.001-.439-.022-.75-.288-.799-.724a8.18 8.18 0 0 1-.002-1.735c.043-.41.276-.632.679-.721a1.29 1.29 0 0 1 .681.036.793.793 0 0 1 .564.726.734.734 0 0 1 .003.067l-.001.758zm-1.478.003c0 .237-.006.476.002.712.01.288.166.452.431.473.322.025.538-.099.567-.396a7.057 7.057 0 0 0-.004-1.598c-.039-.299-.223-.405-.548-.382-.276.02-.434.17-.445.457-.011.243-.003.489-.003.734zm7.812-1.631c.188-.01.301.062.354.243.259.86.523 1.719.785 2.58.033.111.093.229-.034.324-.173.128-.32.075-.394-.13-.06-.167-.037-.409-.175-.486-.143-.079-.361-.029-.548-.03-.493-.001-.496-.001-.642.478-.05.161-.104.282-.308.215-.187-.062-.2-.175-.146-.349.272-.864.539-1.73.801-2.597.05-.165.138-.26.307-.248zm.025.631c-.146.49-.28.936-.41 1.383-.024.087.009.12.103.117.192-.005.386-.005.579.004.144.007.16-.044.12-.17-.13-.425-.252-.853-.392-1.334zm1.507.958c0-.431.008-.863-.003-1.294-.005-.201.082-.289.273-.288.463.001.923.004 1.385-.001.162-.002.234.073.232.226 0 .153-.094.205-.232.204-.327 0-.656.008-.982-.002-.159-.005-.209.053-.199.206.01.208.007.417 0 .625-.005.128.044.171.17.165.146-.009.296-.006.445-.004.131.001.213.062.202.205-.01.138-.103.164-.22.163-.142-.003-.284.007-.425-.003-.14-.011-.176.048-.173.18.007.327-.005.655.004.982.006.185-.083.265-.25.26-.159-.003-.231-.09-.229-.26.008-.456.004-.91.002-1.364zm-11.362.202c0-.394-.003-.788.002-1.182.003-.124-.034-.173-.163-.166-.148.01-.297-.002-.446.002-.151.003-.226-.082-.226-.216 0-.131.065-.223.22-.222.564.003 1.13.002 1.694.001.16 0 .21.105.207.233-.004.122-.07.21-.214.202-.036-.002-.074 0-.111 0-.503.001-.503.001-.503.516 0 .653-.006 1.308.003 1.962.002.181-.051.292-.241.289-.18-.003-.228-.112-.224-.283.01-.378.003-.757.002-1.136.001 0 .001 0 0 0zm-3.76-.167c0 .438-.005.876.002 1.314.002.175-.069.273-.243.271-.177-.002-.236-.101-.235-.276.006-.885.006-1.769-.001-2.652-.002-.179.066-.27.239-.27.179-.001.242.103.24.275-.007.446-.002.892-.002 1.338zm10.024 3.441c.001.253.001.506-.001.759-.001.047.023.115-.045.132-.053.013-.107-.005-.124-.067-.033-.127-.082-.027-.12-.008-.425.227-.795.021-.827-.465a.957.957 0 0 1 .069-.481c.114-.247.346-.35.634-.242.204.076.226-.002.211-.167-.007-.089.002-.179 0-.269-.002-.081.029-.125.118-.121s.085.064.085.125v.804zm-.186.253c-.007-.042-.022-.113-.029-.188-.02-.188-.113-.296-.312-.307-.207-.011-.316.101-.364.286a.824.824 0 0 0 .008.459c.053.161.166.24.335.24.235 0 .365-.164.362-.49zm-5.067.042c-.082 0-.163-.001-.246.001-.187.004-.225.077-.133.246.096.173.29.23.551.18.064-.013.165-.108.2.01.04.125-.094.13-.171.155-.29.094-.617-.013-.751-.239-.159-.273-.11-.716.103-.916a.548.548 0 0 1 .644-.066c.161.096.278.361.246.544-.014.082-.066.085-.13.085-.104-.002-.208 0-.313 0zm-.078-.17c.087-.037.244.075.298-.064.031-.085-.039-.205-.14-.26a.32.32 0 0 0-.375.033c-.075.062-.158.159-.109.247.056.102.189.024.286.044.008.002.015 0 .04 0zm3.885.131l-.001.513c-.001.051.004.111-.063.126-.043.008-.1.001-.112-.048-.041-.142-.101-.045-.154-.017-.432.226-.754.031-.759-.458-.001-.208.003-.417.002-.624 0-.081.025-.125.116-.123.087.003.091.058.092.121.001.223.004.446-.001.669-.004.185.069.305.258.325.18.017.319-.038.38-.232.037-.118.012-.239.041-.352.046-.175-.14-.501.102-.499.22 0 .042.334.097.509.009.028.002.06.002.089-.002.001-.001.001 0 .001zm3.551.003c-.001.407-.214.65-.57.653-.364.002-.596-.256-.596-.66-.001-.411.224-.664.589-.662.36.001.578.252.577.669zm-.191-.042c-.008-.046-.015-.146-.052-.233a.333.333 0 0 0-.304-.225c-.156-.009-.289.038-.351.184-.089.213-.097.437.023.644.128.22.464.216.596-.001a.658.658 0 0 0 .088-.369zm-6.112.705c-.052-.002-.092.003-.125-.008-.098-.033-.269-.012-.23-.173.038-.153.151.005.23-.011.026-.006.058.013.086.013.15.004.329.022.374-.158.041-.162-.136-.187-.239-.245a2.12 2.12 0 0 0-.281-.133c-.131-.049-.179-.145-.18-.276 0-.145.073-.24.2-.293.186-.078.376-.055.565-.003.058.016.099.042.077.109-.019.064-.067.071-.124.062-.108-.021-.215-.061-.329-.044-.083.013-.166.034-.197.121-.036.106.061.146.123.186.08.05.175.081.263.117.18.074.341.166.316.398-.021.236-.199.29-.39.325-.05.007-.103.01-.139.013zm1.237-.003c-.242-.007-.363-.125-.38-.371-.012-.2-.003-.4-.005-.601-.001-.045-.018-.095-.003-.133.036-.09-.381-.013-.069-.186.121-.066.089-.198.16-.277.057-.06.125-.039.117.043-.017.188.072.234.236.215.055-.006.13-.012.129.08-.002.093-.082.082-.133.073-.224-.042-.239.086-.229.257.009.17.001.341.003.512.002.123.063.19.184.214.068.012.194-.045.174.096-.017.113-.136.053-.184.078zm3.571-.651l.001.514c0 .071-.025.116-.102.115-.074 0-.104-.043-.104-.114V56.36c-.001-.062.017-.099.088-.099.086-.001.12.037.118.121l-.001.535c.001 0 .001 0 0 0zm-4.453-5.73c-.099 0-.153-.037-.173-.108-.018-.068-.014-.139.056-.177.177-.092.356-.181.536-.269.074-.036.129 0 .168.064.035.061.062.143.004.185-.187.135-.401.219-.591.305zm4.462 4.726c-.003.079-.043.127-.121.131-.079.003-.096-.057-.098-.12s.012-.123.089-.128c.079-.006.121.038.13.117z"/><path d="M258.607 45.237a6.083 6.083 0 0 1-1.158-.151.905.905 0 0 1-.146-.051c-.13-.055-.179-.162-.134-.289.043-.125.138-.187.28-.155.333.075.664.156 1.009.16a4.65 4.65 0 0 0 1.256-.15c.167-.044.287-.012.334.156.046.162-.056.257-.199.294a7.472 7.472 0 0 1-1.242.186z"/></g><path fill="#8F90AA" d="M249.098 92.323c.11-.335.241-.652.544-.875.646-.472 1.626-.206 1.856.509.058.177.022.236-.169.232-.195-.004-.337-.009-.459-.224-.2-.353-.763-.323-1.014.021-.23.313-.231.938.001 1.25.147.196.336.292.592.259.26-.035.435-.154.512-.411.02-.062.006-.168.107-.171.153-.006.309-.006.46.016.063.008.016.088.008.133-.164 1.001-1.293 1.136-1.897.702a1.225 1.225 0 0 1-.463-.65c-.018-.06-.012-.135-.078-.173v-.618zm10.731-25.572c.069.073.154.14.154.251-.002.143-.063.259-.203.305-.121.041-.232.004-.31-.102-.085-.12-.098-.243.003-.361.027-.033.061-.063.09-.093h.266zm-4.989 5.562a2.302 2.302 0 0 1 2.296 2.301 2.291 2.291 0 0 1-2.319 2.297c-1.281-.008-2.288-1.037-2.28-2.334a2.28 2.28 0 0 1 2.303-2.264zm-.929 6.063a1.714 1.714 0 0 1-1.708 1.736c-.991.012-1.746-.778-1.737-1.773.008-.92.818-1.706 1.74-1.688.94.017 1.713.799 1.705 1.725zm2.391 6.234c-.006.874-.838 1.718-1.886 1.609a1.711 1.711 0 0 1-1.55-1.804c.063-1.017.899-1.71 1.898-1.633.904.071 1.61.911 1.538 1.828zm-4.318-3.507a1.148 1.148 0 0 1 1.155 1.163 1.16 1.16 0 0 1-1.164 1.135 1.16 1.16 0 0 1-1.146-1.156 1.157 1.157 0 0 1 1.155-1.142zm6.692-10.428a1.142 1.142 0 0 1 1.133-1.137c.644 0 1.172.532 1.162 1.168a1.147 1.147 0 0 1-1.146 1.129c-.671-.003-1.151-.489-1.149-1.16zm3.49 2.47c-.008-.629.503-1.16 1.115-1.16.647-.002 1.168.494 1.182 1.124a1.164 1.164 0 0 1-1.146 1.187c-.621.011-1.143-.511-1.151-1.151zm2.121 6.28c0-.609.524-1.144 1.119-1.139.65.006 1.177.521 1.18 1.155a1.164 1.164 0 0 1-1.172 1.159c-.626-.004-1.129-.528-1.127-1.175zm-7.507 8.971a1.144 1.144 0 0 1-1.147-1.172 1.158 1.158 0 0 1 1.153-1.126c.653.01 1.152.522 1.145 1.179a1.136 1.136 0 0 1-1.151 1.119zm12.026-7.134c0 .631-.501 1.127-1.139 1.128a1.151 1.151 0 0 1-1.162-1.137 1.166 1.166 0 0 1 1.15-1.159 1.153 1.153 0 0 1 1.151 1.168zm-4.914 3.768c-.007-.627.496-1.161 1.103-1.174a1.17 1.17 0 0 1 1.195 1.154 1.156 1.156 0 0 1-1.14 1.159c-.622.016-1.152-.503-1.158-1.139zm-2.879-.19a1.122 1.122 0 0 1 1.136-1.129c.628.002 1.153.507 1.161 1.119a1.162 1.162 0 0 1-1.172 1.178c-.636-.005-1.127-.517-1.125-1.168zm-2.341-.911c.635.011 1.157.544 1.137 1.165a1.166 1.166 0 0 1-1.173 1.134 1.17 1.17 0 0 1-1.139-1.17 1.156 1.156 0 0 1 1.175-1.129zm7.169-7.256c-.001.635-.532 1.171-1.146 1.154a1.182 1.182 0 0 1-1.151-1.161c-.002-.607.546-1.166 1.135-1.153.664.014 1.165.512 1.162 1.16zm-4.476 12.082c-.67-.005-1.148-.491-1.144-1.161.004-.618.539-1.149 1.144-1.134a1.17 1.17 0 0 1 1.152 1.155 1.14 1.14 0 0 1-1.152 1.14zm7.351 4.998c-.016.312-.241.164-.379.188-.158.028-.153-.092-.151-.201 0-.757.004-1.514-.002-2.271-.003-.159.051-.215.2-.195a.504.504 0 0 0 .155 0c.162-.021.203.058.195.206-.006.226-.001.454-.001.704.109-.063.19-.123.284-.158.458-.172.906.043 1.049.515.095.317.099.638-.036.949-.227.535-.8.657-1.314.263zm.877-.764c-.007-.095.003-.188-.032-.282-.086-.235-.222-.351-.429-.339-.224.015-.335.155-.394.358a.945.945 0 0 0 .048.622c.069.172.213.224.366.238.147.015.269-.064.345-.197a.671.671 0 0 0 .096-.4zm-12.456.117c.015.213-.031.465.031.712.01.042.021.086-.028.118-.08.049-.438-.004-.489-.091-.047-.081-.086-.034-.122-.009-.229.15-.476.175-.739.121-.272-.054-.438-.221-.459-.487-.025-.29.112-.495.387-.59.204-.069.42-.063.629-.105.143-.027.272-.072.253-.242-.019-.174-.157-.214-.311-.209-.154.006-.289.035-.353.206-.03.082-.405.148-.479.075-.116-.114-.02-.228.045-.329s.16-.175.272-.216a1.415 1.415 0 0 1 1.095.015c.17.074.269.223.268.423-.002.19 0 .382 0 .608zm-.532.068c-.04-.028.058-.161-.088-.132a5.844 5.844 0 0 0-.511.122c-.104.029-.146.122-.146.223 0 .1.05.175.151.219.307.131.597-.07.594-.432zm10.373-1.199a.993.993 0 0 1 .455.055c.236.094.341.246.352.503.015.425-.04.851.035 1.274.019.112-.033.158-.132.137-.141-.032-.332.104-.412-.135-.017-.053-.072.007-.104.028-.265.183-.555.167-.844.091-.237-.063-.328-.254-.349-.483a.522.522 0 0 1 .299-.52c.208-.104.441-.099.663-.143.132-.026.293-.019.311-.21.011-.121-.059-.213-.164-.232-.164-.032-.336-.053-.462.113-.041.054-.018.161-.12.163-.133.004-.269.014-.396-.009-.088-.016-.05-.105-.034-.167.073-.262.33-.437.683-.465.07-.005.144 0 .219 0zm.273 1.232c-.023-.052.056-.181-.084-.162-.167.021-.327.07-.488.111-.133.031-.169.142-.167.252.003.108.075.177.188.211.294.089.542-.089.551-.412zm-12.195.138c-.098.362-.321.55-.662.619-.4.084-.826-.069-1.035-.379-.221-.326-.219-.886.007-1.212.214-.313.646-.473 1.035-.386.429.094.765.587.707 1.019-.019.128-.099.105-.176.106-.346.002-.691.006-1.037-.002-.167-.004-.185.066-.138.2.097.271.493.396.712.18.178-.177.358-.151.587-.145zm-.905-.575c.087 0 .176-.007.262.001.181.019.152-.08.105-.184-.12-.264-.512-.304-.699-.07-.049.062-.112.134-.069.217.035.069.119.029.182.034.072.005.145.002.219.002zm8.708.343c-.183 0-.368.003-.551-.002-.127-.003-.147.044-.114.159a.461.461 0 0 0 .762.193.418.418 0 0 1 .35-.128c.213.01.229.03.122.225-.192.348-.57.486-1.076.389-.36-.067-.646-.387-.701-.785-.096-.666.335-1.195.97-1.194.607 0 .927.437.945 1.043.003.099-.063.101-.134.101l-.573-.001zm-.271-.343c.094 0 .188-.005.283.001.152.008.151-.063.102-.175-.058-.13-.145-.216-.293-.228-.168-.013-.321.021-.428.165-.042.056-.094.127-.062.198.034.072.117.031.179.038.072.004.145.001.219.001zm1.321-.16c0-.382.003-.765-.004-1.146-.001-.141.045-.195.191-.191.497.015.406-.06.411.403.006.521.006 1.043-.002 1.565-.003.151.038.207.196.201.301-.012.603.002.903-.006.139-.004.196.031.189.183-.014.384.042.324-.33.326-.456.003-.912-.005-1.367.003-.146.003-.192-.049-.19-.191.008-.382.003-.764.003-1.147zm-3.302.634c.108-.346.218-.692.325-1.038.048-.158.405-.278.536-.183.052.039.016.078.004.116-.191.569-.384 1.138-.574 1.71-.021.064-.058.088-.126.098-.427.058-.485.023-.624-.389-.15-.445-.298-.891-.456-1.332-.057-.157-.055-.227.143-.217.411.02.317-.058.441.327.097.3.188.6.281.9a.866.866 0 0 0 .05.008zM257.675 93c0-.125-.006-.251.001-.374.008-.162.006-.292-.222-.263-.13.016-.091-.107-.093-.178-.003-.076-.027-.187.104-.169.211.026.217-.093.213-.249-.001-.104-.061-.264.043-.305.128-.05.288-.022.435-.018.068.002.064.067.065.119.001.08.01.162-.001.241-.02.166.045.233.209.207.145-.022.168.055.17.18.001.13-.034.197-.173.174-.171-.027-.216.052-.208.212.013.234.008.469.003.705-.003.157.041.261.224.243.206-.02.138.135.15.237.013.119-.009.205-.159.19-.079-.007-.162.006-.242.002-.364-.017-.516-.173-.519-.537V93zm-5.257-.672c.16-.205.317-.349.557-.361.111-.006.175.017.18.152.01.298.018.298-.273.343-.272.04-.42.2-.433.495a9.96 9.96 0 0 0-.003.792c.006.157-.055.213-.205.197a.691.691 0 0 0-.176 0c-.141.018-.174-.048-.172-.176.005-.528.005-1.057 0-1.586-.002-.137.046-.174.178-.175.332.001.332-.006.347.319zm10.222-21.132a.6.6 0 0 1-.578.581.6.6 0 0 1-.585-.596.6.6 0 0 1 .588-.57c.309.008.58.284.575.585zm4.791 6.233a.562.562 0 0 1-.571.569c-.297.003-.571-.274-.577-.583-.005-.302.293-.59.602-.583.313.007.548.263.546.597zm-4.068-2.052a.585.585 0 0 1-.591.58.575.575 0 0 1-.559-.564.571.571 0 0 1 .577-.592.578.578 0 0 1 .573.576zm-.267 7.733a.555.555 0 0 1 .587-.55.572.572 0 0 1 .562.584.577.577 0 0 1-.583.564c-.333-.002-.572-.255-.566-.598zm-2.036-9.908a.572.572 0 0 1-.566-.577.59.59 0 0 1 .576-.574.575.575 0 0 1 .572.595.559.559 0 0 1-.582.556zm-6.579 4.855c0-.33.238-.574.56-.575a.575.575 0 0 1 .587.583.581.581 0 0 1-.582.567.56.56 0 0 1-.565-.575zm5.174 9.262a.57.57 0 0 1-.58.583.569.569 0 0 1-.566-.577c0-.315.255-.568.574-.57a.552.552 0 0 1 .572.564zm-8.141-11.161a.56.56 0 0 1-.563-.577.558.558 0 0 1 .567-.572.574.574 0 1 1-.004 1.149zm14.281-1.736a.581.581 0 0 1-.582.587c-.31-.005-.564-.271-.564-.587s.251-.563.574-.564a.555.555 0 0 1 .572.564zm-12.044 6.949a.564.564 0 0 1-.574-.568.592.592 0 0 1 .599-.577c.302.007.575.291.564.589a.57.57 0 0 1-.589.556zm14.294 2.159a.563.563 0 0 1-.563.579.575.575 0 0 1-.587-.558.58.58 0 0 1 .565-.583.578.578 0 0 1 .585.562zm-8.682-14.524a.567.567 0 0 1-.577-.566c.008-.313.27-.582.571-.584.312-.002.598.284.59.589a.58.58 0 0 1-.584.561zm4.003 18.287a.56.56 0 0 1-.579-.562.578.578 0 0 1 .564-.584c.292-.007.573.281.573.584a.563.563 0 0 1-.558.562zm-4.507 5.678c0-.257.007-.515-.003-.771-.005-.14.034-.209.184-.188.043.008.09.008.133 0 .17-.026.226.039.221.216-.012.507-.01 1.014-.001 1.521.002.148-.035.221-.195.199a.61.61 0 0 0-.176-.001c-.122.012-.168-.033-.165-.161.008-.272.002-.544.002-.815zm6.256-11.341a.556.556 0 0 1 .548.567.572.572 0 0 1-.564.58c-.316.001-.555-.254-.552-.586a.539.539 0 0 1 .568-.561zm-.865-.872c.159.003.275.136.266.309-.01.176-.108.264-.282.264a.276.276 0 0 1-.288-.291.298.298 0 0 1 .304-.282zm-9.453 6.038c.169.014.27.105.279.278.008.159-.138.299-.293.295-.153-.003-.297-.152-.282-.307.016-.172.114-.264.296-.266zm-4.003-6.509c.181-.001.325.138.323.292-.002.153-.15.308-.301.291-.164-.019-.265-.106-.268-.291-.003-.187.114-.252.246-.292zm16.242 4.92c-.164 0-.283-.125-.275-.298.005-.176.102-.265.275-.271a.287.287 0 0 1 .298.28.306.306 0 0 1-.298.289zm-14.738-.961c-.01.156-.099.264-.267.286-.155.02-.299-.12-.31-.28-.011-.15.136-.315.287-.299.159.018.277.101.29.293zm13.744-.667c-.16-.004-.302-.145-.287-.3.017-.169.119-.272.291-.271.167.002.276.092.279.273.004.175-.118.302-.283.298zm-11.649-1.667c-.006-.182.103-.271.264-.296.155-.022.301.121.309.281.006.144-.148.308-.295.296-.168-.013-.273-.103-.278-.281zm6.057 4.228c-.161 0-.277-.132-.272-.304.007-.178.107-.268.276-.269.171-.001.275.096.293.264.017.169-.127.309-.297.309zm-3.364-2.03c-.161-.005-.305-.146-.285-.302.023-.168.135-.258.301-.268.137-.011.286.145.286.283 0 .159-.138.29-.302.287zm-2.492-4.421c-.181 0-.326-.139-.317-.296.01-.172.115-.266.285-.274.175-.012.285.107.282.289-.004.179-.108.262-.25.281zm4.525 12.033c-.178.034-.264 0-.27-.214-.005-.233.104-.236.276-.237.174 0 .272.011.272.239.004.247-.123.233-.278.212zm11.395.31h-.067v-.496h.231c.081 0 .162.028.162.133 0 .073-.036.1-.068.12.028.012.056.023.061.092l.003.091c0 .027.003.038.024.05v.011h-.083a.745.745 0 0 1-.011-.124c0-.042-.009-.089-.088-.089h-.164v.212zm0-.271h.157c.047 0 .101-.012.101-.084 0-.077-.057-.084-.09-.084h-.168v.168z"/><path fill="#8F90AA" d="M270.657 92.259a.458.458 0 1 1 0-.915.458.458 0 0 1 0 .915zm0-.851a.395.395 0 1 0 0 .79.395.395 0 0 0 0-.79zm-75.886-11.872c-.548 0-.999.45-.999 1.002v7.027h7.081c.551 0 1.02-.478 1.02-1.028v-7.001h-7.102zm5.093 5.992l-4.157.733v-4.39l4.157-.738v4.395zm17.635-2.515a1.566 1.566 0 0 0-.188-.297 2.223 2.223 0 0 0-.24-.257 1.997 1.997 0 0 0-1.903-.39l-.004-.014-.016-.011h-.004c-.937.287-1.445 1.185-1.516 2.154v.02c-.072 1.15.607 2.196 1.816 2.41.092.019.181.028.275.036.094.01.202.013.273.013v-.003c.287 0 1.078-.031 1.166-.47.024-.133.049-.486.017-.687a2.263 2.263 0 0 1-1.108.271c-.063 0-.131.006-.191 0a1.636 1.636 0 0 0-.194-.016h-.003c-.461-.073-.859-.318-1.04-.79-.023-.044-.039-.144-.052-.144h1.505c.309 0 .618-.091.904-.228.216-.088.336-.207.455-.36.13-.174.208-.381.208-.614 0-.193-.048-.391-.153-.614l-.007-.009zm-1.363 1.04h-1.569c.072-.502.236-.832.459-1.012a.928.928 0 0 1 .174-.128 2.22 2.22 0 0 1 .203-.09l.017-.01v.003c.432-.141.801.006 1.056.262a.982.982 0 0 1 .207.295l.006.024c.2.464-.204.656-.553.656zm-7.955-2.187v-.036h-.358v.036c-.574 0-.978.203-1.316.537a1.87 1.87 0 0 0-.548 1.321v2.837h1.004v-2.867h-.002a.83.83 0 0 1 .257-.568c.156-.151.318-.232.605-.232v.011h.358v-.011c.215 0 .425.081.577.229.146.15.231.356.234.571h-.023v2.867h1.074v-2.837a1.85 1.85 0 0 0-.546-1.318 1.882 1.882 0 0 0-1.316-.54zm4.291 3.846c-.323-.032-.535-.126-.604-.471a1.869 1.869 0 0 1-.032-.273v-2.206h1.057c.39 0 .585-.116.625-.462l.039-.397h-1.721v-1.219h-1.004v4.284l-.002.026c.02.432.036.847.357 1.211.172.171.524.36.767.406.144.027.292.041.43.044.296.009.726-.026.934-.105.217-.083.269-.587.229-.964-.246.106-.76.168-1.075.126zm-8.522-5.101h1.075v5.95h-1.075zm16.201 1.255a1.84 1.84 0 0 0-1.304.521 1.843 1.843 0 0 0-.545 1.307h-.015v2.867h1.074v-2.867h-.023c0-.215.085-.421.232-.568a.835.835 0 0 1 .58-.232v.011h.287V81.83h-.287v.036zm8.818.374c-.425-.326-1.036-.371-1.556-.332-.327.022-.878.1-1.033.348-.065.104-.081.251-.081.373l-.003.403c.41-.235.681-.287 1.034-.313.271-.018.608-.008.845.091.187.058.295.22.359.36.071.168.13.475.113.711-.231.054-.875-.027-1.245-.001-.773.055-1.44.39-1.499 1.165-.09 1.078.796 1.672 1.967 1.643.285-.007.537-.063.763-.161.693-.312.909-.92.909-1.603v-1.386c0-.256-.028-.551-.146-.79a1.457 1.457 0 0 0-.427-.508zm-.287 2.299c0 .2.006.461-.04.636-.062.273-.188.488-.375.572-.235.107-.517.171-.948.116v-.019h-.011c-.338 0-.562-.307-.489-.678v-.032c0-.174.134-.372.347-.467.222-.101.442-.132.842-.136.204 0 .46.017.675-.015v.023zm10.751 2.023l-2.1-2.379 1.884-2.138h-1.04l-1.897 2.159v.008l2.116 2.35zm-3.153-2.358v-3.593h-1.005v5.951h1.005v-2.35l-.003-.004zm-2.414-1.812a1.87 1.87 0 0 0-1.313-.525v-.037h-.384.024v.036c-.571 0-.993.188-1.331.521-.334.342-.562.805-.562 1.307h.03v2.867h1.002v-2.867c0-.215.109-.421.265-.568.147-.151.31-.232.596-.232v.011h-.024.384v-.011c.216 0 .425.081.577.229.157.15.24.356.24.571h-.029v2.867h1.075v-2.867h-.011c0-.502-.208-.965-.539-1.302zm-9.823-.285c-.779-.212-1.406-.063-1.966.509l.011-1.933h-1.005v3.742c-.072 1.341.878 2.262 2.189 2.249 1.195-.01 2.198-.918 2.176-2.368-.012-1.132-.524-1.957-1.405-2.199zm-.816 3.712c-.361 0-.669-.153-.889-.437-.22-.289-.283-.604-.286-.973-.007-.435.031-.798.225-1.095.229-.337.572-.534.95-.534.67 0 1.212.582 1.212 1.507s-.543 1.532-1.212 1.532z"/></svg>