<svg xmlns="http://www.w3.org/2000/svg" xmlns:xlink="http://www.w3.org/1999/xlink" width="180" height="23"><defs><path id="a" d="M.212.294h9.516v15.152H.212z"/><path id="c" d="M.258.028h4.498v4.466H.258z"/></defs><g fill="none" fill-rule="evenodd" opacity=".5"><path fill="#1D2258" d="M52.832 19.2c2.605.028 4.52-1.873 4.566-4.533.047-2.673-1.81-4.657-4.385-4.69-2.697-.034-4.75 1.902-4.784 4.51-.036 2.65 1.95 4.684 4.603 4.713zM48.55 8.398c3.343-2.842 7.74-2.493 10.605.682 2.87 3.182 2.656 8.528-.461 11.526-2.769 2.663-7.22 2.784-9.903.251-.61.326.168 1.332-.547 1.422-1.053.132-2.143.076-3.205-.025-.487-.046-.307-.608-.308-.95-.01-6.438.01-12.876-.026-19.314-.004-.873.299-1.053 1.107-1.072C48.551.853 48.55.82 48.55 3.522v4.876zm48.205 11.125c2.923-.007 4.334-1.323 4.157-3.595-.021-.28.069-.832-.378-.672-1.714.615-3.631.284-5.27 1.178-.549.3-.922.74-.875 1.409.05.715.477 1.2 1.11 1.432.49.179 1.036.207 1.256.248m7.834-3.062c0 1.505.035 3.01-.02 4.51-.018.45.403 1.228-.421 1.31-.808.082-2.054.47-2.378-.25-.514-1.144-.87-.342-1.274-.151-2.187 1.037-4.434 1.208-6.714.415-1.943-.675-3.006-2.162-3.065-4.089-.068-2.218.866-3.707 2.873-4.556 1.71-.723 3.567-.689 5.352-1.024.913-.171 1.915-.29 1.883-1.533-.031-1.184-.992-1.437-1.915-1.566-1.523-.211-2.864.265-3.973 1.318-1.428 1.356-1.737-.508-2.505-.907-.91-.475-.096-.981.25-1.358 2.251-2.45 6.996-3.026 9.806-1.219 1.497.963 2.068 2.406 2.095 4.106.028 1.664.006 3.33.006 4.994m-65.986-1.326c-1.652.66-3.354.49-4.92 1.02-.853.288-1.626.728-1.49 1.788.13.993.89 1.367 1.804 1.523 3.09.529 4.81-.99 4.606-4.331m3.77 1.33c0 1.504.036 3.01-.02 4.51-.017.45.404 1.228-.426 1.307-.807.077-2.002.472-2.375-.26-.45-.88-.69-.488-1.143-.235-2.035 1.132-4.21 1.23-6.398.678-2.156-.543-3.45-2.211-3.51-4.266-.07-2.351.918-3.759 3.187-4.65 1.628-.64 3.37-.594 5.05-.919.928-.18 1.918-.324 1.882-1.542-.034-1.162-.997-1.437-1.928-1.562-1.523-.207-2.863.27-3.974 1.32-1.426 1.347-1.737-.51-2.505-.912-.91-.477-.087-.983.257-1.357 2.254-2.45 7.006-3.024 9.807-1.211 1.488.963 2.076 2.395 2.094 4.103.016 1.665.003 3.33.003 4.995m33.512-1.901c-.004-2.652-2.183-4.842-4.775-4.8-2.59.042-4.62 2.114-4.66 4.757-.04 2.718 2.02 4.846 4.695 4.848 2.685 0 4.744-2.087 4.74-4.805m-4.671-8.145c4.814.005 8.481 3.567 8.444 8.2-.037 4.655-3.723 8.178-8.525 8.15-4.857-.027-8.42-3.515-8.409-8.232.01-4.7 3.591-8.124 8.49-8.118m57.322 8.136c-.006-2.7-2.118-4.823-4.768-4.791-2.605.031-4.609 2.094-4.621 4.757-.014 2.784 1.953 4.824 4.67 4.848 2.662.023 4.726-2.082 4.72-4.814m-4.779 8.214c-4.705-.02-8.39-3.565-8.436-8.113-.046-4.735 3.716-8.275 8.758-8.237 4.702.034 8.264 3.601 8.232 8.24-.032 4.637-3.72 8.132-8.554 8.11m32.722-3.244c2.822 0 4.213-1.285 4.072-3.582-.018-.29.04-.861-.35-.71-1.755.678-3.768.251-5.413 1.276-1.081.675-1.033 1.924.044 2.61.564.362 1.206.395 1.647.406m7.745-3.311c0 1.612.026 3.224-.016 4.835-.012.453.346 1.29-.516 1.236-.788-.05-1.904.655-2.342-.505-.311-.823-.574-.32-.865-.135-1.937 1.224-4.053 1.318-6.21.926-2.232-.407-3.77-2.078-3.912-4.103-.175-2.494.843-4.02 3.229-4.936 1.632-.627 3.375-.576 5.054-.909.864-.172 1.792-.303 1.817-1.437.026-1.183-.881-1.489-1.829-1.64-1.527-.243-2.904.18-3.987 1.246-1.396 1.376-1.781-.352-2.51-.792-1.1-.662-.047-1.18.346-1.58 2.265-2.306 6.832-2.812 9.567-1.107 1.502.937 2.135 2.356 2.167 4.067.032 1.61.007 3.222.007 4.834M15.492 11.475c0-3.058.03-6.116-.018-9.174-.015-.954.105-1.419 1.266-1.397 2.745.051 2.747-.02 2.747 2.786 0 4.614.025 9.227-.022 13.84-.01.947.164 1.333 1.213 1.27 1.657-.097 3.331.067 4.986-.055 1.273-.095 1.63.387 1.465 1.542a4.704 4.704 0 0 0-.002 1.125c.066.679-.17.943-.892.936-3.272-.031-6.546-.051-9.817.008-1.036.019-.931-.566-.93-1.225.008-3.219.004-6.438.004-9.656m91.228-1.589c0-2.576.05-5.155-.025-7.73-.03-1.01.276-1.255 1.258-1.245 2.546.025 2.547-.027 2.547 2.472v.645c0 2.566-.002 2.6 2.554 2.746.708.041.963.25.892.941-.044.425-.06.866.002 1.286.163 1.1-.33 1.345-1.355 1.322-2.092-.046-2.093.01-2.093 2.1 0 1.557-.024 3.114.007 4.67.033 1.718.535 2.278 2.198 2.216.81-.03.968.162.984.934.055 2.517-.192 2.77-2.773 2.46-2.584-.312-3.902-1.494-4.053-4.13-.165-2.887-.038-5.79-.038-8.687h-.104zm30.871-1.388c1.353-1.473 2.85-1.983 4.608-1.993.856-.006 1.178.283 1.08 1.115a4.237 4.237 0 0 0 0 .963c.123 1.123-.043 1.67-1.489 1.555-2.616-.207-4.224 1.452-4.261 4.083-.033 2.304-.066 4.612.02 6.912.038 1.022-.274 1.351-1.247 1.211a4.535 4.535 0 0 0-1.283 0c-1.004.147-1.256-.254-1.244-1.24.055-4.34.062-8.683-.003-13.023-.016-1.087.33-1.452 1.354-1.29.21.033.43.022.642.002 1.145-.11 2.194-.112 1.823 1.705m-52.751.293c1.014-1.139 1.762-1.716 2.71-2.003.94-.285 2.137-.658 2.789-.098.747.643.212 1.925.27 2.925.041.714-.507.485-.912.488-3.434.022-4.752 1.337-4.77 4.764-.01 2.04-.047 4.081.018 6.119.033.982-.149 1.402-1.277 1.38-2.516-.05-2.517.018-2.517-2.534 0-3.864.06-7.73-.035-11.593-.03-1.258.361-1.646 1.526-1.448.209.035.434.034.643 0 1.217-.195 1.986.102 1.554 2m63.965 5.877c0 2.197-.034 4.396.018 6.592.02.81-.163 1.09-1.041 1.1-2.7.037-2.7.083-2.7-2.67 0-3.806.049-7.613-.028-11.418-.025-1.183.245-1.711 1.489-1.486a3.64 3.64 0 0 0 1.123.001c.896-.124 1.19.2 1.162 1.127-.068 2.25-.023 4.502-.023 6.754"/><g transform="translate(169.925 6.689)"><mask id="b" fill="#fff"><use xlink:href="#a"/></mask><path fill="#1D2258" d="M1.639 15.44c-.34-.396-.963-.946-1.353-1.629-.3-.527.389-.802.699-1.117C2.3 11.352 3.62 10.01 5.008 8.743c.74-.675.724-1.124-.006-1.794C3.578 5.643 2.282 4.195.837 2.914c-.853-.756-.55-1.222.129-1.761.555-.44.882-1.444 1.875-.4 2.074 2.178 4.249 4.259 6.4 6.362.483.472.747.82.115 1.425-2.21 2.118-4.37 4.29-6.559 6.43-.218.211-.407.52-1.158.47" mask="url(#b)"/></g><path fill="#1D2258" d="M9.528 8.275c-.042.88-.408 1.071-.66 1.324-1.4 1.4-2.792 2.811-4.237 4.164-.614.576-.627.96-.005 1.543 1.483 1.39 2.884 2.869 4.365 4.26.616.579.706 1.074-.021 1.518-.593.362-.895 1.71-1.994.603a486.869 486.869 0 0 0-6.64-6.528c-.456-.441-.44-.747.002-1.179 2.259-2.207 4.494-4.436 6.748-6.648.242-.237.465-.65.924-.263.57.48 1.167.928 1.518 1.206"/><g transform="translate(144.403 .644)"><mask id="d" fill="#fff"><use xlink:href="#c"/></mask><path fill="#1D2258" d="M2.51.028c1.264-.017 2.235.93 2.246 2.188.01 1.23-.993 2.268-2.2 2.278C1.372 4.504.275 3.442.258 2.27.242 1.085 1.287.045 2.51.028" mask="url(#d)"/></g></g></svg>