<svg xmlns="http://www.w3.org/2000/svg" xmlns:xlink="http://www.w3.org/1999/xlink" width="139" height="32"><defs><path id="a" d="M.375.117h25.707v30.794H.375z"/></defs><g fill="none" fill-rule="evenodd" opacity=".5"><g transform="translate(112.59 .354)"><mask id="b" fill="#fff"><use xlink:href="#a"/></mask><path fill="#1D2258" d="M9.424 10.403v9.499c0 .755.15.886.884.836.938-.064 1.742-.43 2.385-1.115a113.43 113.43 0 0 0 2.486-2.744c.216-.245.385-.536.556-.817.202-.333.073-.568-.272-.649-.47-.109-.951-.168-1.426-.257-.385-.072-.555-.368-.524-.886.028-.453.198-.635.623-.652 1.905-.073 3.812-.12 5.716-.224 1.135-.062 2.265-.219 3.4-.317.262-.023.633-.203.753.165.109.332.087.717.075 1.077-.003.08-.194.19-.314.223-.33.09-.665.157-1.001.214-.956.16-1.85.507-2.631 1.072a92.262 92.262 0 0 0-3.677 2.816c-.596.478-.627.743-.186 1.363 1.723 2.425 3.479 4.826 5.204 7.249.831 1.167 1.965 1.754 3.34 1.935.254.033.504.09.754.145.413.09.565.362.498.88-.065.502-.255.655-.71.655-3.658.002-7.314.01-10.971.023-.403 0-.615-.158-.69-.59-.09-.518.074-.855.468-.953.248-.062.499-.114.747-.177.299-.075.414-.238.232-.532-.213-.341-.41-.694-.643-1.021-1.097-1.549-2.205-3.089-3.306-4.634-.27-.378-.589-.66-1.076-.693-.338-.023-.551.109-.617.45-.033.17-.067.343-.066.515.017 1.43.036 2.86.067 4.291.005.244.054.489.11.727.117.494.42.817.92.91.405.075.815.123 1.223.18.387.055.562.354.514.885-.044.484-.21.65-.608.65-3.528 0-7.057.002-10.586.009-.48 0-.662-.167-.696-.697-.035-.54.15-.785.617-.839.41-.046.82-.09 1.226-.157.614-.099.968-.493 1.038-1.1.078-.672.13-1.352.13-2.03 0-6.578-.032-13.156-.006-19.734.005-1.18-.38-1.956-1.468-2.396-.48-.193-.641-.633-.455-1.095a.747.747 0 0 1 .4-.38C4.037 1.73 6.22.998 8.403.259c.094-.032.183-.083.278-.109.51-.135.855.15.846.67-.055 3.194-.104 6.388-.154 9.583h.05" mask="url(#b)"/></g><path fill="#1D2258" d="M12.946 24.49c.107-.12.142-.147.16-.182.741-1.51 1.52-3.004 2.2-4.543.227-.517.27-1.151.268-1.731-.002-.925-.906-1.998-1.77-2.151a11.4 11.4 0 0 0-3.782-.04c-.703.112-.873.375-.635 1.045.265.745.576 1.476.916 2.188.856 1.791 1.74 3.568 2.643 5.413m4.025-2.973c-.88 1.751-1.737 3.445-2.585 5.144-.766 1.532-1.534 3.063-2.275 4.607-.188.393-.47.561-.86.598a4.18 4.18 0 0 1-.725.004c-.408-.032-.688-.216-.883-.625-2.166-4.565-4.359-9.115-6.523-13.68-.505-1.066-1.23-1.765-2.423-1.942-.643-.096-.905-.834-.512-1.382.097-.136.357-.217.541-.215 1.793.018 3.586.094 5.378.086 5.664-.025 11.328-.079 16.992-.122.465-.003.598.127.647.648.051.537-.101.803-.497.897-.594.14-1.186.287-1.777.437-.33.084-.42.313-.339.628.036.14.063.284.12.414 1.081 2.464 2.165 4.926 3.25 7.388.048-.005.097-.008.147-.012.057-.117.124-.23.17-.352.84-2.145 1.7-4.282 2.503-6.441.574-1.54.492-1.64-1.104-1.997-.651-.146-.857-.483-.694-1.13.085-.338.257-.495.635-.48 1.422.054 2.845.092 4.268.099.853.004 1.706-.06 2.56-.097.396-.017.564.137.622.58.07.542-.069.852-.423.943-.014.003-.027.01-.041.01-1.556.099-2.406 1.033-3.02 2.415-1.96 4.405-3.996 8.777-5.97 13.176-.242.538-.581.734-1.106.755-.969.04-1.136-.092-1.557-.979-1.449-3.056-2.917-6.103-4.379-9.153-.024-.05-.06-.096-.14-.222m44.477 2.856l.144.034c.775-1.678 1.566-3.348 2.31-5.04.15-.341.156-.763.166-1.15.03-1.135-.91-2.337-2.013-2.428a25.55 25.55 0 0 0-3.443-.02c-.846.045-.993.36-.718 1.182.101.3.215.598.35.883.848 1.778 1.7 3.554 2.56 5.327.199.412.428.809.644 1.212m11.678.032c.454-1.112.903-2.154 1.304-3.214a119.285 119.285 0 0 0 1.547-4.309c.276-.825.156-.981-.687-1.208-.274-.074-.554-.128-.831-.189-.42-.092-.55-.346-.478-.937.06-.49.202-.624.634-.624 2.29.001 4.58.01 6.87-.01.465-.005.545.289.61.619.087.452-.096.832-.419.919a3.675 3.675 0 0 1-.5.105c-1.124.138-1.846.778-2.318 1.804-1.462 3.178-2.957 6.34-4.42 9.517-.654 1.425-1.27 2.87-1.883 4.314-.14.33-.352.536-.684.569a5.415 5.415 0 0 1-1.063 0c-.331-.034-.528-.249-.68-.571-1.487-3.15-2.993-6.291-4.494-9.434-.037-.078-.082-.151-.158-.291-.106.186-.192.326-.265.472-1.52 3.038-3.056 6.068-4.543 9.122-.313.642-.766.758-1.376.762-.606.003-.979-.213-1.257-.802-2.113-4.478-4.26-8.94-6.399-13.406-.136-.286-.3-.557-.457-.832-.43-.758-1.153-1.024-1.937-1.203-.66-.15-.877-.542-.694-1.191.084-.297.246-.443.583-.442 6.59.025 13.179.04 19.769.049.896.001 1.793-.03 2.688-.077.441-.024.58.213.618.589.06.592-.104.887-.508.976-.57.124-1.134.267-1.7.404-.404.098-.532.346-.377.74.3.764.568 1.542.905 2.288.778 1.718 1.59 3.42 2.389 5.128.047.101.112.195.21.363"/><path fill="#1D2258" d="M93.926 23.468c.034-.004.068-.01.103-.013-.154-1.244-.257-2.497-.475-3.728-.218-1.231-.651-2.398-1.507-3.344-1.185-1.308-3.007-1.33-4.239-.064-.532.547-.87 1.212-1.085 1.939-.674 2.282-.629 4.591-.192 6.903.252 1.333.692 2.596 1.637 3.607 1.555 1.663 4.011 1.281 4.999-.771a6.08 6.08 0 0 0 .325-.845c.369-1.2.441-2.438.434-3.684m-3.442 8.328c-2.495-.034-4.397-.334-6.17-1.213-3.175-1.574-4.782-4.17-4.77-7.757.008-3.337 1.422-5.959 4.25-7.616 4.18-2.45 8.515-2.494 12.727-.121 3.11 1.753 4.301 4.678 4.082 8.22-.277 4.464-3.26 7.212-7.441 8.12-1.052.228-2.137.295-2.678.367M39.69 19.136v.057c.412 0 .828.033 1.236-.008.534-.054 1.072-.127 1.587-.272.206-.058.439-.298.514-.509.366-1.027-.203-2.28-1.19-2.712-1.77-.777-4.322.54-4.757 2.456-.148.65.036.942.693.98.637.036 1.278.008 1.917.008zm2.52 1.958c-1.565 0-3.13-.01-4.696.004-.775.008-.853.111-.846.887.03 3.328 2.504 5.98 5.797 6.154.772.04 1.566-.018 2.328-.154 1.051-.188 1.865-.82 2.505-1.681.305-.41.582-.46 1-.186.426.28.537.682.298 1.109-.881 1.576-2.112 2.783-3.706 3.603-3.63 1.864-8.817 1.108-11.57-1.722-1.907-1.96-2.592-4.37-2.317-7.07.473-4.642 4.1-7.986 8.68-8.472 1.858-.197 3.675-.061 5.371.795 2.063 1.04 3.237 2.72 3.347 5.096.053 1.146-.322 1.575-1.45 1.594-1.58.027-3.16.007-4.74.007v.036z"/><path fill="#1D2258" d="M104.929 31.219l-5.388.143c-.466.012-.626-.152-.666-.674-.04-.519.133-.787.555-.842.339-.044.68-.065 1.017-.118.759-.12 1.049-.372 1.16-1.157.096-.669.128-1.352.133-2.028.015-2.37.006-4.74.005-7.11 0-.174-.02-.348-.011-.52.043-.99-.344-1.704-1.268-2.084-.424-.174-.544-.515-.5-.947.031-.302.16-.487.474-.577 2.204-.632 4.37-1.369 6.426-2.414.187-.095.528-.001.737.116.12.067.168.36.163.547-.014.49-.097.978-.111 1.468-.012.447.305.616.679.372.586-.384 1.15-.8 1.742-1.174.809-.51 1.676-.848 2.652-.822 1.19.032 2.19.823 2.427 1.933.274 1.279-.258 2.513-1.358 3.03-1.128.53-2.218.507-3.248-.306a6.912 6.912 0 0 0-1.375-.854c-.626-.289-1.024-.09-1.188.592a7.088 7.088 0 0 0-.198 1.625c-.005 2.76-.01 5.52.046 8.28.035 1.746.47 1.979 1.88 2.046.356.017.71.048 1.063.092.383.047.539.339.481.898-.036.35-.114.642-.58.628-1.863-.06-3.726-.095-5.75-.143"/></g></svg>