<svg xmlns="http://www.w3.org/2000/svg" xmlns:xlink="http://www.w3.org/1999/xlink" width="100" height="120"><defs><path id="a" d="M0 119.534h99.085V0H0z"/></defs><g fill="none" fill-rule="evenodd" opacity=".5"><path fill="#141C59" d="M34.125 114.347c-.458 0-.823.15-1.095.448-.272.298-.433.712-.483 1.239h2.982c0-.546-.12-.962-.363-1.252-.244-.29-.59-.435-1.041-.435m.233 5.187c-.842 0-1.507-.257-1.994-.77-.488-.514-.731-1.226-.731-2.137 0-.92.226-1.65.679-2.191.453-.541 1.06-.81 1.824-.81.713 0 1.279.234 1.695.703.415.47.623 1.09.623 1.86v.547h-3.927c.018.669.187 1.177.507 1.523.322.348.774.52 1.356.52.613 0 1.22-.129 1.82-.385v.77a4.653 4.653 0 0 1-.865.284 4.843 4.843 0 0 1-.987.086m7.247-1.66c0 .531-.198.94-.593 1.229-.395.287-.95.43-1.665.43-.755 0-1.345-.118-1.768-.358v-.801c.273.14.568.25.882.328.312.078.616.119.906.119.452 0 .799-.072 1.041-.215.244-.145.365-.363.365-.658 0-.223-.097-.412-.289-.57-.193-.158-.569-.345-1.126-.56-.532-.197-.908-.37-1.132-.518a1.528 1.528 0 0 1-.499-.5 1.311 1.311 0 0 1-.164-.671c0-.465.189-.832.567-1.101.378-.27.897-.403 1.556-.403.613 0 1.212.124 1.799.374l-.307.703c-.571-.236-1.09-.355-1.554-.355-.41 0-.72.064-.927.194-.208.128-.312.305-.312.53a.64.64 0 0 0 .118.39c.077.108.203.21.375.307.174.097.507.238.999.421.678.245 1.134.494 1.372.744.237.25.356.563.356.941m3.245.947c.153 0 .301-.012.442-.034.143-.021.256-.045.34-.07v.66a1.554 1.554 0 0 1-.415.113c-.181.03-.346.044-.492.044-1.102 0-1.653-.58-1.653-1.743V114.4h-.817v-.417l.817-.358.364-1.218h.5v1.321h1.653v.672h-1.654v3.355c0 .344.082.607.245.79.163.184.386.276.67.276m2.732-5.093v3.699c0 .464.104.812.318 1.04.21.23.541.343.993.343.596 0 1.032-.162 1.308-.489.276-.326.413-.858.413-1.597v-2.996h.863v5.702h-.712l-.125-.765h-.048a1.719 1.719 0 0 1-.735.645c-.313.15-.672.224-1.074.224-.693 0-1.214-.165-1.558-.495-.344-.328-.517-.856-.517-1.58v-3.731h.874zm7.88 5.082c.59 0 1.017-.16 1.283-.48.265-.321.397-.839.397-1.554v-.181c0-.807-.134-1.385-.402-1.73-.27-.345-.7-.518-1.289-.518-.505 0-.893.198-1.161.59-.27.395-.404.95-.404 1.668 0 .728.134 1.279.401 1.649.266.371.659.557 1.175.557zm1.727-.145h-.047c-.398.579-.994.869-1.788.869-.747 0-1.326-.256-1.741-.765-.415-.51-.62-1.233-.62-2.174 0-.94.207-1.67.622-2.191.417-.52.995-.779 1.739-.779.773 0 1.366.28 1.779.843h.066l-.035-.411-.022-.401v-2.32h.863v8.094h-.7l-.116-.765z"/><mask id="b" fill="#fff"><use xlink:href="#a"/></mask><path fill="#141C59" d="M59.838 119.43h.864v-5.702h-.864v5.702zm-.074-7.246c0-.198.049-.342.146-.434a.51.51 0 0 1 .365-.138c.138 0 .258.047.357.14.102.093.152.238.152.432 0 .193-.05.34-.152.434a.497.497 0 0 1-.357.143.5.5 0 0 1-.365-.143c-.097-.095-.146-.24-.146-.434zm3.346 4.39c0 .728.146 1.283.436 1.665.29.38.72.571 1.284.571.566 0 .996-.188 1.289-.568.292-.38.44-.936.44-1.668 0-.724-.148-1.275-.44-1.651-.293-.376-.727-.565-1.299-.565-.565 0-.993.186-1.28.557-.287.37-.43.924-.43 1.659m4.342 0c0 .93-.233 1.656-.702 2.177-.469.521-1.114.783-1.94.783-.51 0-.963-.12-1.357-.36a2.354 2.354 0 0 1-.916-1.03c-.215-.446-.323-.97-.323-1.57 0-.93.233-1.653.698-2.172.464-.519 1.11-.777 1.934-.777.798 0 1.432.265 1.901.795.47.531.705 1.25.705 2.154M8.789 92.863c.47 0 .685.468.685.918 0 .508-.235.977-.685.977H5.782v11.7c0 .45-.53.683-1.035.683-.528 0-1.036-.233-1.036-.684v-11.7H.685C.254 94.758 0 94.31 0 93.8c0-.45.215-.937.685-.937H8.79zm2.246.664c0-.47.527-.664 1.036-.664.529 0 1.035.195 1.035.664v12.931c0 .45-.506.684-1.035.684-.509 0-1.036-.234-1.036-.684V93.527zm11.387 12.853l-4.667-8.888v8.966c0 .45-.506.684-1.036.684-.508 0-1.034-.234-1.034-.684V93.547c0-.49.507-.684 1.034-.684.742 0 1.095.274 1.563 1.171l4.338 8.459v-8.966c0-.47.525-.664 1.032-.664.529 0 1.036.195 1.036.664v12.931c0 .45-.507.684-1.036.684-.507 0-.956-.253-1.23-.762M35.04 92.863c.47 0 .684.468.684.918 0 .508-.233.977-.683.977h-3.009v11.7c0 .45-.527.683-1.033.683-.53 0-1.038-.233-1.038-.684v-11.7h-3.028c-.429 0-.684-.448-.684-.957 0-.45.215-.937.684-.937h8.108zm5.86-1.876a.515.515 0 0 1-.235.06c-.39 0-.683-.43-.683-.802 0-.215.077-.392.294-.507l2.422-1.23a1 1 0 0 1 .214-.04c.39 0 .663.43.663.801 0 .215-.08.43-.31.528l-2.365 1.19zm2.695 6.233c0-1.721-.88-2.522-2.323-2.522-1.465 0-2.306.8-2.306 2.522v5.683c0 1.719.841 2.52 2.306 2.52 1.443 0 2.323-.801 2.323-2.52V97.22zm-6.7 5.683V97.22c0-3.167 1.894-4.357 4.377-4.357 2.46 0 4.394 1.19 4.394 4.357v5.683c0 3.165-1.934 4.356-4.394 4.356-2.483 0-4.377-1.191-4.377-4.356zm15.43-8.205c-1.465 0-2.304.8-2.304 2.522v5.683c0 1.719.839 2.52 2.304 2.52 1.447 0 2.324-.801 2.324-2.52v-1.6h-1.97c-.43 0-.666-.412-.666-.842 0-.391.235-.82.666-.82h3.361c.427 0 .682.331.682.704v2.558c0 3.164-1.934 4.357-4.397 4.357-2.479 0-4.375-1.193-4.375-4.357V97.22c0-3.165 1.933-4.356 4.317-4.356 2.62 0 4.455 1.406 4.455 3.612 0 .801-.351.997-1.035.997-.55 0-1.018-.176-1.038-.683-.116-1.134-.623-2.092-2.324-2.092m8.672 0v4.65h2.347c1.462 0 2.422-.626 2.422-2.324 0-1.699-.96-2.326-2.422-2.326h-2.347zm-2.049-1.17c0-.353.273-.664.682-.664h3.714c2.459 0 4.49.956 4.49 3.983 0 2.325-1.19 3.478-2.754 3.868l2.735 5.137a.59.59 0 0 1 .08.292c0 .53-.664 1.056-1.25 1.056-.351 0-.627-.234-.822-.605l-2.851-5.587h-1.975v5.45c0 .45-.506.684-1.034.684-.507 0-1.015-.235-1.015-.684v-12.93zm17.071 8.75l-1.952-6.701-1.954 6.701h3.906zm-7.17 4.005c0-.059 0-.118.021-.177l3.887-12.658c.155-.467.722-.703 1.31-.703.584 0 1.17.236 1.326.703l3.869 12.658c.02.059.039.118.039.177 0 .488-.724.858-1.31.858-.331 0-.606-.117-.702-.428l-.801-2.774h-4.826l-.802 2.774c-.096.31-.37.428-.721.428-.566 0-1.29-.351-1.29-.858zm11.994-12.736c0-.45.47-.684.916-.684h6.856c.472 0 .665.47.665.897 0 .51-.234.937-.665.937h-5.7v4.475h3.027c.427 0 .663.39.663.84 0 .37-.195.8-.663.8h-3.028v5.647c0 .469-.509.682-1.036.682-.508 0-1.035-.213-1.035-.682V93.547zm16.173 3.673c0-1.721-.88-2.522-2.325-2.522-1.465 0-2.303.8-2.303 2.522v5.683c0 1.719.838 2.52 2.303 2.52 1.445 0 2.325-.801 2.325-2.52V97.22zm-6.7 5.683V97.22c0-3.167 1.895-4.357 4.375-4.357 2.46 0 4.394 1.19 4.394 4.357v5.683c0 3.165-1.933 4.357-4.394 4.357-2.48 0-4.375-1.192-4.375-4.357zm-49.22-73.866c-.183 0-.37-.047-.54-.147a1.066 1.066 0 0 1-.375-1.455l8.973-15.167c.191-.322.536-.52.91-.52h.003c.375 0 .723.194.91.516l9.065 15.166a1.064 1.064 0 0 1-1.823 1.091L50.07 14.886l-8.061 13.63a1.06 1.06 0 0 1-.914.521m.569 32.977a1.063 1.063 0 0 1-1.062-1.035l-.757-29.998a1.061 1.061 0 0 1 1.804-.786l3.766 3.687 3.971-3.77a1.063 1.063 0 0 1 1.46-.005l4.017 3.776 3.713-3.677c.31-.304.77-.391 1.171-.219.394.172.65.568.64 1.002l-.758 29.946a1.062 1.062 0 0 1-1.062 1.035h-.027a1.061 1.061 0 0 1-1.035-1.088l.69-27.31-1.883 1.865a2.046 2.046 0 0 1-1.45.596 2.052 2.052 0 0 1-1.41-.56l-3.331-3.131-3.29 3.124a2.05 2.05 0 0 1-2.858-.022l-1.939-1.899.691 27.38a1.06 1.06 0 0 1-1.033 1.089h-.028z" mask="url(#b)"/><path fill="#141C59" d="M48.156 87.511c-.19 0-.38-.042-.564-.14-1.122-.604-1.002-1.75-.906-2.672.093-.89.211-1.996-.212-3.545-.49-1.797-1.944-2.7-3.626-3.744-2.382-1.481-5.349-3.323-5.346-8.322.002-5.424 2.58-8.042 3.373-8.716a1.063 1.063 0 0 1 1.378 1.618c-.618.523-2.626 2.585-2.628 7.1-.002 3.816 2.012 5.067 4.345 6.516 1.801 1.119 3.844 2.387 4.553 4.99.528 1.934.375 3.372.276 4.323-.004.032-.006.065-.011.097 2.897-1.763 11.162-8.86 11.495-14.04.365-5.663-2.21-8.874-2.504-9.222a1.06 1.06 0 1 1 1.62-1.374c.35.415 3.42 4.238 3.004 10.732-.43 6.711-10.427 14.552-12.945 15.951-.407.224-.858.448-1.302.448" mask="url(#b)"/><path fill="#141C59" d="M45.465 61.792zm4.58 2.533c-1.482 0-2.913-.204-3.853-.377-2.059-.377-2.315-.54-2.516-1.079-.208-.548.07-1.16.62-1.366a1.04 1.04 0 0 1 .811.026c.375.115 2.643.672 4.936.672h.07c2.548-.013 5.138-.72 5.165-.729a1.061 1.061 0 0 1 .568 2.048c-.12.03-2.893.791-5.727.805h-.074zm15.793-4.174a1.414 1.414 0 0 1-.736-2.63c8.87-5.322 14.355-15.049 14.31-25.38-.067-16.23-13.328-29.378-29.554-29.31-16.232.07-29.378 13.329-29.31 29.558.044 10.385 5.393 19.78 14.31 25.133.67.4.888 1.27.487 1.942a1.42 1.42 0 0 1-1.945.485c-9.771-5.866-15.634-16.164-15.683-27.547C17.641 14.61 32.052.076 49.843 0c17.793-.077 32.327 14.335 32.4 32.127.049 11.325-5.961 21.988-15.684 27.823-.227.134-.474.2-.72.2" mask="url(#b)"/></g></svg>