<svg xmlns="http://www.w3.org/2000/svg" width="400" height="400"><path fill="none" d="M0 0h399.996v400H0z"/><path d="M205.771 154.108c.765-2.119 1.562-4.212 2.26-6.364.214-.697.198-.557.413-1.146.146-.025.31-.036.496-.034 4.835.058 9.384.05 14.22 0 .055.229.102.339.384 1.169.748 2.285 1.535 4.455 2.3 6.723.564 1.628 3.452.956 4.299.814 1.113-.191.166-1.113 0-1.554-4.005-11.025-8.076-20.53-12.104-31.555-.291-.781-.591-.308-1.339-.308h-1.978c.184 0-.149-.457-.332.05-2.359 6.455-4.719 12.129-7.078 18.561-1.762 4.786-3.523 9.197-5.268 13.982-.141.391-.715.707 0 1.08.997.535 3.353-.354 3.727-1.418zm3.867-10.759c1.961-5.517 3.905-12.063 5.865-17.581.183-.523.416.541.698-.133l7.444 22.457h-12.097c-.38 0-3.229-.005-3.549-.016.001.001.73-2.409 1.639-4.727zm157.574 125.87l-193.283.017a750.23 750.23 0 0 1-.179 4.554l192.647.382c1.279.116.781-.291.781-.499.042-1.48.034-2.958.034-4.454zm-.963 0v.016zM202.742 251.14c1.678.216 3.406.101 5.101.033.541-.017.549-.614.682-1.005.599-1.711 1.229-3.423 1.753-5.159.258-.839.689-1.097 1.538-1.089 2.8.042 5.615-.008 8.424.017 1.528.025 3.439-.606 4.47.267 1.03.839 1.196 3.647 1.695 5.109.98 2.824.964 1.979 3.862 1.979h1.006c2.052 0 2.061.845 1.354-1.083-3.864-10.551-7.734-21.559-11.606-32.136-1.014-2.783-1.03-2.949-3.922-3.049-1.146-.017-1.729.19-2.127 1.346-1.296 3.772-2.742 7.461-4.104 11.225-2.708 7.41-5.416 14.813-8.125 22.241-.142.44-.765 1.205-.001 1.304zm9.654-12.138l5.5-15.719 5.4 15.743-10.9-.024zm24.26 12.238c5.375-.125 11.083.324 16.434-.241 3.872-.44 6.93-2.476 8.208-6.356 1.62-4.876.233-8.897-4.437-12.188 1.986-1.163 3.407-2.676 4.055-4.769 1.545-4.944-.465-11.84-8.433-12.679-5.034-.507-10.676-.066-15.728-.183-1.172-.033-1.596.673-1.596 1.379v33.698c.001.632.393 1.347 1.497 1.339zm6.224-31.339c2.583.058 5.15-.041 7.734.033 3.107.092 5.076 1.969 5.201 4.811.125 2.958-1.495 5.018-4.637 5.309-2.816.258-5.69.101-8.549.166-.698.025-.798-.324-.773-.913.017-1.421 0-2.867 0-4.288 0-1.32.034-2.634-.024-3.954-.041-.791.1-1.189 1.048-1.164zm-1.048 16.209c-.008-.714.225-.955.939-.947 2.741.051 5.5-.058 8.241.075 3.457.183 5.435 2.334 5.351 5.607-.066 3.208-2.226 5.26-5.684 5.293-2.574.033-5.167-.017-7.742.025-.881.008-1.146-.274-1.105-1.13.067-1.479.024-2.982.024-4.462 0-1.503.035-2.99-.024-4.461zm58.092-32.783c1.104 0 1.536-.242 1.504-1.446-.067-4.694.017-9.372-.05-14.041 0-1.039.249-1.313 1.278-1.288 2.526.091 5.068.075 7.578 0 .848-.024 1.237.274 1.62 1.022 2.285 4.553 4.677 9.064 7.004 13.6 1.229 2.368 1.329 2.435 4.271 1.903-.101-.199-.142-.398-.241-.599a3934.03 3934.03 0 0 0-7.627-14.581c-.457-.864-.814-1.37.639-1.752 4.72-1.28 7.361-5.359 6.897-10.252-.499-5.209-3.573-8.425-8.708-8.849-4.728-.399-9.472-.041-14.189-.166-1.098-.042-1.347.299-1.347 1.363.033 11.25.042 22.482 0 33.714-.017 1.13.332 1.363 1.371 1.372zm1.454-32.768c-.008-.872.281-1.13 1.146-1.105 3.397.025 6.813-.117 10.21.025 3.017.141 5.575 1.229 6.755 4.354 1.097 2.949.433 6.339-1.611 8.242-1.454 1.346-3.232 1.87-5.135 1.902-3.406.034-6.813-.033-10.219.034-.997.017-1.164-.374-1.146-1.246.066-1.978.033-3.963.033-5.94 0-2.079.033-4.189-.033-6.266zm-86.224 5.4c-.548 2.966-.416 6.023-.448 9.047.024 2.925-.017 5.833.383 8.749.082.648.231 1.288.431 1.911 1.504 4.811 6.356 7.909 12.271 7.844 5.351-.067 9.796-3.473 11.325-8.683.572-1.977.349-2.202-1.712-1.985-1.006.116-.814.906-.997 1.438-1.496 4.337-5.475 7.136-9.654 6.78-4.919-.424-8.233-3.315-8.799-8.217a64.864 64.864 0 0 1 .041-15.802c.541-4.346 3.44-7.045 7.91-7.785 3.905-.64 7.727 1.288 9.604 4.91.398.773.682 1.604.963 2.426.541 1.562 1.813.673 2.644.656.813-.008.231-.855.115-1.296-1.512-5.849-5.956-9.306-11.98-9.372-5.865-.059-11.083 3.912-12.097 9.379zm-36.514 75.298c5.828-.092 11.652-.025 17.48-.025 3.664 0 3.623 0 3.614-3.763 0-1.105-.341-1.363-1.404-1.355-4.848.051-9.675-.008-14.51.051-1.222.017-1.55-.267-1.542-1.521.062-8.532.021-17.048.021-25.597 0-4.254 0-4.204-4.254-4.246-1.259 0-1.4.457-1.392 1.528.054 5.566.029 11.117.029 16.684v-.009c0 5.434.079 10.893-.054 16.351-.024 1.644.487 1.926 2.012 1.902zm28.448-84.404c-1.089.033-1.487.25-1.487 1.454.033 11.183.033 22.341 0 33.523 0 1.098.216 1.538 1.428 1.529 1.131-.032 1.463-.315 1.463-1.479-.066-5.55-.033-11.108-.033-16.667 0-5.608-.017-11.225.024-16.833-.001-1.078-.15-1.568-1.395-1.527zm35.808 2.626c2.534-.083 5.061-.025 7.586-.025 2.442.008 2.143-.274 2.143 2.061 0 10.136 0 20.255-.017 30.4 0 1.014.175 1.445 1.33 1.413 1.088-.009 1.495-.217 1.479-1.43-.066-5.118-.017-10.245-.017-15.346 0-5.06.033-10.127-.033-15.204-.024-1.438.241-2.035 1.845-1.936 2.575.166 5.168 0 7.752.05.964.033 1.37-.141 1.296-1.221-.059-.873-.051-1.388-1.205-1.363-7.378.05-14.739.05-22.1 0-1.163 0-1.196.499-1.205 1.371-.009.855.123 1.272 1.146 1.23zm87.02 32.286c-.008 1.029.051 1.637 1.355 1.563 1.087-.043 1.637-.108 1.627-1.487a3227.958 3227.958 0 0 1 0-33.516c.01-1.388-.564-1.396-1.627-1.471-1.339-.091-1.363.557-1.355 1.57.041 5.558.024 11.133.024 16.683 0 5.549.017 11.107-.024 16.658zm-142.752 1.562c1.077-.009 1.392-.458 1.667-1.355 1.919-5.94 3.875-11.889 5.824-17.83l5.263-16.092c.117-.35.615-.765-.017-1.122-1.013-.532-2.642.133-3.002 1.23-1.425 4.378-2.833 8.765-4.246 13.135l-5.467 16.866c-2.477-7.652-4.811-14.839-7.133-22.025-.901-2.775-1.777-5.542-2.675-8.3-.278-.822-2.019-1.42-2.887-.906-.777.457-.071 1.088.075 1.545 3.631 11.166 7.312 22.3 10.967 33.458.273.863.497 1.437 1.631 1.396zm-11.304-49.202c-.008 1.088 1.109 1.246 2.044 1.246 6.439-.042 12.866-.042 19.308 0 1.006 0 1.4-.199 1.442-1.33.05-1.387-.71-1.179-1.525-1.179-5.446.008-10.888-.034-16.325.024-1.059.008-1.388-.241-1.375-1.362.049-6.264.033-12.545.021-18.81-.004-4.312-.046-7.12-.079-11.416l.017.557h-3.527m95.091 76.578c3.324 4.296 7.769 5.832 12.979 4.811 5.466-1.055 8.706-4.677 9.504-10.169.365-2.634.191-5.276.134-7.901 0-2.31.082-4.636-.017-6.946-.142-3.224-1.114-6.131-3.673-8.333-3.93-3.365-8.408-4.188-13.211-2.443-4.485 1.653-7.252 4.885-7.643 9.795-.416 5.101-.35 10.228-.034 15.346.134 2.084.632 4.12 1.961 5.84zm1.113-21.535c.665-4.819 4.812-8.001 9.505-7.776 4.985.215 8.641 3.738 9.057 8.757.199 2.409.232 4.827.365 7.568-.133 2.385-.101 5.085-.515 7.743-.716 4.761-4.636 7.959-9.298 7.869-4.694-.067-8.532-3.149-9.147-7.86a61.654 61.654 0 0 1 .033-16.301zm68.519 24.966c.64-2.094 1.529-4.113 2.186-6.207.299-.963.765-1.229 1.745-1.205 4.668.075 9.347.042 14.023-.025 1.229-.017 1.712.432 2.069 1.521.681 2.151 1.47 4.245 2.251 6.364.3.84 1.994 1.462 2.857.947.882-.515.084-1.155-.106-1.67-4.047-11.125-8.151-22.233-12.206-33.374-.349-.931-.772-1.338-1.844-1.363-1.097 0-1.388.532-1.704 1.363-4.096 11.241-8.199 22.465-12.37 33.682-.448 1.204-.299 1.628 1.047 1.362 1.171.308 1.695-.248 2.052-1.395zm11.042-31.065l7.461 21.037h-14.938l7.477-21.037zm-250.319 49.85l-31.148-99.026-.12.232H38.077l52.499 148.702h21.78l52.172-148.702H131.27z" fill="#8F90AA"/></svg>