<svg xmlns="http://www.w3.org/2000/svg" width="400" height="400"><path fill="none" d="M0 0h399.996v400H0z"/><path fill="#8F90AA" d="M106.011 280.99c.964-2.915 2.11-5.682 4.752-7.626 5.635-4.121 14.191-1.802 16.201 4.438.499 1.544.183 2.06-1.479 2.034-1.711-.042-2.957-.091-4.021-1.969-1.728-3.09-6.646-2.808-8.839.19-1.996 2.733-2.01 8.169.017 10.9 1.279 1.712 2.924 2.542 5.15 2.26 2.276-.307 3.804-1.354 4.469-3.588.183-.549.05-1.471.947-1.487 1.329-.05 2.691-.05 4.004.141.548.075.133.766.083 1.164-1.446 8.715-11.282 9.902-16.581 6.115-1.979-1.413-3.276-3.333-4.023-5.659-.149-.531-.083-1.188-.682-1.512.002-1.81.002-3.588.002-5.401zm93.634-223.095c.615.639 1.329 1.221 1.329 2.186-.018 1.246-.548 2.26-1.778 2.658-1.046.365-2.011.042-2.675-.88-.764-1.047-.863-2.128.017-3.15.233-.291.515-.564.764-.813l2.343-.001zm-43.535 48.519c11.082.066 20.072 9.047 20.04 20.088-.067 11.216-8.992 20.089-20.239 20.032-11.167-.067-19.956-9.048-19.89-20.364.033-10.983 9.021-19.798 20.089-19.756zm-8.093 52.898c.066 8.233-6.396 15.054-14.903 15.137-8.658.116-15.238-6.771-15.172-15.461.083-8.026 7.145-14.872 15.188-14.723 8.224.149 14.953 6.97 14.887 15.047zm20.837 54.392c-.05 7.627-7.294 14.997-16.434 14.023-8.041-.814-14.006-7.659-13.524-15.719.548-8.872 7.842-14.919 16.55-14.247 7.892.624 14.055 7.951 13.408 15.943zm-37.653-30.59c5.651.033 10.17 4.554 10.071 10.136-.083 5.492-4.652 9.961-10.154 9.903-5.5-.034-10.035-4.594-10.002-10.086.032-5.466 4.602-9.97 10.085-9.953zm58.373-90.989c.016-5.435 4.469-9.912 9.888-9.912 5.616 0 10.218 4.644 10.135 10.186-.083 5.458-4.553 9.87-9.985 9.844-5.868-.017-10.055-4.254-10.038-10.118zm30.459 21.542c-.083-5.484 4.385-10.111 9.719-10.111 5.648-.016 10.188 4.303 10.319 9.804.117 5.616-4.371 10.27-10.004 10.352-5.416.108-9.968-4.454-10.034-10.045zm18.493 54.791c0-5.301 4.585-9.969 9.77-9.928 5.665.05 10.268 4.544 10.286 10.086.016 5.566-4.604 10.153-10.22 10.103-5.466-.041-9.852-4.603-9.836-10.261zm-65.503 78.279c-5.682-.05-10.067-4.536-10.001-10.211.083-5.384 4.719-9.928 10.068-9.845 5.701.083 10.038 4.561 9.987 10.293-.066 5.461-4.518 9.78-10.054 9.763zm104.932-62.244c0 5.508-4.37 9.837-9.937 9.846-5.582.016-10.104-4.42-10.136-9.921-.051-5.457 4.554-10.102 10.036-10.11 5.584-.009 10.037 4.511 10.037 10.185zm-42.87 32.874c-.066-5.475 4.339-10.128 9.622-10.252 5.683-.116 10.384 4.446 10.418 10.069.032 5.518-4.337 9.979-9.937 10.111-5.416.158-10.053-4.376-10.103-9.928zm-25.123-1.652c.033-5.542 4.387-9.887 9.921-9.862 5.483.025 10.052 4.43 10.136 9.771a10.15 10.15 0 0 1-10.235 10.277c-5.553-.05-9.84-4.519-9.822-10.186zm-20.405-7.95c5.535.091 10.087 4.735 9.904 10.168-.183 5.567-4.754 9.986-10.237 9.895-5.483-.116-10.002-4.743-9.935-10.202.067-5.491 4.686-9.937 10.268-9.861zm62.544-63.301c-.018 5.534-4.652 10.211-10.002 10.062-5.519-.125-10.021-4.677-10.054-10.128-.017-5.3 4.769-10.168 9.904-10.051 5.782.115 10.152 4.452 10.152 10.117zM213.035 249.87c-5.831-.05-10.002-4.296-9.985-10.128.051-5.401 4.72-10.027 9.985-9.896 5.585.143 10.038 4.603 10.055 10.078.016 5.5-4.503 9.971-10.055 9.946zm64.139 43.609c-.149 2.699-2.094 1.42-3.307 1.637-1.379.231-1.345-.807-1.328-1.754 0-6.622.032-13.202-.017-19.823-.018-1.37.447-1.877 1.761-1.702.432.074.897.074 1.345 0 1.413-.183 1.763.515 1.695 1.802-.032 1.97-.017 3.954-.017 6.139.964-.548 1.678-1.07 2.495-1.387 3.986-1.486 7.892.374 9.154 4.504.83 2.766.863 5.574-.333 8.282-1.976 4.662-6.944 5.717-11.448 2.302zm7.645-6.664c-.067-.839.032-1.645-.282-2.468-.749-2.051-1.928-3.064-3.739-2.965-1.963.133-2.926 1.362-3.425 3.132-.549 1.86-.299 3.631.415 5.416.599 1.495 1.847 1.971 3.193 2.087 1.279.132 2.342-.574 2.989-1.722.65-1.063.949-2.225.849-3.48zM176.15 287.82c.132 1.86-.266 4.055.265 6.216.101.365.201.755-.232 1.021-.698.432-3.824-.017-4.272-.782-.415-.713-.764-.307-1.063-.081-2.01 1.312-4.154 1.527-6.447 1.054-2.376-.481-3.821-1.927-4.004-4.254-.215-2.525.98-4.312 3.373-5.142 1.778-.607 3.673-.549 5.499-.914 1.247-.241 2.359-.632 2.193-2.102-.166-1.521-1.361-1.879-2.691-1.829-1.362.05-2.542.309-3.107 1.803-.25.698-3.521 1.271-4.169.648-1.014-.987-.167-2.001.398-2.875.564-.89 1.395-1.521 2.376-1.877 3.19-1.214 6.413-1.238 9.553.124 1.464.64 2.346 1.943 2.329 3.689-.019 1.646-.001 3.334-.001 5.301zm-4.638.599c-.366-.249.498-1.404-.764-1.146-1.529.29-3.008.64-4.47 1.063-.897.248-1.279 1.063-1.279 1.936 0 .872.465 1.527 1.329 1.912 2.675 1.137 5.2-.6 5.184-3.765zm90.509-10.469c1.329-.107 2.675-.008 3.971.491 2.044.822 2.958 2.143 3.058 4.396.133 3.696-.349 7.409.315 11.1.166.979-.299 1.387-1.163 1.195-1.246-.273-2.907.906-3.605-1.18-.132-.448-.615.067-.897.25-2.309 1.586-4.835 1.454-7.362.788-2.077-.548-2.857-2.209-3.057-4.204-.166-1.96.88-3.646 2.608-4.552 1.827-.897 3.856-.849 5.801-1.23 1.163-.231 2.559-.166 2.708-1.827.1-1.071-.516-1.86-1.429-2.043-1.429-.268-2.941-.459-4.021.996-.365.474-.183 1.404-1.064 1.429-1.147.025-2.344.117-3.439-.082-.78-.15-.433-.922-.315-1.462.631-2.294 2.89-3.814 5.967-4.064.613-.042 1.243-.001 1.924-.001zm2.36 10.76c-.183-.457.498-1.579-.73-1.43-1.462.199-2.841.632-4.254.98-1.165.274-1.481 1.237-1.448 2.202.036.93.649 1.546 1.631 1.837 2.558.781 4.734-.774 4.801-3.589zm-106.377 1.196c-.864 3.165-2.808 4.794-5.784 5.4-3.489.731-7.194-.606-9.021-3.298-1.927-2.859-1.911-7.735.066-10.577 1.845-2.725 5.632-4.121 9.005-3.374 3.757.823 6.681 5.136 6.183 8.891-.167 1.122-.864.923-1.529.923-3.023.032-6.033.065-9.057-.026-1.462-.024-1.611.583-1.213 1.771.848 2.359 4.32 3.448 6.232 1.562 1.546-1.554 3.108-1.323 5.118-1.272zm-7.911-5.01c.781 0 1.545-.059 2.292.017 1.598.142 1.332-.697.914-1.611-1.046-2.312-4.469-2.659-6.114-.615-.416.54-.964 1.164-.582 1.895.315.598 1.046.257 1.579.291.632.048 1.28.023 1.911.023zm75.988 2.992c-1.596 0-3.207.024-4.803-.017-1.113-.034-1.296.382-1.014 1.387.814 2.801 4.503 3.822 6.663 1.687.914-.947 1.844-1.172 3.057-1.121 1.844.083 1.978.266 1.047 1.96-1.679 3.041-4.968 4.246-9.388 3.398-3.123-.59-5.632-3.383-6.116-6.846-.831-5.815 2.927-10.435 8.477-10.427 5.283 0 8.074 3.813 8.24 9.105.017.856-.548.889-1.18.889-1.661-.015-3.322-.015-4.983-.015zm-2.376-2.992c.813 0 1.645-.041 2.475.017 1.329.066 1.313-.557.88-1.537-.497-1.138-1.245-1.886-2.559-1.993-1.462-.1-2.773.183-3.721 1.454-.365.474-.83 1.097-.548 1.71.314.632 1.029.274 1.562.35.647.024 1.263-.001 1.911-.001zm11.53-1.403c0-3.325.017-6.673-.051-9.995 0-1.229.415-1.703 1.678-1.661 4.34.133 3.542-.523 3.574 3.514.067 4.535.067 9.097-.016 13.658-.017 1.312.349 1.803 1.711 1.744 2.643-.107 5.283.008 7.876-.059 1.229-.024 1.728.274 1.661 1.605-.134 3.356.365 2.832-2.874 2.841-3.988.032-7.959-.051-11.933.032-1.263.026-1.678-.431-1.661-1.669.084-3.331.035-6.654.035-10.01zm-28.812 5.532c.946-3.008 1.911-6.04 2.825-9.057.432-1.371 3.539-2.425 4.685-1.586.449.341.15.681.033 1.013-1.661 4.961-3.339 9.928-5.001 14.914-.183.549-.515.764-1.112.855-3.706.508-4.22.191-5.416-3.398-1.33-3.879-2.609-7.768-3.988-11.606-.498-1.396-.481-1.993 1.247-1.91 3.572.183 2.774-.499 3.836 2.851.849 2.624 1.646 5.241 2.459 7.857.133.026.3.051.432.067zm-25.588-2.127c0-1.097-.05-2.193.033-3.265.067-1.412.033-2.551-1.943-2.285-1.129.126-.798-.947-.814-1.555-.033-.664-.233-1.635.897-1.479 1.86.226 1.893-.813 1.877-2.159 0-.922-.548-2.31.349-2.666 1.129-.44 2.526-.2 3.821-.167.598.017.548.59.548 1.03.017.706.083 1.43 0 2.126-.183 1.43.398 2.027 1.828 1.787 1.263-.183 1.462.481 1.479 1.578 0 1.121-.299 1.721-1.512 1.513-1.511-.233-1.894.448-1.81 1.854.1 2.034.065 4.086.016 6.146-.016 1.379.366 2.286 1.96 2.135 1.795-.19 1.213 1.173 1.313 2.053.101 1.031-.082 1.786-1.396 1.662-.681-.066-1.412.05-2.11.017-3.173-.15-4.486-1.513-4.535-4.687l-.001-3.638zm-45.861-5.864c1.413-1.78 2.758-3.042 4.869-3.149.963-.051 1.528.157 1.578 1.328.066 2.593.133 2.593-2.393 2.992-2.376.35-3.671 1.745-3.788 4.328a95.732 95.732 0 0 0-.017 6.904c.066 1.379-.482 1.853-1.778 1.703-.532-.051-1.03-.067-1.545 0-1.232.166-1.531-.398-1.498-1.529.033-4.603.033-9.213 0-13.834-.033-1.195.399-1.519 1.545-1.527 2.894.009 2.894-.05 3.027 2.784zM224.17 96.668c-.067 2.724-2.393 5.084-5.051 5.084-2.741 0-5.187-2.467-5.12-5.192.084-2.692 2.527-5.051 5.153-4.984 2.691.066 5.05 2.467 5.018 5.092zm41.806 54.385c-.032 2.825-2.177 4.944-5 4.961-2.579.024-4.971-2.386-5.038-5.077-.049-2.642 2.559-5.143 5.27-5.092 2.725.057 4.784 2.283 4.768 5.208zm-35.493-17.905c-.018 2.809-2.393 5.152-5.168 5.061-2.691-.067-4.852-2.268-4.884-4.928-.033-2.907 2.16-5.15 5.034-5.167 2.725-.016 5.018 2.31 5.018 5.034zm-2.342 67.471c.066-2.807 2.243-4.877 5.117-4.794 2.774.049 5.004 2.369 4.902 5.103-.115 2.782-2.312 4.908-5.085 4.9-2.891 0-4.984-2.226-4.934-5.209zm-17.764-86.437c-2.758-.042-4.983-2.319-4.935-5.036.051-2.75 2.293-4.976 5.018-5.009 2.792-.025 5.051 2.318 5.002 5.191-.067 2.818-2.244 4.871-5.085 4.854zm-57.409 42.346c0-2.884 2.079-5.011 4.903-5.011 2.874-.016 5.134 2.235 5.118 5.077-.051 2.733-2.326 4.968-5.084 4.96-2.792-.033-4.937-2.176-4.937-5.026zm45.147 80.804c0 2.901-2.175 5.119-5.069 5.103-2.741-.026-4.935-2.252-4.935-5.044 0-2.741 2.226-4.952 5.018-4.977 2.876-.008 4.986 2.085 4.986 4.918zm-71.018-97.371c-2.791-.016-4.934-2.201-4.917-5.034.016-2.85 2.126-4.977 4.951-4.985 2.857-.017 5.118 2.268 5.07 5.144-.053 2.716-2.329 4.901-5.104 4.875zm124.588-15.136c.033 2.833-2.292 5.15-5.083 5.117-2.692-.042-4.918-2.359-4.918-5.117 0-2.768 2.209-4.912 5.018-4.928 2.822-.008 4.983 2.11 4.983 4.928zm-105.081 60.614c-2.841-.024-5.051-2.201-5.001-4.951.066-2.791 2.426-5.101 5.217-5.026 2.642.049 5.018 2.534 4.935 5.135-.116 2.791-2.326 4.876-5.151 4.842zm124.721 18.852c.034 2.792-2.093 4.978-4.917 5.043-2.775.042-5.068-2.119-5.134-4.877-.051-2.709 2.159-4.984 4.935-5.075 2.707-.091 5.066 2.176 5.116 4.909zM195.574 77.568c-2.811 0-5.103-2.251-5.037-4.943.066-2.734 2.358-5.077 4.986-5.093 2.725-.025 5.217 2.476 5.15 5.143-.065 2.708-2.341 4.909-5.099 4.893zM230.5 237.107c-2.842.025-5.019-2.06-5.051-4.909-.051-2.725 2.176-5.035 4.917-5.094 2.542-.041 5.001 2.452 5.001 5.094a4.915 4.915 0 0 1-4.867 4.909zm-39.331 49.534c0-2.234.065-4.494-.018-6.729-.049-1.204.282-1.811 1.612-1.628.366.066.78.066 1.146 0 1.482-.226 1.963.341 1.931 1.885-.101 4.413-.083 8.841-.018 13.27.018 1.279-.299 1.919-1.696 1.735-.499-.1-1.014-.083-1.529-.008-1.063.1-1.462-.29-1.428-1.403.066-2.387 0-4.754 0-7.122zm54.585-98.941a4.86 4.86 0 0 1 4.785 4.951c-.018 2.816-2.211 5.052-4.918 5.052-2.774 0-4.852-2.203-4.818-5.101.015-2.908 2.06-4.935 4.951-4.902zm-7.543-7.61c1.379.033 2.409 1.204 2.31 2.7-.084 1.544-.931 2.301-2.46 2.301-1.497 0-2.526-1.08-2.51-2.534.032-1.354 1.246-2.492 2.66-2.467zm-82.483 52.689c1.479.126 2.359.897 2.442 2.427.066 1.37-1.213 2.6-2.559 2.566-1.329-.025-2.592-1.329-2.459-2.675.148-1.495.998-2.309 2.576-2.318zM120.8 175.977c1.595 0 2.841 1.223 2.841 2.56-.016 1.338-1.329 2.691-2.625 2.534-1.429-.158-2.326-.922-2.343-2.534-.033-1.621.981-2.202 2.127-2.56zm141.703 42.937c-1.428 0-2.459-1.098-2.376-2.61.034-1.527.881-2.301 2.376-2.342 1.43-.075 2.609 1.072 2.609 2.425-.017 1.33-1.247 2.527-2.609 2.527zm-128.576-8.392c-.083 1.37-.847 2.309-2.311 2.501-1.363.183-2.625-1.056-2.725-2.442-.083-1.313 1.196-2.75 2.508-2.609 1.399.158 2.429.889 2.528 2.55zm119.919-5.815c-1.396-.034-2.643-1.271-2.51-2.617.134-1.471 1.047-2.376 2.542-2.36 1.462.018 2.409.805 2.426 2.383.033 1.513-1.031 2.626-2.458 2.594zm-101.643-14.54c-.05-1.586.916-2.376 2.312-2.575 1.346-.207 2.625 1.03 2.692 2.435.066 1.262-1.279 2.699-2.576 2.592-1.464-.126-2.378-.898-2.428-2.452zm52.858 36.896c-1.412 0-2.425-1.163-2.376-2.666.066-1.546.931-2.327 2.41-2.352 1.495 0 2.392.839 2.558 2.309.132 1.479-1.114 2.709-2.592 2.709zm-29.36-17.729c-1.396-.032-2.661-1.271-2.478-2.625.199-1.471 1.163-2.26 2.627-2.344 1.18-.091 2.509 1.264 2.509 2.468 0 1.396-1.213 2.543-2.658 2.501zm-21.718-38.566c-1.598 0-2.877-1.212-2.776-2.583.083-1.503.996-2.317 2.494-2.376 1.512-.116 2.476.922 2.442 2.509-.033 1.562-.93 2.293-2.16 2.45zm39.461 104.989c-1.544.291-2.292 0-2.358-1.877-.05-2.026.914-2.061 2.425-2.061 1.495 0 2.345.092 2.345 2.085.05 2.161-1.065 2.028-2.412 1.853zm99.416 2.7h-.599v-4.327h2.011c.731 0 1.43.231 1.43 1.17 0 .632-.301.865-.599 1.031.249.116.497.207.531.797l.033.814c0 .225.034.316.199.424v.1h-.714c-.083-.274-.117-.922-.117-1.08 0-.374-.065-.772-.764-.772h-1.412v1.843h.001zm0-2.359h1.361c.416 0 .882-.107.882-.73 0-.681-.498-.748-.78-.748h-1.463v1.478z"/><path fill="#8F90AA" d="M294.106 280.442a3.984 3.984 0 0 1-3.987-3.995 3.988 3.988 0 0 1 3.987-3.988c2.192 0 3.97 1.795 3.97 3.988 0 2.209-1.777 3.995-3.97 3.995zm0-7.426c-1.911 0-3.456 1.537-3.456 3.432 0 1.902 1.545 3.43 3.456 3.43a3.418 3.418 0 0 0 3.422-3.43 3.425 3.425 0 0 0-3.422-3.432z"/></svg>