<svg xmlns="http://www.w3.org/2000/svg" width="400" height="400"><path fill="none" d="M0 0h399.996v400H0z"/><path d="M253.635 185.908c.15-1.54-1.106-1.998-2.688-2.097-5.699-.324-6.382-.399-6.382-6.107v-1.439c0-5.566.699-5.433-4.958-5.508-2.196-.017-2.529.366-2.463 2.621.166 5.732.416 10.301.416 17.048h.232c0 6.731-.283 13.064.084 19.496.333 5.857 3.261 8.578 9.019 9.276 5.749.691 6.307.158 6.174-5.441-.032-1.723-.392-2.13-2.197-2.072-3.693.142-4.809-1.09-4.893-4.925-.065-3.462-.017-6.914-.017-10.393 0-4.643.017-4.759 4.66-4.651 2.279.042 3.378-.507 3.012-2.954-.14-.924-.107-1.914.001-2.854zm-20.833 19.461c0-3.702.049-7.414-.017-11.116-.067-3.786-1.331-6.997-4.661-9.135-6.256-4.027-16.822-2.746-21.83 2.721-.767.832-2.58 1.963-.55 3.02 1.697.882 2.396 5.034 5.574 2.022 2.463-2.354 5.458-3.412 8.845-2.937 2.063.275 4.201.857 4.269 3.486.065 2.771-2.164 3.037-4.194 3.42-3.977.724-8.104.657-11.914 2.271-4.469 1.879-6.556 5.192-6.407 10.133.142 4.302 2.513 7.604 6.831 9.12 5.075 1.764 10.075 1.381 14.943-.933.898-.424 1.688-2.221 2.837.333.733 1.604 3.495.74 5.291.565 1.831-.182.899-1.922.94-2.921.126-3.352.043-6.696.043-10.049zm-17.44 6.815c-.492-.084-1.697-.142-2.797-.558-1.413-.498-2.362-1.573-2.471-3.179-.107-1.489.725-2.471 1.946-3.137 3.637-1.996 7.913-1.264 11.732-2.629.99-.349.79.882.84 1.506.394 5.051-2.744 7.988-9.25 7.997zm-14.286-28.556c-1.456-1.256-4.111-.424-6.215.208-2.097.64-3.778 1.921-6.033 4.468.974-4.227-.74-4.893-3.452-4.468-.466.091-.974.1-1.432 0-2.596-.425-3.461.433-3.395 3.236.208 8.603.083 17.207.083 25.8 0 5.691 0 5.518 5.591 5.658 2.513.041 2.929-.897 2.845-3.078-.133-4.543-.049-9.086-.033-13.629.033-7.621 2.97-10.542 10.617-10.591.898-.009 2.114.507 2.03-1.082-.132-2.237 1.066-5.09-.606-6.522zM57.127 210.461c-3.694.258-7.422-.1-11.099.133-2.347.125-2.729-.74-2.713-2.829.117-10.275.059-20.542.059-30.817 0-6.249-.008-6.09-6.115-6.207-2.58-.042-2.854 1.006-2.821 3.12.108 6.797.042 13.611.042 20.417 0 7.156.008 14.327 0 21.492 0 1.473-.233 2.77 2.063 2.722 7.288-.135 14.577-.101 21.857-.018 1.605.018 2.13-.574 1.989-2.089-.1-.831-.1-1.672 0-2.496.366-2.572-.432-3.635-3.262-3.428zm219.056-27.449c-11.224-.083-19.586 7.805-19.502 18.337.1 10.127 8.303 18.014 18.787 18.063 10.749.05 18.969-7.729 19.036-18.047.075-10.332-7.855-18.261-18.321-18.353zm-.582 28.83c-6.05-.059-10.433-4.602-10.4-10.791.032-5.924 4.493-10.525 10.284-10.583 5.898-.074 10.6 4.643 10.617 10.667.016 6.081-4.578 10.765-10.501 10.707zm-117.083-28.83c-10.917-.024-18.878 7.613-18.904 18.072-.025 10.501 7.904 18.264 18.721 18.329 10.683.066 18.887-7.787 18.979-18.155.074-10.3-8.088-18.237-18.796-18.246zm-.166 28.83c-5.941 0-10.534-4.75-10.45-10.791.099-5.882 4.609-10.5 10.383-10.583 5.775-.091 10.616 4.775 10.633 10.683-.001 6.056-4.585 10.691-10.566 10.691zm-48.54-24.42v-10.858c0-6.015-.874-5.932-6.973-5.791-1.797.05-2.913.433-2.896 2.379.084 14.327-.191 28.663-.167 43 0 .766-.499 2.014.583 2.104 2.363.234 4.726.366 7.072.066 1.597-.199-.167-2.445 1.198-3.162 5.965 5.633 15.858 5.359 22.023-.565 6.947-6.673 8.279-18.57 1.906-25.659-6.389-7.072-16.016-7.837-22.746-1.514zm7.779 24.055c-5.899-.066-10.326-4.593-10.243-10.508.066-5.792 4.643-10.102 10.65-10.035 5.724.083 9.868 4.501 9.76 10.45-.108 5.907-4.368 10.141-10.167 10.093zm-23.28-6.099c0-3.711.025-7.414 0-11.117-.042-3.794-1.356-6.988-4.668-9.135-6.232-4.036-16.806-2.754-21.815 2.704-.766.832-2.613 1.963-.583 3.02 1.714.891 2.413 5.018 5.583 2.03 2.471-2.346 5.45-3.412 8.844-2.937 2.072.267 4.21.89 4.293 3.469.083 2.704-2.121 3.037-4.193 3.445-3.744.708-7.613.616-11.232 2.046-5.058 1.973-7.255 5.11-7.097 10.334.142 4.575 3.004 8.295 7.813 9.51 4.875 1.223 9.709 1.007 14.244-1.523.999-.565 1.548-1.431 2.538.524.833 1.63 3.495.75 5.292.591 1.847-.182.906-1.922.948-2.921.107-3.335.033-6.689.033-10.04zm-18.646 6.688c-2.03-.35-3.727-1.182-4.01-3.395-.3-2.362 1.414-3.337 3.311-3.977 3.495-1.19 7.28-.807 10.95-2.28.457 7.44-3.362 10.817-10.251 9.652zm253.019-28.23a7.518 7.518 0 0 1-2.513 0c-2.763-.492-3.361.674-3.304 3.311.175 8.479.06 16.947.06 25.41 0 6.124 0 6.041 6.022 5.957 1.947-.023 2.363-.657 2.305-2.446-.106-4.893-.041-9.783-.041-14.686 0-5.017-.1-10.025.066-15.034.05-2.062-.607-2.786-2.595-2.512zm-9.769 1.856c.217-1.855-.498-2.505-2.396-2.488-3.909.025-7.246 1.165-10.249 4.443.815-4.043-1.516-4.043-4.061-3.802-.474.042-.966.083-1.439-.008-2.28-.367-3.046.466-3.003 2.887.132 9.643.132 19.327 0 28.979-.034 2.197.531 3.095 2.762 2.755a10.23 10.23 0 0 1 2.861 0c2.163.324 2.863-.416 2.779-2.679-.191-5.135-.125-10.26-.051-15.401.084-5.85 3.67-9.527 9.486-9.078 3.229.258 3.586-.982 3.311-3.461a9.4 9.4 0 0 1 0-2.147zm46.627 19.128c0-3.586.067-7.181-.017-10.758-.065-3.811-1.48-6.973-4.825-9.044-6.082-3.803-16.249-2.688-21.3 2.454-.865.899-3.212 2.047-.766 3.52 1.631.982 2.488 4.817 5.592 1.773 2.412-2.379 5.474-3.312 8.868-2.771 2.114.324 4.128 1.015 4.077 3.645-.058 2.529-2.113 2.812-4.043 3.203-3.744.732-7.622.632-11.249 2.021-5.316 2.039-7.588 5.441-7.188 10.982.316 4.51 3.744 8.237 8.702 9.128 4.81.874 9.52.666 13.829-2.055.648-.416 1.23-1.539 1.93.29.965 2.58 3.461 1.016 5.2 1.132 1.923.117 1.124-1.73 1.156-2.753.101-3.587.034-7.191.034-10.767zm-17.239 7.364c-.981-.009-2.412-.092-3.677-.891-2.379-1.532-2.496-4.318-.101-5.815 3.67-2.279 8.154-1.323 12.056-2.846.874-.324.741.939.774 1.58.325 5.118-2.779 7.972-9.052 7.972zm36.243-26.883c-2.204-2.33-2.929-.083-4.177.89-1.515 1.198-2.18 2.238-.282 3.919 3.228 2.854 6.106 6.082 9.276 8.977 1.613 1.498 1.655 2.496.009 4.003-3.096 2.812-6.024 5.807-8.952 8.794-.691.698-2.222 1.314-1.549 2.479.857 1.523 2.247 2.745 3.005 3.627 1.671.117 2.087-.574 2.577-1.039 4.886-4.768 9.678-9.594 14.603-14.319 1.415-1.34.816-2.105-.249-3.162-4.8-4.693-9.635-9.319-14.261-14.169zm-364.81 4.801c.558-.565 1.373-.999 1.464-2.954-.782-.615-2.097-1.622-3.377-2.679-1.016-.865-1.515.05-2.056.583-5.017 4.926-9.992 9.885-15.018 14.81-.982.957-1.015 1.623-.008 2.613 4.967 4.801 9.909 9.643 14.785 14.526 2.446 2.463 3.128-.531 4.443-1.338 1.614-.975 1.414-2.09.042-3.371-3.303-3.104-6.423-6.39-9.718-9.493-1.39-1.289-1.356-2.146.008-3.428 3.22-3.021 6.315-6.149 9.435-9.269zm307.267-19.878c-2.712.042-5.059 2.354-5.009 4.984.033 2.621 2.479 4.975 5.126 4.958 2.679-.025 4.908-2.338 4.892-5.059-.033-2.803-2.197-4.908-5.009-4.883z" fill="#8F90AA"/></svg>