<svg xmlns="http://www.w3.org/2000/svg" width="400" height="400"><path fill="none" d="M0 0h399.996v400H0z"/><g fill="#8F90AA"><path d="M332.328 95.902c-44.098.042-88.214.042-132.296.042-44.208 0-88.401 0-132.605-.025-1.391 0-1.769.308-1.769 1.752.046 36.708.046 73.44 0 110.157 0 1.445.415 1.735 1.777 1.735 31.932-.041 63.856-.009 95.776-.058 1.437 0 1.89.24 1.89 1.785-.075 34.05-.059 68.092-.125 102.125 0 1.637.49 1.886 1.993 1.886 55.078-.025 110.166-.025 165.261 0 1.486 0 1.959-.249 1.959-1.886-.042-71.887-.042-143.791 0-215.703-.007-1.527-.406-1.81-1.861-1.81zM76.612 200.361c-1.395 0-1.765-.34-1.765-1.752a20945.5 20945.5 0 0 0 0-91.761c0-1.387.333-1.76 1.765-1.76 41.102.049 82.207.042 123.329.042 41.092 0 82.193.008 123.311-.042 1.396 0 1.735.349 1.735 1.76a43854.6 43854.6 0 0 0 0 91.761c0 1.379-.324 1.727-1.72 1.727-82.217-.016-164.448-.016-246.655.025zm248.367 104.118c.008 1.371-.316 1.679-1.661 1.679-49.148-.051-98.297-.051-147.445 0-1.496 0-1.678-.466-1.678-1.811.025-31.036.025-62.079 0-93.115-.025-1.444.349-1.752 1.728-1.752 24.607.042 49.198.025 73.789.025 24.474 0 48.99.017 73.489-.025 1.32 0 1.786.217 1.786 1.703-.049 31.11-.049 62.22-.008 93.296z"/><path d="M200.671 165.041c.084-1.503-.563-1.769-1.993-1.594-2.973.316-3.895-.507-3.911-3.297-.042-4.775 0-9.568-.018-14.368 0-.822.191-1.154 1.105-1.17 1.42-.025 3.388.681 4.111-.308.705-.98.208-2.865.24-4.344.009-.091-.033-.191.009-.291.141-.855-.274-1.063-1.063-1.004-1.087.041-2.159-.067-3.23.024-1.013.083-1.229-.307-1.172-1.212.034-1.761-.025-3.53.018-5.274.017-.764-.175-1.087-1.021-1.063-2.118.058-4.22.058-6.329 0-.914-.024-1.129.324-1.104 1.18.057 1.793-.018 3.604.048 5.381.009.723-.157 1.097-.938.988-.408-.049-.823 0-1.229 0-2.442 0-2.442 0-2.442 2.384 0 3.48 0 3.488 3.455 3.555.889.017 1.154.25 1.129 1.138-.048 2.632-.016 5.257-.016 7.873 0 2.575-.032 5.166.016 7.732.134 5.007 2.41 7.931 6.828 8.728 1.676.291 3.404.283 5.064-.025 2.875-.499 2.875-.506 2.617-3.305-.04-.607-.181-1.171-.174-1.728zm67.403-.98c-1.271-.225-1.577-.789-1.545-2.035.041-4.9.133-9.817-.133-14.684-.39-6.693-5.613-10.406-12.159-9.002-2.631.573-4.566 2.193-6.277 4.244-.349-.988-.407-1.935-.383-2.849.034-.913-.34-1.112-1.188-1.104-3.131.058-6.27.116-9.426-.024-1.553-.058-1.844.44-1.778 1.877.109 3.305.025 3.372 3.224 3.97.871.133 1.213.356 1.195 1.296-.032 5.63-.032 11.244 0 16.875.018.847-.299 1.113-1.063 1.295-2.989.739-2.989.755-2.989 3.878 0 .149.032.316 0 .457-.176 1.047.198 1.396 1.32 1.371 3.844-.058 7.723-.017 11.601-.017 2.941 0 2.809 0 2.957-2.965.101-1.735-.431-2.558-2.159-2.633-.946-.033-1.32-.539-1.304-1.611.075-4.634.041-9.285.041-13.911 0-.639 0-1.196.433-1.744 1.387-1.694 4.492-2.525 6.802-1.736 1.886.647 2.848 2.184 2.873 4.784.034 4.285-.032 8.563.034 12.848.009.872-.299 1.122-1.063 1.329-2.583.64-2.583.665-2.583 3.322 0 .357.05.722-.009 1.063-.174 1.063.308 1.271 1.279 1.271 4.086-.05 8.146-.025 12.226-.025 2.59 0 2.59 0 2.59-2.55-.025-2.517 0-2.583-2.516-2.99zm-60.377 109.575c-1.188-.19-1.527-.673-1.527-1.894.066-5.938.016-11.867.016-17.797 0-5.98 0-11.96.051-17.947 0-1.038-.249-1.42-1.354-1.378-3.263.058-6.519.107-9.774-.025-1.503-.059-1.886.382-1.835 1.86.132 3.355.041 3.38 3.297 3.953.88.148 1.213.373 1.188 1.354a6189.887 6189.887 0 0 0 0 30.471c.025.831-.274 1.13-1.047 1.32-2.998.706-2.989.714-2.989 3.87 0 .191.016.432-.009.606-.174 1.014.249 1.287 1.263 1.262 4.228-.058 8.454-.024 12.682-.024 2.55 0 2.55 0 2.55-2.574.021-2.567.054-2.642-2.512-3.057zm10.598-135.403c-7.973-1.08-13.297 2.749-15.331 10.597-.813 3.248-.433 6.677.274 9.958 1.078 5.049 3.994 9.028 9.067 10.605 5.408 1.661 9.02 1.396 13.479-2.633 3.654-3.313 5.058-7.682 5.058-12.44v-1.246c.01-8.164-4.924-13.812-12.547-14.841zm4.335 15.804c.065 2.234.266 4.7-.739 6.743-1.013 2.052-1.013 2.052-4.045 2.957-2.284-.033-4.053-1.005-4.899-3.115-1.71-4.244-1.71-8.545-.025-12.79.848-2.126 2.583-3.164 4.85-3.189 2.301-.033 2.608.623 3.639 2.782.995 2.102 1.301 4.294 1.219 6.612zm84.353 24.832c-9.493.058-18.961.033-28.453.033-4.044 0-4.003 0-4.003 3.995 0 1.071.333 1.113 1.411 1.104 5.249-.05 10.514-.316 15.771-.316h13.121c3.737 0 3.688.283 3.763-3.488.018-1.312-.315-1.328-1.61-1.328zm-6.744 84.56c-1.77-1.087-3.753-1.727-5.73-2.226-1.944-.465-3.978-.672-5.781-1.544-2.324-1.104-2.682-3.622-.705-5.092 1.868-1.345 3.954-1.12 6.088-.606 1.886.457 2.675 1.711 2.791 3.505.082 1.271.714 1.753 1.983 1.578 1.338-.19 3.04.557 3.879-.282.781-.772.149-2.458.183-3.529 0-.715-.066-1.254.024-1.744.424-2.035-.654-2.974-2.325-3.704a22.835 22.835 0 0 0-13.263-1.728c-2.766.466-5.165 1.728-6.918 4.003-3.14 4.069-2.167 9.484 2.209 12.108 1.985 1.163 4.136 1.844 6.346 2.334 1.751.373 3.545.697 5.123 1.595 1.146.647 1.936 1.562 1.753 2.998-.166 1.345-1.03 2.118-2.226 2.482-2.177.682-4.352.582-6.511-.215-.598-.183-1.072-.673-1.204-1.271-.34-1.112-.2-2.69-1.163-3.206-.931-.489-2.325-.141-3.488-.141-.424-.024-.839.024-1.254-.024-.723-.059-.963.207-.914.987.084 1.587.125 3.182.025 4.793-.099 1.079.373 1.686 1.212 2.25 3.406 2.325 7.192 3.206 11.254 3.114 3.563-.083 6.943-.821 9.733-3.264 4.236-3.761 3.671-10.264-1.121-13.171zM178.58 164.293c-.93-.191-2-.058-2.707-1.163-2.168-3.405-4.451-6.793-6.727-10.166-.374-.531-.424-.888.025-1.454 1.553-2.051 3.021-4.16 4.533-6.237.25-.365.647-.664 1.097-.772 3.073-.856 3.057-.889 3.057-4.02 0-.142-.009-.308.017-.448.157-1.063-.226-1.412-1.338-1.37-3.952.066-7.931.024-11.909.024-2.118 0-2.118 0-2.118 2.085.021.98-.174 2.06.191 2.873.308.673 1.566.125 2.301.765-1.32 1.869-2.704 3.72-3.97 5.647-.495.79-1.142.831-1.835.698-.855-.166-.428-.938-.428-1.395-.032-7.641-.032-15.272 0-22.914.021-1.154-.283-1.437-1.423-1.395-3.417.058-6.81.058-10.232 0-1.104-.034-1.336.307-1.329 1.37.046 3.67-.007 3.728 3.588 4.435.83.183.963.481.963 1.212-.021 10.19-.021 20.405.009 30.604 0 .772-.219 1.038-.972 1.246-3.073.755-3.06.797-3.06 3.978 0 .291.016.615-.014.914-.045.564.109.822.757.814 4.854-.017 9.695 0 14.538 0 .335 0 .764.049.793-.49 0-1.378.017-2.766-.029-4.161-.021-.456-.428-.49-.793-.606-.884-.282-2.238-.091-2.658-.838-.456-.823-.153-2.01-.153-3.048-.016-.723-.066-1.454 0-2.134.066-.565-.411-1.495.444-1.57 1.059-.075 2.462-.623 3.189.407 1.585 2.258 2.931 4.675 4.467 7.183-1.453-.157-1.843.44-1.694 1.62.084.83.084 1.644 0 2.458-.116.972.233 1.212 1.179 1.205 3.148-.058 6.288-.025 9.435-.025 4.02 0 3.995 0 3.837-4.103-.026-.772-.266-1.054-1.031-1.229zm76.031 86.811c-.456-.432-.198-.964-.216-1.429-.023-4.609-.023-9.177.018-13.777.007-.98-.226-1.32-1.263-1.304-3.156.074-6.303.033-9.442.033-2.102 0-2.102 0-2.102 2.126 0 3.031-.017 3.114 2.94 3.579 1.254.208 1.544.656 1.535 1.86-.058 10.971-.041 21.95-.016 32.938 0 1.337-.573 3.064.224 3.87.798.797 2.532.224 3.861.232 3.206.024 3.206 0 3.68-3.114.008-.075.142-.092.208-.149 4.4 6.236 15.846 5.182 18.835-3.937.707-2.268 1.113-4.626 1.122-6.993.05-4.427-.458-8.703-2.857-12.59-3.446-5.58-12.482-6.585-16.527-1.345zm10.283 18.363c-.532 2.052-1.81 3.422-4.028 3.704-2.275.299-4.31-.149-5.88-1.952-.44-.531-.613-1.129-.598-1.835.032-1.902.008-3.812.008-5.714 0-1.711.059-3.422-.008-5.1-.066-1.021.315-1.785.98-2.491 2.823-3.056 7.889-2.101 9.234 1.827 1.28 3.787 1.321 7.666.292 11.561zm-23.786 4.517c-1.504.124-1.611-.756-1.586-1.927.05-4.525.024-9.061.024-13.62-.024-4.725-2.268-8.056-6.728-9.675-5.331-1.943-10.488-1.238-15.546 1.163-1.778.839-2.874 1.811-2.492 3.928a8.79 8.79 0 0 1 0 2.641c-.175 1.412.224 2.085 1.795 1.869a12.445 12.445 0 0 1 2.938 0c1.496.216 2.019-.466 2.043-1.836.034-.839.15-1.553 1.113-1.977 4.783-2.15 8.43.101 8.43 5.24 0 .208-.042.415 0 .606.125.848-.174 1.18-1.104 1.146-1.527-.083-3.073-.05-4.635 0-2.731.033-5.422.49-7.88 1.786-3.272 1.76-4.585 4.551-4.319 8.213.299 3.688 2.051 6.386 5.589 7.591 4.626 1.561 8.903.822 12.673-2.856.166.473.342.805.374 1.162.175 1.52 1.047 2.001 2.533 1.827 1.329-.116 2.649-.009 4.003-.009 4.045 0 4.011 0 3.912-4.086.001-.87-.322-1.252-1.137-1.186zm-13.006-.979c-1.917.73-3.944 1.088-5.671-.457-1.869-1.736-.706-5.141 2-6.046 1.213-.391 2.435-.398 3.406-.357h.025c3.238 0 3.238 0 3.238 2.957-.007 1.993-.771 3.047-2.998 3.903zm20.996 72.244h-.024v-3.389c0-.141-.018-.315-.018-.448-.133-2.168-1.129-3.479-3.022-3.97-2.243-.573-4.65.241-5.64 1.943-.224.415-.632 1.029-.258 1.388.458.456 1.181.248 1.762.132.208-.041.299-.49.481-.756.764-1.13 2.633-1.396 3.688-.515.822.689.822 1.67.647 2.541-.174.864-1.029.366-1.569.407-1.063.092-2.151-.041-3.189.35-1.984.729-2.815 2.184-2.433 4.243.308 1.76 1.685 2.799 3.703 2.781a4.747 4.747 0 0 0 2.724-.921c.532-.357.814-.465 1.047.383.249 1.013 1.196.514 1.811.506.83-.024.267-.714.291-1.08.041-1.212-.001-2.391-.001-3.595zm-2.309-.009c-.025 2.076-2.608 3.597-4.344 2.617-.598-.342-.806-.881-.789-1.546.041-.888.516-1.428 1.22-1.826 1.122-.591 2.31-.308 3.464-.283.731 0 .307.714.449 1.038zM139.486 141.92c-6.309-6.76-18.326-4.501-22.237 4.136-1.583 3.563-1.708 7.309-1.441 11.054.427 5.864 4.31 10.888 9.613 12.416 5.107 1.47 10.086.839 14.836-1.578 2.114-1.08 2.098-1.096 1.133-3.347-.249-.598-.602-1.179-.817-1.819-.344-1.038-.697-1.479-1.898-.772-2.134 1.205-4.492 1.728-6.971 1.703-3.921-.042-6.345-2.042-7.139-5.872-.232-1.088.1-1.179 1.017-1.162 2.686.049 5.378.008 8.069.008 2.715 0 5.44-.008 8.188.033.855.008 1.171-.232 1.142-1.146-.075-1.429.037-2.891-.045-4.319-.183-3.463-.992-6.719-3.45-9.335zm-4.854 8.696c-.184.639-.615.431-.964.431-1.432.017-2.891.017-4.339.017-1.325 0-2.663 0-4.015-.017-.321 0-.782.191-.802-.547-.096-3.655 3.13-6.479 6.594-5.698 2.208.515 4.098 3.678 3.526 5.814zm102.424 186.86c-.956.05-1.679.64-2.458 1.479 0-1.154-.424-1.645-1.487-1.537-1.204.15-.672 1.021-.681 1.537-.058 3.205.009 6.386-.042 9.575-.024.896.125 1.262 1.154 1.229.939-.017 1.071-.34 1.056-1.163-.06-2.059 0-4.127 0-6.17 0-2.334.332-2.791 2.64-2.974 1.163-.116.956-.964.956-1.578.024-.888-.781-.398-1.138-.398zm19.873-.117c-.997.183-1.727.839-2.533 1.735-.058-1.254-.274-2.06-1.578-1.769-1.179.282-.563 1.18-.572 1.735-.058 3.182 0 6.362-.042 9.551-.016.864.199 1.146 1.079 1.138.873 0 1.155-.224 1.138-1.113-.048-2.383.018-4.742-.032-7.092-.059-1.271.682-1.901 1.653-2.301 1.977-.738 3.495.308 3.579 2.5.074 2.367.058 4.742.025 7.101-.025.822.314.946.996.889.572-.05 1.204.191 1.179-.863-.083-2.591.051-5.149-.083-7.732-.109-2.79-2.06-4.227-4.809-3.779zm24.201-5.54c-2.508-.299-4.078 1.238-4.194 4.111-.051.689.341 1.694-.997 1.528-.764-.108-.805.341-.839.931-.05.73.283.905.89.813.946-.142.971.44.946 1.121-.025 1.396 0 2.781 0 4.161 0 1.386.059 2.774-.025 4.177-.041.922.299 1.088 1.131 1.097.887.009 1.12-.267 1.12-1.146-.074-2.707 0-5.447-.033-8.18-.041-.839.033-1.413 1.113-1.229.572.083 1.071.05 1.079-.831 0-.963-.507-.93-1.154-.93-.333 0-.739.183-.98-.241-.789-1.287.349-3.463 1.944-3.546.673-.024 1.038-.157 1.104-.896.09-.905-.542-.864-1.105-.94zm-76.73 5.673c-.738.225-.556 1.029-.688 1.569-.606 2.301-1.08 4.601-1.671 7.218-.888-2.8-1.644-5.232-2.374-7.683-.216-.706-.374-1.195-1.279-1.195-.989 0-1.03.631-1.222 1.262l-2.308 7.591a488.096 488.096 0 0 1-1.844-7.947c-.249-1.263-1.204-.947-1.917-.84-.997.108-.367.864-.258 1.287.896 3.273 1.818 6.536 2.723 9.792.166.622.216 1.222 1.205 1.222.93-.009 1.12-.508 1.287-1.155.723-2.475 1.503-4.941 2.359-7.731.88 2.807 1.66 5.265 2.392 7.756.224.707.415 1.131 1.295 1.131.98 0 1.038-.6 1.221-1.238.873-3.239 1.785-6.437 2.667-9.642.116-.424.539-.988.183-1.279-.475-.409-1.223-.267-1.771-.118zm83.207-.166c-1.811-.083-3.256.664-4.17 2.168-1.577 2.615-1.562 5.39-.107 8.039.947 1.727 2.559 2.475 4.51 2.392 1.927-.066 3.438-.946 4.318-2.725 1.088-2.184 1.129-4.468.233-6.702-.838-2.15-2.475-3.172-4.784-3.172zm2.748 8.629c-.406 1.346-1.327 2.142-2.665 2.167-1.428.018-2.351-.862-2.798-2.217-.251-.757-.251-1.521-.275-2.301h-.032c.032-.914.074-1.835.472-2.699.516-1.163 1.329-1.811 2.617-1.785 1.286.008 2.144.681 2.583 1.835.597 1.628.597 3.322.098 5zm-76.213-8.463c-2.606-.806-5.133.448-6.202 3.147-.641 1.579-.641 3.205-.326 4.876.898 4.692 5.641 5.273 8.514 3.562.557-.308 1.005-.572.557-1.428-.507-.923-.872-.424-1.38-.134-2.499 1.329-4.691.581-5.364-1.776-.349-1.129-.24-1.886 1.246-1.703.773.116 1.569.034 2.333.034h2.948c.449 0 .716-.051.823-.648.414-2.509-1.007-5.257-3.149-5.93zm.108 4.792c-1.437.008-2.865.008-4.385.008a3.82 3.82 0 0 1 .739-2.176c.748-.988 1.761-1.229 2.898-.83 1.121.382 1.386 1.412 1.562 2.458.124.707-.44.54-.814.54zm15.231-3.081c.622.107.83-.207.764-.789-.05-.439.108-1.104-.632-.955-1.852.341-1.628-.913-1.577-2.002.033-.747.05-1.411-1.055-1.195-1.104-.266-1.246.332-1.203 1.271.048.964.372 2.135-1.396 1.952-.673-.075-.49.631-.524 1.063-.066.573.267.748.739.664 1.138-.174 1.213.448 1.188 1.346-.007 2.325-.05 4.626.109 6.942.148 1.895 2.009 2.907 3.728 2.301.598-.198.689-.531.573-1.03-.066-.397-.042-.771-.723-.688-1.162.157-1.462-.632-1.462-1.628.025-1.852.075-3.712-.025-5.572-.006-1.141.026-1.98 1.496-1.68zm41.832 4.103c-1.088-.424-2.25-.665-3.372-1.014-.723-.24-1.278-.705-1.162-1.594.084-.797.581-1.296 1.347-1.47 1.295-.3 2.392-.025 2.996 1.237.516 1.104 1.496.705 2.094.473.556-.24.074-1.005-.199-1.444-.88-1.62-2.325-2.251-4.12-2.168-2.282.017-4.044 1.221-4.318 2.957-.257 1.893.698 3.098 3.181 3.844.873.267 1.804.44 2.634.832 1.153.514 1.345 1.686.515 2.516-1.138 1.121-3.862.789-4.318-.748-.439-1.312-1.454-1.138-2.026-.855-.789.408-.224 1.279.082 1.886 1.056 1.886 3.78 2.699 6.304 1.86 1.462-.481 2.492-1.396 2.625-3.064.153-1.729-.809-2.684-2.263-3.248zm53.318-9.103h.007v.042h-.007z"/><path d="M326.599 332.169c-2.483 0-4.484 2.184-4.484 4.925-.017 2.782 1.894 4.892 4.443 4.899 2.558.017 4.56-2.034 4.601-4.774.016-2.799-2.002-5.05-4.56-5.05zm1.76 8.471c-1.619.913-3.696.382-4.759-1.213-1.146-1.743-.806-4.227.682-5.307.157-.124.232.009.323.108-.224-.531.266-.598.565-.73 1.719-.814 3.828-.018 4.709 1.752.963 1.886.233 4.409-1.52 5.39zM112.153 165.323c.087-1.702-.561-2.109-2.237-1.877-2.555.349-3.613-.531-3.634-2.757-.087-5.049-.021-10.107-.046-15.165 0-.673.22-.913.896-.913 1.076.033 2.164-.059 3.251.033 1.135.107 1.391-.357 1.325-1.403a27.034 27.034 0 0 1 0-3.555c.05-.797-.19-1.113-1.021-1.055-1.133.075-2.287-.033-3.404.034-.823.041-1.092-.217-1.076-1.056.075-1.76-.037-3.496.055-5.249.062-1.063-.34-1.287-1.304-1.254a99.643 99.643 0 0 1-5.888 0c-.959-.033-1.387.166-1.3 1.229.096 1.387.029 2.791.029 4.178 0 2.117 0 2.117-2.08 2.117-2.479 0-2.479 0-2.479 2.517 0 3.347 0 3.388 3.421 3.438.868 0 1.167-1.263 1.146-.366-.08 2.691-.038 6.586-.038 6.586h.046c0 10.938-.066 6.735.012 9.359.17 5.481 3.354 9.269 8.824 9.311 1.341.016 2.675.273 3.999.024 2.002-.39 2.002-.174 1.735-2.25-.095-.697-.243-1.22-.232-1.926zm204.936 172.202c-1.751-.539-3.37-.183-4.533 1.403-.108.149-.291.258-.44.366-1.652-2.483-3.68-2.691-6.728-.541.157-1.312-.522-1.511-1.494-1.428-1.112.116-.574.938-.574 1.42-.074 3.297 0 6.594-.041 9.891-.033.873.208 1.131 1.081 1.131.871 0 1.145-.241 1.129-1.131-.075-2.357-.042-4.725-.017-7.092.017-1.403.855-2.301 2.25-2.417 1.653-.149 2.584.831 2.649 3.007a83.887 83.887 0 0 1 0 6.635c-.018.914.365.998 1.12.98.641-.041 1.155.05 1.138-.922-.107-2.084-.016-4.127-.048-6.188 0-.729.065-1.444.406-2.084.515-.979 1.313-1.561 2.499-1.411 1.155.107 1.703.863 1.869 1.918.125.598.166 1.229.183 1.844.024 2.009.05 4.02-.017 6.028-.024.905.49.855 1.071.814.523-.017 1.146.183 1.113-.771-.041-2.551.05-5.141-.084-7.725-.072-1.691-.788-3.187-2.532-3.727zm-16.634-.058c-1.055-.008-1.853.541-2.758 1.553.084-1.37-.49-1.71-1.519-1.577-1.156.166-.598 1.046-.598 1.577-.068 3.224 0 6.479-.043 9.718-.025.839.258 1.021 1.03 1.021.805 0 1.213-.092 1.163-1.056-.075-1.901-.009-3.812-.009-5.714 0-2.964-.017-2.98 2.865-3.563.98-.224.73-1.029.764-1.619.059-.713-.588-.331-.895-.34z"/><path d="M325.171 339.801c.771.075.507-.557.598-.972.101-.391-.291-.996.398-1.146.35-.034.705 0 1.021.141.44.241.365.697.365 1.13 0 .498 0 .972.707.847.688-.107.349-.655.331-.988-.008-.972-.498-1.836-.041-2.965.357-.863-.614-1.536-1.619-1.595-.765-.024-1.496 0-2.269.009 0 1.553 0 3.064.05 4.609.001.358-.214.897.459.93zm1.27-4.684c.522.066 1.097.066 1.112.73.034.64-.398.873-1.121.873-.432.082-.723-.134-.664-.74.017-.456-.058-.955.673-.863z"/><path d="M324.663 334.262v-.026l-.041.026z"/></g></svg>