<svg xmlns="http://www.w3.org/2000/svg" width="400" height="400"><path fill="none" d="M0 0h399.996v400H0z"/><g fill="#8F90AA"><path d="M377.018 214.814a15.487 15.487 0 0 0-1.827-.348c-3.368-.448-6.14-1.884-8.197-4.73-4.198-5.932-8.497-11.814-12.695-17.731-1.095-1.519-1.029-2.174.449-3.343a219.54 219.54 0 0 1 8.977-6.878c1.941-1.386 4.099-2.241 6.456-2.631a24.108 24.108 0 0 0 2.438-.515c.282-.091.78-.348.78-.539.032-.888.1-1.826-.182-2.639-.3-.896-1.213-.464-1.843-.415-2.771.257-5.542.639-8.313.788-4.664.257-9.343.374-13.99.548-1.028.041-1.443.481-1.511 1.593-.081 1.261.333 1.991 1.278 2.182 1.163.208 2.324.348 3.486.623.845.191 1.161.764.663 1.585-.414.697-.831 1.394-1.361 1.983a273.882 273.882 0 0 1-6.072 6.729c-1.562 1.668-2.823 2.557-5.13 2.722-1.792.125-1.426-.191-1.426-2.058v-26.187c.132-7.866.232-14.147.365-21.963.032-1.286-.813-1.236-2.074-.904-.2.066-1.992.555-2.225.639-5.344 1.809-10.669 3.775-16.013 5.625-.433.174-.781.598-.979 1.021-.449 1.137-.049 2.248 1.129 2.73 2.655 1.079 3.601 2.979 3.601 5.858-.084 16.097 0 32.202 0 48.306 0 1.652-.133 3.312-.314 4.963-.184 1.493-1.029 2.448-2.539 2.68-.996.166-1.992.291-3.005.398-1.129.125-1.576.722-1.494 2.05.084 1.294.515 1.709 1.711 1.709 8.627-.017 17.241-.017 25.887-.017.964 0 1.378-.415 1.478-1.602.099-1.277-.316-2.024-1.261-2.157-.996-.142-2.009-.249-2.988-.44-1.227-.224-1.958-1.021-2.256-2.223-.135-.581-.249-1.195-.249-1.768-.1-3.51-.15-7.003-.184-10.513 0-.423.084-.838.184-1.261.149-.822.68-1.162 1.492-1.095 1.196.091 1.976.771 2.64 1.692 2.688 3.8 5.408 7.551 8.099 11.317.563.813 1.045 1.676 1.56 2.506.447.739.165 1.129-.565 1.312-.612.157-1.227.281-1.841.432-.947.24-1.361 1.062-1.146 2.331.198 1.046.715 1.436 1.709 1.436 8.928-.025 17.873-.042 26.817-.05 1.129 0 1.56-.365 1.726-1.593.165-1.285-.217-1.95-1.245-2.158zM237.654 180.24a7.93 7.93 0 0 0 1.228-.266c.779-.199 1.212-1.137 1.012-2.24-.165-.813-.349-1.526-1.492-1.519-5.593.05-11.185.008-16.777.008-1.08 0-1.411.341-1.578 1.561-.148 1.427.167 2.058 1.163 2.265.68.174 1.376.291 2.041.481 2.058.539 2.389.938 1.676 2.945-1.179 3.527-2.457 7.045-3.768 10.538-.978 2.597-2.09 5.136-3.202 7.874-.232-.423-.398-.655-.515-.896-1.941-4.166-3.933-8.348-5.825-12.546-.829-1.816-1.476-3.717-2.223-5.583-.365-.979-.051-1.577.945-1.817 1.377-.324 2.738-.689 4.133-.996.978-.199 1.394-.921 1.262-2.373-.116-.93-.433-1.502-1.511-1.452-2.19.125-4.415.199-6.572.199-16.129-.024-32.26-.066-48.356-.133-.831 0-1.229.357-1.429 1.096-.463 1.584.1 2.538 1.678 2.903 1.925.448 3.701 1.095 4.746 2.945.398.672.796 1.32 1.129 2.025 5.227 10.928 10.471 21.839 15.647 32.8.682 1.452 1.594 1.958 3.054 1.958 1.51-.025 2.623-.291 3.386-1.851 3.651-7.484 7.401-14.901 11.118-22.328.149-.348.398-.689.647-1.153.184.349.284.531.382.713 3.668 7.692 7.368 15.368 11.004 23.076.381.779.828 1.311 1.659 1.393.863.092 1.725.092 2.604 0 .814-.082 1.311-.58 1.659-1.385 1.494-3.535 2.988-7.069 4.613-10.538 3.567-7.791 7.235-15.515 10.804-23.282 1.144-2.538 2.919-4.081 5.658-4.422zm-42.25 9.318c-1.809 4.148-3.75 8.239-5.658 12.337l-.365-.074c-.514-1.005-1.063-1.975-1.543-2.97-2.125-4.332-4.199-8.68-6.291-13.036a25.67 25.67 0 0 1-.845-2.149c-.647-2.017-.3-2.796 1.757-2.903a64.824 64.824 0 0 1 8.432.041c2.705.241 4.995 3.178 4.911 5.95-.016.936-.033 1.975-.398 2.804zm-75.223-9.385c.033 0 .065-.017.098-.033.88-.225 1.212-.988 1.029-2.307-.133-1.096-.531-1.469-1.509-1.419-2.095.083-4.188.241-6.261.233-3.484 0-6.961-.108-10.422-.241-.938-.033-1.359.34-1.585 1.179-.381 1.584.109 2.397 1.718 2.763 3.9.872 4.091 1.129 2.706 4.888-1.966 5.268-4.082 10.504-6.132 15.757a5.842 5.842 0 0 1-.431.854c-.116.017-.216.032-.342.041-2.653-6.032-5.302-12.04-7.948-18.071-.142-.316-.19-.688-.298-1.021-.191-.771.033-1.318.821-1.526 1.453-.373 2.896-.73 4.348-1.062.971-.241 1.353-.896 1.22-2.216-.125-1.261-.449-1.585-1.578-1.577-13.848.125-27.687.233-41.56.307-4.373.017-8.763-.183-13.152-.199-.449 0-1.104.175-1.311.515-.979 1.328-.323 3.153 1.252 3.369 2.888.44 4.68 2.141 5.907 4.771 5.295 11.152 10.646 22.278 15.949 33.438.489 1.004 1.178 1.469 2.181 1.543a10.37 10.37 0 0 0 1.759-.016c.938-.092 1.643-.507 2.099-1.461 1.825-3.792 3.701-7.525 5.551-11.284 2.09-4.157 4.189-8.289 6.347-12.563.184.299.284.407.333.54 3.577 7.451 7.178 14.894 10.713 22.385 1.028 2.158 1.443 2.474 3.798 2.383 1.278-.042 2.125-.532 2.723-1.843 4.82-10.762 9.808-21.44 14.595-32.227 1.495-3.369 3.576-5.667 7.382-5.9zm-43.632 10.364c-1.652 3.758-3.577 7.401-5.376 11.102-.051.1-.142.166-.382.447-2.225-4.513-4.389-8.861-6.481-13.233-.813-1.743-1.592-3.535-2.239-5.353-.572-1.643-.167-2.298 1.56-2.564 3.07-.48 6.182-.448 9.251.1 2.099.374 4.331 2.995 4.331 5.269-.001 1.411-.101 2.963-.664 4.232z"/><path d="M154.796 206.525c-1.576 2.092-3.551 3.643-6.123 4.107-1.858.332-3.783.481-5.691.382-8.066-.431-14.123-6.911-14.206-15.06 0-1.892.233-2.141 2.141-2.157 3.833-.033 3.684-.008 11.549-.008v-.083s7.685.041 11.55-.017c2.739-.066 3.652-1.12 3.519-3.899-.282-5.816-3.153-9.924-8.215-12.454-4.131-2.116-8.612-2.431-13.143-1.958-11.202 1.178-20.091 9.368-21.22 20.735-.672 6.597.996 12.472 5.654 17.292 6.738 6.903 19.432 8.763 28.294 4.207 3.917-2.025 6.919-4.954 9.061-8.82.598-1.045.333-2.016-.73-2.721-1.013-.666-1.693-.542-2.44.454zm-24.975-19.946c1.063-4.688 7.285-7.907 11.616-6.007 2.406 1.053 3.817 4.115 2.904 6.638-.165.522-.73 1.103-1.245 1.244-1.26.357-2.588.522-3.882.672-.996.099-2.009.017-3.021.017v-.157c-1.576 0-3.135.083-4.696-.009-1.609-.1-2.058-.813-1.676-2.398zm145.369-7.467c-10.306-5.833-20.893-5.709-31.131.282-6.919 4.066-10.371 10.471-10.389 18.627-.05 8.771 3.9 15.118 11.666 18.968 4.332 2.166 8.978 2.889 15.084 2.971 1.329-.174 3.968-.356 6.54-.896 10.238-2.224 17.522-8.928 18.204-19.864.549-8.655-2.372-15.807-9.974-20.088zm-6.355 20.477c.018 3.053-.149 6.065-1.046 8.995a19.267 19.267 0 0 1-.812 2.074c-2.407 5.028-8.431 5.949-12.23 1.9-2.323-2.473-3.387-5.576-4.017-8.829-1.062-5.65-1.179-11.292.481-16.885.514-1.784 1.345-3.41 2.655-4.746 3.021-3.087 7.468-3.037 10.354.173 2.092 2.307 3.17 5.169 3.7 8.174.515 3.003.798 6.073 1.162 9.11-.063.01-.147.018-.247.034z"/><path d="M306.107 184.247a18.294 18.294 0 0 1 3.386 2.108c2.521 1.975 5.177 2.058 7.948.747 2.688-1.253 3.999-4.281 3.318-7.417-.581-2.714-3.037-4.647-5.941-4.721-2.372-.058-4.496.771-6.47 2.007-1.462.904-2.823 1.933-4.282 2.879-.913.589-1.692.175-1.644-.912.017-1.195.232-2.398.266-3.593.017-.457-.116-1.17-.398-1.336-.498-.299-1.345-.523-1.809-.299-5.011 2.564-10.321 4.372-15.716 5.899-.764.241-1.078.681-1.146 1.419-.133 1.062.167 1.875 1.229 2.315 2.241.912 3.203 2.671 3.087 5.094-.017.424.034.846.034 1.278 0 5.792.017 11.591 0 17.383-.034 1.651-.116 3.311-.349 4.962-.266 1.908-.964 2.539-2.838 2.829-.798.133-1.643.174-2.474.291-1.028.141-1.442.779-1.343 2.049.082 1.294.479 1.676 1.625 1.659l13.177-.356c4.946.124 9.491.199 14.039.356 1.161.017 1.345-.681 1.443-1.543.15-1.378-.249-2.091-1.161-2.191a31.32 31.32 0 0 0-2.621-.231c-3.436-.158-4.499-.738-4.597-4.986-.151-6.754-.133-13.508-.116-20.263 0-1.344.165-2.671.479-3.982.384-1.644 1.347-2.142 2.874-1.445z"/></g></svg>