<svg xmlns="http://www.w3.org/2000/svg" width="400" height="400"><path fill="none" d="M0 0h399.996v400H0z"/><g fill="#8F90AA"><path d="M148.364 127.135c.785 4.691 1.012 9.232 1.029 13.774.122 28.093.166 56.179.332 84.264.003 2.342-1.039 2.342-2.767 2.366-1.857.05-2.686-.248-2.686-2.449.075-36.068.042-72.136.066-108.229 0-1.009-.521-2.589 1.469-2.358 1.77.19 3.917-1.026 4.811 2.035 4.575 15.668 9.331 31.287 14.035 46.922 5.029 16.694 10.173 33.371 14.836 50.223 0-3.243.086-6.52-.008-9.771-.951-29.028-.257-58.081-.538-87.134-.025-2.358 1.067-2.292 2.792-2.358 1.899-.074 2.648.29 2.64 2.474-.066 35.977-.047 71.938-.096 107.949 0 .901.861 2.696-1.121 2.572-1.824-.091-4.178 1.273-5.125-1.952-4.161-14.196-8.545-28.317-12.794-42.48-5.463-18.216-11.419-36.258-15.635-54.838-.089-.381-.095-.77-1.24-1.01zm102.608-54.086c-7.085 5.336-13.198 11.16-18.394 17.853-21.417 27.655-32.474 58.561-29.182 93.918.736 7.867 2.003 15.644 5.153 22.957 1.66 3.821 3.807 7.338 7.045 10.059 4.814 4.046 10.312 4.766 16.276 3.293 1.526-.38 2.204-1.093 2.188-2.779a4079.512 4079.512 0 0 1 0-38.956c0-1.612-.43-2.192-2.097-2.117-2.986.132-5.969-.125-8.942.099-2.433.166-2.47-1.191-2.229-2.804.202-1.439-1.084-3.681 2.091-3.59 4.902.173 9.808.115 14.709.017 1.644-.033 2.151.463 2.14 2.109a7468.584 7468.584 0 0 0 0 49.645c0 1.455-.518 2.208-1.791 2.853-11.351 5.907-23.545 2.921-30.762-7.593-5.311-7.728-7.681-16.537-8.893-25.621-4.477-33.239 2.097-64.021 21.301-91.801 7.463-10.812 16.727-19.795 27.982-26.653.728-.456 1.506-.819 2.283-1.2.129-.044.356.121 1.122.311zm-136.766 54.947c5.936 32.212 11.875 64.393 17.767 96.573.186.993 1.331 2.813-.765 2.805-1.664-.017-4.248 1.695-4.874-1.986-1.911-11.457-4.152-22.882-6.089-34.331-.333-2.019-1.121-2.415-2.965-2.382-5.484.099-10.965.165-16.441-.033-2.176-.083-2.734.736-3.069 2.655-1.911 11.16-3.929 22.319-5.911 33.463-.433 2.398-2.964 3.764-5.224 2.688-1.282-.596-.497-1.704-.364-2.507 1.678-9.571 3.428-19.076 5.161-28.615 3.74-20.615 7.483-41.181 11.223-61.771 1.7-.902 3.388-1.812 5.074-2.698-.76 5.229-1.442 10.457-2.307 15.661a2724.904 2724.904 0 0 1-5.564 32.634c-.314 1.779-.05 2.341 1.874 2.292 4.91-.157 9.798-.082 14.7-.025 1.431 0 2.04-.182 1.73-1.927-2.867-16.529-5.643-33.106-8.439-49.66 1.302-1.257 2.824-2.133 4.483-2.836zm139.335 43.001c0-17.786.042-35.547-.046-53.35-.012-2.375.365-3.326 3.077-3.244 8.257.199 16.538.208 24.798 0 3.197-.082 2.382 1.862 2.469 3.525.1 1.819.244 3.276-2.54 3.193-6.527-.24-13.065-.042-19.601-.1-1.705-.033-2.54.183-2.52 2.283.103 13.153.078 26.34.008 39.502-.008 1.812.558 2.267 2.296 2.25 6.15-.1 12.311.108 18.452-.1 2.733-.107 2.379 1.498 2.259 3.094-.107 1.497.979 3.582-2.173 3.474-6.153-.182-12.313.017-18.46-.099-1.919-.05-2.382.538-2.374 2.398.07 14.907.07 29.782 0 44.705-.008 1.969.446 2.614 2.523 2.598 7.106-.141 14.224.083 21.335-.132 2.573-.083 2.614 1.174 2.398 2.928-.181 1.514 1.081 3.714-2.278 3.632-9.03-.182-18.084-.124-27.109 0-2.073.025-2.553-.629-2.544-2.614.063-17.975.03-35.96.03-53.943zm-81.212 133.278c-.313-18.349-.098-36.723-.12-55.096 0-2.125.033-4.227-.008-6.345-.02-1.266-.028-2.176 1.738-2.184 1.633-.017 1.891.637 1.891 2.035-.033 23.179-.021 46.375-.021 69.539 0 .942.249 2.002-1.323 1.952-1.391-.033-2.453.05-2.986-1.804-2.581-8.935-5.37-17.844-8.049-26.762-3.28-10.928-6.842-21.823-9.573-32.908-.106-.505.021-1.216-.719-1.431v15.52c.02 14.891.05 29.814.061 44.737 0 1.191.609 2.705-1.758 2.705-2.324 0-1.794-1.455-1.794-2.688-.017-22.717-.025-45.433.028-68.116 0-1.018-.868-2.598 1.366-2.771 1.939-.182 2.609.637 3.117 2.358 5.742 19.829 12.125 39.476 17.518 59.412.165.639.418 1.235.632 1.847zM295.991 170.98c0-17.869.046-35.771-.037-53.664-.013-2.217.505-2.978 2.837-2.913 2.201.017 2.92.497 2.912 2.846-.082 33.553-.023 67.124-.123 100.668 0 2.688.719 3.326 3.3 3.243 6.734-.174 13.469.107 20.201-.1 2.97-.132 2.31 1.639 2.334 3.235.017 1.679.53 3.333-2.417 3.259-8.834-.215-17.687-.157-26.537-.017-2.118.017-2.507-.72-2.49-2.639.045-17.974.02-35.941.02-53.918z"/><path d="M114.206 127.996c-1.658.703-3.18 1.579-4.483 2.829-.657.355-1.323.687-1.98 1.018-1.7.885-3.388 1.794-5.076 2.705-4.397 1.612-8.707 3.532-13.406 4.269-1.922.298-3.821.438-5.732.314-5.875-.314-8.451-4.012-6.726-9.613 1.245-4.045 3.607-7.438 6.424-10.49 11.088-11.97 24.156-20.689 40.415-23.999 1.031-.207 2.093-.273 3.144-.281 8.166-.165 11.321 4.6 7.714 11.987-4.032 8.264-10.857 14.055-18.03 19.474-.775.571-1.515 1.199-2.264 1.787zm-10.121-.496c3.264-1.53 6.377-3.309 9.128-5.659 5.75-3.78 10.83-8.264 14.511-14.154 1.101-1.762 1.873-3.714.735-5.699-1.1-1.895-3.11-1.688-4.918-1.605-5.823.248-11.002 2.614-15.982 5.328-8.826 4.798-17.083 10.391-22.886 18.87-1.333 1.96-2.842 4.276-1.233 6.618 1.502 2.225 4.104 1.655 6.391 1.514.389-.017.754-.14 1.125-.223 4.658-.896 8.984-2.699 13.129-4.99zm159.606 150.973c6.325 4.187 6.619 10.879 7.689 17.157.923 5.386 1.713 10.83 2.495 16.239.122.753 1.281 1.928-.374 2.226-1.345.239-2.937.529-3.238-1.68-.513-3.523-1.182-7.015-1.729-10.521-.753-4.733-.968-9.572-2.569-14.146-1.874-5.319-4.711-7.173-10.12-7.214-1.913-.009-2.151.678-2.14 2.341.074 9.604.017 19.218.041 28.855 0 1.372.208 2.572-1.952 2.531-2.071-.025-1.744-1.209-1.744-2.441 0-22.575.036-45.192-.066-67.784-.005-2.218 1.021-2.796 2.759-3.211 10.7-2.456 17.855 2.275 19.613 13.36.951 5.932.666 11.904-2.163 17.438-1.485 2.862-3.726 5.079-6.502 6.85zm-9.985-17.76c0 4.615.083 9.198-.042 13.831-.048 1.845.609 2.241 2.325 2.267 5.213 0 8.803-2.416 10.911-7.048 2.481-5.493 2.512-11.201 1.098-16.926-1.52-6.188-5.887-9.026-12.235-8.28-1.539.173-2.127.669-2.099 2.29.116 4.641.042 9.249.042 13.866zm-35.998 8.843c0 8.537-.058 17.107.021 25.645.05 3.482.641 6.916 2.039 10.109 1.348 3.077 3.301 5.419 7.072 5.353 3.724-.066 5.733-2.366 7.028-5.477 1.969-4.708 2.188-9.712 2.205-14.733.05-15.751 0-31.51.05-47.286 0-.918-.782-2.44 1.294-2.498 1.612-.05 2.433.156 2.369 2.102-.14 4.913-.028 9.811-.04 14.732-.005 11.806 0 23.651-.083 35.456-.033 5.113-.688 10.159-2.847 14.891-2.759 5.981-7.953 8.546-13.55 6.75-3.363-1.066-5.382-3.532-6.774-6.642-2.14-4.758-2.614-9.828-2.636-14.916-.087-16.637-.037-33.256-.054-49.892 0-1.439-.111-2.531 1.994-2.531 2.287.008 1.827 1.398 1.827 2.655.009 8.753 0 17.496 0 26.249.04.033.061.033.085.033zM99.949 304.722c2.349-15.685 5.406-31.154 8.09-46.648.906-5.203 2.007-10.391 2.742-15.61.294-2.143 1.556-1.795 2.833-1.745 2.118.09.893 1.571.773 2.3-4.082 22.973-8.227 45.938-12.372 68.918-.21 1.191-.277 2.316-2.146 2.309-1.99-.009-1.83-1.374-2.023-2.458-4.104-22.89-8.194-45.763-12.21-68.637-.136-.753-1.273-2.242.745-2.424 1.478-.141 2.697-.215 3.044 1.936 3.213 19.705 7.309 39.262 10.022 59.066.138 1 .344 2.008.502 2.993zm22.042-27.357c0-11.342.066-22.7-.058-34.059-.017-2.233.654-2.722 2.759-2.647 4.993.148 10.001.099 14.995.009 1.6-.033 2.196.405 2.16 2.076-.03 1.53-.319 2.217-2.065 2.167-3.851-.123-7.68.042-11.526-.074-1.796-.082-2.503.298-2.479 2.316a718.25 718.25 0 0 1 0 23.94c-.025 2.151.724 2.557 2.648 2.466 3.449-.158 6.932.065 10.381-.083 1.854-.075 1.943.836 1.977 2.283.042 1.489-.405 2.01-1.947 1.952-3.756-.074-7.495.05-11.243-.042-1.402-.032-1.779.406-1.771 1.787.055 9.515.075 19.044-.008 28.549-.008 1.771.688 2.026 2.198 2.002 4.334-.082 8.652.058 12.987-.082 1.894-.066 1.894.876 1.927 2.274.042 1.465-.363 1.994-1.924 1.969-5.567-.091-11.151-.14-16.719.009-2.075.074-2.311-.762-2.294-2.498.038-11.424.002-22.89.002-34.314zm159.222-.149c0-11.351.05-22.7-.059-34.05-.02-2.043.551-2.548 2.548-2.498 5.002.14 10.007.115 15.006.008 1.747-.05 2.317.397 2.301 2.209-.033 1.729-.646 2.052-2.185 2.019-3.938-.083-7.888.05-11.828-.059-1.646-.049-2.14.48-2.127 2.102.07 8.182.07 16.354 0 24.521-.013 1.653.524 2.158 2.155 2.101 3.644-.1 7.305.083 10.957-.083 1.969-.083 1.777 1.001 1.86 2.317.092 1.521-.404 1.984-1.927 1.935-3.644-.099-7.306.05-10.957-.066-1.664-.057-2.102.481-2.089 2.118.07 9.315.07 18.639 0 27.978-.013 1.746.48 2.309 2.271 2.267 4.128-.132 8.268.017 12.396-.057 1.621-.042 2.631 0 2.598 2.175-.017 2.094-.977 2.044-2.45 2.019-5.372-.066-10.767-.091-16.148.033-1.913.059-2.365-.537-2.352-2.399.066-11.527.03-23.05.03-34.59zm26.414 30.476c.794.496 1.348.852 1.936 1.157 6.188 3.376 11.979 1.391 14.377-5.303 2.963-8.247 1.539-15.933-3.971-22.732-2.166-2.696-4.772-5.029-6.981-7.678-6.205-7.478-7.595-15.857-3.904-24.825 2.961-7.188 9.894-10.052 16.181-7.255 2.357 1.034 2.615 2.357 1.556 4.476-.422.868-.688 1.241-1.639.562-5.278-3.722-12.31-1.919-13.896 7.371-1.109 6.502.389 12.4 5.177 17.257 2.293 2.333 4.617 4.666 6.619 7.222 6.552 8.33 7.826 17.646 4.252 27.457-2.904 7.975-10.025 11.325-17.224 8.554-4.005-1.54-4.22-2.086-2.483-6.263zm-114.646-28.169c0-10.762-.042-21.533.039-32.313.011-1.836-.402-2.598-2.362-2.423-2.11.165-4.239-.075-6.349.057-1.61.092-1.932-.628-1.879-2.035.042-1.249-.017-2.158 1.755-2.134 7.123.082 14.241.082 21.355 0 1.663-.024 1.883.646 1.833 2.027-.045 1.24.05 2.283-1.75 2.15-2.002-.157-4.045.133-6.042-.099-2.354-.24-2.831.67-2.822 2.878.086 21.252.062 42.513 0 63.773 0 .951.857 2.465-1.062 2.738-1.73.223-2.792.058-2.764-2.3.115-10.76.048-21.531.048-32.319z"/><path d="M104.085 127.5c.663-3.755 1.428-7.521 1.94-11.309.331-2.515 2.125-1.555 3.45-1.704 1.306-.157 2.423-.083 2.623 1.721.206 1.895.732 3.755 1.107 5.634-2.743 2.348-5.856 4.127-9.12 5.658z"/></g></svg>