<svg xmlns="http://www.w3.org/2000/svg" width="400" height="400"><path fill="none" d="M0 0h399.996v400H0z"/><path d="M89.454 190.083c-.254-.041-.57-.082-.926-.114a9.893 9.893 0 0 0-.938-.042c-1.017 0-1.842.181-2.463.509-.631.352-1.1.844-1.395 1.483v12.704h-5.188v-19.417h4.906l.139 2.32c.488-.845 1.091-1.492 1.816-1.976.717-.476 1.545-.705 2.507-.705.275 0 .565.024.877.082.304.066.549.09.739.147l-.074 5.009zm11.098 14.901c-1.514 0-2.857-.238-4.049-.73a8.81 8.81 0 0 1-3.033-2.016 8.686 8.686 0 0 1-1.906-2.976c-.442-1.147-.656-2.385-.656-3.688v-.705c0-1.459.214-2.82.639-4.024a9.627 9.627 0 0 1 1.812-3.18 8.549 8.549 0 0 1 2.852-2.082c1.123-.492 2.377-.737 3.762-.737 1.393 0 2.631.229 3.697.688 1.065.476 1.95 1.115 2.679 1.943.722.836 1.274 1.835 1.632 3.007.359 1.172.549 2.476.549 3.91v2.213H96.158c.086.615.257 1.197.513 1.721.257.508.59.943.991 1.319.402.37.869.656 1.406.845a5.067 5.067 0 0 0 1.812.319c.941 0 1.818-.188 2.615-.533a5.181 5.181 0 0 0 2.065-1.663l2.543 2.869a6.888 6.888 0 0 1-1.164 1.277 7.093 7.093 0 0 1-1.652 1.131c-.635.337-1.347.6-2.143.787-.777.206-1.651.305-2.592.305zm-.595-15.934c-.561 0-1.062.098-1.479.295-.43.205-.786.484-1.094.835-.312.345-.549.763-.745 1.254a7.825 7.825 0 0 0-.414 1.64h7.221v-.411a5.574 5.574 0 0 0-.229-1.442c-.135-.426-.344-.828-.628-1.139a2.926 2.926 0 0 0-1.082-.762c-.428-.18-.952-.27-1.55-.27zm29.018 6.05c0 1.467-.155 2.794-.472 3.999-.307 1.213-.775 2.255-1.401 3.123-.631.868-1.409 1.558-2.36 2.041-.946.483-2.049.722-3.31.722-1.127 0-2.104-.215-2.923-.641-.824-.418-1.528-1.023-2.135-1.787l-.229 2.066h-4.664v-27.572h5.183v9.893a6.448 6.448 0 0 1 2.024-1.549c.771-.385 1.673-.549 2.705-.549 1.258 0 2.377.237 3.323.729a6.575 6.575 0 0 1 2.369 2.049c.636.877 1.114 1.91 1.426 3.122.308 1.213.463 2.533.463 3.967v.387h.001zm-5.183-.386c0-.763-.046-1.492-.16-2.188-.107-.664-.303-1.278-.582-1.794a3.44 3.44 0 0 0-1.144-1.213c-.475-.303-1.09-.442-1.836-.442-.872 0-1.586.172-2.138.524-.55.353-.976.845-1.279 1.492v7.663a3.593 3.593 0 0 0 1.279 1.524c.552.344 1.274.533 2.163.533.738 0 1.345-.147 1.812-.426a3.411 3.411 0 0 0 1.136-1.188c.279-.509.475-1.107.585-1.804.107-.705.16-1.467.16-2.286v-.394h.004zm19.641 9.917c-.242-.459-.414-1.049-.521-1.746-.524.591-1.192 1.091-1.983 1.5-.796.41-1.771.607-2.918.607-.939 0-1.803-.14-2.614-.435-.805-.287-1.508-.681-2.099-1.196a5.475 5.475 0 0 1-1.39-1.853c-.345-.697-.504-1.467-.504-2.319 0-1.024.189-1.935.565-2.722a5.381 5.381 0 0 1 1.689-2.008c.758-.557 1.688-.967 2.811-1.254 1.123-.295 2.418-.426 3.905-.426h2.312v-1.124c0-.885-.229-1.615-.688-2.155-.455-.533-1.188-.803-2.184-.803-.874 0-1.558.204-2.041.622-.509.435-.755 1.008-.755 1.729h-5.188c0-.844.196-1.63.59-2.393.381-.754.938-1.41 1.655-1.976.717-.557 1.586-1.008 2.606-1.336 1.012-.335 2.148-.491 3.406-.491 1.131 0 2.168.139 3.13.426.956.287 1.784.721 2.471 1.287a5.782 5.782 0 0 1 1.627 2.139c.386.853.582 1.845.582 2.992v8.213c0 .557.021 1.048.049 1.483.036.442.091.828.14 1.188.056.336.144.664.237.943.091.277.213.557.345.803v.303h-5.235v.002zm-4.291-3.606c.442 0 .853-.059 1.225-.164a5.324 5.324 0 0 0 1.012-.402c.3-.181.565-.41.787-.623.223-.221.399-.443.529-.688v-3.344h-2.14c-.679 0-1.269.082-1.782.229-.504.14-.913.353-1.241.631a2.505 2.505 0 0 0-.709.942 3.032 3.032 0 0 0-.229 1.197c0 .648.221 1.18.671 1.59.463.419 1.091.632 1.877.632zm18.235-15.811v20.507c0 1.073-.155 2.049-.458 2.893-.295.844-.722 1.558-1.288 2.139-.565.565-1.258 1-2.069 1.295-.816.296-1.759.427-2.815.427-.427 0-.857-.017-1.279-.065-.417-.05-.853-.14-1.283-.238v-4.105c.275.04.554.082.813.106.265.041.549.058.819.058.758 0 1.34-.197 1.741-.606.405-.395.615-1.05.615-1.901v-20.507h5.204zm-5.617-5.048c0-.762.262-1.385.783-1.901.516-.5 1.222-.763 2.124-.763.896 0 1.605.262 2.121.763.524.517.783 1.155.783 1.901 0 .418-.066.771-.204 1.106-.14.345-.341.615-.587.853a2.55 2.55 0 0 1-.922.558c-.353.139-.758.196-1.197.196-.447 0-.844-.057-1.2-.196a2.359 2.359 0 0 1-.915-.558 2.347 2.347 0 0 1-.59-.853 2.858 2.858 0 0 1-.196-1.106zm20.92 24.465c-.246-.459-.405-1.049-.516-1.746-.526.591-1.185 1.091-1.984 1.5-.798.41-1.766.607-2.921.607-.938 0-1.803-.14-2.606-.435-.808-.287-1.512-.681-2.099-1.196a5.272 5.272 0 0 1-1.393-1.853c-.336-.697-.504-1.467-.504-2.319 0-1.024.188-1.935.562-2.722a5.438 5.438 0 0 1 1.696-2.008c.753-.557 1.693-.967 2.808-1.254 1.118-.295 2.421-.426 3.905-.426h2.314v-1.124c0-.885-.232-1.615-.688-2.155-.468-.533-1.186-.803-2.184-.803-.877 0-1.558.204-2.058.622-.493.435-.738 1.008-.738 1.729h-5.188c0-.844.193-1.63.587-2.393.384-.754.941-1.41 1.658-1.976.717-.557 1.578-1.008 2.603-1.336 1.021-.335 2.16-.491 3.409-.491 1.127 0 2.16.139 3.127.426.955.287 1.782.721 2.476 1.287a5.834 5.834 0 0 1 1.622 2.139c.389.853.582 1.845.582 2.992v8.213c0 .557.017 1.048.058 1.483.036.442.086.828.144 1.188.053.353.138.664.229.943.091.277.205.557.336.803v.303h-5.237v.002zm-4.287-3.606c.443 0 .857-.059 1.227-.164.381-.107.72-.246 1.012-.402.298-.181.565-.41.786-.623.221-.221.394-.443.533-.688v-3.344h-2.135c-.688 0-1.278.082-1.787.229-.5.14-.905.353-1.238.631a2.476 2.476 0 0 0-.717.942 3.128 3.128 0 0 0-.237 1.197c0 .648.229 1.18.689 1.59.457.419 1.077.632 1.867.632zm17.77-20.514v4.704h3.626v2.558h-3.626v12.048c0 .5.053.902.171 1.206.124.319.279.549.483.704.193.173.419.278.681.337.253.057.529.081.803.081.275 0 .562-.024.865-.081.303-.059.544-.092.709-.131v2.688c-.262.082-.607.146-1.021.238-.418.09-.931.123-1.528.123a6.115 6.115 0 0 1-1.737-.254 3.772 3.772 0 0 1-1.428-.877c-.4-.42-.729-.943-.966-1.615-.246-.656-.366-1.476-.366-2.443v-12.023h-3.536v-2.558h3.536v-4.704h3.334v-.001zm19.49 22.202a6.297 6.297 0 0 1-2.309 1.672c-.942.402-2.061.6-3.376.6-.964 0-1.825-.132-2.606-.395a5.15 5.15 0 0 1-2.013-1.287c-.562-.573-.996-1.319-1.299-2.221-.307-.917-.463-2.04-.463-3.328v-12.54h3.323v12.573c0 .885.102 1.606.3 2.172.205.574.472 1.008.814 1.345.333.336.717.558 1.144.68.439.14.885.197 1.332.197 1.357 0 2.438-.263 3.258-.771.819-.524 1.423-1.205 1.8-2.058v-14.138h3.318v19.417h-3.155l-.068-1.918zm19.588-3.229c0-.369-.058-.697-.156-1.024a2.185 2.185 0 0 0-.64-.894c-.314-.287-.77-.55-1.356-.787-.59-.246-1.36-.451-2.314-.655-1.075-.23-2.046-.492-2.906-.812-.86-.312-1.598-.68-2.201-1.131-.606-.434-1.073-.935-1.388-1.549-.325-.606-.484-1.278-.484-2.098 0-.771.165-1.5.509-2.172a5.764 5.764 0 0 1 1.446-1.82c.623-.516 1.376-.934 2.262-1.246.89-.295 1.877-.451 2.959-.451 1.163 0 2.2.156 3.113.484.91.303 1.693.746 2.336 1.303a5.555 5.555 0 0 1 1.464 1.917c.323.73.5 1.508.5 2.36h-3.34c0-.385-.089-.786-.266-1.188a3.314 3.314 0 0 0-.788-1.089 4.218 4.218 0 0 0-1.27-.771 5.234 5.234 0 0 0-1.75-.287c-.685 0-1.277.083-1.763.246a3.62 3.62 0 0 0-1.196.631 2.657 2.657 0 0 0-.68.918c-.14.345-.214.688-.214 1.058 0 .36.058.68.176.967.119.287.345.557.685.771.336.238.783.451 1.378.647.577.205 1.327.394 2.249.615 1.185.27 2.209.582 3.086.91.873.352 1.591.763 2.172 1.229.571.467.999.993 1.274 1.583.279.606.422 1.287.422 2.089a5.29 5.29 0 0 1-.523 2.336 5.131 5.131 0 0 1-1.525 1.803c-.647.5-1.438.894-2.368 1.172-.919.279-1.942.418-3.065.418-1.29 0-2.43-.172-3.425-.532-.984-.36-1.816-.837-2.477-1.427a6.041 6.041 0 0 1-1.533-2.032 5.517 5.517 0 0 1-.519-2.336h3.318c.038.672.197 1.263.496 1.722.295.45.659.828 1.098 1.114.438.278.935.491 1.464.615a6.887 6.887 0 0 0 1.569.171c.685 0 1.277-.072 1.799-.204a4.05 4.05 0 0 0 1.299-.606 2.38 2.38 0 0 0 .794-.885c.184-.321.279-.69.279-1.083zm15.199 1.328c.479 0 .918-.073 1.303-.213.394-.131.746-.32 1.025-.565.286-.262.507-.565.672-.926.163-.353.249-.738.258-1.18h4.864a6.66 6.66 0 0 1-.643 2.836 6.894 6.894 0 0 1-1.71 2.245c-.717.631-1.558 1.115-2.537 1.459a9.398 9.398 0 0 1-3.146.525c-1.512 0-2.827-.246-3.95-.763a7.918 7.918 0 0 1-2.799-2.082c-.75-.886-1.296-1.91-1.668-3.105-.378-1.188-.558-2.467-.558-3.853v-.509c0-1.376.185-2.671.558-3.843.372-1.205.918-2.238 1.668-3.14a7.905 7.905 0 0 1 2.782-2.089c1.123-.517 2.426-.762 3.931-.762 1.2 0 2.281.164 3.273.524.992.361 1.837.869 2.545 1.525a6.903 6.903 0 0 1 1.647 2.385c.397.951.604 2 .614 3.172h-4.864a4.16 4.16 0 0 0-.245-1.32 3.222 3.222 0 0 0-.635-1.09 3.046 3.046 0 0 0-1.018-.721 3.465 3.465 0 0 0-1.404-.271c-.755 0-1.365.164-1.85.467a3.259 3.259 0 0 0-1.123 1.254 5.425 5.425 0 0 0-.544 1.795c-.09.688-.143 1.393-.143 2.114v.509c0 .738.053 1.459.143 2.139.095.673.279 1.279.544 1.795.268.516.64.926 1.123 1.213.481.311 1.109.475 1.887.475zm22.723 1.852a6.265 6.265 0 0 1-2.229 1.705c-.869.418-1.901.615-3.081.615-.965 0-1.842-.132-2.623-.395-.791-.279-1.472-.697-2.041-1.287-.57-.573-1.012-1.319-1.32-2.221-.303-.917-.463-2.024-.463-3.303v-12.565h5.185v12.598c0 .549.074.992.209 1.386.13.376.328.696.577.917.242.222.529.418.869.508.336.115.708.172 1.114.172.931 0 1.692-.172 2.288-.483a3.538 3.538 0 0 0 1.343-1.344v-13.753h5.21v19.417h-4.89l-.148-1.967zm17.884 2.32c-1.508 0-2.864-.238-4.057-.73a8.884 8.884 0 0 1-3.028-2.016 8.676 8.676 0 0 1-1.914-2.976 10.565 10.565 0 0 1-.655-3.688v-.705c0-1.459.221-2.82.639-4.024.428-1.23 1.029-2.279 1.815-3.18a8.535 8.535 0 0 1 2.856-2.082c1.12-.492 2.369-.737 3.759-.737 1.393 0 2.631.229 3.696.688 1.064.476 1.966 1.115 2.675 1.943.723.836 1.271 1.835 1.644 3.007.361 1.172.546 2.476.546 3.91v2.213h-12.368a6.02 6.02 0 0 0 .508 1.721c.25.508.587.943.983 1.319.397.37.874.656 1.406.845a5.075 5.075 0 0 0 1.815.319c.942 0 1.819-.188 2.619-.533a5.177 5.177 0 0 0 2.061-1.663l2.549 2.869a7.339 7.339 0 0 1-1.159 1.277 7.248 7.248 0 0 1-1.656 1.131 8.87 8.87 0 0 1-2.146.787c-.781.206-1.65.305-2.588.305zm-.593-15.934c-.57 0-1.054.098-1.489.295a3.443 3.443 0 0 0-1.094.835c-.302.345-.55.763-.745 1.254a7.2 7.2 0 0 0-.411 1.64h7.217v-.411a5.489 5.489 0 0 0-.226-1.442 3.098 3.098 0 0 0-.63-1.139c-.278-.32-.64-.582-1.078-.762s-.951-.27-1.544-.27zm16.288-3.836l.168 2.238a6.516 6.516 0 0 1 2.419-1.918c.959-.459 1.999-.68 3.163-.68.918 0 1.762.139 2.516.393a4.471 4.471 0 0 1 1.936 1.262c.54.582.949 1.344 1.246 2.287.293.951.441 2.106.441 3.483v12.351h-5.18v-12.384c0-.624-.074-1.139-.206-1.533-.138-.41-.334-.746-.604-.967-.272-.254-.59-.41-.976-.524a5.671 5.671 0 0 0-1.329-.147c-.762 0-1.418.164-1.958.5a3.82 3.82 0 0 0-1.319 1.368v13.687h-5.195v-19.408h4.879v-.008zm22.019-4.786v4.778h3.328v3.803h-3.328v9.696c0 .393.058.746.132 1 .089.271.213.476.376.615.165.156.378.254.623.303.246.057.532.082.869.082.312 0 .598-.008.852-.033.265-.023.493-.057.673-.073v3.926c-.425.14-.901.237-1.401.328-.516.099-1.089.132-1.729.132-.853 0-1.616-.1-2.304-.313a4.315 4.315 0 0 1-1.745-.991c-.493-.45-.869-1.058-1.123-1.778-.255-.738-.402-1.615-.402-2.64V189.01h-2.835v-3.803h2.835v-4.778h5.179zm17.473 24.203c-.245-.459-.408-1.049-.524-1.746-.523.591-1.18 1.091-1.982 1.5-.786.41-1.771.607-2.918.607-.927 0-1.804-.14-2.606-.435-.803-.287-1.508-.681-2.106-1.196a5.499 5.499 0 0 1-1.394-1.853c-.336-.697-.499-1.467-.499-2.319 0-1.024.18-1.935.565-2.722.367-.778.941-1.459 1.696-2.008.753-.557 1.688-.967 2.803-1.254 1.122-.295 2.426-.426 3.901-.426h2.312v-1.124c0-.885-.229-1.615-.689-2.155-.458-.533-1.18-.803-2.179-.803-.877 0-1.559.204-2.058.622-.493.435-.747 1.008-.747 1.729h-5.18c0-.844.196-1.63.591-2.393a5.946 5.946 0 0 1 1.655-1.976c.722-.557 1.574-1.008 2.605-1.336 1.018-.335 2.156-.491 3.411-.491 1.131 0 2.163.139 3.13.426.951.287 1.787.721 2.477 1.287a5.898 5.898 0 0 1 1.63 2.139c.386.853.582 1.845.582 2.992v8.213c0 .557.009 1.048.05 1.483.033.442.081.828.146 1.188.05.353.132.664.229.943.099.277.214.557.345.803v.303h-5.246v.002zm-4.286-3.606a4.47 4.47 0 0 0 1.222-.164 5.063 5.063 0 0 0 1.016-.402c.312-.181.565-.41.788-.623.221-.221.393-.443.524-.688v-3.344h-2.132c-.689 0-1.286.082-1.787.229-.499.14-.918.353-1.237.631a2.406 2.406 0 0 0-.713.942 2.918 2.918 0 0 0-.237 1.197c0 .648.229 1.18.68 1.59.459.419 1.082.632 1.876.632zm23.252-1.762c0-.279-.05-.524-.163-.746-.099-.237-.304-.442-.606-.64a6.103 6.103 0 0 0-1.214-.565 18.437 18.437 0 0 0-1.991-.524 17.49 17.49 0 0 1-2.763-.811c-.836-.328-1.572-.714-2.188-1.205a5.128 5.128 0 0 1-1.435-1.664c-.36-.623-.523-1.36-.523-2.197 0-.819.171-1.59.523-2.311a5.975 5.975 0 0 1 1.525-1.942c.671-.55 1.481-.992 2.441-1.312.968-.335 2.058-.483 3.262-.483 1.263 0 2.386.148 3.377.468 1.017.303 1.869.746 2.566 1.294a5.968 5.968 0 0 1 1.613 1.983c.378.762.574 1.606.574 2.524h-5.196c0-.754-.237-1.369-.722-1.852-.475-.484-1.22-.73-2.229-.73-.886 0-1.559.197-2.033.598a1.843 1.843 0 0 0-.722 1.5c0 .295.065.558.189.779.122.212.328.41.606.598.287.188.648.36 1.106.508.475.156 1.032.303 1.704.442 1.049.189 2.033.451 2.935.754.885.303 1.672.68 2.319 1.139a5.545 5.545 0 0 1 1.541 1.729c.361.681.549 1.492.549 2.443 0 .869-.195 1.655-.573 2.393a5.682 5.682 0 0 1-1.646 1.868c-.714.533-1.574.943-2.583 1.238-.999.312-2.13.451-3.368.451-1.352 0-2.565-.181-3.615-.574-1.032-.394-1.909-.893-2.623-1.516-.712-.623-1.244-1.32-1.605-2.091-.353-.778-.54-1.565-.54-2.352h4.925c.025.508.131.934.337 1.303.196.352.458.655.77.885.328.221.706.401 1.131.5.419.105.869.155 1.329.155.999 0 1.754-.181 2.262-.565.509-.374.754-.858.754-1.472zm6.738 4.63c0-.27.082-.49.229-.662.164-.173.41-.279.729-.279.313 0 .55.106.713.279a.947.947 0 0 1 .247.662.873.873 0 0 1-.247.632c-.163.188-.4.271-.713.271-.319 0-.565-.082-.729-.271a.92.92 0 0 1-.229-.632zm8.097-.287c.278 0 .532-.033.779-.131.254-.099.483-.213.671-.368.189-.156.353-.346.468-.551.114-.221.196-.449.213-.704h1.459a2.7 2.7 0 0 1-.319 1.147 3.468 3.468 0 0 1-.778.943 3.422 3.422 0 0 1-1.131.663 3.793 3.793 0 0 1-1.346.255c-.687 0-1.277-.124-1.786-.369a3.642 3.642 0 0 1-1.262-.984 4.17 4.17 0 0 1-.755-1.426 6.102 6.102 0 0 1-.245-1.745V200c0-.607.082-1.18.245-1.729a4.265 4.265 0 0 1 .755-1.442c.328-.402.762-.721 1.253-.984.501-.229 1.092-.352 1.771-.352.534 0 1.018.073 1.442.254.436.156.813.385 1.124.68.312.295.558.639.745 1.041.172.409.271.836.287 1.287h-1.459a2.445 2.445 0 0 0-.196-.77 1.977 1.977 0 0 0-.443-.631c-.18-.189-.4-.336-.647-.435a2.185 2.185 0 0 0-.86-.156c-.475 0-.869.099-1.181.295a2.203 2.203 0 0 0-.762.746c-.188.303-.328.64-.417 1.041a7.073 7.073 0 0 0-.115 1.172v.344c0 .393.05.787.115 1.18.089.377.229.721.409 1.041.196.303.451.549.77.738.31.197.713.286 1.196.286zm4.917-3.516c0-.639.099-1.254.295-1.819a4.005 4.005 0 0 1 .821-1.458 3.812 3.812 0 0 1 1.285-.968 4.22 4.22 0 0 1 1.713-.344c.632 0 1.205.123 1.715.344.508.238.941.566 1.302.968.354.409.624.901.819 1.458.19.565.279 1.172.279 1.819v.188c0 .648-.089 1.279-.279 1.844a4.369 4.369 0 0 1-.819 1.435c-.36.401-.794.729-1.302.959a4.093 4.093 0 0 1-1.715.36c-.623 0-1.196-.131-1.704-.36s-.943-.558-1.294-.959a3.893 3.893 0 0 1-.821-1.435 5.593 5.593 0 0 1-.295-1.844v-.188zm1.558.197c0 .451.05.869.165 1.287.098.393.262.746.475 1.049.213.312.483.541.803.721.312.182.689.263 1.114.263.428 0 .813-.081 1.131-.263.32-.18.584-.426.805-.721a3.27 3.27 0 0 0 .475-1.049c.115-.418.165-.836.165-1.287v-.18c0-.451-.05-.869-.165-1.279a3.155 3.155 0 0 0-.491-1.057c-.204-.32-.477-.549-.803-.738a2.428 2.428 0 0 0-1.116-.254c-.425 0-.803.09-1.114.254-.319.188-.59.418-.803.738a3.11 3.11 0 0 0-.475 1.057c-.115.41-.165.828-.165 1.279v.18h-.001zm10.065-4.63l.031 1.008a3.306 3.306 0 0 1 1.133-.86 3.84 3.84 0 0 1 1.557-.303c.59 0 1.099.123 1.541.344.441.23.795.59 1.032 1.107a3.703 3.703 0 0 1 1.163-1.058c.485-.262 1.067-.393 1.723-.393.476 0 .9.065 1.278.188.377.123.697.319.951.582.254.271.458.606.59 1.017.13.417.204.901.204 1.474v5.951h-1.548v-5.975c0-.361-.049-.672-.132-.935a1.716 1.716 0 0 0-.386-.598 1.544 1.544 0 0 0-.615-.312 3 3 0 0 0-.794-.09c-.312 0-.599.058-.844.139-.246.115-.45.237-.632.418a1.706 1.706 0 0 0-.417.59 2.458 2.458 0 0 0-.189.746v6.016h-1.557v-5.958c0-.335-.041-.639-.132-.893-.099-.23-.221-.442-.402-.606a1.516 1.516 0 0 0-.598-.336c-.237-.09-.5-.114-.795-.114-.558 0-.999.123-1.327.36-.336.238-.59.55-.771.927v6.622h-1.531v-9.056h1.467zm-383.478-23.9v24.662c0 8.499 3.311 16.481 9.327 22.506 6.016 6.016 14.011 9.327 22.498 9.327 17.547 0 31.821-14.277 31.821-31.833 0-16.458-12.86-30.399-29.285-31.71l-1.38-.115-.627-3.311-13.486 9.204 16.437 6.467-.513-3.41 2.656.672a22.877 22.877 0 0 1 17.286 22.203c0 12.646-10.278 22.932-22.917 22.932-12.635 0-22.92-10.285-22.92-22.932l.029-24.662H3.097zm45.402 24.079h-8.901v15.589c4.253-1.5 7.593-4.958 8.901-9.303v-6.286zM30.25 183.961h-8.905v18.162c1.307 4.353 4.647 7.803 8.905 9.303v-27.465z" fill="#8F90AA"/></svg>