<svg xmlns="http://www.w3.org/2000/svg" width="400" height="400"><path fill="none" d="M0 0h399.996v400H0z"/><g fill="#8F90AA"><path d="M94.041 174.322c9.613 0 16.966 1.082 24.22 3.02.874.216 1.223.615 1.397 1.473 1.581 7.769 1.415 15.548.271 23.351-1.563 10.673-4.75 20.814-10.614 29.973-4.966 7.762-11.389 13.818-20.194 17.046-3.333 1.239-6.822 1.996-10.358 1.963-2.553-.023-5.023-.974-7.461-1.814-17.075-5.831-29.587-16.854-37.557-33.059-.532-1.081-.474-1.945.017-2.978 8.593-18.044 22.552-29.875 41.495-35.938 6.772-2.157 13.759-3.063 18.784-3.037z"/><path d="M77.631 127.435c2.176-.358 4.057-.656 5.953-.956.557-.083 1.051.041 1.542.391 15.619 11.015 26.975 25.19 32.537 43.675.029.082.004.191.004.557-15.819-5.408-31.865-6.63-48.121-2.778-16.135 3.835-30.402 11.114-41.728 23.842-.208-4.294-.042-8.428.624-12.553 2.112-13.302 7.877-24.815 17.237-34.482 3.951-4.103 8.419-7.521 13.313-10.424.845-.516 1.156-.333 1.577.473 5.582 10.94 14.979 16.648 26.663 19.143 1.48.317 2.977.566 4.475.699 2.517.199 4.643 1.214 6.609 2.729 1.635 1.265 3.299 2.479 5.441 2.819 1.332.217 2.642.159 3.89-.273 1.281-.424 2.379-1.148 2.583-2.67.22-1.565-.192-2.904-1.514-3.886-1.867-1.398-3.993-1.604-6.189-1.065-1.115.274-2.226.633-3.345.999-2.883.989-5.745.607-8.665.066-7.108-1.306-13.867-3.493-19.731-7.936-3.948-2.955-6.918-6.722-9.36-10.972-.448-.791-.532-1.257.454-1.74 2.051-.973 4.098-1.921 6.189-2.778.537-.216.878-.275 1.257.317 3.672 5.665 9.197 8.967 15.174 11.587 3.044 1.305 5.819 2.903 8.194 5.249 2.005 2.005 4.479 3.111 7.416 2.646 2.529-.407 3.564-2.447 2.301-4.675-1.049-1.888-2.704-2.97-4.925-2.996-1.439-.025-2.804.341-4.18.648-3.366.7-6.247-.715-9.109-2.087-5.075-2.437-9.884-5.283-13.468-9.792-1.136-1.429-1.107-1.456.549-2.029.324-.109.69-.191 1.003-.315 2.833-1.298 5.29-1.433 7.038 1.746.362.657 1.165 1.116 1.85 1.531 1.635.99 2.929 2.246 3.911 3.901 1.065 1.781 2.807 2.545 4.804 2.77 1.151.125 2.274-.108 2.895-1.223.59-1.098.47-2.247-.2-3.302-.932-1.448-2.404-1.931-4.014-2.063a8.532 8.532 0 0 0-2.112.05c-3.918.382-6.443-1.739-8.822-4.843zm149.875 53.666c9.559-10.215 20.98-11.447 33.284-7.653 7.454 2.271 11.506 8.178 11.571 15.981.1 12.37.009 24.748.05 37.128.009.956-.266 1.189-1.181 1.189-3.952-.066-7.896-.092-11.83 0-1.106.016-1.289-.374-1.289-1.374.033-10.24.033-20.497 0-30.764 0-1.413-.084-2.827-.351-4.225-.813-4.185-3.327-6.946-7.462-8.044-5.216-1.398-10.323-1.065-15.115 1.514-5.166 2.769-7.611 7.204-7.645 12.985-.066 9.442-.051 18.9.017 28.35.017 1.283-.357 1.573-1.58 1.558a197.816 197.816 0 0 0-11.373 0c-1.256.023-1.455-.409-1.455-1.515.017-24 .017-48.008 0-72.017 0-1.057.166-1.464 1.389-1.44 3.819.101 7.679.083 11.514.017 1.156-.017 1.522.25 1.506 1.473-.058 8.335-.033 16.669-.033 25.005-.017.551-.017 1.076-.017 1.832zm-53.316 24.483c0-6.922-.025-13.859.041-20.781.016-1.223-.358-1.464-1.506-1.421-2.87.066-5.757-.027-8.646.04-.833.009-1.145-.199-1.119-1.089.054-2.72.054-5.449 0-8.194-.008-.849.249-1.09 1.09-1.082 2.845.066 5.681-.083 8.493.066 1.456.066 1.723-.466 1.697-1.764-.066-2.718-.199-5.448.158-8.169.841-6.156 4.094-9.541 10.258-10.665 5.957-1.047 11.971-.35 17.96-.167.624.026.857.317.857.95-.025 2.87-.033 5.747.017 8.618.017 1.03-.541.832-1.173.781-2.913-.25-5.841-.448-8.761-.191-3.335.284-4.608 1.431-4.941 4.742-.158 1.655-.033 3.327-.125 4.991-.041.981.59.857 1.198.857 4.135 0 8.295.024 12.42-.033 1.032-.025 1.423.208 1.382 1.314a119.427 119.427 0 0 0 0 7.711c.041 1.107-.342 1.349-1.373 1.349-4.001-.066-7.986.016-11.971-.066-1.281-.027-1.688.249-1.688 1.647.074 13.675.025 27.384.092 41.052 0 1.432-.45 1.715-1.764 1.681-3.777-.09-7.554-.059-11.348-.016-.981.016-1.247-.233-1.247-1.24.033-6.986-.001-13.975-.001-20.921z"/><path d="M108.674 128.917c2.683.158 4.961 1.439 7.383 2.396.524.216.391.732.378 1.172-.082 2.503-1.123 4.592-2.591 6.514-1.172 1.53-1.846 3.22-1.56 5.208.133.816.407 1.572.861 2.229 1.686 2.387 4.068 2.48 5.902.2 1.54-1.93 1.814-4.118.944-6.422-.557-1.448-1.24-2.846-1.822-4.293a12.57 12.57 0 0 1-.627-2.03c-.121-.514-.329-1.23.082-1.588.467-.407 1.024.175 1.506.4 4.468 2.187 4.421 2.187 4.642 7.669.158 3.744-.594 7.121-2.911 10.232-2.134 2.862-1.968 5.765.023 8.385 1.76 2.347 3.965 2.371 5.741.026 1.859-2.456 2.155-5.283.673-7.83-2.716-4.667-2.653-9.742-2.866-14.823 0-.101.029-.183.087-.6 10.075 6.397 17.703 14.815 22.965 25.34 5.278 10.581 7.353 21.82 6.422 33.6-.461.174-.578-.192-.757-.384-7.783-8.885-17.303-15.348-27.985-20.197-1.16-.55-1.779-1.156-2.159-2.397-3.037-9.866-8.235-18.576-14.613-26.637-5.548-6.997-11.671-13.376-19.145-18.351-.171-.101-.271-.25-.586-.525 4.221-.207 8.165.025 12.091.682 1.18.159 2.379.492 3.564.625 1.106.117 1.044.657.694 1.398-.407.882-.861 1.723-1.256 2.587a5.912 5.912 0 0 0 1.752 7.079c1.23.999 2.523.974 3.635-.175 1.606-1.671 1.863-3.651 1.164-5.764-.415-1.29-1.055-2.488-1.605-3.728h-.026zm17.012 51.194c4.043 1.223 7.637 3.337 11.194 5.541 5.603 3.435 10.681 7.562 15.343 12.23.804.822 1.107 1.571.862 2.776-4.717 22.661-17.782 38.384-39.041 47.42-.083.023-.171.039-.387.107.008-.674.458-1.123.736-1.59 6.132-10.175 10.328-21.063 12.396-32.777 1.914-10.848 1.822-21.652-.985-32.383-.125-.442-.288-.875-.109-1.366l-.009.042zm117.127 66.976c-2.473.184-2.473.184-2.571-2.005a20.203 20.203 0 0 0-.267-2.104c-.207-1.323-.981-2.063-2.38-1.972-1.497.067-3.477-.656-4.333.309-.725.807-.143 2.77-.258 4.217-.058.565.656 1.597-.782 1.672-.882.017-1.207-.157-1.189-1.147.059-4.135.049-8.286 0-12.421 0-.839.241-1.115 1.106-1.098 1.913.075 3.835.009 5.748.033 2.288.025 3.693.856 4.25 2.472.658 1.854.068 3.618-1.779 5.058 1.182.74 1.614 1.896 1.688 3.17.084 1.271.01 2.526.767 3.816zm-7.13-7.777c.858-.042 1.73 0 2.563-.151 1.438-.215 2.179-1.223 2.062-2.661-.091-1.396-.839-2.104-2.354-2.187-.856-.01-1.713 0-2.562 0-2.38 0-2.38 0-2.38 2.32.001 2.637.001 2.637 2.671 2.679zm-32.685.522c0-2.104.024-4.25-.024-6.362-.009-.691.184-.933.931-.924 2.788.05 5.541.05 8.319 0 .731-.009.965.207.965.924 0 .831-.432.856-1.057.856-2.029-.016-4.042.041-6.072-.016-.79-.027-.981.215-1.015 1.005-.091 3.562-.126 3.562 3.344 3.562 1.115 0 2.213.024 3.344-.019.684-.016.832.241.832.884 0 .623-.266.765-.814.765-1.855-.025-3.728.041-5.599-.025-.882-.05-1.073.266-1.09 1.124-.092 3.835-.107 3.835 3.644 3.835 1.206 0 2.429.025 3.643 0 .732-.041.933.216.958.964 0 .749-.416.767-.966.767-2.828 0-5.647-.043-8.469.032-.815 0-.873-.366-.873-.998.016-2.122-.001-4.26-.001-6.374zm69.148-1.63c0 1.54.082 3.12-.025 4.667-.134 2.387-1.522 3.994-3.802 4.442-1.515.3-3.012.274-4.501-.167-1.871-.573-3.111-1.838-3.202-3.759-.184-3.379-.117-6.772-.166-10.134-.01-.974.699-.615 1.164-.682.725-.133.824.267.824.874-.033 2.812-.066 5.632 0 8.459.049 2.405 1.256 3.694 3.518 3.92 2.488.273 4.135-1.098 4.168-3.61.059-2.58-.033-5.158.059-7.72.033-.683-.782-1.947.948-1.956 1.839-.033.924 1.298 1.007 1.996.149 1.215.05 2.438.05 3.669l-.042.001zm-93.772-5.656c1.198.117 2.595-.183 4.001.25 1.955.557 2.887 2.046 2.788 4.433-.101 2.171-1.141 3.452-3.111 3.86-1.54.333-3.111.226-4.668.184-.857-.008-1.114.249-1.089 1.105.082 1.324-.025 2.638.041 3.937.041.813-.374.905-1.006.856-.549-.043-1.106.116-1.106-.782.041-4.334.033-8.687 0-13.036 0-.689.308-.815.897-.807 1.024.05 2.039 0 3.253 0zm.392 6.92c.757 0 1.53.093 2.262 0 1.439-.223 2.138-1.172 2.112-2.66-.041-1.465-.847-2.322-2.346-2.456-.549-.049-1.114-.039-1.671-.039-2.813 0-2.813 0-2.813 2.811.018 2.411.018 2.411 2.456 2.344zm138.863 17.222c0-1.573 0-3.137-.033-4.692 0-.6.117-.915.832-.915.765 0 .765.399.731.958v.156c.134 1.223-.498 3.187.317 3.52 1.479.591 3.343.216 5.073.216.615 0 .466-.523.466-.89.017-1.056.034-2.097.017-3.178-.017-.583.233-.782.816-.767.516 0 .698.226.698.725-.017 3.294-.017 6.557.017 9.851 0 .59-.25.765-.816.765-.648.018-.731-.357-.731-.857.017-1.13-.016-2.229.017-3.353.018-.64-.183-.923-.849-.84-.198.018-.415 0-.615 0-1.397.025-3.161-.424-4.109.259-.882.647-.2 2.535-.267 3.867-.033.549-.049.941-.781.941-.749 0-.815-.334-.815-.915.032-1.632.032-3.247.032-4.851zm19.532 1.697c0-1.106 0-2.214-.016-3.329-.018-.956.814-1.13 1.114-.665.5.808.716.383 1.148.108.498-.332 1.164-.631 1.713-.382 1.647.724 3.179.366 4.859.05 1.746-.342 2.578.657 2.612 2.454.016 1.572 0 3.11 0 4.707-.018.476.198 1.133-.749 1.091-.933-.041-.666-.707-.666-1.198-.016-1.356-.016-2.72-.016-4.076 0-1.031-.3-1.848-1.481-1.848-1.148.043-1.98.541-2.014 1.799-.065 1.405-.033 2.835-.017 4.241 0 .575.066 1.116-.799 1.099-.849 0-.682-.558-.682-1.041-.017-1.305-.017-2.62 0-3.933.017-1.091-.067-2.165-1.481-2.122-1.28 0-2.03.849-2.112 2.104-.101 1.298-.017 2.62-.033 3.935-.033.457.199 1.057-.665 1.057-.783 0-.717-.5-.717-1.041.002-1.013.002-2.004.002-3.01zm14.859-3.561c1.83-.933 3.443-1.174 4.908.058 1.564 1.289 1.646 3.119 1.247 4.866-.632 2.671-2.396 3.062-5.224 2.504-.283-.066-.482-.499-.799-.266-1.83 1.307-1.547-.158-1.547-1.199a376.507 376.507 0 0 1 0-8.634c0-.45-.2-1.048.632-1.058.932-.031.782.584.782 1.099l.001 2.63zm4.841 3.494c0-1.764-1.048-3.021-2.496-3.021-1.414 0-2.463 1.332-2.43 3.08.018 1.803 1.032 2.979 2.514 2.979 1.48-.001 2.412-1.167 2.412-3.038zm-150.992-3.294c0-1.174.016-2.114 0-3.071 0-.499.065-.857.731-.857.748 0 .648.451.648.899v9.517c0 .449.018 1.174-.59.866-1.374-.684-2.597.373-3.886.058-.49-.108-.981-.067-1.456-.333-1.738-1.016-2.404-4.201-1.289-6.229.989-1.79 3.211-2.322 5.241-1.191.134.057.251.141.601.341zm0 3.376c.023-1.889-.991-3.111-2.539-3.104-1.388.043-2.336 1.215-2.387 2.995-.059 1.715.981 3.036 2.42 3.063 1.49.041 2.496-1.124 2.506-2.954zm162.904.392c-.6 0-1.215.058-1.797 0-1.464-.158-1.23.599-.782 1.415.782 1.464 2.979 1.621 3.894.224.432-.656.965-.882 1.448-.523.482.341-.051.907-.267 1.289-.849 1.339-3.744 1.779-5.224.815-1.466-.948-2.097-3.319-1.431-5.3.598-1.78 2.028-2.746 3.925-2.612 1.881.107 3.479 2.03 3.345 3.97-.033.506-.166.747-.699.739-.797-.035-1.613-.017-2.412-.017zm-.632-1.33c.217 0 .417.058.6 0 .516-.135 1.414.415 1.53-.343.101-.657-.516-1.246-1.215-1.597-.682-.324-1.33-.249-2.013.082-.615.309-1.147.899-1.048 1.515.1.717.915.208 1.414.343.234.058.483 0 .732 0zm-193.702-.817c0-1.513.041-3.045-.017-4.549-.025-.799.25-1.049 1.04-1.016 1.814.059 3.652.016 5.457.016.467 0 .899-.074.924.625.016.749-.341.799-.948.799-1.306-.042-2.612.05-3.926-.042-.808-.024-1.007.266-1.024 1.048-.033 2.422-.074 2.404 2.33 2.422.689 0 1.406.008 2.112-.018.483 0 .75.184.75.715 0 .518-.2.716-.716.716-1.024-.016-2.021.084-3.037-.016-1.073-.101-1.597.141-1.422 1.371.1.875 0 1.822.025 2.722 0 .549 0 .973-.774.998-.74.018-.791-.383-.773-.956.025-1.59-.001-3.22-.001-4.835zm120.391 1.981c.358.856-.664 2.138.666 2.952.083.075.042.591-.092.683-.432.333-1.131.333-1.422.084-.624-.624-1.073-.333-1.73-.093-.99.367-2.104.342-3.128.042-.923-.241-1.248-1.073-1.248-2.021-.008-1.105.549-1.854 1.53-2.154.907-.317 1.864-.433 2.804-.615.559-.117 1.148-.225 1.123-.974-.025-.715-.531-1.081-1.156-1.166-.974-.141-2.029-.156-2.438.966-.308.815-.964.657-1.33.459-.492-.259-.108-.8.074-1.207.607-1.23 2.521-1.822 4.435-1.423 1.556.325 1.93 1.423 1.879 2.804.033.499.033.997.033 1.663zm-1.571-.226c-1.015.2-1.979.333-2.879.574-.641.158-1.032.616-.974 1.331.076.758.641.974 1.273 1.05 1.764.223 2.746-.858 2.58-2.955zm11.925.392c-.615 0-1.198-.05-1.813.017-.383.008-.882-.208-1.115.184-.249.44.066.897.3 1.272.815 1.406 2.962 1.514 3.894.117.399-.625.915-.791 1.348-.51.6.376.033.892-.199 1.258-.782 1.372-3.661 1.846-5.175.931-1.464-.931-2.146-3.286-1.497-5.282.565-1.797 1.996-2.77 3.893-2.679 1.964.092 3.627 2.112 3.411 4.052-.066.564-.316.657-.766.641-.768-.019-1.517-.001-2.281-.001zm-.748-1.33c.199 0 .415.041.582 0 .549-.117 1.446.356 1.563-.3.134-.75-.532-1.332-1.297-1.665-.582-.274-1.133-.224-1.73.018-.699.315-1.299.873-1.232 1.555.134.808.983.25 1.515.393.182.057.398-.001.599-.001zm-88.751 1.08c.333.891-.674 2.245.757 3.086.158.066.133.508-.124.65-.467.257-1.174.331-1.423.023-.648-.674-1.115-.273-1.747-.05-.957.357-2.005.258-3.003.075-.874-.158-1.281-.89-1.357-1.763-.099-1.148.343-2.047 1.423-2.388.933-.341 1.965-.458 2.938-.657.55-.134 1.14-.225 1.099-1.008-.018-.739-.549-1.056-1.166-1.148-.981-.141-2.021-.124-2.445.983-.274.739-.807.615-1.197.473-.674-.249-.2-.79-.051-1.139.549-1.314 2.363-1.914 4.359-1.522 1.53.274 2.046 1.298 1.954 2.728-.043.501-.017 1.001-.017 1.657zm-1.523-.1c-1.015.158-1.954.291-2.895.532-.633.158-1.058.641-.974 1.349.125.697.623.956 1.307 1.032 1.747.183 2.695-.833 2.562-2.913zm120.971.1c.332.857-.666 2.245.78 3.053.051.033.018.541-.132.657-.366.326-1.032.326-1.266.101-.748-.725-1.314-.233-2.062-.059-.85.191-1.797.167-2.696.074-.981-.133-1.397-.905-1.464-1.82-.117-1.148.35-2.047 1.431-2.396.882-.315 1.848-.409 2.778-.632.582-.116 1.248-.175 1.198-1.031-.05-.833-.649-1.107-1.349-1.148-.931-.066-1.929-.025-2.262 1.048-.25.782-.849.541-1.198.432-.716-.249-.167-.79-.05-1.121.533-1.348 2.546-1.989 4.509-1.531 1.448.332 1.896 1.321 1.781 2.703-.031.473.002 1.005.002 1.67zm-2.381.041c-1.098.392-2.911-.198-2.911 1.799 0 .997 1.065 1.039 1.896.955 1.314-.133 2.014-.989 2.014-2.17 0-.899-.483-.674-.999-.584zm-141.317-.341c0-1.057.016-2.096-.017-3.16-.033-.965.798-1.156 1.098-.716.625.948.965.199 1.415 0 2.254-1.057 4.225.133 4.275 2.596a96.658 96.658 0 0 1-.008 4.375c-.008.45.232 1.073-.615 1.099-.841.018-.683-.558-.683-1.041 0-1.305.025-2.603-.016-3.917-.042-1.082-.233-2.046-1.59-2.181-1.205-.099-2.22.691-2.354 2.03-.125 1.365-.083 2.737-.083 4.094 0 .522.05 1.015-.74 1.015-.823.018-.682-.5-.682-1.015v-3.179zm72.507 4.177c-2.611.017-3.942-1.355-3.95-4.034 0-2.687 1.487-4.302 3.967-4.285 2.421 0 3.91 1.599 3.977 4.192.067 2.347-1.448 4.576-3.994 4.127zm-2.463-4.077c0 1.764 1.049 3.014 2.496 3.014 1.456 0 2.446-1.215 2.446-3.014-.017-1.771-1.039-3.045-2.479-3.027-1.439-.001-2.463 1.289-2.463 3.027zm-28.159 4.077c-2.604 0-3.943-1.381-3.951-4.042-.008-2.655 1.53-4.294 4.002-4.294 2.445.017 3.968 1.705 3.942 4.359-.033 2.68-1.338 3.994-3.993 3.977zm-2.428-4.042c.017 1.813 1.015 3.002 2.495 2.979 1.456-.019 2.412-1.176 2.396-3.021-.008-1.779-1.049-3.037-2.463-3.02-1.414-.001-2.428 1.306-2.428 3.062zm-41.378-.018v3.194c.016.475-.216 1.181-.65.814-1.297-1.081-2.346.3-3.561.117-1.688-.266-2.461-.649-2.562-2.337-.107-1.706-.033-3.419-.074-5.134-.008-.582.175-.823.798-.808.64.026.707.393.699.907-.008 1.415.008 2.838-.008 4.235-.025 1.014.173 1.854 1.347 1.987 1.248.143 2.254-.391 2.455-1.671.207-1.348.074-2.722.158-4.062.042-.49-.449-1.33.633-1.38 1.164-.033.732.874.765 1.423.033.903 0 1.818 0 2.715zm79.885-.041c0-1.106.025-2.214-.017-3.32-.032-.915.857-.989 1.024-.682.631.998 1.098.233 1.604.024 2.155-.964 4.084.158 4.209 2.463.067 1.556 0 3.127.018 4.676.017.599-.074.974-.799.956-.724-.017-.632-.492-.632-.956 0-1.366-.018-2.737.024-4.076.025-1.174-.333-2.063-1.613-2.089-1.291-.018-2.163.674-2.288 1.98-.101 1.364-.058 2.729-.042 4.084 0 .607 0 1.106-.84 1.057-.856-.025-.624-.632-.633-1.08-.031-1.007-.015-2.022-.015-3.037zm-30.479-.007c0-1.107.041-2.206 0-3.329-.018-.757.698-1.016.915-.682.706 1.04 1.215.184 1.771-.025 2.196-.857 4.026.291 4.084 2.638.025 1.447.018 2.921 0 4.375 0 .517.167 1.174-.739 1.132-.94-.041-.65-.74-.658-1.215a57.485 57.485 0 0 1 0-3.76c.018-1.073-.224-1.947-1.438-2.13a2.16 2.16 0 0 0-2.471 1.914c-.167 1.289-.043 2.62-.092 3.925-.042.5.349 1.332-.724 1.266-.948-.041-.607-.766-.648-1.239-.025-.951 0-1.907 0-2.87zm16.454 4.099c-1.664.25-2.828-.449-3.477-1.988-.758-1.746-.317-4.192.89-5.366 1.072-1.047 2.861-1.297 4.358-.689.684.292 1.24.748 1.515 1.422.142.342.491.79.049 1.066-.415.265-1.03.308-1.305-.3-.559-1.174-1.481-1.456-2.63-1.106-1.33.382-1.672 1.514-1.738 2.729-.066 1.189.158 2.329 1.348 2.953 1.123.623 2.354.226 2.904-.966.333-.731.806-.997 1.388-.724.607.316.126.907-.057 1.323-.633 1.405-1.781 1.83-3.245 1.646zm-34.273 0c-1.689.209-2.879-.416-3.527-1.988-.749-1.821-.351-4.192.882-5.397 1.09-1.024 3.078-1.315 4.55-.592a2.731 2.731 0 0 1 1.348 1.382c.159.356.449.83-.017 1.071-.424.21-1.006.259-1.298-.356-.599-1.232-1.597-1.505-2.786-1.015-1.464.632-1.556 1.963-1.497 3.318.074 1.215.564 2.213 1.838 2.495 1.072.21 2.046-.107 2.438-1.256.249-.706.808-.864 1.289-.64.641.324.159.891-.024 1.315-.626 1.422-1.766 1.847-3.196 1.663zm59.496 0c-1.405.125-1.929-.557-1.938-1.771-.023-1.315-.023-2.62 0-3.951 0-.616.051-1.231-.897-1.165-.407.041-.483-.226-.475-.566.009-.298-.033-.723.391-.682 1.115.066.981-.706.981-1.414 0-.474-.174-1.04.666-1.064.915-.058.757.581.741 1.114 0 .732-.084 1.456 1.031 1.323.474-.042.591.273.582.674 0 .448-.192.697-.632.632-.981-.133-1.007.49-.981 1.198.033.907.023 1.822.008 2.703-.008.883-.175 1.798 1.164 1.78.483 0 .524.474.433.808-.185.639-.767.273-1.074.381zm80.74-7.029c.599-.656 1.115-1.106 1.847-1.24.349-.058.848-.272.932.358.066.482.183 1.016-.583 1.105-1.797.226-2.279 1.481-2.313 3.021-.016 1.015 0 2.013 0 3.027 0 .449-.1.757-.648.782-.582 0-.782-.241-.782-.808.033-2.054 0-4.125.033-6.18 0-.45-.315-1.066.5-1.215.881-.148.714.626 1.014 1.15zm-76.722-.041c.549-.541.974-1.016 1.572-1.148.399-.074.965-.39 1.114.241.108.475.284 1.082-.648 1.199-1.581.206-2.112 1.354-2.122 2.811a53.381 53.381 0 0 0 0 3.021c.01.565-.041.956-.798.973-.807 0-.691-.541-.691-1.041-.016-2.004-.033-4.009.018-6.031.025-.407-.325-1.039.532-1.156.865-.092.765.59 1.023 1.131zm26.375 1.53c0 1.464.033 2.928-.018 4.376-.016.491.284 1.189-.681 1.173-.85-.009-.6-.641-.6-1.082v-9.058c.017-.483-.299-1.215.683-1.184.964.066.582.791.598 1.258.051 1.498.018 3.002.018 4.517zm-83.418 1.489c0 1.123-.017 2.213 0 3.319 0 .49-.107.782-.666.757-.507-.025-.732-.216-.715-.724v-6.656c-.018-.572.158-.831.782-.831.599 0 .599.375.599.8-.016 1.122 0 2.22 0 3.335zm4.735-5.208c.897-1.113 1.014-2.753 3.077-2.104-.924.815-1.257 2.171-3.077 2.104zm-4.768-1.331c.091.716.033 1.09-.648 1.074-.666 0-.699-.384-.699-.874-.018-.566.041-.956.79-.925.773.01.506.551.557.725z"/><path d="M125.694 180.069c-.045-.023-.082-.023-.145-.049.024 0 .066-.033.074-.017.025.042.042.066.063.108l.008-.042z"/></g></svg>