<svg xmlns="http://www.w3.org/2000/svg" width="400" height="400"><path fill="none" d="M0 0h399.996v400H0z"/><path d="M22.759 151.793c-4.639 0-8.435 3.788-8.435 8.444v59.223H74.02c4.656 0 8.602-4.018 8.602-8.659v-59.008H22.759zm42.925 50.498l-35.051 6.173v-36.998l35.051-6.216v37.041zm148.661-21.188c-.414-.912-.994-1.708-1.591-2.511-.581-.763-1.292-1.483-2.023-2.162-3.91-3.398-9.728-5.181-16.025-3.299l-.033-.116-.149-.083h-.033c-7.906 2.42-12.181 9.978-12.778 18.147v.166c-.597 9.695 5.104 18.529 15.297 20.327.779.157 1.525.231 2.319.298.797.083 1.708.108 2.304.108v-.025c2.421 0 9.098-.266 9.829-3.953.197-1.127.43-4.11.149-5.792-2.006 1.044-5.221 2.386-9.349 2.278-.531 0-1.11.05-1.608 0-.529-.065-1.126-.148-1.639-.148h-.018c-3.895-.589-7.242-2.669-8.767-6.646-.2-.373-.332-1.209-.448-1.209h12.694c2.603 0 5.221-.771 7.624-1.931 1.823-.746 2.835-1.749 3.829-3.025 1.093-1.475 1.755-3.207 1.755-5.188 0-1.615-.396-3.28-1.292-5.162l-.047-.074zm-11.486 8.758h-13.243c.614-4.243 1.99-7.019 3.862-8.535.465-.39.961-.813 1.475-1.077.531-.257 1.128-.53 1.708-.763l.167-.083v.025c3.629-1.185 6.729.058 8.883 2.212.415.398.827.829 1.077 1.269.266.414.481.813.663 1.226l.065.2c1.674 3.91-1.722 5.526-4.657 5.526zm-67.053-18.429v-.298h-3.017v.298c-4.856 0-8.253 1.699-11.104 4.516-2.85 2.893-4.624 6.804-4.624 11.138v23.907h8.468v-24.164h-.033c0-1.807.928-3.538 2.17-4.781 1.328-1.276 2.686-1.947 5.122-1.947v.083h3.017v-.084c1.806 0 3.562.671 4.838 1.922a6.98 6.98 0 0 1 1.973 4.807h-.167v24.164h9.017v-23.907c0-4.342-1.707-8.245-4.59-11.112-2.817-2.802-6.861-4.542-11.07-4.542zm36.161 32.409c-2.719-.273-4.507-1.062-5.104-3.97-.099-.497-.266-1.757-.266-2.296v-18.594h8.9c3.298 0 4.938-.97 5.287-3.896l.331-3.356h-14.518v-10.275h-8.453v36.121l-.033.208c.167 3.654.316 7.151 3.017 10.217 1.457 1.442 4.409 3.033 6.462 3.423 1.211.231 2.471.349 3.614.364 2.519.083 6.131-.215 7.889-.87 1.821-.713 2.269-4.963 1.922-8.138-2.07.896-6.397 1.418-9.048 1.062zm-71.844-42.991h9.065v50.142h-9.065zm136.561 10.582c-4.224 0-8.151 1.583-10.97 4.392-2.9 2.876-4.607 6.779-4.607 11.005h-.132v24.164h9.064v-24.164h-.199c0-1.807.695-3.538 1.955-4.781 1.31-1.276 3.083-1.947 4.889-1.947v.083h2.421v-9.049h-2.421v.297zm74.331 3.157c-3.563-2.759-8.716-3.14-13.109-2.809-2.75.183-7.408.836-8.716 2.941-.549.861-.681 2.104-.681 3.133l-.033 3.396c3.48-1.972 5.752-2.411 8.734-2.635 2.286-.149 5.121-.058 7.109.778 1.591.474 2.502 1.85 3.033 3.017.614 1.418 1.11 4.012.945 5.999-1.939.457-7.36-.24-10.491-.007-6.513.464-12.131 3.272-12.646 9.819-.744 9.091 6.73 14.095 16.59 13.847 2.402-.051 4.542-.531 6.447-1.351 5.835-2.636 7.658-7.748 7.658-13.516V185.52c0-2.146-.232-4.657-1.227-6.654-.995-1.916-2.205-3.208-3.613-4.277zm-2.418 19.375c0 1.682.048 3.877-.332 5.352-.516 2.305-1.593 4.11-3.148 4.823-2.006.896-4.376 1.442-8.005.986v-.174h-.084c-2.851 0-4.74-2.578-4.128-5.71v-.265c0-1.467 1.128-3.142 2.919-3.937 1.89-.845 3.729-1.11 7.109-1.151 1.708 0 3.86.141 5.684-.133v.208h-.015zm90.636 17.045l-17.717-20.045 15.879-18.024h-8.769l-15.993 18.197v.067l17.849 19.805zm-26.6-19.872V160.85h-8.45v50.159h8.45V191.17zm-20.335-15.272c-2.866-2.834-6.86-4.434-11.071-4.434v-.298h-3.229.197v.298c-4.806 0-8.369 1.583-11.22 4.392-2.818 2.876-4.74 6.779-4.74 11.005h.266v24.164h8.436v-24.164c0-1.807.928-3.538 2.238-4.781 1.241-1.276 2.617-1.947 5.021-1.947v.083h-.197 3.229v-.083c1.824 0 3.597.671 4.856 1.922 1.343 1.269 2.039 3 2.039 4.807h-.248v24.164h9.064v-24.164h-.116c-.001-4.226-1.741-8.13-4.525-10.964zm-82.799-2.402c-6.562-1.799-11.85-.531-16.572 4.292l.099-16.3h-8.468v31.547c-.614 11.295 7.391 19.067 18.446 18.951 10.076-.083 18.526-7.739 18.329-19.953-.101-9.547-4.408-16.508-11.834-18.537zm-6.877 31.289c-3.051 0-5.636-1.292-7.492-3.688-1.856-2.428-2.385-5.097-2.418-8.203-.051-3.663.263-6.721 1.904-9.224 1.923-2.851 4.823-4.507 8.006-4.507 5.635 0 10.208 4.896 10.208 12.711 0 7.791-4.573 12.911-10.208 12.911z" fill="#8F90AA"/></svg>