<svg xmlns="http://www.w3.org/2000/svg" xmlns:xlink="http://www.w3.org/1999/xlink" width="138" height="66" viewBox="0 0 138 66">
    <defs>
        <path id="a" d="M.112.13h.45v2.073h-.45z"/>
        <path id="c" d="M0 .13h52.682v64.724H0z"/>
    </defs>
    <g fill="none" fill-rule="evenodd" opacity=".5">
        <path fill="#1D2258" d="M74.211 1.904c-.119.284-.217.489-.292.7-.815 2.301-1.626 4.603-2.44 6.905-.394 1.117-.396 1.116.792 1.116h5.036L74.21 1.904zm.204-1.766c.31.163.44.44.557.762 1.679 4.593 3.375 9.18 5.044 13.777.066.183.462.563.001.644-.359.063-.925.34-1.154-.331-.325-.951-.69-1.889-1.005-2.843-.111-.336-.268-.452-.629-.448-2.016.018-4.033.022-6.049-.002-.4-.005-.55.134-.665.496-.286.892-.62 1.768-.938 2.65-.16.444-.852.729-1.265.508-.293-.156-.059-.364 0-.526.725-1.997 1.462-3.99 2.194-5.983.984-2.682 1.968-5.364 2.95-8.047.077-.211.215-.413.133-.657h.826z"/>
        <path fill="#A4A4A4" d="M57.909 65.152c-.012-.076-.027-.15-.035-.23-.003-.036.01-.084.015-.127.32-.01.642-.026.962-.026 25.626-.001 51.252 0 76.878-.004.32 0 .64-.04.961-.063l.035.45H57.909z"/>
        <g transform="translate(136.587 62.667)">
            <mask id="b" fill="#fff">
                <use xlink:href="#a"/>
            </mask>
            <path fill="#A4A4A4" d="M.197 2.195l-.085-.16c.025-.634.05-1.267.073-1.9L.531.13c0 .62.007 1.239-.007 1.859-.003.083.207.253-.327.206" mask="url(#b)"/>
        </g>
        <path fill="#A4A4A4" d="M58.871.138l-.015.45-1.08-.028-.005-.422h1.1z"/>
        <path fill="#1D2258" d="M136.72 62.801l-.03 1.901c-.32.008-.64.022-.961.022-25.626.002-51.252.001-76.877.002-.321 0-.642.006-.963.01-.015-.067-.041-.133-.044-.2-.08-1.808-.079-1.808 1.73-1.808 25.424 0 50.848 0 76.271.004.29 0 .594-.083.874.07M84.893 44.385c0 .595.007 1.19-.003 1.785-.005.241.037.385.328.38 1.188-.025 2.383.042 3.561-.068 1.309-.122 1.986-.981 1.932-2.213-.052-1.184-.871-1.965-2.165-2.004-1.073-.031-2.148.009-3.222-.017-.394-.01-.45.16-.437.49.021.548.006 1.098.006 1.647m0 6.474c0 .619.02 1.239-.007 1.857-.016.358.095.477.46.47 1.075-.021 2.152.005 3.228-.01 1.441-.022 2.34-.869 2.368-2.205.029-1.364-.794-2.263-2.232-2.334-1.143-.057-2.29-.011-3.434-.029-.3-.004-.399.094-.389.394.02.618.006 1.238.006 1.857m6.286-3.38c1.942 1.371 2.557 3.045 1.88 5.079-.535 1.61-1.745 2.466-3.359 2.64-2.233.243-4.485.052-6.728.102-.456.01-.376-.289-.377-.553v-7.43l-.001-6.605c0-.299-.063-.593.423-.58 2.105.052 4.219-.13 6.316.085 3.32.342 4.164 3.21 3.523 5.277-.27.872-.85 1.498-1.677 1.984M72.62 50.21h4.544l-2.248-6.548-2.295 6.547m7.451 5.086c-1.213 0-1.207-.002-1.612-1.179-.207-.602-.279-1.389-.703-1.742-.434-.361-1.23-.097-1.867-.105-1.169-.014-2.338.008-3.506-.01-.353-.006-.534.099-.64.452-.216.723-.482 1.43-.73 2.144-.057.167-.061.416-.285.423-.71.023-1.427.072-2.127-.014-.32-.04-.061-.374.005-.557 1.123-3.094 2.252-6.186 3.383-9.278.573-1.566 1.174-3.124 1.714-4.702.164-.48.399-.611.88-.6 1.207.032 1.211.007 1.638 1.17 1.612 4.4 3.222 8.8 4.832 13.198.293.8.292.8-.57.8h-.412M57.745 47.704c0-2.316.011-4.632-.01-6.948-.003-.444.055-.637.577-.633 1.777.015 1.777-.008 1.777 1.773 0 3.554.013 7.108-.013 10.662-.004.522.133.64.64.632 2.015-.031 4.03 0 6.046-.023.444-.006.584.107.585.565.005 1.564.023 1.564-1.505 1.564-2.428 0-4.855-.023-7.282.016-.635.01-.85-.105-.834-.799.052-2.269.02-4.54.02-6.81M109.703 24.305c0 .825.016 1.65-.008 2.475-.01.366.06.524.477.516 1.419-.026 2.838.004 4.257-.016.795-.011 1.535-.23 2.137-.79.853-.793 1.132-2.208.673-3.433-.488-1.3-1.556-1.757-2.813-1.809-1.416-.059-2.837-.003-4.256-.02-.357-.005-.482.103-.474.465.02.87.007 1.741.007 2.612m9.047 10.938c-1.222.23-1.268.202-1.777-.788-.973-1.89-1.963-3.772-2.921-5.67-.157-.31-.318-.43-.667-.422-1.054.024-2.109.03-3.162-.002-.425-.013-.535.106-.53.53.023 1.95-.008 3.901.022 5.851.008.505-.167.606-.627.603-.436-.002-.577-.101-.575-.569.019-4.68.018-9.362.001-14.043-.001-.446.106-.588.564-.575 1.969.055 3.943-.09 5.908.074 2.14.178 3.42 1.515 3.628 3.688.195 2.04-.906 3.743-2.873 4.273-.608.164-.456.369-.267.728 1.064 2.023 2.121 4.05 3.179 6.077.04.075.064.159.097.245M105.366 27.897c-.053-1.144-.07-2.153-.152-3.157-.17-2.09-1.697-3.549-3.77-3.644-1.96-.09-3.687 1.23-3.965 3.242a25.63 25.63 0 0 0-.008 6.787c.253 1.968 1.853 3.247 3.806 3.277 1.942.03 3.573-1.297 3.876-3.282.17-1.104.153-2.237.213-3.223m1.078-.118c.024 1.099.099 2.202-.06 3.295-.33 2.288-1.68 3.796-3.955 4.238-2.173.423-4.023-.217-5.41-2.005-.556-.715-.761-1.566-.815-2.438-.13-2.129-.153-4.26.016-6.388.163-2.049 1.317-3.394 3.183-4.078 1.999-.733 3.866-.39 5.506 1.014 1.067.913 1.47 2.128 1.528 3.476.04.96.007 1.924.007 2.886M127.51 30.56h6.227l-3.112-8.762-3.115 8.761m-2.344 4.756c-.556.108-.62-.068-.432-.574 1.733-4.67 3.444-9.346 5.153-14.024.128-.352.25-.573.705-.568.452.004.629.177.772.57 1.69 4.637 3.397 9.267 5.086 13.904.077.21.411.48.047.69-.367.211-1.068-.045-1.195-.393-.321-.88-.653-1.756-.937-2.648-.145-.454-.345-.644-.862-.634a192.97 192.97 0 0 1-5.84.006c-.407-.004-.6.107-.727.509-.274.87-.64 1.712-.91 2.584-.147.473-.366.707-.86.578M73.585 27.714c.017-1.26-.042-2.528.19-3.771.421-2.276 2.59-3.935 5.044-3.91 2.507.026 4.36 1.469 4.992 3.901.047.182.29.536-.049.544-.353.007-.88.37-1.105-.273-.12-.344-.237-.694-.405-1.016-.778-1.501-2.375-2.31-3.994-2.043-1.872.308-3.077 1.433-3.304 3.244a27.478 27.478 0 0 0-.017 6.583c.237 2.04 1.62 3.246 3.666 3.422 1.743.15 3.396-1.017 4.021-2.822.079-.228-.004-.554.42-.6.85-.093.952.004.71.83-.634 2.168-2.489 3.59-4.716 3.615-2.464.028-4.486-1.26-5.114-3.266a4.873 4.873 0 0 1-.183-.8c-.162-1.208-.143-2.424-.156-3.638M62.118 33.196l2.272-7.022c.591-1.826 1.18-3.654 1.773-5.48.147-.453.829-.73 1.249-.51.271.143.057.32.01.462-.725 2.238-1.46 4.473-2.192 6.709-.81 2.475-1.626 4.95-2.424 7.429-.118.369-.25.559-.697.566-.468.008-.565-.226-.682-.581-1.52-4.648-3.054-9.291-4.567-13.942-.062-.188-.358-.45-.034-.64.364-.213 1.089.032 1.202.377.378 1.15.743 2.303 1.116 3.455.971 3 1.943 5.998 2.974 9.177M90.534 28.354c0 2.132-.018 4.265.013 6.398.007.509-.169.584-.622.594-.481.01-.553-.169-.551-.592.013-4.22.01-8.44.006-12.659-.001-.976.123-.855-.891-.86-1.054-.006-2.108-.024-3.16.01-.426.013-.477-.156-.473-.514.004-.366.013-.577.497-.573 3.069.024 6.138.024 9.208 0 .48-.004.477.205.502.57.031.452-.14.525-.542.514-1.076-.027-2.156.038-3.228-.026-.67-.04-.782.21-.773.809.034 2.109.014 4.219.014 6.329M57.776.28l1.08.01c.013 1.878.032 3.757.037 5.636.006 2.614.013 5.23-.01 7.843-.004.46.13.568.573.563 2.267-.022 4.535-.008 6.803-.011.343 0 .658-.086.636.49-.018.481-.181.554-.6.552-2.68-.015-5.36-.014-8.04 0-.391.002-.565-.06-.564-.517.017-4.747.01-9.494.015-14.241 0-.109.045-.217.07-.325M70.98 27.797c0 2.315-.015 4.63.012 6.945.006.488-.134.605-.608.609-.504.004-.597-.175-.596-.635.016-4.654.017-9.307-.002-13.96-.002-.501.165-.594.624-.609.518-.016.583.189.58.635-.02 2.338-.01 4.677-.01 7.015M121.592 27.75c0-2.315.008-4.63-.007-6.946-.003-.417.004-.687.559-.652.446.028.687.035.683.614a1208.12 1208.12 0 0 0 0 13.962c.003.574-.227.595-.68.618-.544.028-.566-.223-.563-.649.017-2.315.008-4.63.008-6.946"/>
        <g transform="translate(0 .008)">
            <mask id="d" fill="#fff">
                <use xlink:href="#c"/>
            </mask>
            <path fill="#1D2258" d="M38.825.13L26.341 41.925 13.363.351 13.315.13H0l21.87 64.724h9.079L52.682.13z" mask="url(#d)"/>
        </g>
    </g>
</svg>
