<?xml version="1.0" encoding="utf-8"?>
<!-- Generator: Adobe Illustrator 16.0.3, SVG Export Plug-In . SVG Version: 6.00 Build 0)  -->
<!DOCTYPE svg PUBLIC "-//W3C//DTD SVG 1.1//EN" "http://www.w3.org/Graphics/SVG/1.1/DTD/svg11.dtd">
<svg version="1.1" id="Capa_1" xmlns="http://www.w3.org/2000/svg" xmlns:xlink="http://www.w3.org/1999/xlink" x="0px" y="0px"
	 width="400px" height="400px" viewBox="0 0 400 400" enable-background="new 0 0 400 400" xml:space="preserve">
<rect fill="none" width="399.996" height="400"/>
<g>
	<path fill="#8F90AA" d="M205.771,154.108c0.765-2.119,1.562-4.212,2.26-6.364c0.214-0.697,0.198-0.557,0.413-1.146
		c0.146-0.025,0.31-0.036,0.496-0.034c4.835,0.058,9.384,0.05,14.22,0c0.055,0.229,0.102,0.339,0.384,1.169
		c0.748,2.285,1.535,4.455,2.3,6.723c0.564,1.628,3.452,0.956,4.299,0.814c1.113-0.191,0.166-1.113,0-1.554
		c-4.005-11.025-8.076-20.53-12.104-31.555c-0.291-0.781-0.591-0.308-1.339-0.308h-1.978c0.184,0-0.149-0.457-0.332,0.05
		c-2.359,6.455-4.719,12.129-7.078,18.561c-1.762,4.786-3.523,9.197-5.268,13.982c-0.141,0.391-0.715,0.707,0,1.08
		C203.041,156.061,205.397,155.172,205.771,154.108z M209.638,143.349c1.961-5.517,3.905-12.063,5.865-17.581
		c0.183-0.523,0.416,0.541,0.698-0.133l7.444,22.457h-12.097c-0.38,0-3.229-0.005-3.549-0.016
		C208,148.077,208.729,145.667,209.638,143.349z"/>
	<path fill="#8F90AA" d="M367.212,269.219l-193.283,0.017c-0.054,1.528-0.116,3.032-0.179,4.554l192.647,0.382
		c1.279,0.116,0.781-0.291,0.781-0.499C367.22,272.193,367.212,270.715,367.212,269.219z"/>
	<polygon fill="#8F90AA" points="366.249,269.219 366.249,269.235 366.249,269.235 	"/>
	<path fill="#8F90AA" d="M202.742,251.14c1.678,0.216,3.406,0.101,5.101,0.033c0.541-0.017,0.549-0.614,0.682-1.005
		c0.599-1.711,1.229-3.423,1.753-5.159c0.258-0.839,0.689-1.097,1.538-1.089c2.8,0.042,5.615-0.008,8.424,0.017
		c1.528,0.025,3.439-0.606,4.47,0.267c1.03,0.839,1.196,3.647,1.695,5.109c0.98,2.824,0.964,1.979,3.862,1.979h1.006
		c2.052,0,2.061,0.845,1.354-1.083c-3.864-10.551-7.734-21.559-11.606-32.136c-1.014-2.783-1.03-2.949-3.922-3.049
		c-1.146-0.017-1.729,0.19-2.127,1.346c-1.296,3.772-2.742,7.461-4.104,11.225c-2.708,7.41-5.416,14.813-8.125,22.241
		C202.601,250.276,201.978,251.041,202.742,251.14z M212.396,239.002l5.5-15.719l5.4,15.743L212.396,239.002L212.396,239.002z"/>
	<path fill="#8F90AA" d="M236.656,251.24c5.375-0.125,11.083,0.324,16.434-0.241c3.872-0.44,6.93-2.476,8.208-6.356
		c1.62-4.876,0.233-8.897-4.437-12.188c1.986-1.163,3.407-2.676,4.055-4.769c1.545-4.944-0.465-11.84-8.433-12.679
		c-5.034-0.507-10.676-0.066-15.728-0.183c-1.172-0.033-1.596,0.673-1.596,1.379v15.86v17.838
		C235.16,250.533,235.552,251.248,236.656,251.24z M242.88,219.901c2.583,0.058,5.15-0.041,7.734,0.033
		c3.107,0.092,5.076,1.969,5.201,4.811c0.125,2.958-1.495,5.018-4.637,5.309c-2.816,0.258-5.69,0.101-8.549,0.166
		c-0.698,0.025-0.798-0.324-0.773-0.913c0.017-1.421,0-2.867,0-4.288c0-1.32,0.034-2.634-0.024-3.954
		C241.791,220.274,241.932,219.876,242.88,219.901z M241.832,236.11c-0.008-0.714,0.225-0.955,0.939-0.947
		c2.741,0.051,5.5-0.058,8.241,0.075c3.457,0.183,5.435,2.334,5.351,5.607c-0.066,3.208-2.226,5.26-5.684,5.293
		c-2.574,0.033-5.167-0.017-7.742,0.025c-0.881,0.008-1.146-0.274-1.105-1.13c0.067-1.479,0.024-2.982,0.024-4.462
		C241.856,239.068,241.891,237.581,241.832,236.11z"/>
	<path fill="#8F90AA" d="M299.924,203.327c1.104,0,1.536-0.242,1.504-1.446c-0.067-4.694,0.017-9.372-0.05-14.041
		c0-1.039,0.249-1.313,1.278-1.288c2.526,0.091,5.068,0.075,7.578,0c0.848-0.024,1.237,0.274,1.62,1.022
		c2.285,4.553,4.677,9.064,7.004,13.6c1.229,2.368,1.329,2.435,4.271,1.903c-0.101-0.199-0.142-0.398-0.241-0.599
		c-2.534-4.869-5.076-9.729-7.627-14.581c-0.457-0.864-0.814-1.37,0.639-1.752c4.72-1.28,7.361-5.359,6.897-10.252
		c-0.499-5.209-3.573-8.425-8.708-8.849c-4.728-0.399-9.472-0.041-14.189-0.166c-1.098-0.042-1.347,0.299-1.347,1.363
		c0.033,11.25,0.042,22.482,0,33.714C298.536,203.085,298.885,203.318,299.924,203.327z M301.378,170.559
		c-0.008-0.872,0.281-1.13,1.146-1.105c3.397,0.025,6.813-0.117,10.21,0.025c3.017,0.141,5.575,1.229,6.755,4.354
		c1.097,2.949,0.433,6.339-1.611,8.242c-1.454,1.346-3.232,1.87-5.135,1.902c-3.406,0.034-6.813-0.033-10.219,0.034
		c-0.997,0.017-1.164-0.374-1.146-1.246c0.066-1.978,0.033-3.963,0.033-5.94C301.411,174.746,301.444,172.636,301.378,170.559z"/>
	<path fill="#8F90AA" d="M215.154,175.959c-0.548,2.966-0.416,6.023-0.448,9.047c0.024,2.925-0.017,5.833,0.383,8.749
		c0.082,0.648,0.231,1.288,0.431,1.911c1.504,4.811,6.356,7.909,12.271,7.844c5.351-0.067,9.796-3.473,11.325-8.683
		c0.572-1.977,0.349-2.202-1.712-1.985c-1.006,0.116-0.814,0.906-0.997,1.438c-1.496,4.337-5.475,7.136-9.654,6.78
		c-4.919-0.424-8.233-3.315-8.799-8.217c-0.632-5.25-0.615-10.56,0.041-15.802c0.541-4.346,3.44-7.045,7.91-7.785
		c3.905-0.64,7.727,1.288,9.604,4.91c0.398,0.773,0.682,1.604,0.963,2.426c0.541,1.562,1.813,0.673,2.644,0.656
		c0.813-0.008,0.231-0.855,0.115-1.296c-1.512-5.849-5.956-9.306-11.98-9.372C221.386,166.521,216.168,170.492,215.154,175.959z"/>
	<path fill="#8F90AA" d="M178.64,251.257c5.828-0.092,11.652-0.025,17.48-0.025c3.664,0,3.623,0,3.614-3.763
		c0-1.105-0.341-1.363-1.404-1.355c-4.848,0.051-9.675-0.008-14.51,0.051c-1.222,0.017-1.55-0.267-1.542-1.521
		c0.062-8.532,0.021-17.048,0.021-25.597c0-4.254,0-4.204-4.254-4.246c-1.259,0-1.4,0.457-1.392,1.528
		c0.054,5.566,0.029,11.117,0.029,16.684v-0.009c0,5.434,0.079,10.893-0.054,16.351C176.604,250.999,177.115,251.281,178.64,251.257
		z"/>
	<path fill="#8F90AA" d="M207.088,166.853c-1.089,0.033-1.487,0.25-1.487,1.454c0.033,11.183,0.033,22.341,0,33.523
		c0,1.098,0.216,1.538,1.428,1.529c1.131-0.032,1.463-0.315,1.463-1.479c-0.066-5.55-0.033-11.108-0.033-16.667
		c0-5.608-0.017-11.225,0.024-16.833C208.482,167.302,208.333,166.812,207.088,166.853z"/>
	<path fill="#8F90AA" d="M242.896,169.479c2.534-0.083,5.061-0.025,7.586-0.025c2.442,0.008,2.143-0.274,2.143,2.061
		c0,10.136,0,20.255-0.017,30.4c0,1.014,0.175,1.445,1.33,1.413c1.088-0.009,1.495-0.217,1.479-1.43
		c-0.066-5.118-0.017-10.245-0.017-15.346c0-5.06,0.033-10.127-0.033-15.204c-0.024-1.438,0.241-2.035,1.845-1.936
		c2.575,0.166,5.168,0,7.752,0.05c0.964,0.033,1.37-0.141,1.296-1.221c-0.059-0.873-0.051-1.388-1.205-1.363
		c-7.378,0.05-14.739,0.05-22.1,0c-1.163,0-1.196,0.499-1.205,1.371C241.741,169.104,241.873,169.521,242.896,169.479z"/>
	<path fill="#8F90AA" d="M329.916,201.765c-0.008,1.029,0.051,1.637,1.355,1.563c1.087-0.043,1.637-0.108,1.627-1.487
		c-0.058-11.159-0.058-22.333,0-33.516c0.01-1.388-0.564-1.396-1.627-1.471c-1.339-0.091-1.363,0.557-1.355,1.57
		c0.041,5.558,0.024,11.133,0.024,16.683l0,0C329.94,190.656,329.957,196.214,329.916,201.765z"/>
	<path fill="#8F90AA" d="M187.164,203.327c1.077-0.009,1.392-0.458,1.667-1.355c1.919-5.94,3.875-11.889,5.824-17.83
		c1.753-5.358,3.51-10.734,5.263-16.092c0.117-0.35,0.615-0.765-0.017-1.122c-1.013-0.532-2.642,0.133-3.002,1.23
		c-1.425,4.378-2.833,8.765-4.246,13.135l-5.467,16.866c-2.477-7.652-4.811-14.839-7.133-22.025c-0.901-2.775-1.777-5.542-2.675-8.3
		c-0.278-0.822-2.019-1.42-2.887-0.906c-0.777,0.457-0.071,1.088,0.075,1.545c3.631,11.166,7.312,22.3,10.967,33.458
		C185.806,202.794,186.03,203.368,187.164,203.327z"/>
	<path fill="#8F90AA" d="M175.86,154.125c-0.008,1.088,1.109,1.246,2.044,1.246c6.439-0.042,12.866-0.042,19.308,0
		c1.006,0,1.4-0.199,1.442-1.33c0.05-1.387-0.71-1.179-1.525-1.179c-5.446,0.008-10.888-0.034-16.325,0.024
		c-1.059,0.008-1.388-0.241-1.375-1.362c0.049-6.264,0.033-12.545,0.021-18.81c-0.004-4.312-0.046-7.12-0.079-11.416l0.017,0.557
		h-3.527"/>
	<path fill="#8F90AA" d="M270.952,198.433c3.324,4.296,7.769,5.832,12.979,4.811c5.466-1.055,8.706-4.677,9.504-10.169
		c0.365-2.634,0.191-5.276,0.134-7.901c0-2.31,0.082-4.636-0.017-6.946c-0.142-3.224-1.114-6.131-3.673-8.333
		c-3.93-3.365-8.408-4.188-13.211-2.443c-4.485,1.653-7.252,4.885-7.643,9.795c-0.416,5.101-0.35,10.228-0.034,15.346
		C269.125,194.677,269.623,196.713,270.952,198.433z M272.065,176.898c0.665-4.819,4.812-8.001,9.505-7.776
		c4.985,0.215,8.641,3.738,9.057,8.757c0.199,2.409,0.232,4.827,0.365,7.568c-0.133,2.385-0.101,5.085-0.515,7.743
		c-0.716,4.761-4.636,7.959-9.298,7.869c-4.694-0.067-8.532-3.149-9.147-7.86C271.327,187.798,271.327,182.314,272.065,176.898z"/>
	<path fill="#8F90AA" d="M340.584,201.864c0.64-2.094,1.529-4.113,2.186-6.207c0.299-0.963,0.765-1.229,1.745-1.205
		c4.668,0.075,9.347,0.042,14.023-0.025c1.229-0.017,1.712,0.432,2.069,1.521c0.681,2.151,1.47,4.245,2.251,6.364
		c0.3,0.84,1.994,1.462,2.857,0.947c0.882-0.515,0.084-1.155-0.106-1.67c-4.047-11.125-8.151-22.233-12.206-33.374
		c-0.349-0.931-0.772-1.338-1.844-1.363c-1.097,0-1.388,0.532-1.704,1.363c-4.096,11.241-8.199,22.465-12.37,33.682
		c-0.448,1.204-0.299,1.628,1.047,1.362C339.703,203.567,340.227,203.011,340.584,201.864z M351.626,170.799l7.461,21.037h-14.938
		L351.626,170.799z"/>
	<polygon fill="#8F90AA" points="101.307,220.649 70.159,121.623 70.039,121.855 38.077,121.855 90.576,270.557 112.356,270.557 
		164.528,121.855 131.27,121.855 	"/>
</g>
</svg>
