<?xml version="1.0" encoding="utf-8"?>
<!-- Generator: Adobe Illustrator 16.0.3, SVG Export Plug-In . SVG Version: 6.00 Build 0)  -->
<!DOCTYPE svg PUBLIC "-//W3C//DTD SVG 1.1//EN" "http://www.w3.org/Graphics/SVG/1.1/DTD/svg11.dtd">
<svg version="1.1" id="Capa_1" xmlns="http://www.w3.org/2000/svg" xmlns:xlink="http://www.w3.org/1999/xlink" x="0px" y="0px"
	 width="400px" height="400px" viewBox="0 0 400 400" enable-background="new 0 0 400 400" xml:space="preserve">
<rect fill="none" width="399.996" height="400"/>
<g>
	<g>
		<path fill="#8F90AA" d="M106.011,280.99c0.964-2.915,2.11-5.682,4.752-7.626c5.635-4.121,14.191-1.802,16.201,4.438
			c0.499,1.544,0.183,2.06-1.479,2.034c-1.711-0.042-2.957-0.091-4.021-1.969c-1.728-3.09-6.646-2.808-8.839,0.19
			c-1.996,2.733-2.01,8.169,0.017,10.9c1.279,1.712,2.924,2.542,5.15,2.26c2.276-0.307,3.804-1.354,4.469-3.588
			c0.183-0.549,0.05-1.471,0.947-1.487c1.329-0.05,2.691-0.05,4.004,0.141c0.548,0.075,0.133,0.766,0.083,1.164
			c-1.446,8.715-11.282,9.902-16.581,6.115c-1.979-1.413-3.276-3.333-4.023-5.659c-0.149-0.531-0.083-1.188-0.682-1.512
			C106.011,284.581,106.011,282.803,106.011,280.99z"/>
		<path fill="#8F90AA" d="M199.645,57.895c0.615,0.639,1.329,1.221,1.329,2.186c-0.018,1.246-0.548,2.26-1.778,2.658
			c-1.046,0.365-2.011,0.042-2.675-0.88c-0.764-1.047-0.863-2.128,0.017-3.15c0.233-0.291,0.515-0.564,0.764-0.813
			C198.099,57.895,198.864,57.895,199.645,57.895z"/>
		<path fill="#8F90AA" d="M156.11,106.414c11.082,0.066,20.072,9.047,20.04,20.088c-0.067,11.216-8.992,20.089-20.239,20.032
			c-11.167-0.067-19.956-9.048-19.89-20.364C136.054,115.187,145.042,106.372,156.11,106.414z"/>
		<path fill="#8F90AA" d="M148.017,159.312c0.066,8.233-6.396,15.054-14.903,15.137c-8.658,0.116-15.238-6.771-15.172-15.461
			c0.083-8.026,7.145-14.872,15.188-14.723C141.354,144.414,148.083,151.235,148.017,159.312z"/>
		<path fill="#8F90AA" d="M168.854,213.704c-0.05,7.627-7.294,14.997-16.434,14.023c-8.041-0.814-14.006-7.659-13.524-15.719
			c0.548-8.872,7.842-14.919,16.55-14.247C163.338,198.385,169.501,205.712,168.854,213.704z"/>
		<path fill="#8F90AA" d="M131.201,183.114c5.651,0.033,10.17,4.554,10.071,10.136c-0.083,5.492-4.652,9.961-10.154,9.903
			c-5.5-0.034-10.035-4.594-10.002-10.086C121.148,187.601,125.718,183.097,131.201,183.114z"/>
		<path fill="#8F90AA" d="M189.574,92.125c0.016-5.435,4.469-9.912,9.888-9.912c5.616,0,10.218,4.644,10.135,10.186
			c-0.083,5.458-4.553,9.87-9.985,9.844C193.744,102.226,189.557,97.989,189.574,92.125z"/>
		<path fill="#8F90AA" d="M220.033,113.667c-0.083-5.484,4.385-10.111,9.719-10.111c5.648-0.016,10.188,4.303,10.319,9.804
			c0.117,5.616-4.371,10.27-10.004,10.352C224.651,123.82,220.099,119.258,220.033,113.667z"/>
		<path fill="#8F90AA" d="M238.526,168.458c0-5.301,4.585-9.969,9.77-9.928c5.665,0.05,10.268,4.544,10.286,10.086
			c0.016,5.566-4.604,10.153-10.22,10.103C242.896,178.678,238.51,174.116,238.526,168.458z"/>
		<path fill="#8F90AA" d="M173.023,246.737c-5.682-0.05-10.067-4.536-10.001-10.211c0.083-5.384,4.719-9.928,10.068-9.845
			c5.701,0.083,10.038,4.561,9.987,10.293C183.011,242.435,178.559,246.754,173.023,246.737z"/>
		<path fill="#8F90AA" d="M277.955,184.493c0,5.508-4.37,9.837-9.937,9.846c-5.582,0.016-10.104-4.42-10.136-9.921
			c-0.051-5.457,4.554-10.102,10.036-10.11C273.502,174.299,277.955,178.819,277.955,184.493z"/>
		<path fill="#8F90AA" d="M235.085,217.367c-0.066-5.475,4.339-10.128,9.622-10.252c5.683-0.116,10.384,4.446,10.418,10.069
			c0.032,5.518-4.337,9.979-9.937,10.111C239.772,227.453,235.135,222.919,235.085,217.367z"/>
		<path fill="#8F90AA" d="M209.962,215.715c0.033-5.542,4.387-9.887,9.921-9.862c5.483,0.025,10.052,4.43,10.136,9.771
			c0.065,5.691-4.537,10.319-10.235,10.277C214.231,225.851,209.944,221.382,209.962,215.715z"/>
		<path fill="#8F90AA" d="M189.557,207.765c5.535,0.091,10.087,4.735,9.904,10.168c-0.183,5.567-4.754,9.986-10.237,9.895
			c-5.483-0.116-10.002-4.743-9.935-10.202C179.356,212.135,183.975,207.689,189.557,207.765z"/>
		<path fill="#8F90AA" d="M252.101,144.464c-0.018,5.534-4.652,10.211-10.002,10.062c-5.519-0.125-10.021-4.677-10.054-10.128
			c-0.017-5.3,4.769-10.168,9.904-10.051C247.731,134.462,252.101,138.799,252.101,144.464z"/>
		<path fill="#8F90AA" d="M213.035,249.87c-5.831-0.05-10.002-4.296-9.985-10.128c0.051-5.401,4.72-10.027,9.985-9.896
			c5.585,0.143,10.038,4.603,10.055,10.078C223.106,245.424,218.587,249.895,213.035,249.87z"/>
		<path fill="#8F90AA" d="M277.174,293.479c-0.149,2.699-2.094,1.42-3.307,1.637c-1.379,0.231-1.345-0.807-1.328-1.754
			c0-6.622,0.032-13.202-0.017-19.823c-0.018-1.37,0.447-1.877,1.761-1.702c0.432,0.074,0.897,0.074,1.345,0
			c1.413-0.183,1.763,0.515,1.695,1.802c-0.032,1.97-0.017,3.954-0.017,6.139c0.964-0.548,1.678-1.07,2.495-1.387
			c3.986-1.486,7.892,0.374,9.154,4.504c0.83,2.766,0.863,5.574-0.333,8.282C286.646,295.839,281.678,296.894,277.174,293.479z
			 M284.819,286.815c-0.067-0.839,0.032-1.645-0.282-2.468c-0.749-2.051-1.928-3.064-3.739-2.965
			c-1.963,0.133-2.926,1.362-3.425,3.132c-0.549,1.86-0.299,3.631,0.415,5.416c0.599,1.495,1.847,1.971,3.193,2.087
			c1.279,0.132,2.342-0.574,2.989-1.722C284.62,289.232,284.919,288.07,284.819,286.815z"/>
		<path fill="#8F90AA" d="M176.15,287.82c0.132,1.86-0.266,4.055,0.265,6.216c0.101,0.365,0.201,0.755-0.232,1.021
			c-0.698,0.432-3.824-0.017-4.272-0.782c-0.415-0.713-0.764-0.307-1.063-0.081c-2.01,1.312-4.154,1.527-6.447,1.054
			c-2.376-0.481-3.821-1.927-4.004-4.254c-0.215-2.525,0.98-4.312,3.373-5.142c1.778-0.607,3.673-0.549,5.499-0.914
			c1.247-0.241,2.359-0.632,2.193-2.102c-0.166-1.521-1.361-1.879-2.691-1.829c-1.362,0.05-2.542,0.309-3.107,1.803
			c-0.25,0.698-3.521,1.271-4.169,0.648c-1.014-0.987-0.167-2.001,0.398-2.875c0.564-0.89,1.395-1.521,2.376-1.877
			c3.19-1.214,6.413-1.238,9.553,0.124c1.464,0.64,2.346,1.943,2.329,3.689C176.132,284.165,176.15,285.853,176.15,287.82z
			 M171.512,288.419c-0.366-0.249,0.498-1.404-0.764-1.146c-1.529,0.29-3.008,0.64-4.47,1.063c-0.897,0.248-1.279,1.063-1.279,1.936
			c0,0.872,0.465,1.527,1.329,1.912C169.003,293.321,171.528,291.584,171.512,288.419z"/>
		<path fill="#8F90AA" d="M262.021,277.95c1.329-0.107,2.675-0.008,3.971,0.491c2.044,0.822,2.958,2.143,3.058,4.396
			c0.133,3.696-0.349,7.409,0.315,11.1c0.166,0.979-0.299,1.387-1.163,1.195c-1.246-0.273-2.907,0.906-3.605-1.18
			c-0.132-0.448-0.615,0.067-0.897,0.25c-2.309,1.586-4.835,1.454-7.362,0.788c-2.077-0.548-2.857-2.209-3.057-4.204
			c-0.166-1.96,0.88-3.646,2.608-4.552c1.827-0.897,3.856-0.849,5.801-1.23c1.163-0.231,2.559-0.166,2.708-1.827
			c0.1-1.071-0.516-1.86-1.429-2.043c-1.429-0.268-2.941-0.459-4.021,0.996c-0.365,0.474-0.183,1.404-1.064,1.429
			c-1.147,0.025-2.344,0.117-3.439-0.082c-0.78-0.15-0.433-0.922-0.315-1.462c0.631-2.294,2.89-3.814,5.967-4.064
			C260.71,277.909,261.34,277.95,262.021,277.95z M264.381,288.71c-0.183-0.457,0.498-1.579-0.73-1.43
			c-1.462,0.199-2.841,0.632-4.254,0.98c-1.165,0.274-1.481,1.237-1.448,2.202c0.036,0.93,0.649,1.546,1.631,1.837
			C262.138,293.08,264.314,291.525,264.381,288.71z"/>
		<path fill="#8F90AA" d="M158.004,289.906c-0.864,3.165-2.808,4.794-5.784,5.4c-3.489,0.731-7.194-0.606-9.021-3.298
			c-1.927-2.859-1.911-7.735,0.066-10.577c1.845-2.725,5.632-4.121,9.005-3.374c3.757,0.823,6.681,5.136,6.183,8.891
			c-0.167,1.122-0.864,0.923-1.529,0.923c-3.023,0.032-6.033,0.065-9.057-0.026c-1.462-0.024-1.611,0.583-1.213,1.771
			c0.848,2.359,4.32,3.448,6.232,1.562C154.432,289.624,155.994,289.855,158.004,289.906z M150.093,284.896
			c0.781,0,1.545-0.059,2.292,0.017c1.598,0.142,1.332-0.697,0.914-1.611c-1.046-2.312-4.469-2.659-6.114-0.615
			c-0.416,0.54-0.964,1.164-0.582,1.895c0.315,0.598,1.046,0.257,1.579,0.291C148.814,284.921,149.462,284.896,150.093,284.896z"/>
		<path fill="#8F90AA" d="M226.081,287.888c-1.596,0-3.207,0.024-4.803-0.017c-1.113-0.034-1.296,0.382-1.014,1.387
			c0.814,2.801,4.503,3.822,6.663,1.687c0.914-0.947,1.844-1.172,3.057-1.121c1.844,0.083,1.978,0.266,1.047,1.96
			c-1.679,3.041-4.968,4.246-9.388,3.398c-3.123-0.59-5.632-3.383-6.116-6.846c-0.831-5.815,2.927-10.435,8.477-10.427
			c5.283,0,8.074,3.813,8.24,9.105c0.017,0.856-0.548,0.889-1.18,0.889C229.403,287.888,227.742,287.888,226.081,287.888z
			 M223.705,284.896L223.705,284.896c0.813,0,1.645-0.041,2.475,0.017c1.329,0.066,1.313-0.557,0.88-1.537
			c-0.497-1.138-1.245-1.886-2.559-1.993c-1.462-0.1-2.773,0.183-3.721,1.454c-0.365,0.474-0.83,1.097-0.548,1.71
			c0.314,0.632,1.029,0.274,1.562,0.35C222.441,284.921,223.057,284.896,223.705,284.896z"/>
		<path fill="#8F90AA" d="M235.235,283.493c0-3.325,0.017-6.673-0.051-9.995c0-1.229,0.415-1.703,1.678-1.661
			c4.34,0.133,3.542-0.523,3.574,3.514c0.067,4.535,0.067,9.097-0.016,13.658c-0.017,1.312,0.349,1.803,1.711,1.744
			c2.643-0.107,5.283,0.008,7.876-0.059c1.229-0.024,1.728,0.274,1.661,1.605c-0.134,3.356,0.365,2.832-2.874,2.841
			c-3.988,0.032-7.959-0.051-11.933,0.032c-1.263,0.026-1.678-0.431-1.661-1.669C235.284,290.172,235.235,286.849,235.235,283.493
			L235.235,283.493z"/>
		<path fill="#8F90AA" d="M206.423,289.025c0.946-3.008,1.911-6.04,2.825-9.057c0.432-1.371,3.539-2.425,4.685-1.586
			c0.449,0.341,0.15,0.681,0.033,1.013c-1.661,4.961-3.339,9.928-5.001,14.914c-0.183,0.549-0.515,0.764-1.112,0.855
			c-3.706,0.508-4.22,0.191-5.416-3.398c-1.33-3.879-2.609-7.768-3.988-11.606c-0.498-1.396-0.481-1.993,1.247-1.91
			c3.572,0.183,2.774-0.499,3.836,2.851c0.849,2.624,1.646,5.241,2.459,7.857C206.124,288.984,206.291,289.009,206.423,289.025z"/>
		<path fill="#8F90AA" d="M180.835,286.898c0-1.097-0.05-2.193,0.033-3.265c0.067-1.412,0.033-2.551-1.943-2.285
			c-1.129,0.126-0.798-0.947-0.814-1.555c-0.033-0.664-0.233-1.635,0.897-1.479c1.86,0.226,1.893-0.813,1.877-2.159
			c0-0.922-0.548-2.31,0.349-2.666c1.129-0.44,2.526-0.2,3.821-0.167c0.598,0.017,0.548,0.59,0.548,1.03
			c0.017,0.706,0.083,1.43,0,2.126c-0.183,1.43,0.398,2.027,1.828,1.787c1.263-0.183,1.462,0.481,1.479,1.578
			c0,1.121-0.299,1.721-1.512,1.513c-1.511-0.233-1.894,0.448-1.81,1.854c0.1,2.034,0.065,4.086,0.016,6.146
			c-0.016,1.379,0.366,2.286,1.96,2.135c1.795-0.19,1.213,1.173,1.313,2.053c0.101,1.031-0.082,1.786-1.396,1.662
			c-0.681-0.066-1.412,0.05-2.11,0.017c-3.173-0.15-4.486-1.513-4.535-4.687C180.835,289.323,180.835,288.119,180.835,286.898z"/>
		<path fill="#8F90AA" d="M134.974,281.034c1.413-1.78,2.758-3.042,4.869-3.149c0.963-0.051,1.528,0.157,1.578,1.328
			c0.066,2.593,0.133,2.593-2.393,2.992c-2.376,0.35-3.671,1.745-3.788,4.328c-0.083,2.293-0.1,4.602-0.017,6.904
			c0.066,1.379-0.482,1.853-1.778,1.703c-0.532-0.051-1.03-0.067-1.545,0c-1.232,0.166-1.531-0.398-1.498-1.529
			c0.033-4.603,0.033-9.213,0-13.834c-0.033-1.195,0.399-1.519,1.545-1.527C134.841,278.259,134.841,278.2,134.974,281.034z"/>
		<path fill="#8F90AA" d="M224.17,96.668c-0.067,2.724-2.393,5.084-5.051,5.084c-2.741,0-5.187-2.467-5.12-5.192
			c0.084-2.692,2.527-5.051,5.153-4.984C221.843,91.642,224.202,94.043,224.17,96.668z"/>
		<path fill="#8F90AA" d="M265.976,151.053c-0.032,2.825-2.177,4.944-5,4.961c-2.579,0.024-4.971-2.386-5.038-5.077
			c-0.049-2.642,2.559-5.143,5.27-5.092C263.933,145.902,265.992,148.128,265.976,151.053z"/>
		<path fill="#8F90AA" d="M230.483,133.148c-0.018,2.809-2.393,5.152-5.168,5.061c-2.691-0.067-4.852-2.268-4.884-4.928
			c-0.033-2.907,2.16-5.15,5.034-5.167C228.19,128.098,230.483,130.424,230.483,133.148z"/>
		<path fill="#8F90AA" d="M228.141,200.619c0.066-2.807,2.243-4.877,5.117-4.794c2.774,0.049,5.004,2.369,4.902,5.103
			c-0.115,2.782-2.312,4.908-5.085,4.9C230.184,205.828,228.091,203.602,228.141,200.619z"/>
		<path fill="#8F90AA" d="M210.377,114.182c-2.758-0.042-4.983-2.319-4.935-5.036c0.051-2.75,2.293-4.976,5.018-5.009
			c2.792-0.025,5.051,2.318,5.002,5.191C215.395,112.146,213.218,114.199,210.377,114.182z"/>
		<path fill="#8F90AA" d="M152.968,156.528c0-2.884,2.079-5.011,4.903-5.011c2.874-0.016,5.134,2.235,5.118,5.077
			c-0.051,2.733-2.326,4.968-5.084,4.96C155.113,161.521,152.968,159.378,152.968,156.528z"/>
		<path fill="#8F90AA" d="M198.115,237.332c0,2.901-2.175,5.119-5.069,5.103c-2.741-0.026-4.935-2.252-4.935-5.044
			c0-2.741,2.226-4.952,5.018-4.977C196.005,232.406,198.115,234.499,198.115,237.332z"/>
		<path fill="#8F90AA" d="M127.097,139.961c-2.791-0.016-4.934-2.201-4.917-5.034c0.016-2.85,2.126-4.977,4.951-4.985
			c2.857-0.017,5.118,2.268,5.07,5.144C132.148,137.802,129.872,139.987,127.097,139.961z"/>
		<path fill="#8F90AA" d="M251.685,124.825c0.033,2.833-2.292,5.15-5.083,5.117c-2.692-0.042-4.918-2.359-4.918-5.117
			c0-2.768,2.209-4.912,5.018-4.928C249.524,119.889,251.685,122.007,251.685,124.825z"/>
		<path fill="#8F90AA" d="M146.604,185.439c-2.841-0.024-5.051-2.201-5.001-4.951c0.066-2.791,2.426-5.101,5.217-5.026
			c2.642,0.049,5.018,2.534,4.935,5.135C151.639,183.388,149.429,185.473,146.604,185.439z"/>
		<path fill="#8F90AA" d="M271.325,204.291c0.034,2.792-2.093,4.978-4.917,5.043c-2.775,0.042-5.068-2.119-5.134-4.877
			c-0.051-2.709,2.159-4.984,4.935-5.075C268.916,199.291,271.275,201.558,271.325,204.291z"/>
		<path fill="#8F90AA" d="M195.574,77.568c-2.811,0-5.103-2.251-5.037-4.943c0.066-2.734,2.358-5.077,4.986-5.093
			c2.725-0.025,5.217,2.476,5.15,5.143C200.608,75.383,198.332,77.584,195.574,77.568z"/>
		<path fill="#8F90AA" d="M230.5,237.107c-2.842,0.025-5.019-2.06-5.051-4.909c-0.051-2.725,2.176-5.035,4.917-5.094
			c2.542-0.041,5.001,2.452,5.001,5.094C235.367,234.89,233.19,237.083,230.5,237.107z"/>
		<path fill="#8F90AA" d="M191.169,286.641c0-2.234,0.065-4.494-0.018-6.729c-0.049-1.204,0.282-1.811,1.612-1.628
			c0.366,0.066,0.78,0.066,1.146,0c1.482-0.226,1.963,0.341,1.931,1.885c-0.101,4.413-0.083,8.841-0.018,13.27
			c0.018,1.279-0.299,1.919-1.696,1.735c-0.499-0.1-1.014-0.083-1.529-0.008c-1.063,0.1-1.462-0.29-1.428-1.403
			C191.235,291.376,191.169,289.009,191.169,286.641z"/>
		<path fill="#8F90AA" d="M245.754,187.7c2.691,0.059,4.818,2.226,4.785,4.951c-0.018,2.816-2.211,5.052-4.918,5.052
			c-2.774,0-4.852-2.203-4.818-5.101C240.818,189.694,242.863,187.667,245.754,187.7z"/>
		<path fill="#8F90AA" d="M238.211,180.09c1.379,0.033,2.409,1.204,2.31,2.7c-0.084,1.544-0.931,2.301-2.46,2.301
			c-1.497,0-2.526-1.08-2.51-2.534C235.583,181.203,236.797,180.065,238.211,180.09z"/>
		<path fill="#8F90AA" d="M155.728,232.779c1.479,0.126,2.359,0.897,2.442,2.427c0.066,1.37-1.213,2.6-2.559,2.566
			c-1.329-0.025-2.592-1.329-2.459-2.675C153.3,233.602,154.15,232.788,155.728,232.779z"/>
		<path fill="#8F90AA" d="M120.8,175.977c1.595,0,2.841,1.223,2.841,2.56c-0.016,1.338-1.329,2.691-2.625,2.534
			c-1.429-0.158-2.326-0.922-2.343-2.534C118.64,176.916,119.654,176.335,120.8,175.977z"/>
		<path fill="#8F90AA" d="M262.503,218.914c-1.428,0-2.459-1.098-2.376-2.61c0.034-1.527,0.881-2.301,2.376-2.342
			c1.43-0.075,2.609,1.072,2.609,2.425C265.095,217.717,263.865,218.914,262.503,218.914z"/>
		<path fill="#8F90AA" d="M133.927,210.522c-0.083,1.37-0.847,2.309-2.311,2.501c-1.363,0.183-2.625-1.056-2.725-2.442
			c-0.083-1.313,1.196-2.75,2.508-2.609C132.798,208.13,133.828,208.861,133.927,210.522z"/>
		<path fill="#8F90AA" d="M253.846,204.707c-1.396-0.034-2.643-1.271-2.51-2.617c0.134-1.471,1.047-2.376,2.542-2.36
			c1.462,0.018,2.409,0.805,2.426,2.383C256.337,203.626,255.273,204.739,253.846,204.707z"/>
		<path fill="#8F90AA" d="M152.203,190.167c-0.05-1.586,0.916-2.376,2.312-2.575c1.346-0.207,2.625,1.03,2.692,2.435
			c0.066,1.262-1.279,2.699-2.576,2.592C153.167,192.493,152.253,191.721,152.203,190.167z"/>
		<path fill="#8F90AA" d="M205.061,227.063c-1.412,0-2.425-1.163-2.376-2.666c0.066-1.546,0.931-2.327,2.41-2.352
			c1.495,0,2.392,0.839,2.558,2.309C207.785,225.833,206.539,227.063,205.061,227.063z"/>
		<path fill="#8F90AA" d="M175.701,209.334c-1.396-0.032-2.661-1.271-2.478-2.625c0.199-1.471,1.163-2.26,2.627-2.344
			c1.18-0.091,2.509,1.264,2.509,2.468C178.359,208.229,177.146,209.376,175.701,209.334z"/>
		<path fill="#8F90AA" d="M153.983,170.768c-1.598,0-2.877-1.212-2.776-2.583c0.083-1.503,0.996-2.317,2.494-2.376
			c1.512-0.116,2.476,0.922,2.442,2.509C156.11,169.88,155.213,170.611,153.983,170.768z"/>
		<path fill="#8F90AA" d="M193.444,275.757c-1.544,0.291-2.292,0-2.358-1.877c-0.05-2.026,0.914-2.061,2.425-2.061
			c1.495,0,2.345,0.092,2.345,2.085C195.906,276.065,194.791,275.932,193.444,275.757z"/>
		<g>
			<path fill="#8F90AA" d="M292.86,278.457h-0.599v-4.327h2.011c0.731,0,1.43,0.231,1.43,1.17c0,0.632-0.301,0.865-0.599,1.031
				c0.249,0.116,0.497,0.207,0.531,0.797l0.033,0.814c0,0.225,0.034,0.316,0.199,0.424v0.1h-0.714
				c-0.083-0.274-0.117-0.922-0.117-1.08c0-0.374-0.065-0.772-0.764-0.772h-1.412V278.457L292.86,278.457z M292.86,276.098h1.361
				c0.416,0,0.882-0.107,0.882-0.73c0-0.681-0.498-0.748-0.78-0.748h-1.463V276.098L292.86,276.098z"/>
		</g>
		<g>
			<path fill="#8F90AA" d="M294.106,280.442c-2.21,0-3.987-1.786-3.987-3.995c0-2.193,1.777-3.988,3.987-3.988
				c2.192,0,3.97,1.795,3.97,3.988C298.076,278.656,296.299,280.442,294.106,280.442z M294.106,273.016
				c-1.911,0-3.456,1.537-3.456,3.432c0,1.902,1.545,3.43,3.456,3.43c1.894,0,3.422-1.527,3.422-3.43
				C297.528,274.553,296,273.016,294.106,273.016z"/>
		</g>
	</g>
</g>
</svg>
