<?xml version="1.0" encoding="utf-8"?>
<!-- Generator: Adobe Illustrator 16.0.3, SVG Export Plug-In . SVG Version: 6.00 Build 0)  -->
<!DOCTYPE svg PUBLIC "-//W3C//DTD SVG 1.1//EN" "http://www.w3.org/Graphics/SVG/1.1/DTD/svg11.dtd">
<svg version="1.1" id="Capa_1" xmlns="http://www.w3.org/2000/svg" xmlns:xlink="http://www.w3.org/1999/xlink" x="0px" y="0px"
	 width="400px" height="400px" viewBox="0 0 400 400" enable-background="new 0 0 400 400" xml:space="preserve">
<rect fill="none" width="399.996" height="400"/>
<g>
	<path fill="#8F90AA" d="M253.635,185.908c0.15-1.54-1.106-1.998-2.688-2.097c-5.699-0.324-6.382-0.399-6.382-6.107v-1.439
		c0-5.566,0.699-5.433-4.958-5.508c-2.196-0.017-2.529,0.366-2.463,2.621c0.166,5.732,0.416,10.301,0.416,17.048h0.232
		c0,6.731-0.283,13.064,0.084,19.496c0.333,5.857,3.261,8.578,9.019,9.276c5.749,0.691,6.307,0.158,6.174-5.441
		c-0.032-1.723-0.392-2.13-2.197-2.072c-3.693,0.142-4.809-1.09-4.893-4.925c-0.065-3.462-0.017-6.914-0.017-10.393
		c0-4.643,0.017-4.759,4.66-4.651c2.279,0.042,3.378-0.507,3.012-2.954C253.494,187.838,253.527,186.848,253.635,185.908z"/>
	<path fill="#8F90AA" d="M232.802,205.369c0-3.702,0.049-7.414-0.017-11.116c-0.067-3.786-1.331-6.997-4.661-9.135
		c-6.256-4.027-16.822-2.746-21.83,2.721c-0.767,0.832-2.58,1.963-0.55,3.02c1.697,0.882,2.396,5.034,5.574,2.022
		c2.463-2.354,5.458-3.412,8.845-2.937c2.063,0.275,4.201,0.857,4.269,3.486c0.065,2.771-2.164,3.037-4.194,3.42
		c-3.977,0.724-8.104,0.657-11.914,2.271c-4.469,1.879-6.556,5.192-6.407,10.133c0.142,4.302,2.513,7.604,6.831,9.12
		c5.075,1.764,10.075,1.381,14.943-0.933c0.898-0.424,1.688-2.221,2.837,0.333c0.733,1.604,3.495,0.74,5.291,0.565
		c1.831-0.182,0.899-1.922,0.94-2.921C232.885,212.066,232.802,208.722,232.802,205.369z M215.362,212.184
		c-0.492-0.084-1.697-0.142-2.797-0.558c-1.413-0.498-2.362-1.573-2.471-3.179c-0.107-1.489,0.725-2.471,1.946-3.137
		c3.637-1.996,7.913-1.264,11.732-2.629c0.99-0.349,0.79,0.882,0.84,1.506C225.006,209.238,221.868,212.175,215.362,212.184z"/>
	<path fill="#8F90AA" d="M201.076,183.628c-1.456-1.256-4.111-0.424-6.215,0.208c-2.097,0.64-3.778,1.921-6.033,4.468l0,0
		c0.974-4.227-0.74-4.893-3.452-4.468c-0.466,0.091-0.974,0.1-1.432,0c-2.596-0.425-3.461,0.433-3.395,3.236
		c0.208,8.603,0.083,17.207,0.083,25.8c0,5.691,0,5.518,5.591,5.658c2.513,0.041,2.929-0.897,2.845-3.078
		c-0.133-4.543-0.049-9.086-0.033-13.629c0.033-7.621,2.97-10.542,10.617-10.591c0.898-0.009,2.114,0.507,2.03-1.082
		C201.55,187.913,202.748,185.06,201.076,183.628z"/>
	<path fill="#8F90AA" d="M57.127,210.461c-3.694,0.258-7.422-0.1-11.099,0.133c-2.347,0.125-2.729-0.74-2.713-2.829
		c0.117-10.275,0.059-20.542,0.059-30.817c0-6.249-0.008-6.09-6.115-6.207c-2.58-0.042-2.854,1.006-2.821,3.12
		c0.108,6.797,0.042,13.611,0.042,20.417c0,7.156,0.008,14.327,0,21.492c0,1.473-0.233,2.77,2.063,2.722
		c7.288-0.135,14.577-0.101,21.857-0.018c1.605,0.018,2.13-0.574,1.989-2.089c-0.1-0.831-0.1-1.672,0-2.496
		C60.755,211.317,59.957,210.254,57.127,210.461z"/>
	<path fill="#8F90AA" d="M276.183,183.012c-11.224-0.083-19.586,7.805-19.502,18.337c0.1,10.127,8.303,18.014,18.787,18.063
		c10.749,0.05,18.969-7.729,19.036-18.047C294.579,191.033,286.649,183.104,276.183,183.012z M275.601,211.842
		c-6.05-0.059-10.433-4.602-10.4-10.791c0.032-5.924,4.493-10.525,10.284-10.583c5.898-0.074,10.6,4.643,10.617,10.667l0,0
		C286.118,207.216,281.524,211.9,275.601,211.842z"/>
	<path fill="#8F90AA" d="M158.518,183.012c-10.917-0.024-18.878,7.613-18.904,18.072c-0.025,10.501,7.904,18.264,18.721,18.329
		c10.683,0.066,18.887-7.787,18.979-18.155C177.388,190.958,169.226,183.021,158.518,183.012z M158.352,211.842
		c-5.941,0-10.534-4.75-10.45-10.791c0.099-5.882,4.609-10.5,10.383-10.583c5.775-0.091,10.616,4.775,10.633,10.683
		C168.917,207.207,164.333,211.842,158.352,211.842z"/>
	<path fill="#8F90AA" d="M109.812,187.422v-10.858c0-6.015-0.874-5.932-6.973-5.791c-1.797,0.05-2.913,0.433-2.896,2.379
		c0.084,14.327-0.191,28.663-0.167,43c0,0.766-0.499,2.014,0.583,2.104c2.363,0.234,4.726,0.366,7.072,0.066
		c1.597-0.199-0.167-2.445,1.198-3.162c5.965,5.633,15.858,5.359,22.023-0.565c6.947-6.673,8.279-18.57,1.906-25.659
		C126.169,181.864,116.542,181.099,109.812,187.422z M117.591,211.477c-5.899-0.066-10.326-4.593-10.243-10.508
		c0.066-5.792,4.643-10.102,10.65-10.035c5.724,0.083,9.868,4.501,9.76,10.45C127.65,207.291,123.39,211.525,117.591,211.477z"/>
	<path fill="#8F90AA" d="M94.311,205.378L94.311,205.378c0-3.711,0.025-7.414,0-11.117c-0.042-3.794-1.356-6.988-4.668-9.135
		c-6.232-4.036-16.806-2.754-21.815,2.704c-0.766,0.832-2.613,1.963-0.583,3.02c1.714,0.891,2.413,5.018,5.583,2.03
		c2.471-2.346,5.45-3.412,8.844-2.937c2.072,0.267,4.21,0.89,4.293,3.469c0.083,2.704-2.121,3.037-4.193,3.445
		c-3.744,0.708-7.613,0.616-11.232,2.046c-5.058,1.973-7.255,5.11-7.097,10.334c0.142,4.575,3.004,8.295,7.813,9.51
		c4.875,1.223,9.709,1.007,14.244-1.523c0.999-0.565,1.548-1.431,2.538,0.524c0.833,1.63,3.495,0.75,5.292,0.591
		c1.847-0.182,0.906-1.922,0.948-2.921C94.385,212.083,94.311,208.729,94.311,205.378z M75.665,212.066
		c-2.03-0.35-3.727-1.182-4.01-3.395c-0.3-2.362,1.414-3.337,3.311-3.977c3.495-1.19,7.28-0.807,10.95-2.28
		C86.373,209.854,82.554,213.231,75.665,212.066z"/>
	<path fill="#8F90AA" d="M328.684,183.836c-0.833,0.141-1.681,0.141-2.513,0c-2.763-0.492-3.361,0.674-3.304,3.311
		c0.175,8.479,0.06,16.947,0.06,25.41c0,6.124,0,6.041,6.022,5.957c1.947-0.023,2.363-0.657,2.305-2.446
		c-0.106-4.893-0.041-9.783-0.041-14.686c0-5.017-0.1-10.025,0.066-15.034C331.329,184.286,330.672,183.562,328.684,183.836z"/>
	<path fill="#8F90AA" d="M318.915,185.692c0.217-1.855-0.498-2.505-2.396-2.488c-3.909,0.025-7.246,1.165-10.249,4.443
		c0.815-4.043-1.516-4.043-4.061-3.802c-0.474,0.042-0.966,0.083-1.439-0.008c-2.28-0.367-3.046,0.466-3.003,2.887
		c0.132,9.643,0.132,19.327,0,28.979c-0.034,2.197,0.531,3.095,2.762,2.755c0.957-0.134,1.913-0.134,2.861,0
		c2.163,0.324,2.863-0.416,2.779-2.679c-0.191-5.135-0.125-10.26-0.051-15.401c0.084-5.85,3.67-9.527,9.486-9.078
		c3.229,0.258,3.586-0.982,3.311-3.461C318.833,187.131,318.833,186.407,318.915,185.692z"/>
	<path fill="#8F90AA" d="M365.542,204.82c0-3.586,0.067-7.181-0.017-10.758c-0.065-3.811-1.48-6.973-4.825-9.044
		c-6.082-3.803-16.249-2.688-21.3,2.454c-0.865,0.899-3.212,2.047-0.766,3.52c1.631,0.982,2.488,4.817,5.592,1.773
		c2.412-2.379,5.474-3.312,8.868-2.771c2.114,0.324,4.128,1.015,4.077,3.645c-0.058,2.529-2.113,2.812-4.043,3.203
		c-3.744,0.732-7.622,0.632-11.249,2.021c-5.316,2.039-7.588,5.441-7.188,10.982c0.316,4.51,3.744,8.237,8.702,9.128
		c4.81,0.874,9.52,0.666,13.829-2.055c0.648-0.416,1.23-1.539,1.93,0.29c0.965,2.58,3.461,1.016,5.2,1.132
		c1.923,0.117,1.124-1.73,1.156-2.753C365.609,212,365.542,208.396,365.542,204.82z M348.303,212.184
		c-0.981-0.009-2.412-0.092-3.677-0.891c-2.379-1.532-2.496-4.318-0.101-5.815c3.67-2.279,8.154-1.323,12.056-2.846
		c0.874-0.324,0.741,0.939,0.774,1.58C357.68,209.33,354.576,212.184,348.303,212.184z"/>
	<path fill="#8F90AA" d="M384.546,185.301c-2.204-2.33-2.929-0.083-4.177,0.89c-1.515,1.198-2.18,2.238-0.282,3.919
		c3.228,2.854,6.106,6.082,9.276,8.977c1.613,1.498,1.655,2.496,0.009,4.003c-3.096,2.812-6.024,5.807-8.952,8.794
		c-0.691,0.698-2.222,1.314-1.549,2.479c0.857,1.523,2.247,2.745,3.005,3.627c1.671,0.117,2.087-0.574,2.577-1.039
		c4.886-4.768,9.678-9.594,14.603-14.319c1.415-1.34,0.816-2.105-0.249-3.162C394.007,194.777,389.172,190.151,384.546,185.301z"/>
	<path fill="#8F90AA" d="M19.736,190.102c0.558-0.565,1.373-0.999,1.464-2.954c-0.782-0.615-2.097-1.622-3.377-2.679
		c-1.016-0.865-1.515,0.05-2.056,0.583c-5.017,4.926-9.992,9.885-15.018,14.81c-0.982,0.957-1.015,1.623-0.008,2.613
		c4.967,4.801,9.909,9.643,14.785,14.526c2.446,2.463,3.128-0.531,4.443-1.338c1.614-0.975,1.414-2.09,0.042-3.371
		c-3.303-3.104-6.423-6.39-9.718-9.493c-1.39-1.289-1.356-2.146,0.008-3.428C13.521,196.35,16.616,193.222,19.736,190.102z"/>
	<path fill="#8F90AA" d="M327.003,170.224c-2.712,0.042-5.059,2.354-5.009,4.984c0.033,2.621,2.479,4.975,5.126,4.958
		c2.679-0.025,4.908-2.338,4.892-5.059C331.979,172.304,329.815,170.199,327.003,170.224z"/>
</g>
</svg>
