<svg xmlns="http://www.w3.org/2000/svg" xmlns:xlink="http://www.w3.org/1999/xlink" width="150" height="51" viewBox="0 0 150 51">
    <defs>
        <path id="a" d="M0 .3h50.345v50.606H0z"/>
        <path id="c" d="M.287.068h50.478v50.534H.287z"/>
        <path id="e" d="M.214.042h12.378v12.227H.214z"/>
    </defs>
    <g fill="none" fill-rule="evenodd" opacity=".5">
        <g transform="translate(0 .061)">
            <mask id="b" fill="#fff">
                <use xlink:href="#a"/>
            </mask>
            <path fill="#1D2258" d="M49.971 30.798c-2.32-3.9-5.286-6.459-9.37-7.65-2.12-.619-4.262-.674-6.416-.465-.933.091-1.522-.1-2.136-.873-5.521-6.961-14.717-8.151-21.837-2.879-4.834 3.579-7.016 10.635-5.177 16.735 1.86 6.163 7.48 10.676 13.943 10.658 2.782-.008 5.094.154 6.708 2.714.39.618 1.156 1 1.796 1.528C19.745 52.31 8.84 47.19 3.586 38.682-2.086 29.492-1.25 15.86 7.682 7.367c8.12-7.719 20.881-9.444 30.521-3.534 10.12 6.203 13.328 16.191 11.768 26.965" mask="url(#b)"/>
        </g>
        <g transform="translate(15.542 .423)">
            <mask id="d" fill="#fff">
                <use xlink:href="#c"/>
            </mask>
            <path fill="#1D2258" d="M.758 20.204c.702.966 1.214 1.694 1.75 2.403 3.337 4.418 7.796 6.342 13.259 5.667 1.592-.197 2.526.25 3.508 1.426 6.976 8.358 20.28 7.006 25.449-2.628 2.733-5.097 2.82-10.324-.4-15.26-3.477-5.33-8.508-7.86-14.9-7.317-1.227.105-2.02-.038-2.69-1.097-.795-1.253-1.989-2.155-3.231-3.116C32.899-1.133 43.4 4.599 48.002 13.613c4.746 9.301 3.373 21.177-4.074 28.864-8.298 8.567-19.925 10.348-29.593 5.398C5.2 43.2-1.6 33.37.758 20.205" mask="url(#d)"/>
        </g>
        <path fill="#1D2258" d="M75.326 43.38c-.566 1.485-.821 3.34 1.002 3.34 1.645 0 2.827-1.42 3.564-3.34.601-1.58.611-3.257-1.093-3.21-1.726 0-2.91 1.743-3.473 3.21m8.373 0c-1.513 3.953-5.024 6.18-8.46 6.18-3.646 0-5.226-2.26-3.697-6.212 1.385-3.645 4.764-6.016 8.378-6.016 4.146 0 4.963 2.984 3.779 6.049M83.27 49.253l4.457-11.615h9.034l-1.046 2.71h-5.227l-.809 2.113h4.162l-1.03 2.71H88.65l-1.573 4.082zM94.061 49.253l4.457-11.615h3.807l-4.457 11.615zM104.067 37.638h10.647l-1.165 3.05h-3.42l-3.292 8.565h-3.807l3.292-8.566h-3.42zM118.076 42.655h1.5c1.178 0 1.916-.29 2.228-1.097.316-.823-.185-1.21-1.072-1.21h-1.775l-.881 2.307zm-.98 2.548l-1.55 4.05h-3.806l4.456-11.615h5.485c3.872 0 4.735 1.049 3.88 3.307-.52 1.339-1.544 2.468-3.04 2.839 1.05.452 1.685.742.78 3.081-.573 1.517-.825 2.032-.373 2.032l-.138.356h-3.856c.005-.259.191-1 .583-2.033.588-1.516.515-2.017-1.26-2.017h-1.161zM132.666 41.138l-2.783 4.163h2.403l.38-4.163zm-9.184 8.115l8.619-11.615h3.871l-.294 11.615h-3.791l.14-1.533h-3.791l-1.028 1.533h-3.726z"/>
        <g transform="translate(137.35 37.29)">
            <mask id="f" fill="#fff">
                <use xlink:href="#e"/>
            </mask>
            <path fill="#1D2258" d="M8.844 3.72c.1-.404-.028-.646-.24-.79-.228-.146-.537-.21-.908-.21-.839 0-1.308.241-1.46.661-.668 1.742 6.429.661 4.795 4.887-1.027 2.694-3.766 4-6.96 4-3.065 0-4.388-1.79-3.663-3.887h3.646c-.07.42.027.726.277.92.234.193.602.29.973.29.951 0 1.693-.307 1.903-.854.671-1.759-6.468-.55-4.758-4.985.947-2.468 3.544-3.71 6.448-3.71 3.226 0 4.063 1.645 3.56 3.678H8.845z" mask="url(#f)"/>
        </g>
    </g>
</svg>
