<?xml version="1.0" encoding="utf-8"?>
<!-- Generator: Adobe Illustrator 16.0.3, SVG Export Plug-In . SVG Version: 6.00 Build 0)  -->
<!DOCTYPE svg PUBLIC "-//W3C//DTD SVG 1.1//EN" "http://www.w3.org/Graphics/SVG/1.1/DTD/svg11.dtd">
<svg version="1.1" id="Capa_1" xmlns="http://www.w3.org/2000/svg" xmlns:xlink="http://www.w3.org/1999/xlink" x="0px" y="0px"
	 width="400px" height="400px" viewBox="0 0 400 400" enable-background="new 0 0 400 400" xml:space="preserve">
<rect fill="none" width="399.996" height="400"/>
<g>
	<path fill="#8F90AA" d="M332.328,95.902c-44.098,0.042-88.214,0.042-132.296,0.042c-44.208,0-88.401,0-132.605-0.025
		c-1.391,0-1.769,0.308-1.769,1.752c0.046,36.708,0.046,73.44,0,110.157c0,1.445,0.415,1.735,1.777,1.735
		c31.932-0.041,63.856-0.009,95.776-0.058c1.437,0,1.89,0.24,1.89,1.785c-0.075,34.05-0.059,68.092-0.125,102.125
		c0,1.637,0.49,1.886,1.993,1.886c55.078-0.025,110.166-0.025,165.261,0c1.486,0,1.959-0.249,1.959-1.886
		c-0.042-71.887-0.042-143.791,0-215.703C334.182,96.185,333.783,95.902,332.328,95.902z M76.612,200.361
		c-1.395,0-1.765-0.34-1.765-1.752c0.067-30.596,0.067-61.174,0-91.761c0-1.387,0.333-1.76,1.765-1.76
		c41.102,0.049,82.207,0.042,123.329,0.042c41.092,0,82.193,0.008,123.311-0.042c1.396,0,1.735,0.349,1.735,1.76
		c-0.032,30.571-0.032,61.166,0,91.761c0,1.379-0.324,1.727-1.72,1.727C241.05,200.32,158.819,200.32,76.612,200.361z
		 M324.979,304.479c0.008,1.371-0.316,1.679-1.661,1.679c-49.148-0.051-98.297-0.051-147.445,0c-1.496,0-1.678-0.466-1.678-1.811
		c0.025-31.036,0.025-62.079,0-93.115c-0.025-1.444,0.349-1.752,1.728-1.752c24.607,0.042,49.198,0.025,73.789,0.025
		c24.474,0,48.99,0.017,73.489-0.025c1.32,0,1.786,0.217,1.786,1.703C324.938,242.293,324.938,273.403,324.979,304.479z"/>
	<path fill="#8F90AA" d="M200.671,165.041c0.084-1.503-0.563-1.769-1.993-1.594c-2.973,0.316-3.895-0.507-3.911-3.297
		c-0.042-4.775,0-9.568-0.018-14.368c0-0.822,0.191-1.154,1.105-1.17c1.42-0.025,3.388,0.681,4.111-0.308
		c0.705-0.98,0.208-2.865,0.24-4.344c0.009-0.091-0.033-0.191,0.009-0.291c0.141-0.855-0.274-1.063-1.063-1.004
		c-1.087,0.041-2.159-0.067-3.23,0.024c-1.013,0.083-1.229-0.307-1.172-1.212c0.034-1.761-0.025-3.53,0.018-5.274
		c0.017-0.764-0.175-1.087-1.021-1.063c-2.118,0.058-4.22,0.058-6.329,0c-0.914-0.024-1.129,0.324-1.104,1.18
		c0.057,1.793-0.018,3.604,0.048,5.381c0.009,0.723-0.157,1.097-0.938,0.988c-0.408-0.049-0.823,0-1.229,0
		c-2.442,0-2.442,0-2.442,2.384c0,3.48,0,3.488,3.455,3.555c0.889,0.017,1.154,0.25,1.129,1.138
		c-0.048,2.632-0.016,5.257-0.016,7.873l0,0c0,2.575-0.032,5.166,0.016,7.732c0.134,5.007,2.41,7.931,6.828,8.728
		c1.676,0.291,3.404,0.283,5.064-0.025c2.875-0.499,2.875-0.506,2.617-3.305C200.805,166.162,200.664,165.598,200.671,165.041z"/>
	<path fill="#8F90AA" d="M268.074,164.061c-1.271-0.225-1.577-0.789-1.545-2.035c0.041-4.9,0.133-9.817-0.133-14.684
		c-0.39-6.693-5.613-10.406-12.159-9.002c-2.631,0.573-4.566,2.193-6.277,4.244c-0.349-0.988-0.407-1.935-0.383-2.849
		c0.034-0.913-0.34-1.112-1.188-1.104c-3.131,0.058-6.27,0.116-9.426-0.024c-1.553-0.058-1.844,0.44-1.778,1.877
		c0.109,3.305,0.025,3.372,3.224,3.97c0.871,0.133,1.213,0.356,1.195,1.296c-0.032,5.63-0.032,11.244,0,16.875
		c0.018,0.847-0.299,1.113-1.063,1.295c-2.989,0.739-2.989,0.755-2.989,3.878c0,0.149,0.032,0.316,0,0.457
		c-0.176,1.047,0.198,1.396,1.32,1.371c3.844-0.058,7.723-0.017,11.601-0.017c2.941,0,2.809,0,2.957-2.965
		c0.101-1.735-0.431-2.558-2.159-2.633c-0.946-0.033-1.32-0.539-1.304-1.611c0.075-4.634,0.041-9.285,0.041-13.911
		c0-0.639,0-1.196,0.433-1.744c1.387-1.694,4.492-2.525,6.802-1.736c1.886,0.647,2.848,2.184,2.873,4.784
		c0.034,4.285-0.032,8.563,0.034,12.848c0.009,0.872-0.299,1.122-1.063,1.329c-2.583,0.64-2.583,0.665-2.583,3.322
		c0,0.357,0.05,0.722-0.009,1.063c-0.174,1.063,0.308,1.271,1.279,1.271c4.086-0.05,8.146-0.025,12.226-0.025
		c2.59,0,2.59,0,2.59-2.55C270.565,164.534,270.59,164.468,268.074,164.061z"/>
	<path fill="#8F90AA" d="M207.697,273.636c-1.188-0.19-1.527-0.673-1.527-1.894c0.066-5.938,0.016-11.867,0.016-17.797
		c0-5.98,0-11.96,0.051-17.947c0-1.038-0.249-1.42-1.354-1.378c-3.263,0.058-6.519,0.107-9.774-0.025
		c-1.503-0.059-1.886,0.382-1.835,1.86c0.132,3.355,0.041,3.38,3.297,3.953c0.88,0.148,1.213,0.373,1.188,1.354
		c-0.025,10.148-0.025,20.305,0,30.471c0.025,0.831-0.274,1.13-1.047,1.32c-2.998,0.706-2.989,0.714-2.989,3.87
		c0,0.191,0.016,0.432-0.009,0.606c-0.174,1.014,0.249,1.287,1.263,1.262c4.228-0.058,8.454-0.024,12.682-0.024
		c2.55,0,2.55,0,2.55-2.574C210.23,274.126,210.263,274.051,207.697,273.636z"/>
	<path fill="#8F90AA" d="M218.295,138.233c-7.973-1.08-13.297,2.749-15.331,10.597c-0.813,3.248-0.433,6.677,0.274,9.958
		c1.078,5.049,3.994,9.028,9.067,10.605c5.408,1.661,9.02,1.396,13.479-2.633c3.654-3.313,5.058-7.682,5.058-12.44
		c0-0.424,0-0.847,0-1.246C230.852,144.91,225.918,139.262,218.295,138.233z M222.63,154.037c0.065,2.234,0.266,4.7-0.739,6.743
		c-1.013,2.052-1.013,2.052-4.045,2.957c-2.284-0.033-4.053-1.005-4.899-3.115c-1.71-4.244-1.71-8.545-0.025-12.79
		c0.848-2.126,2.583-3.164,4.85-3.189c2.301-0.033,2.608,0.623,3.639,2.782C222.406,149.527,222.712,151.719,222.63,154.037
		L222.63,154.037z"/>
	<path fill="#8F90AA" d="M306.983,178.869c-9.493,0.058-18.961,0.033-28.453,0.033c-4.044,0-4.003,0-4.003,3.995
		c0,1.071,0.333,1.113,1.411,1.104c5.249-0.05,10.514-0.316,15.771-0.316h13.121c3.737,0,3.688,0.283,3.763-3.488
		C308.611,178.885,308.278,178.869,306.983,178.869z"/>
	<path fill="#8F90AA" d="M300.239,263.429c-1.77-1.087-3.753-1.727-5.73-2.226c-1.944-0.465-3.978-0.672-5.781-1.544
		c-2.324-1.104-2.682-3.622-0.705-5.092c1.868-1.345,3.954-1.12,6.088-0.606c1.886,0.457,2.675,1.711,2.791,3.505
		c0.082,1.271,0.714,1.753,1.983,1.578c1.338-0.19,3.04,0.557,3.879-0.282c0.781-0.772,0.149-2.458,0.183-3.529
		c0-0.715-0.066-1.254,0.024-1.744c0.424-2.035-0.654-2.974-2.325-3.704c-4.159-1.894-8.77-2.483-13.263-1.728
		c-2.766,0.466-5.165,1.728-6.918,4.003c-3.14,4.069-2.167,9.484,2.209,12.108c1.985,1.163,4.136,1.844,6.346,2.334
		c1.751,0.373,3.545,0.697,5.123,1.595c1.146,0.647,1.936,1.562,1.753,2.998c-0.166,1.345-1.03,2.118-2.226,2.482
		c-2.177,0.682-4.352,0.582-6.511-0.215c-0.598-0.183-1.072-0.673-1.204-1.271c-0.34-1.112-0.2-2.69-1.163-3.206
		c-0.931-0.489-2.325-0.141-3.488-0.141c-0.424-0.024-0.839,0.024-1.254-0.024c-0.723-0.059-0.963,0.207-0.914,0.987
		c0.084,1.587,0.125,3.182,0.025,4.793c-0.099,1.079,0.373,1.686,1.212,2.25c3.406,2.325,7.192,3.206,11.254,3.114
		c3.563-0.083,6.943-0.821,9.733-3.264C305.596,272.839,305.031,266.336,300.239,263.429z"/>
	<path fill="#8F90AA" d="M178.58,164.293c-0.93-0.191-2-0.058-2.707-1.163c-2.168-3.405-4.451-6.793-6.727-10.166
		c-0.374-0.531-0.424-0.888,0.025-1.454c1.553-2.051,3.021-4.16,4.533-6.237c0.25-0.365,0.647-0.664,1.097-0.772
		c3.073-0.856,3.057-0.889,3.057-4.02c0-0.142-0.009-0.308,0.017-0.448c0.157-1.063-0.226-1.412-1.338-1.37
		c-3.952,0.066-7.931,0.024-11.909,0.024c-2.118,0-2.118,0-2.118,2.085c0.021,0.98-0.174,2.06,0.191,2.873
		c0.308,0.673,1.566,0.125,2.301,0.765c-1.32,1.869-2.704,3.72-3.97,5.647c-0.495,0.79-1.142,0.831-1.835,0.698
		c-0.855-0.166-0.428-0.938-0.428-1.395c-0.032-7.641-0.032-15.272,0-22.914c0.021-1.154-0.283-1.437-1.423-1.395
		c-3.417,0.058-6.81,0.058-10.232,0c-1.104-0.034-1.336,0.307-1.329,1.37c0.046,3.67-0.007,3.728,3.588,4.435
		c0.83,0.183,0.963,0.481,0.963,1.212c-0.021,10.19-0.021,20.405,0.009,30.604c0,0.772-0.219,1.038-0.972,1.246
		c-3.073,0.755-3.06,0.797-3.06,3.978c0,0.291,0.016,0.615-0.014,0.914c-0.045,0.564,0.109,0.822,0.757,0.814
		c4.854-0.017,9.695,0,14.538,0c0.335,0,0.764,0.049,0.793-0.49c0-1.378,0.017-2.766-0.029-4.161
		c-0.021-0.456-0.428-0.49-0.793-0.606c-0.884-0.282-2.238-0.091-2.658-0.838c-0.456-0.823-0.153-2.01-0.153-3.048
		c-0.016-0.723-0.066-1.454,0-2.134c0.066-0.565-0.411-1.495,0.444-1.57c1.059-0.075,2.462-0.623,3.189,0.407
		c1.585,2.258,2.931,4.675,4.467,7.183c-1.453-0.157-1.843,0.44-1.694,1.62c0.084,0.83,0.084,1.644,0,2.458
		c-0.116,0.972,0.233,1.212,1.179,1.205c3.148-0.058,6.288-0.025,9.435-0.025c4.02,0,3.995,0,3.837-4.103
		C179.585,164.75,179.345,164.468,178.58,164.293z"/>
	<path fill="#8F90AA" d="M254.611,251.104c-0.456-0.432-0.198-0.964-0.216-1.429c-0.023-4.609-0.023-9.177,0.018-13.777
		c0.007-0.98-0.226-1.32-1.263-1.304c-3.156,0.074-6.303,0.033-9.442,0.033c-2.102,0-2.102,0-2.102,2.126
		c0,3.031-0.017,3.114,2.94,3.579c1.254,0.208,1.544,0.656,1.535,1.86c-0.058,10.971-0.041,21.95-0.016,32.938
		c0,1.337-0.573,3.064,0.224,3.87c0.798,0.797,2.532,0.224,3.861,0.232c3.206,0.024,3.206,0,3.68-3.114
		c0.008-0.075,0.142-0.092,0.208-0.149c4.4,6.236,15.846,5.182,18.835-3.937c0.707-2.268,1.113-4.626,1.122-6.993
		c0.05-4.427-0.458-8.703-2.857-12.59C267.692,246.869,258.656,245.864,254.611,251.104z M264.894,269.467
		c-0.532,2.052-1.81,3.422-4.028,3.704c-2.275,0.299-4.31-0.149-5.88-1.952c-0.44-0.531-0.613-1.129-0.598-1.835
		c0.032-1.902,0.008-3.812,0.008-5.714c0-1.711,0.059-3.422-0.008-5.1c-0.066-1.021,0.315-1.785,0.98-2.491
		c2.823-3.056,7.889-2.101,9.234,1.827C265.882,261.693,265.923,265.572,264.894,269.467z"/>
	<path fill="#8F90AA" d="M241.108,273.984c-1.504,0.124-1.611-0.756-1.586-1.927c0.05-4.525,0.024-9.061,0.024-13.62
		c-0.024-4.725-2.268-8.056-6.728-9.675c-5.331-1.943-10.488-1.238-15.546,1.163c-1.778,0.839-2.874,1.811-2.492,3.928
		c0.133,0.872,0.133,1.769,0,2.641c-0.175,1.412,0.224,2.085,1.795,1.869c0.996-0.116,1.968-0.116,2.938,0
		c1.496,0.216,2.019-0.466,2.043-1.836c0.034-0.839,0.15-1.553,1.113-1.977c4.783-2.15,8.43,0.101,8.43,5.24
		c0,0.208-0.042,0.415,0,0.606c0.125,0.848-0.174,1.18-1.104,1.146c-1.527-0.083-3.073-0.05-4.635,0
		c-2.731,0.033-5.422,0.49-7.88,1.786c-3.272,1.76-4.585,4.551-4.319,8.213c0.299,3.688,2.051,6.386,5.589,7.591
		c4.626,1.561,8.903,0.822,12.673-2.856c0.166,0.473,0.342,0.805,0.374,1.162c0.175,1.52,1.047,2.001,2.533,1.827
		c1.329-0.116,2.649-0.009,4.003-0.009c4.045,0,4.011,0,3.912-4.086C242.246,274.3,241.923,273.918,241.108,273.984z
		 M228.102,273.005c-1.917,0.73-3.944,1.088-5.671-0.457c-1.869-1.736-0.706-5.141,2-6.046c1.213-0.391,2.435-0.398,3.406-0.357
		h0.025c3.238,0,3.238,0,3.238,2.957C231.093,271.095,230.329,272.149,228.102,273.005z"/>
	<path fill="#8F90AA" d="M249.098,345.249h-0.024v-3.389c0-0.141-0.018-0.315-0.018-0.448c-0.133-2.168-1.129-3.479-3.022-3.97
		c-2.243-0.573-4.65,0.241-5.64,1.943c-0.224,0.415-0.632,1.029-0.258,1.388c0.458,0.456,1.181,0.248,1.762,0.132
		c0.208-0.041,0.299-0.49,0.481-0.756c0.764-1.13,2.633-1.396,3.688-0.515c0.822,0.689,0.822,1.67,0.647,2.541
		c-0.174,0.864-1.029,0.366-1.569,0.407c-1.063,0.092-2.151-0.041-3.189,0.35c-1.984,0.729-2.815,2.184-2.433,4.243
		c0.308,1.76,1.685,2.799,3.703,2.781c0.989-0.024,1.944-0.34,2.724-0.921c0.532-0.357,0.814-0.465,1.047,0.383
		c0.249,1.013,1.196,0.514,1.811,0.506c0.83-0.024,0.267-0.714,0.291-1.08C249.14,347.632,249.098,346.453,249.098,345.249z
		 M246.789,345.24c-0.025,2.076-2.608,3.597-4.344,2.617c-0.598-0.342-0.806-0.881-0.789-1.546c0.041-0.888,0.516-1.428,1.22-1.826
		c1.122-0.591,2.31-0.308,3.464-0.283C247.071,344.202,246.647,344.916,246.789,345.24z"/>
	<path fill="#8F90AA" d="M139.486,141.92c-6.309-6.76-18.326-4.501-22.237,4.136c-1.583,3.563-1.708,7.309-1.441,11.054
		c0.427,5.864,4.31,10.888,9.613,12.416c5.107,1.47,10.086,0.839,14.836-1.578c2.114-1.08,2.098-1.096,1.133-3.347
		c-0.249-0.598-0.602-1.179-0.817-1.819c-0.344-1.038-0.697-1.479-1.898-0.772c-2.134,1.205-4.492,1.728-6.971,1.703
		c-3.921-0.042-6.345-2.042-7.139-5.872c-0.232-1.088,0.1-1.179,1.017-1.162c2.686,0.049,5.378,0.008,8.069,0.008
		c2.715,0,5.44-0.008,8.188,0.033c0.855,0.008,1.171-0.232,1.142-1.146c-0.075-1.429,0.037-2.891-0.045-4.319
		C142.753,147.792,141.944,144.536,139.486,141.92z M134.632,150.616c-0.184,0.639-0.615,0.431-0.964,0.431
		c-1.432,0.017-2.891,0.017-4.339,0.017l0,0c-1.325,0-2.663,0-4.015-0.017c-0.321,0-0.782,0.191-0.802-0.547
		c-0.096-3.655,3.13-6.479,6.594-5.698C133.314,145.317,135.204,148.48,134.632,150.616z"/>
	<path fill="#8F90AA" d="M237.056,337.476c-0.956,0.05-1.679,0.64-2.458,1.479c0-1.154-0.424-1.645-1.487-1.537
		c-1.204,0.15-0.672,1.021-0.681,1.537c-0.058,3.205,0.009,6.386-0.042,9.575c-0.024,0.896,0.125,1.262,1.154,1.229
		c0.939-0.017,1.071-0.34,1.056-1.163c-0.06-2.059,0-4.127,0-6.17c0-2.334,0.332-2.791,2.64-2.974
		c1.163-0.116,0.956-0.964,0.956-1.578C238.218,336.986,237.413,337.476,237.056,337.476z"/>
	<path fill="#8F90AA" d="M256.929,337.359c-0.997,0.183-1.727,0.839-2.533,1.735c-0.058-1.254-0.274-2.06-1.578-1.769
		c-1.179,0.282-0.563,1.18-0.572,1.735c-0.058,3.182,0,6.362-0.042,9.551c-0.016,0.864,0.199,1.146,1.079,1.138
		c0.873,0,1.155-0.224,1.138-1.113c-0.048-2.383,0.018-4.742-0.032-7.092c-0.059-1.271,0.682-1.901,1.653-2.301
		c1.977-0.738,3.495,0.308,3.579,2.5c0.074,2.367,0.058,4.742,0.025,7.101c-0.025,0.822,0.314,0.946,0.996,0.889
		c0.572-0.05,1.204,0.191,1.179-0.863c-0.083-2.591,0.051-5.149-0.083-7.732C261.629,338.348,259.678,336.911,256.929,337.359z"/>
	<path fill="#8F90AA" d="M281.13,331.819c-2.508-0.299-4.078,1.238-4.194,4.111c-0.051,0.689,0.341,1.694-0.997,1.528
		c-0.764-0.108-0.805,0.341-0.839,0.931c-0.05,0.73,0.283,0.905,0.89,0.813c0.946-0.142,0.971,0.44,0.946,1.121
		c-0.025,1.396,0,2.781,0,4.161l0,0c0,1.386,0.059,2.774-0.025,4.177c-0.041,0.922,0.299,1.088,1.131,1.097
		c0.887,0.009,1.12-0.267,1.12-1.146c-0.074-2.707,0-5.447-0.033-8.18c-0.041-0.839,0.033-1.413,1.113-1.229
		c0.572,0.083,1.071,0.05,1.079-0.831c0-0.963-0.507-0.93-1.154-0.93c-0.333,0-0.739,0.183-0.98-0.241
		c-0.789-1.287,0.349-3.463,1.944-3.546c0.673-0.024,1.038-0.157,1.104-0.896C282.325,331.854,281.693,331.895,281.13,331.819z"/>
	<path fill="#8F90AA" d="M204.4,337.492c-0.738,0.225-0.556,1.029-0.688,1.569c-0.606,2.301-1.08,4.601-1.671,7.218
		c-0.888-2.8-1.644-5.232-2.374-7.683c-0.216-0.706-0.374-1.195-1.279-1.195c-0.989,0-1.03,0.631-1.222,1.262l-2.308,7.591
		c-0.681-2.856-1.279-5.39-1.844-7.947c-0.249-1.263-1.204-0.947-1.917-0.84c-0.997,0.108-0.367,0.864-0.258,1.287
		c0.896,3.273,1.818,6.536,2.723,9.792c0.166,0.622,0.216,1.222,1.205,1.222c0.93-0.009,1.12-0.508,1.287-1.155
		c0.723-2.475,1.503-4.941,2.359-7.731c0.88,2.807,1.66,5.265,2.392,7.756c0.224,0.707,0.415,1.131,1.295,1.131
		c0.98,0,1.038-0.6,1.221-1.238c0.873-3.239,1.785-6.437,2.667-9.642c0.116-0.424,0.539-0.988,0.183-1.279
		C205.696,337.201,204.948,337.343,204.4,337.492z"/>
	<path fill="#8F90AA" d="M287.607,337.326c-1.811-0.083-3.256,0.664-4.17,2.168c-1.577,2.615-1.562,5.39-0.107,8.039
		c0.947,1.727,2.559,2.475,4.51,2.392c1.927-0.066,3.438-0.946,4.318-2.725c1.088-2.184,1.129-4.468,0.233-6.702
		C291.553,338.348,289.916,337.326,287.607,337.326z M290.355,345.955c-0.406,1.346-1.327,2.142-2.665,2.167
		c-1.428,0.018-2.351-0.862-2.798-2.217c-0.251-0.757-0.251-1.521-0.275-2.301h-0.032c0.032-0.914,0.074-1.835,0.472-2.699
		c0.516-1.163,1.329-1.811,2.617-1.785c1.286,0.008,2.144,0.681,2.583,1.835C290.854,342.583,290.854,344.277,290.355,345.955z"/>
	<path fill="#8F90AA" d="M214.142,337.492c-2.606-0.806-5.133,0.448-6.202,3.147c-0.641,1.579-0.641,3.205-0.326,4.876
		c0.898,4.692,5.641,5.273,8.514,3.562c0.557-0.308,1.005-0.572,0.557-1.428c-0.507-0.923-0.872-0.424-1.38-0.134
		c-2.499,1.329-4.691,0.581-5.364-1.776c-0.349-1.129-0.24-1.886,1.246-1.703c0.773,0.116,1.569,0.034,2.333,0.034l0,0
		c0.989,0,1.977,0,2.948,0c0.449,0,0.716-0.051,0.823-0.648C217.705,340.913,216.284,338.165,214.142,337.492z M214.25,342.284
		c-1.437,0.008-2.865,0.008-4.385,0.008c0.025-0.78,0.266-1.544,0.739-2.176c0.748-0.988,1.761-1.229,2.898-0.83
		c1.121,0.382,1.386,1.412,1.562,2.458C215.188,342.451,214.624,342.284,214.25,342.284z"/>
	<path fill="#8F90AA" d="M229.481,339.203c0.622,0.107,0.83-0.207,0.764-0.789c-0.05-0.439,0.108-1.104-0.632-0.955
		c-1.852,0.341-1.628-0.913-1.577-2.002c0.033-0.747,0.05-1.411-1.055-1.195c-1.104-0.266-1.246,0.332-1.203,1.271
		c0.048,0.964,0.372,2.135-1.396,1.952c-0.673-0.075-0.49,0.631-0.524,1.063c-0.066,0.573,0.267,0.748,0.739,0.664
		c1.138-0.174,1.213,0.448,1.188,1.346c-0.007,2.325-0.05,4.626,0.109,6.942c0.148,1.895,2.009,2.907,3.728,2.301
		c0.598-0.198,0.689-0.531,0.573-1.03c-0.066-0.397-0.042-0.771-0.723-0.688c-1.162,0.157-1.462-0.632-1.462-1.628
		c0.025-1.852,0.075-3.712-0.025-5.572C227.979,339.742,228.011,338.903,229.481,339.203z"/>
	<path fill="#8F90AA" d="M271.313,343.306c-1.088-0.424-2.25-0.665-3.372-1.014c-0.723-0.24-1.278-0.705-1.162-1.594
		c0.084-0.797,0.581-1.296,1.347-1.47c1.295-0.3,2.392-0.025,2.996,1.237c0.516,1.104,1.496,0.705,2.094,0.473
		c0.556-0.24,0.074-1.005-0.199-1.444c-0.88-1.62-2.325-2.251-4.12-2.168c-2.282,0.017-4.044,1.221-4.318,2.957
		c-0.257,1.893,0.698,3.098,3.181,3.844c0.873,0.267,1.804,0.44,2.634,0.832c1.153,0.514,1.345,1.686,0.515,2.516
		c-1.138,1.121-3.862,0.789-4.318-0.748c-0.439-1.312-1.454-1.138-2.026-0.855c-0.789,0.408-0.224,1.279,0.082,1.886
		c1.056,1.886,3.78,2.699,6.304,1.86c1.462-0.481,2.492-1.396,2.625-3.064C273.729,344.825,272.767,343.87,271.313,343.306z"/>
	<rect x="324.631" y="334.203" fill="#8F90AA" width="0.007" height="0.042"/>
	<path fill="#8F90AA" d="M326.599,332.169c-2.483,0-4.484,2.184-4.484,4.925c-0.017,2.782,1.894,4.892,4.443,4.899
		c2.558,0.017,4.56-2.034,4.601-4.774C331.175,334.42,329.157,332.169,326.599,332.169z M328.359,340.64
		c-1.619,0.913-3.696,0.382-4.759-1.213c-1.146-1.743-0.806-4.227,0.682-5.307c0.157-0.124,0.232,0.009,0.323,0.108
		c-0.224-0.531,0.266-0.598,0.565-0.73c1.719-0.814,3.828-0.018,4.709,1.752C330.842,337.136,330.112,339.659,328.359,340.64z"/>
	<path fill="#8F90AA" d="M112.153,165.323c0.087-1.702-0.561-2.109-2.237-1.877c-2.555,0.349-3.613-0.531-3.634-2.757
		c-0.087-5.049-0.021-10.107-0.046-15.165c0-0.673,0.22-0.913,0.896-0.913c1.076,0.033,2.164-0.059,3.251,0.033
		c1.135,0.107,1.391-0.357,1.325-1.403c-0.078-1.171-0.078-2.384,0-3.555c0.05-0.797-0.19-1.113-1.021-1.055
		c-1.133,0.075-2.287-0.033-3.404,0.034c-0.823,0.041-1.092-0.217-1.076-1.056c0.075-1.76-0.037-3.496,0.055-5.249
		c0.062-1.063-0.34-1.287-1.304-1.254c-1.985,0.058-3.928,0.058-5.888,0c-0.959-0.033-1.387,0.166-1.3,1.229
		c0.096,1.387,0.029,2.791,0.029,4.178c0,2.117,0,2.117-2.08,2.117c-2.479,0-2.479,0-2.479,2.517c0,3.347,0,3.388,3.421,3.438
		c0.868,0,1.167-1.263,1.146-0.366c-0.08,2.691-0.038,6.586-0.038,6.586h0.046c0,10.938-0.066,6.735,0.012,9.359
		c0.17,5.481,3.354,9.269,8.824,9.311c1.341,0.016,2.675,0.273,3.999,0.024c2.002-0.39,2.002-0.174,1.735-2.25
		C112.29,166.552,112.142,166.029,112.153,165.323z"/>
	<path fill="#8F90AA" d="M317.089,337.525c-1.751-0.539-3.37-0.183-4.533,1.403c-0.108,0.149-0.291,0.258-0.44,0.366
		c-1.652-2.483-3.68-2.691-6.728-0.541c0.157-1.312-0.522-1.511-1.494-1.428c-1.112,0.116-0.574,0.938-0.574,1.42
		c-0.074,3.297,0,6.594-0.041,9.891c-0.033,0.873,0.208,1.131,1.081,1.131c0.871,0,1.145-0.241,1.129-1.131
		c-0.075-2.357-0.042-4.725-0.017-7.092c0.017-1.403,0.855-2.301,2.25-2.417c1.653-0.149,2.584,0.831,2.649,3.007
		c0.092,2.209,0.083,4.427,0,6.635c-0.018,0.914,0.365,0.998,1.12,0.98c0.641-0.041,1.155,0.05,1.138-0.922
		c-0.107-2.084-0.016-4.127-0.048-6.188c0-0.729,0.065-1.444,0.406-2.084c0.515-0.979,1.313-1.561,2.499-1.411
		c1.155,0.107,1.703,0.863,1.869,1.918c0.125,0.598,0.166,1.229,0.183,1.844c0.024,2.009,0.05,4.02-0.017,6.028
		c-0.024,0.905,0.49,0.855,1.071,0.814c0.523-0.017,1.146,0.183,1.113-0.771c-0.041-2.551,0.05-5.141-0.084-7.725
		C319.549,339.561,318.833,338.065,317.089,337.525z"/>
	<path fill="#8F90AA" d="M300.455,337.467c-1.055-0.008-1.853,0.541-2.758,1.553c0.084-1.37-0.49-1.71-1.519-1.577
		c-1.156,0.166-0.598,1.046-0.598,1.577c-0.068,3.224,0,6.479-0.043,9.718c-0.025,0.839,0.258,1.021,1.03,1.021
		c0.805,0,1.213-0.092,1.163-1.056c-0.075-1.901-0.009-3.812-0.009-5.714c0-2.964-0.017-2.98,2.865-3.563
		c0.98-0.224,0.73-1.029,0.764-1.619C301.409,337.094,300.762,337.476,300.455,337.467z"/>
	<path fill="#8F90AA" d="M325.171,339.801c0.771,0.075,0.507-0.557,0.598-0.972c0.101-0.391-0.291-0.996,0.398-1.146
		c0.35-0.034,0.705,0,1.021,0.141c0.44,0.241,0.365,0.697,0.365,1.13c0,0.498,0,0.972,0.707,0.847
		c0.688-0.107,0.349-0.655,0.331-0.988c-0.008-0.972-0.498-1.836-0.041-2.965c0.357-0.863-0.614-1.536-1.619-1.595
		c-0.765-0.024-1.496,0-2.269,0.009c0,1.553,0,3.064,0.05,4.609C324.713,339.229,324.498,339.768,325.171,339.801z M326.441,335.117
		c0.522,0.066,1.097,0.066,1.112,0.73c0.034,0.64-0.398,0.873-1.121,0.873c-0.432,0.082-0.723-0.134-0.664-0.74
		C325.785,335.524,325.71,335.025,326.441,335.117z"/>
	<polygon fill="#8F90AA" points="324.663,334.262 324.663,334.236 324.622,334.262 	"/>
</g>
</svg>
