<?xml version="1.0" encoding="utf-8"?>
<!-- Generator: Adobe Illustrator 16.0.3, SVG Export Plug-In . SVG Version: 6.00 Build 0)  -->
<!DOCTYPE svg PUBLIC "-//W3C//DTD SVG 1.1//EN" "http://www.w3.org/Graphics/SVG/1.1/DTD/svg11.dtd">
<svg version="1.1" id="Capa_1" xmlns="http://www.w3.org/2000/svg" xmlns:xlink="http://www.w3.org/1999/xlink" x="0px" y="0px"
	 width="400px" height="400px" viewBox="0 0 400 400" enable-background="new 0 0 400 400" xml:space="preserve">
<rect fill="none" width="399.996" height="400"/>
<g>
	<path fill="#8F90AA" d="M377.018,214.814c-0.599-0.148-1.213-0.273-1.827-0.348c-3.368-0.448-6.14-1.884-8.197-4.73
		c-4.198-5.932-8.497-11.814-12.695-17.731c-1.095-1.519-1.029-2.174,0.449-3.343c2.92-2.356,5.923-4.664,8.977-6.878
		c1.941-1.386,4.099-2.241,6.456-2.631c0.813-0.133,1.643-0.298,2.438-0.515c0.282-0.091,0.78-0.348,0.78-0.539
		c0.032-0.888,0.1-1.826-0.182-2.639c-0.3-0.896-1.213-0.464-1.843-0.415c-2.771,0.257-5.542,0.639-8.313,0.788
		c-4.664,0.257-9.343,0.374-13.99,0.548c-1.028,0.041-1.443,0.481-1.511,1.593c-0.081,1.261,0.333,1.991,1.278,2.182
		c1.163,0.208,2.324,0.348,3.486,0.623c0.845,0.191,1.161,0.764,0.663,1.585c-0.414,0.697-0.831,1.394-1.361,1.983
		c-1.99,2.282-4.015,4.522-6.072,6.729c-1.562,1.668-2.823,2.557-5.13,2.722c-1.792,0.125-1.426-0.191-1.426-2.058v-26.187l0,0
		c0.132-7.866,0.232-14.147,0.365-21.963c0.032-1.286-0.813-1.236-2.074-0.904c-0.2,0.066-1.992,0.555-2.225,0.639
		c-5.344,1.809-10.669,3.775-16.013,5.625c-0.433,0.174-0.781,0.598-0.979,1.021c-0.449,1.137-0.049,2.248,1.129,2.73
		c2.655,1.079,3.601,2.979,3.601,5.858c-0.084,16.097,0,32.202,0,48.306c0,1.652-0.133,3.312-0.314,4.963
		c-0.184,1.493-1.029,2.448-2.539,2.68c-0.996,0.166-1.992,0.291-3.005,0.398c-1.129,0.125-1.576,0.722-1.494,2.05
		c0.084,1.294,0.515,1.709,1.711,1.709c8.627-0.017,17.241-0.017,25.887-0.017c0.964,0,1.378-0.415,1.478-1.602
		c0.099-1.277-0.316-2.024-1.261-2.157c-0.996-0.142-2.009-0.249-2.988-0.44c-1.227-0.224-1.958-1.021-2.256-2.223
		c-0.135-0.581-0.249-1.195-0.249-1.768c-0.1-3.51-0.15-7.003-0.184-10.513c0-0.423,0.084-0.838,0.184-1.261
		c0.149-0.822,0.68-1.162,1.492-1.095c1.196,0.091,1.976,0.771,2.64,1.692c2.688,3.8,5.408,7.551,8.099,11.317
		c0.563,0.813,1.045,1.676,1.56,2.506c0.447,0.739,0.165,1.129-0.565,1.312c-0.612,0.157-1.227,0.281-1.841,0.432
		c-0.947,0.24-1.361,1.062-1.146,2.331c0.198,1.046,0.715,1.436,1.709,1.436c8.928-0.025,17.873-0.042,26.817-0.05
		c1.129,0,1.56-0.365,1.726-1.593C378.428,215.687,378.046,215.022,377.018,214.814z"/>
	<path fill="#8F90AA" d="M237.654,180.24c0.415-0.049,0.813-0.149,1.228-0.266c0.779-0.199,1.212-1.137,1.012-2.24
		c-0.165-0.813-0.349-1.526-1.492-1.519c-5.593,0.05-11.185,0.008-16.777,0.008c-1.08,0-1.411,0.341-1.578,1.561
		c-0.148,1.427,0.167,2.058,1.163,2.265c0.68,0.174,1.376,0.291,2.041,0.481c2.058,0.539,2.389,0.938,1.676,2.945
		c-1.179,3.527-2.457,7.045-3.768,10.538c-0.978,2.597-2.09,5.136-3.202,7.874c-0.232-0.423-0.398-0.655-0.515-0.896
		c-1.941-4.166-3.933-8.348-5.825-12.546c-0.829-1.816-1.476-3.717-2.223-5.583c-0.365-0.979-0.051-1.577,0.945-1.817
		c1.377-0.324,2.738-0.689,4.133-0.996c0.978-0.199,1.394-0.921,1.262-2.373c-0.116-0.93-0.433-1.502-1.511-1.452
		c-2.19,0.125-4.415,0.199-6.572,0.199c-16.129-0.024-32.26-0.066-48.356-0.133c-0.831,0-1.229,0.357-1.429,1.096
		c-0.463,1.584,0.1,2.538,1.678,2.903c1.925,0.448,3.701,1.095,4.746,2.945c0.398,0.672,0.796,1.32,1.129,2.025
		c5.227,10.928,10.471,21.839,15.647,32.8c0.682,1.452,1.594,1.958,3.054,1.958c1.51-0.025,2.623-0.291,3.386-1.851
		c3.651-7.484,7.401-14.901,11.118-22.328c0.149-0.348,0.398-0.689,0.647-1.153c0.184,0.349,0.284,0.531,0.382,0.713
		c3.668,7.692,7.368,15.368,11.004,23.076c0.381,0.779,0.828,1.311,1.659,1.393c0.863,0.092,1.725,0.092,2.604,0
		c0.814-0.082,1.311-0.58,1.659-1.385c1.494-3.535,2.988-7.069,4.613-10.538c3.567-7.791,7.235-15.515,10.804-23.282
		C233.14,182.124,234.915,180.581,237.654,180.24z M195.404,189.558c-1.809,4.148-3.75,8.239-5.658,12.337l-0.365-0.074
		c-0.514-1.005-1.063-1.975-1.543-2.97c-2.125-4.332-4.199-8.68-6.291-13.036c-0.314-0.689-0.596-1.436-0.845-2.149
		c-0.647-2.017-0.3-2.796,1.757-2.903c2.805-0.167,5.627-0.158,8.432,0.041c2.705,0.241,4.995,3.178,4.911,5.95
		C195.786,187.69,195.769,188.729,195.404,189.558z"/>
	<path fill="#8F90AA" d="M120.181,180.173c0.033,0,0.065-0.017,0.098-0.033c0.88-0.225,1.212-0.988,1.029-2.307
		c-0.133-1.096-0.531-1.469-1.509-1.419c-2.095,0.083-4.188,0.241-6.261,0.233c-3.484,0-6.961-0.108-10.422-0.241
		c-0.938-0.033-1.359,0.34-1.585,1.179c-0.381,1.584,0.109,2.397,1.718,2.763c3.9,0.872,4.091,1.129,2.706,4.888
		c-1.966,5.268-4.082,10.504-6.132,15.757c-0.116,0.299-0.265,0.572-0.431,0.854c-0.116,0.017-0.216,0.032-0.342,0.041
		c-2.653-6.032-5.302-12.04-7.948-18.071c-0.142-0.316-0.19-0.688-0.298-1.021c-0.191-0.771,0.033-1.318,0.821-1.526
		c1.453-0.373,2.896-0.73,4.348-1.062c0.971-0.241,1.353-0.896,1.22-2.216c-0.125-1.261-0.449-1.585-1.578-1.577
		c-13.848,0.125-27.687,0.233-41.56,0.307c-4.373,0.017-8.763-0.183-13.152-0.199c-0.449,0-1.104,0.175-1.311,0.515
		c-0.979,1.328-0.323,3.153,1.252,3.369c2.888,0.44,4.68,2.141,5.907,4.771c5.295,11.152,10.646,22.278,15.949,33.438
		c0.489,1.004,1.178,1.469,2.181,1.543c0.556,0.042,1.161,0.042,1.759-0.016c0.938-0.092,1.643-0.507,2.099-1.461
		c1.825-3.792,3.701-7.525,5.551-11.284c2.09-4.157,4.189-8.289,6.347-12.563c0.184,0.299,0.284,0.407,0.333,0.54
		c3.577,7.451,7.178,14.894,10.713,22.385c1.028,2.158,1.443,2.474,3.798,2.383c1.278-0.042,2.125-0.532,2.723-1.843
		c4.82-10.762,9.808-21.44,14.595-32.227C114.294,182.704,116.375,180.406,120.181,180.173z M76.549,190.537
		c-1.652,3.758-3.577,7.401-5.376,11.102c-0.051,0.1-0.142,0.166-0.382,0.447c-2.225-4.513-4.389-8.861-6.481-13.233
		c-0.813-1.743-1.592-3.535-2.239-5.353c-0.572-1.643-0.167-2.298,1.56-2.564c3.07-0.48,6.182-0.448,9.251,0.1
		c2.099,0.374,4.331,2.995,4.331,5.269C77.212,187.716,77.112,189.268,76.549,190.537z"/>
	<path fill="#8F90AA" d="M154.796,206.525c-1.576,2.092-3.551,3.643-6.123,4.107c-1.858,0.332-3.783,0.481-5.691,0.382
		c-8.066-0.431-14.123-6.911-14.206-15.06c0-1.892,0.233-2.141,2.141-2.157c3.833-0.033,3.684-0.008,11.549-0.008v-0.083
		c0,0,7.685,0.041,11.55-0.017c2.739-0.066,3.652-1.12,3.519-3.899c-0.282-5.816-3.153-9.924-8.215-12.454
		c-4.131-2.116-8.612-2.431-13.143-1.958c-11.202,1.178-20.091,9.368-21.22,20.735c-0.672,6.597,0.996,12.472,5.654,17.292
		c6.738,6.903,19.432,8.763,28.294,4.207c3.917-2.025,6.919-4.954,9.061-8.82c0.598-1.045,0.333-2.016-0.73-2.721
		C156.223,205.405,155.543,205.529,154.796,206.525z M129.821,186.579c1.063-4.688,7.285-7.907,11.616-6.007
		c2.406,1.053,3.817,4.115,2.904,6.638c-0.165,0.522-0.73,1.103-1.245,1.244c-1.26,0.357-2.588,0.522-3.882,0.672
		c-0.996,0.099-2.009,0.017-3.021,0.017v-0.157c-1.576,0-3.135,0.083-4.696-0.009C129.888,188.877,129.439,188.164,129.821,186.579z
		"/>
	<path fill="#8F90AA" d="M275.19,179.112c-10.306-5.833-20.893-5.709-31.131,0.282c-6.919,4.066-10.371,10.471-10.389,18.627
		c-0.05,8.771,3.9,15.118,11.666,18.968c4.332,2.166,8.978,2.889,15.084,2.971c1.329-0.174,3.968-0.356,6.54-0.896
		c10.238-2.224,17.522-8.928,18.204-19.864C285.713,190.545,282.792,183.393,275.19,179.112z M268.835,199.589
		c0.018,3.053-0.149,6.065-1.046,8.995c-0.232,0.722-0.514,1.419-0.812,2.074c-2.407,5.028-8.431,5.949-12.23,1.9
		c-2.323-2.473-3.387-5.576-4.017-8.829c-1.062-5.65-1.179-11.292,0.481-16.885c0.514-1.784,1.345-3.41,2.655-4.746
		c3.021-3.087,7.468-3.037,10.354,0.173c2.092,2.307,3.17,5.169,3.7,8.174c0.515,3.003,0.798,6.073,1.162,9.11
		C269.019,199.565,268.935,199.573,268.835,199.589z"/>
	<path fill="#8F90AA" d="M306.107,184.247c1.21,0.581,2.339,1.286,3.386,2.108c2.521,1.975,5.177,2.058,7.948,0.747
		c2.688-1.253,3.999-4.281,3.318-7.417c-0.581-2.714-3.037-4.647-5.941-4.721c-2.372-0.058-4.496,0.771-6.47,2.007
		c-1.462,0.904-2.823,1.933-4.282,2.879c-0.913,0.589-1.692,0.175-1.644-0.912c0.017-1.195,0.232-2.398,0.266-3.593
		c0.017-0.457-0.116-1.17-0.398-1.336c-0.498-0.299-1.345-0.523-1.809-0.299c-5.011,2.564-10.321,4.372-15.716,5.899
		c-0.764,0.241-1.078,0.681-1.146,1.419c-0.133,1.062,0.167,1.875,1.229,2.315c2.241,0.912,3.203,2.671,3.087,5.094
		c-0.017,0.424,0.034,0.846,0.034,1.278c0,5.792,0.017,11.591,0,17.383c-0.034,1.651-0.116,3.311-0.349,4.962
		c-0.266,1.908-0.964,2.539-2.838,2.829c-0.798,0.133-1.643,0.174-2.474,0.291c-1.028,0.141-1.442,0.779-1.343,2.049
		c0.082,1.294,0.479,1.676,1.625,1.659l13.177-0.356c4.946,0.124,9.491,0.199,14.039,0.356c1.161,0.017,1.345-0.681,1.443-1.543
		c0.15-1.378-0.249-2.091-1.161-2.191c-0.88-0.115-1.741-0.19-2.621-0.231c-3.436-0.158-4.499-0.738-4.597-4.986
		c-0.151-6.754-0.133-13.508-0.116-20.263c0-1.344,0.165-2.671,0.479-3.982C303.617,184.048,304.58,183.55,306.107,184.247z"/>
</g>
</svg>
