<?xml version="1.0" encoding="utf-8"?>
<!-- Generator: Adobe Illustrator 16.0.3, SVG Export Plug-In . SVG Version: 6.00 Build 0)  -->
<!DOCTYPE svg PUBLIC "-//W3C//DTD SVG 1.1//EN" "http://www.w3.org/Graphics/SVG/1.1/DTD/svg11.dtd">
<svg version="1.1" id="Capa_1" xmlns="http://www.w3.org/2000/svg" xmlns:xlink="http://www.w3.org/1999/xlink" x="0px" y="0px"
	 width="400px" height="400px" viewBox="0 0 400 400" enable-background="new 0 0 400 400" xml:space="preserve">
<rect fill="none" width="399.996" height="400"/>
<g>
	<path fill="#8F90AA" d="M207.651,57.545c3.59,0.64,7.245,1.13,10.802,1.96c11.88,2.792,22.433,8.284,31.421,16.567
		c13.691,12.57,21.651,28.173,23.313,46.675c1.627,18.51-3.423,35.276-14.623,50.123c-5.268,6.979-11.647,12.762-19.142,17.29
		c-2.344,1.421-4.089,1.146-5.152-0.698c-0.996-1.794-0.382-3.273,1.862-4.71c16.317-10.46,26.502-25.158,29.991-44.174
		c5.002-27.152-8.009-54.403-32.035-68.104c-8.608-4.935-17.88-7.585-27.767-8.333c-33.329-2.517-62.806,21.062-68.779,53.364
		c-4.877,26.37,6.821,52.824,29.8,67.097c1.405,0.898,2.544,1.869,2.444,3.63c-0.091,1.255-0.915,2.136-2.069,2.667
		c-1.205,0.558-2.177,0.116-3.125-0.473c-10.742-6.714-19.332-15.429-25.514-26.57c-5.916-10.667-8.857-22.075-8.915-34.164
		c-0.058-16.74,5.119-31.845,15.561-44.98c10.668-13.41,24.459-21.851,41.11-25.697c2.342-0.557,4.819-0.357,7.037-1.446
		C198.479,57.545,203.05,57.545,207.651,57.545z"/>
	<path fill="#8F90AA" d="M90.868,264.028c6.404-0.83,12.802-0.199,19.232-0.357c1.521-0.033,1.678,1.122,1.703,2.335
		c0,1.247-0.531,1.97-1.852,1.978c-1.172,0-2.377,0.116-3.522-0.008c-2.093-0.274-2.768,0.357-2.742,2.592
		c0.167,7.312,0.024,14.622,0.1,21.95c0.016,1.753-0.384,2.933-2.302,2.966c-2.06,0.024-2.526-1.279-2.526-3.091
		c0.067-6.663,0.018-13.284,0.018-19.965c0-4.444,0-4.444-4.362-4.444c-1.305,0-2.677,0.199-3.731-0.84
		C90.868,266.106,90.868,265.067,90.868,264.028z"/>
	<path fill="#8F90AA" d="M224.816,131.13c-0.281,12.861-0.548,25.714-0.863,38.567c-0.184,6.796-0.45,13.567-0.699,20.372
		c-0.033,1.287,0.185,2.376,0.864,3.539c7.063,11.84,8.108,25.905-2.176,38.109c-5.767,6.821-12.064,12.994-19.459,17.995
		c-1.826,1.247-3.789,3.092-6.234,1.621c-2.493-1.487-2.062-4.121-1.738-6.431c0.366-2.477,0.051-4.844-0.555-7.211
		c-0.824-3.066-3.075-4.96-5.559-6.664c-2.676-1.845-5.542-3.39-8.002-5.542c-5.143-4.478-6.721-10.244-6.24-16.766
		c0.484-6.023,2.111-11.614,6.431-16.126c0.491-0.516,0.384-1.088,0.375-1.646c-0.291-12.936-0.566-25.871-0.93-38.79
		c-0.191-8.192-0.499-16.393-0.781-24.584c-0.024-1.363-0.117-2.75,1.437-3.382c1.611-0.681,2.659,0.324,3.665,1.346
		c2.093,2.084,4.262,4.129,6.273,6.255c0.839,0.898,1.354,0.79,2.168,0c2.251-2.243,4.607-4.378,6.916-6.563
		c2.027-1.953,2.941-1.953,5.034,0.009c2.178,2.093,4.387,4.171,6.549,6.297c0.979,0.948,1.66,1.063,2.69-0.017
		c2.011-2.168,4.155-4.212,6.248-6.272c0.915-0.906,1.86-1.787,3.306-1.048c1.396,0.657,1.496,1.878,1.447,3.182
		c-0.051,1.247-0.018,2.509-0.018,3.756C224.899,131.13,224.85,131.13,224.816,131.13z M199.21,246.083
		c0.848-0.465,1.347-0.648,1.744-0.931c5.783-4.146,11.001-8.964,15.621-14.382c2.858-3.372,5.749-6.904,7.012-11.224
		c2.493-8.558,0.948-16.658-3.889-24.062c-0.781-1.163-1.33-2.26-1.279-3.654c0.249-6.647,0.516-13.31,0.697-19.932
		c0.233-9.987,0.467-19.964,0.6-29.951c0.016-3.041,0.648-6.099,0.166-9.381c-1.38,1.239-2.525,2.343-3.773,3.365
		c-2.642,2.193-4.535,2.186-7.045-0.066c-1.976-1.77-3.938-3.581-5.865-5.466c-0.797-0.765-1.329-0.848-2.144-0.017
		c-1.678,1.669-3.457,3.249-5.171,4.885c-3.174,3.082-5.325,3.058-8.508-0.075c-0.913-0.914-1.878-1.778-2.932-2.758
		c-0.59,1.719-0.058,3.106-0.016,4.46c0.273,12.18,0.564,24.369,0.906,36.589c0.149,5.442-0.026,10.918,0.389,16.376
		c0.142,1.712,0.607,3.688-0.873,5.085c-3.92,3.747-5.441,8.507-5.94,13.7c-0.522,6.007,0.965,11.141,6.324,14.622
		c2.393,1.563,4.851,3.116,7.177,4.794c2.617,1.877,4.773,4.17,5.821,7.354C199.36,238.764,199.742,242.179,199.21,246.083z"/>
	<path fill="#8F90AA" d="M141.04,284.043c0-5.766,0.026-11.539-0.049-17.281c-0.024-1.869,0.458-3.124,2.501-3.091
		c1.943,0.042,2.342,1.338,2.327,3.041c-0.06,8.508-0.018,17.016,0,25.516c0,1.378,0.073,2.791-1.687,3.182
		c-1.678,0.356-2.859-0.416-3.623-1.87c-2.826-5.366-5.625-10.726-8.458-16.084c-0.449-0.84-0.915-1.646-1.72-2.352
		c0,5.865-0.018,11.747,0.024,17.622c0,1.329-0.215,2.343-1.669,2.708c-1.636,0.398-3.041-0.523-3.041-2.219
		c-0.033-9.105-0.024-18.187-0.024-27.292c0-0.972,0.315-1.728,1.33-2.052c1.254-0.407,2.359-0.175,3.29,0.715
		c1.072,1.063,1.612,2.467,2.269,3.764c2.717,5.25,5.399,10.509,8.076,15.743C140.742,284.076,140.875,284.06,141.04,284.043z"/>
	<path fill="#8F90AA" d="M202.035,90.669c-3.705,6.306-7.249,12.263-10.789,18.237c-2.218,3.739-4.469,7.477-6.68,11.25
		c-0.905,1.462-2.076,2.558-3.78,1.378c-1.554-1.055-1.13-2.451-0.282-3.888c6.389-10.717,12.728-21.493,19.088-32.236
		c1.461-2.443,3.39-2.393,4.902,0.141c6.431,10.693,12.794,21.426,19.259,32.12c0.912,1.504,1.096,2.808-0.467,3.821
		c-1.66,1.097-2.774,0.074-3.589-1.313c-5.334-8.881-10.635-17.746-15.951-26.644C203.231,92.722,202.75,91.891,202.035,90.669z"/>
	<path fill="#8F90AA" d="M221.809,279.449c0-4.354,0.05-8.724-0.051-13.078c-0.031-2.076,0.815-2.808,2.743-2.725
		c3.406,0.183,6.813-0.258,10.169,0.382c3.855,0.765,6.198,3.082,6.697,6.73c0.631,4.61-0.814,8.191-4.337,9.762
		c-1.563,0.682-1.396,1.255-0.732,2.418c1.613,2.924,3.107,5.891,4.719,8.798c0.832,1.495,0.732,2.667-0.846,3.474
		c-1.646,0.83-2.626,0.124-3.39-1.347c-1.796-3.563-3.74-7.054-5.434-10.659c-1.015-2.152-2.742-1.354-4.188-1.288
		c-1.512,0.059-0.78,1.495-0.813,2.302c-0.1,2.949-0.1,5.915-0.018,8.865c0.051,1.636-0.797,2.375-2.227,2.4
		c-1.528,0.024-2.541-0.715-2.309-2.483c0-0.067,0-0.143,0-0.217C221.809,288.33,221.809,283.877,221.809,279.449z M226.313,272.969
		c0,5.425,0,5.425,5.117,5.251c3.738-0.167,5.583-1.995,5.482-5.459c-0.115-3.323-1.744-4.785-5.516-4.836
		C226.313,267.858,226.313,267.858,226.313,272.969z"/>
	<path fill="#8F90AA" d="M310.673,279.872c0,2.593,0.066,5.177,0,7.761c-0.066,3.589-2.16,6.396-5.55,7.485
		c-2.375,0.747-4.818,0.764-7.228,0.208c-4.271-1.006-6.248-3.523-6.548-9.015c-0.265-4.719-0.415-9.472,0.15-14.182
		c0.648-5.418,2.908-7.67,8.275-8.4c5.4-0.739,10.418,2.394,10.833,7.037c0.284,3.016,0.051,6.082,0.051,9.089
		C310.673,279.872,310.673,279.872,310.673,279.872z M306.237,279.806c0-2.301,0.033-4.586-0.033-6.879
		c-0.1-3.282-1.878-4.984-5.185-5.027c-3.108-0.008-4.919,1.671-4.969,4.952c-0.082,4.528-0.082,9.022,0,13.534
		c0.05,3.432,1.827,5.151,5.02,5.177c3.238,0.017,5.067-1.837,5.167-5.301C306.271,284.093,306.237,281.958,306.237,279.806z"/>
	<path fill="#8F90AA" d="M197.383,279.647c0-2.209,0-4.436,0-6.654c0.018-7.378,5.367-9.903,11.25-9.131
		c5.083,0.64,7.543,2.967,8.108,7.078c0.2,1.264,0.349,2.659-1.445,2.892c-1.547,0.191-2.874,0.116-3.258-1.96
		c-0.598-3.008-2.061-4.014-5.184-3.947c-2.926,0.059-4.354,1.097-4.703,4.205c-0.531,5.158-0.549,10.359,0.033,15.503
		c0.35,2.924,2.293,4.145,5.434,3.93c2.593-0.167,4.271-1.878,4.486-4.578c0.033-0.299,0-0.599,0.033-0.89
		c0.066-3.397,0.066-3.423-3.323-3.497c-1.345-0.033-2.426-0.333-2.441-1.887c-0.018-1.536,1.029-1.96,2.375-1.96
		c2.011,0.033,4.005,0.024,6,0c1.079,0,2.042,0.374,2.042,1.554c-0.016,3.232,0.499,6.479-0.563,9.695
		c-0.915,2.742-2.76,4.445-5.501,5.243c-2.177,0.639-4.437,0.622-6.579,0.182c-4.238-0.863-6.582-3.846-6.713-8.225
		c-0.084-2.517-0.018-5.026-0.018-7.544C197.416,279.647,197.4,279.647,197.383,279.647z"/>
	<path fill="#8F90AA" d="M192.136,279.757c0,2.592,0.083,5.175-0.018,7.759c-0.165,4.528-3.356,7.769-7.851,8.076
		c-1.088,0.042-2.2,0.042-3.306,0c-4.353-0.225-7.454-2.866-7.942-7.203c-0.615-5.733-0.615-11.508-0.026-17.231
		c0.433-4.097,2.743-6.307,6.772-7.187c2.302-0.49,4.528-0.341,6.754,0.374c3.299,1.047,5.375,3.738,5.599,7.22
		c0.018,0.216,0.051,0.439,0.051,0.656C192.169,274.746,192.169,277.255,192.136,279.757L192.136,279.757z M177.455,279.773
		c0,2.358-0.049,4.751,0.009,7.077c0.116,2.858,1.669,4.512,4.295,4.712c3.199,0.24,5.359-1.006,5.634-3.938
		c0.54-5.275,0.64-10.602-0.042-15.885c-0.391-2.958-2.218-4.021-5.441-3.797c-2.743,0.207-4.304,1.702-4.428,4.536
		C177.389,274.904,177.455,277.347,177.455,279.773z"/>
	<path fill="#8F90AA" d="M255.092,263.571c1.86-0.091,2.975,0.624,3.506,2.426c2.592,8.55,5.218,17.057,7.826,25.632
		c0.315,1.097,0.897,2.268-0.366,3.215c-1.711,1.279-3.172,0.757-3.904-1.271c-0.598-1.686-0.364-4.071-1.745-4.835
		c-1.429-0.79-3.571-0.307-5.449-0.307c-4.901-0.009-4.935-0.009-6.364,4.751c-0.499,1.596-1.048,2.801-3.074,2.136
		c-1.845-0.623-1.993-1.736-1.445-3.464c2.708-8.591,5.35-17.199,7.958-25.814C252.549,264.402,253.414,263.464,255.092,263.571z
		 M255.341,269.845c-1.463,4.876-2.774,9.297-4.087,13.741c-0.232,0.872,0.099,1.188,1.03,1.155
		c1.911-0.033,3.838-0.033,5.749,0.041c1.43,0.083,1.594-0.432,1.212-1.678C257.934,278.884,256.737,274.621,255.341,269.845z"/>
	<path fill="#8F90AA" d="M270.313,279.366c0-4.279,0.083-8.574-0.033-12.854c-0.051-2.011,0.813-2.883,2.709-2.875
		c4.619,0.009,9.188,0.059,13.758-0.008c1.629-0.017,2.342,0.739,2.326,2.251c0,1.521-0.947,2.044-2.326,2.019
		c-3.224,0-6.513,0.084-9.738-0.008c-1.578-0.041-2.093,0.508-1.993,2.053c0.115,2.06,0.084,4.129,0,6.214
		c-0.033,1.256,0.448,1.688,1.695,1.629c1.445-0.083,2.941-0.059,4.436-0.042c1.28,0.008,2.111,0.623,1.995,2.028
		c-0.1,1.387-1.031,1.645-2.177,1.636c-1.412-0.041-2.826,0.059-4.221-0.041c-1.396-0.108-1.762,0.481-1.729,1.795
		c0.066,3.248-0.049,6.513,0.051,9.753c0.049,1.853-0.832,2.634-2.493,2.592c-1.578-0.041-2.293-0.896-2.277-2.592
		C270.396,288.389,270.329,283.877,270.313,279.366z"/>
	<path fill="#8F90AA" d="M157.391,281.368c0-3.913-0.007-7.827,0.033-11.724c0.033-1.254-0.34-1.745-1.619-1.661
		c-1.471,0.1-2.95-0.008-4.446,0.017c-1.503,0.025-2.235-0.806-2.235-2.144c0-1.32,0.648-2.227,2.187-2.219
		c5.607,0.017,11.223,0.017,16.848,0.009c1.587,0,2.069,1.055,2.053,2.317c-0.042,1.23-0.708,2.103-2.135,2.02
		c-0.342-0.008-0.732,0-1.114,0c-4.992,0-4.992,0-4.992,5.126c0,6.48-0.051,12.994,0.016,19.491
		c0.024,1.803-0.498,2.907-2.375,2.866c-1.778-0.017-2.26-1.113-2.226-2.8C157.475,288.887,157.424,285.148,157.391,281.368
		C157.424,281.368,157.424,281.368,157.391,281.368z"/>
	<path fill="#8F90AA" d="M120.045,279.715c0,4.361-0.058,8.707,0.009,13.061c0.024,1.736-0.682,2.708-2.409,2.683
		c-1.753-0.008-2.353-1.013-2.344-2.732c0.058-8.807,0.058-17.58-0.009-26.354c-0.007-1.785,0.666-2.7,2.368-2.7
		c1.787-0.017,2.417,1.03,2.393,2.742C119.987,270.85,120.045,275.286,120.045,279.715z"/>
	<path fill="#8F90AA" d="M219.665,313.903c0,2.525,0,5.042-0.016,7.552c0,0.457,0.232,1.139-0.449,1.32
		c-0.532,0.117-1.063-0.066-1.247-0.672c-0.315-1.271-0.813-0.291-1.179-0.084c-4.237,2.252-7.894,0.2-8.209-4.619
		c-0.133-1.62-0.051-3.266,0.664-4.777c1.13-2.459,3.44-3.498,6.315-2.409c2.026,0.756,2.227-0.024,2.093-1.67
		c-0.066-0.873,0.018-1.762,0-2.658c-0.033-0.814,0.282-1.255,1.163-1.213c0.897,0.058,0.864,0.639,0.864,1.246
		C219.665,308.594,219.665,311.253,219.665,313.903z M217.805,316.429c-0.066-0.424-0.216-1.13-0.3-1.877
		c-0.199-1.87-1.112-2.934-3.09-3.041c-2.061-0.109-3.157,0.996-3.623,2.841c-0.382,1.504-0.415,3.049,0.067,4.545
		c0.548,1.603,1.66,2.408,3.355,2.408C216.542,321.305,217.838,319.669,217.805,316.429z"/>
	<path fill="#8F90AA" d="M167.444,316.836c-0.814,0-1.621,0-2.426,0.017c-1.878,0.05-2.242,0.756-1.33,2.442
		c0.948,1.72,2.868,2.293,5.467,1.795c0.639-0.134,1.638-1.072,1.995,0.091c0.407,1.246-0.939,1.296-1.68,1.537
		c-2.915,0.939-6.156-0.124-7.501-2.367c-1.571-2.726-1.081-7.121,1.039-9.114c1.694-1.554,4.362-1.854,6.397-0.648
		c1.594,0.964,2.757,3.598,2.451,5.417c-0.151,0.814-0.666,0.831-1.296,0.831C169.53,316.819,168.5,316.836,167.444,316.836
		L167.444,316.836z M166.68,315.149c0.848-0.374,2.417,0.747,2.95-0.632c0.315-0.848-0.383-2.035-1.387-2.575
		c-1.281-0.715-2.585-0.599-3.731,0.308c-0.73,0.631-1.554,1.595-1.081,2.476c0.557,1.006,1.878,0.225,2.859,0.424
		C166.365,315.165,166.422,315.149,166.68,315.149z"/>
	<path fill="#8F90AA" d="M205.276,316.454c0,1.702,0,3.397,0,5.092c0,0.507,0.033,1.114-0.633,1.263
		c-0.431,0.067-1.013,0.009-1.112-0.473c-0.399-1.438-0.997-0.457-1.529-0.183c-4.286,2.243-7.506,0.315-7.54-4.545
		c-0.017-2.069,0.025-4.154,0.025-6.207c0-0.797,0.242-1.237,1.147-1.229c0.846,0.041,0.905,0.59,0.913,1.196
		c0,2.227,0.042,4.444-0.007,6.663c-0.06,1.845,0.694,3.041,2.554,3.223c1.793,0.184,3.174-0.373,3.771-2.284
		c0.366-1.18,0.118-2.384,0.416-3.522c0.466-1.721-1.379-4.951,1.014-4.943c2.193,0,0.433,3.315,0.981,5.051
		c0.066,0.274,0,0.607,0,0.89C205.276,316.454,205.276,316.454,205.276,316.454z"/>
	<path fill="#8F90AA" d="M240.568,316.495c0,4.037-2.109,6.456-5.665,6.48c-3.606,0.024-5.934-2.551-5.934-6.572
		c0-4.07,2.244-6.588,5.867-6.555C238.408,309.856,240.586,312.341,240.568,316.495z M238.675,316.063
		c-0.082-0.458-0.149-1.454-0.499-2.319c-0.531-1.278-1.512-2.126-3.041-2.217c-1.562-0.109-2.875,0.356-3.49,1.818
		c-0.879,2.103-0.979,4.346,0.218,6.397c1.296,2.186,4.619,2.152,5.916-0.008C238.393,318.805,238.657,317.7,238.675,316.063z"/>
	<path fill="#8F90AA" d="M177.93,323.066c-0.508-0.024-0.915,0.033-1.247-0.066c-0.963-0.332-2.667-0.133-2.293-1.72
		c0.399-1.537,1.521,0.041,2.293-0.116c0.257-0.066,0.59,0.141,0.856,0.141c1.494,0.025,3.281,0.217,3.729-1.569
		c0.399-1.629-1.354-1.861-2.384-2.451c-0.897-0.523-1.844-0.964-2.791-1.329c-1.305-0.49-1.778-1.438-1.795-2.733
		c0-1.446,0.73-2.393,1.986-2.908c1.876-0.781,3.738-0.54,5.625-0.033c0.573,0.15,0.979,0.424,0.772,1.072
		c-0.2,0.647-0.674,0.714-1.238,0.64c-1.072-0.225-2.144-0.623-3.274-0.44c-0.831,0.116-1.654,0.332-1.952,1.188
		c-0.366,1.071,0.606,1.462,1.221,1.853c0.797,0.481,1.727,0.806,2.617,1.171c1.778,0.74,3.39,1.637,3.141,3.938
		c-0.217,2.351-1.978,2.892-3.897,3.249C178.818,323,178.294,323.042,177.93,323.066z"/>
	<path fill="#8F90AA" d="M190.234,323.042c-2.41-0.066-3.598-1.237-3.789-3.681c-0.116-1.985-0.033-3.979-0.049-5.99
		c0-0.44-0.167-0.922-0.018-1.305c0.349-0.896-3.78-0.124-0.682-1.853c1.188-0.665,0.866-1.961,1.571-2.75
		c0.564-0.606,1.237-0.382,1.164,0.424c-0.167,1.861,0.73,2.326,2.351,2.127c0.54-0.05,1.303-0.1,1.279,0.798
		c-0.016,0.938-0.814,0.814-1.312,0.739c-2.244-0.415-2.369,0.848-2.277,2.55c0.084,1.695,0,3.39,0.018,5.086
		c0.016,1.221,0.63,1.894,1.836,2.134c0.664,0.117,1.927-0.448,1.736,0.939C191.879,323.399,190.698,322.792,190.234,323.042z"/>
	<path fill="#8F90AA" d="M225.714,316.578c0,1.703,0,3.398,0,5.101c0,0.707-0.233,1.155-1.015,1.139
		c-0.73,0-1.013-0.424-1.013-1.139c0-3.53,0-7.095,0-10.643c-0.018-0.622,0.149-0.996,0.864-0.996c0.863,0,1.196,0.374,1.163,1.213
		C225.714,313.031,225.714,314.8,225.714,316.578L225.714,316.578z"/>
	<path fill="#8F90AA" d="M181.459,259.626c-0.988,0-1.512-0.35-1.718-1.072c-0.184-0.665-0.142-1.388,0.564-1.753
		c1.762-0.914,3.514-1.804,5.31-2.676c0.739-0.357,1.296,0,1.678,0.641c0.333,0.598,0.624,1.429,0.042,1.836
		C185.481,257.947,183.346,258.786,181.459,259.626z"/>
	<path fill="#8F90AA" d="M225.813,306.601c-0.033,0.78-0.448,1.254-1.196,1.295c-0.797,0.033-0.981-0.573-0.981-1.195
		c-0.033-0.624,0.118-1.213,0.865-1.28C225.281,305.37,225.714,305.811,225.813,306.601z"/>
	<path fill="#8F90AA" d="M202.135,200.496c-4.403-0.166-7.972-0.689-11.51-1.487c-0.49-0.108-0.972-0.315-1.447-0.507
		c-1.294-0.548-1.785-1.62-1.345-2.874c0.433-1.23,1.372-1.861,2.792-1.546c3.306,0.739,6.609,1.554,10.033,1.587
		c4.237,0.042,8.406-0.407,12.478-1.487c1.662-0.44,2.858-0.107,3.307,1.545c0.466,1.612-0.548,2.552-1.944,2.917
		C210.178,199.773,205.791,200.188,202.135,200.496z"/>
</g>
</svg>
