<?xml version="1.0" encoding="utf-8"?>
<!-- Generator: Adobe Illustrator 16.0.3, SVG Export Plug-In . SVG Version: 6.00 Build 0)  -->
<!DOCTYPE svg PUBLIC "-//W3C//DTD SVG 1.1//EN" "http://www.w3.org/Graphics/SVG/1.1/DTD/svg11.dtd">
<svg version="1.1" id="Capa_1" xmlns="http://www.w3.org/2000/svg" xmlns:xlink="http://www.w3.org/1999/xlink" x="0px" y="0px"
	 width="400px" height="400px" viewBox="0 0 400 400" enable-background="new 0 0 400 400" xml:space="preserve">
<rect fill="none" width="399.996" height="400"/>
<g>
	<path fill="#8F90AA" d="M148.364,127.135c0.785,4.691,1.012,9.232,1.029,13.774c0.122,28.093,0.166,56.179,0.332,84.264
		c0.003,2.342-1.039,2.342-2.767,2.366c-1.857,0.05-2.686-0.248-2.686-2.449c0.075-36.068,0.042-72.136,0.066-108.229
		c0-1.009-0.521-2.589,1.469-2.358c1.77,0.19,3.917-1.026,4.811,2.035c4.575,15.668,9.331,31.287,14.035,46.922
		c5.029,16.694,10.173,33.371,14.836,50.223c0-3.243,0.086-6.52-0.008-9.771c-0.951-29.028-0.257-58.081-0.538-87.134
		c-0.025-2.358,1.067-2.292,2.792-2.358c1.899-0.074,2.648,0.29,2.64,2.474c-0.066,35.977-0.047,71.938-0.096,107.949
		c0,0.901,0.861,2.696-1.121,2.572c-1.824-0.091-4.178,1.273-5.125-1.952c-4.161-14.196-8.545-28.317-12.794-42.48
		c-5.463-18.216-11.419-36.258-15.635-54.838C149.515,127.764,149.509,127.375,148.364,127.135z"/>
	<path fill="#8F90AA" d="M250.972,73.049c-7.085,5.336-13.198,11.16-18.394,17.853c-21.417,27.655-32.474,58.561-29.182,93.918
		c0.736,7.867,2.003,15.644,5.153,22.957c1.66,3.821,3.807,7.338,7.045,10.059c4.814,4.046,10.312,4.766,16.276,3.293
		c1.526-0.38,2.204-1.093,2.188-2.779c-0.062-12.988-0.062-25.984,0-38.956c0-1.612-0.43-2.192-2.097-2.117
		c-2.986,0.132-5.969-0.125-8.942,0.099c-2.433,0.166-2.47-1.191-2.229-2.804c0.202-1.439-1.084-3.681,2.091-3.59
		c4.902,0.173,9.808,0.115,14.709,0.017c1.644-0.033,2.151,0.463,2.14,2.109c-0.055,16.545-0.055,33.099,0,49.645
		c0,1.455-0.518,2.208-1.791,2.853c-11.351,5.907-23.545,2.921-30.762-7.593c-5.311-7.728-7.681-16.537-8.893-25.621
		c-4.477-33.239,2.097-64.021,21.301-91.801c7.463-10.812,16.727-19.795,27.982-26.653c0.728-0.456,1.506-0.819,2.283-1.2
		C249.979,72.694,250.206,72.859,250.972,73.049z"/>
	<path fill="#8F90AA" d="M114.206,127.996c5.936,32.212,11.875,64.393,17.767,96.573c0.186,0.993,1.331,2.813-0.765,2.805
		c-1.664-0.017-4.248,1.695-4.874-1.986c-1.911-11.457-4.152-22.882-6.089-34.331c-0.333-2.019-1.121-2.415-2.965-2.382
		c-5.484,0.099-10.965,0.165-16.441-0.033c-2.176-0.083-2.734,0.736-3.069,2.655c-1.911,11.16-3.929,22.319-5.911,33.463
		c-0.433,2.398-2.964,3.764-5.224,2.688c-1.282-0.596-0.497-1.704-0.364-2.507c1.678-9.571,3.428-19.076,5.161-28.615
		c3.74-20.615,7.483-41.181,11.223-61.771c1.7-0.902,3.388-1.812,5.074-2.698c-0.76,5.229-1.442,10.457-2.307,15.661
		c-1.788,10.886-3.64,21.748-5.564,32.634c-0.314,1.779-0.05,2.341,1.874,2.292c4.91-0.157,9.798-0.082,14.7-0.025
		c1.431,0,2.04-0.182,1.73-1.927c-2.867-16.529-5.643-33.106-8.439-49.66C111.025,129.575,112.547,128.699,114.206,127.996z"/>
	<path fill="#8F90AA" d="M253.541,170.997c0-17.786,0.042-35.547-0.046-53.35c-0.012-2.375,0.365-3.326,3.077-3.244
		c8.257,0.199,16.538,0.208,24.798,0c3.197-0.082,2.382,1.862,2.469,3.525c0.1,1.819,0.244,3.276-2.54,3.193
		c-6.527-0.24-13.065-0.042-19.601-0.1c-1.705-0.033-2.54,0.183-2.52,2.283c0.103,13.153,0.078,26.34,0.008,39.502
		c-0.008,1.812,0.558,2.267,2.296,2.25c6.15-0.1,12.311,0.108,18.452-0.1c2.733-0.107,2.379,1.498,2.259,3.094
		c-0.107,1.497,0.979,3.582-2.173,3.474c-6.153-0.182-12.313,0.017-18.46-0.099c-1.919-0.05-2.382,0.538-2.374,2.398
		c0.07,14.907,0.07,29.782,0,44.705c-0.008,1.969,0.446,2.614,2.523,2.598c7.106-0.141,14.224,0.083,21.335-0.132
		c2.573-0.083,2.614,1.174,2.398,2.928c-0.181,1.514,1.081,3.714-2.278,3.632c-9.03-0.182-18.084-0.124-27.109,0
		c-2.073,0.025-2.553-0.629-2.544-2.614C253.574,206.965,253.541,188.98,253.541,170.997z"/>
	<path fill="#8F90AA" d="M172.329,304.275c-0.313-18.349-0.098-36.723-0.12-55.096c0-2.125,0.033-4.227-0.008-6.345
		c-0.02-1.266-0.028-2.176,1.738-2.184c1.633-0.017,1.891,0.637,1.891,2.035c-0.033,23.179-0.021,46.375-0.021,69.539
		c0,0.942,0.249,2.002-1.323,1.952c-1.391-0.033-2.453,0.05-2.986-1.804c-2.581-8.935-5.37-17.844-8.049-26.762
		c-3.28-10.928-6.842-21.823-9.573-32.908c-0.106-0.505,0.021-1.216-0.719-1.431c0,5.17,0,10.356,0,15.52
		c0.02,14.891,0.05,29.814,0.061,44.737c0,1.191,0.609,2.705-1.758,2.705c-2.324,0-1.794-1.455-1.794-2.688
		c-0.017-22.717-0.025-45.433,0.028-68.116c0-1.018-0.868-2.598,1.366-2.771c1.939-0.182,2.609,0.637,3.117,2.358
		c5.742,19.829,12.125,39.476,17.518,59.412C171.862,303.067,172.115,303.663,172.329,304.275z"/>
	<path fill="#8F90AA" d="M295.991,170.98c0-17.869,0.046-35.771-0.037-53.664c-0.013-2.217,0.505-2.978,2.837-2.913
		c2.201,0.017,2.92,0.497,2.912,2.846c-0.082,33.553-0.023,67.124-0.123,100.668c0,2.688,0.719,3.326,3.3,3.243
		c6.734-0.174,13.469,0.107,20.201-0.1c2.97-0.132,2.31,1.639,2.334,3.235c0.017,1.679,0.53,3.333-2.417,3.259
		c-8.834-0.215-17.687-0.157-26.537-0.017c-2.118,0.017-2.507-0.72-2.49-2.639C296.016,206.924,295.991,188.957,295.991,170.98z"/>
	<path fill="#8F90AA" d="M114.206,127.996c-1.658,0.703-3.18,1.579-4.483,2.829c-0.657,0.355-1.323,0.687-1.98,1.018
		c-1.7,0.885-3.388,1.794-5.076,2.705c-4.397,1.612-8.707,3.532-13.406,4.269c-1.922,0.298-3.821,0.438-5.732,0.314
		c-5.875-0.314-8.451-4.012-6.726-9.613c1.245-4.045,3.607-7.438,6.424-10.49c11.088-11.97,24.156-20.689,40.415-23.999
		c1.031-0.207,2.093-0.273,3.144-0.281c8.166-0.165,11.321,4.6,7.714,11.987c-4.032,8.264-10.857,14.055-18.03,19.474
		C115.695,126.78,114.955,127.408,114.206,127.996z M104.085,127.5c3.264-1.53,6.377-3.309,9.128-5.659
		c5.75-3.78,10.83-8.264,14.511-14.154c1.101-1.762,1.873-3.714,0.735-5.699c-1.1-1.895-3.11-1.688-4.918-1.605
		c-5.823,0.248-11.002,2.614-15.982,5.328c-8.826,4.798-17.083,10.391-22.886,18.87c-1.333,1.96-2.842,4.276-1.233,6.618
		c1.502,2.225,4.104,1.655,6.391,1.514c0.389-0.017,0.754-0.14,1.125-0.223C95.614,131.594,99.94,129.791,104.085,127.5z"/>
	<path fill="#8F90AA" d="M263.691,278.473c6.325,4.187,6.619,10.879,7.689,17.157c0.923,5.386,1.713,10.83,2.495,16.239
		c0.122,0.753,1.281,1.928-0.374,2.226c-1.345,0.239-2.937,0.529-3.238-1.68c-0.513-3.523-1.182-7.015-1.729-10.521
		c-0.753-4.733-0.968-9.572-2.569-14.146c-1.874-5.319-4.711-7.173-10.12-7.214c-1.913-0.009-2.151,0.678-2.14,2.341
		c0.074,9.604,0.017,19.218,0.041,28.855c0,1.372,0.208,2.572-1.952,2.531c-2.071-0.025-1.744-1.209-1.744-2.441
		c0-22.575,0.036-45.192-0.066-67.784c-0.005-2.218,1.021-2.796,2.759-3.211c10.7-2.456,17.855,2.275,19.613,13.36
		c0.951,5.932,0.666,11.904-2.163,17.438C268.708,274.485,266.467,276.702,263.691,278.473z M253.706,260.713
		c0,4.615,0.083,9.198-0.042,13.831c-0.048,1.845,0.609,2.241,2.325,2.267c5.213,0,8.803-2.416,10.911-7.048
		c2.481-5.493,2.512-11.201,1.098-16.926c-1.52-6.188-5.887-9.026-12.235-8.28c-1.539,0.173-2.127,0.669-2.099,2.29
		C253.78,251.488,253.706,256.096,253.706,260.713z"/>
	<path fill="#8F90AA" d="M217.708,269.556c0,8.537-0.058,17.107,0.021,25.645c0.05,3.482,0.641,6.916,2.039,10.109
		c1.348,3.077,3.301,5.419,7.072,5.353c3.724-0.066,5.733-2.366,7.028-5.477c1.969-4.708,2.188-9.712,2.205-14.733
		c0.05-15.751,0-31.51,0.05-47.286c0-0.918-0.782-2.44,1.294-2.498c1.612-0.05,2.433,0.156,2.369,2.102
		c-0.14,4.913-0.028,9.811-0.04,14.732c-0.005,11.806,0,23.651-0.083,35.456c-0.033,5.113-0.688,10.159-2.847,14.891
		c-2.759,5.981-7.953,8.546-13.55,6.75c-3.363-1.066-5.382-3.532-6.774-6.642c-2.14-4.758-2.614-9.828-2.636-14.916
		c-0.087-16.637-0.037-33.256-0.054-49.892c0-1.439-0.111-2.531,1.994-2.531c2.287,0.008,1.827,1.398,1.827,2.655
		c0.009,8.753,0,17.496,0,26.249C217.663,269.556,217.684,269.556,217.708,269.556z"/>
	<path fill="#8F90AA" d="M99.949,304.722c2.349-15.685,5.406-31.154,8.09-46.648c0.906-5.203,2.007-10.391,2.742-15.61
		c0.294-2.143,1.556-1.795,2.833-1.745c2.118,0.09,0.893,1.571,0.773,2.3c-4.082,22.973-8.227,45.938-12.372,68.918
		c-0.21,1.191-0.277,2.316-2.146,2.309c-1.99-0.009-1.83-1.374-2.023-2.458c-4.104-22.89-8.194-45.763-12.21-68.637
		c-0.136-0.753-1.273-2.242,0.745-2.424c1.478-0.141,2.697-0.215,3.044,1.936c3.213,19.705,7.309,39.262,10.022,59.066
		C99.585,302.729,99.791,303.737,99.949,304.722z"/>
	<path fill="#8F90AA" d="M121.991,277.365c0-11.342,0.066-22.7-0.058-34.059c-0.017-2.233,0.654-2.722,2.759-2.647
		c4.993,0.148,10.001,0.099,14.995,0.009c1.6-0.033,2.196,0.405,2.16,2.076c-0.03,1.53-0.319,2.217-2.065,2.167
		c-3.851-0.123-7.68,0.042-11.526-0.074c-1.796-0.082-2.503,0.298-2.479,2.316c0.133,7.991,0.133,15.982,0,23.94
		c-0.025,2.151,0.724,2.557,2.648,2.466c3.449-0.158,6.932,0.065,10.381-0.083c1.854-0.075,1.943,0.836,1.977,2.283
		c0.042,1.489-0.405,2.01-1.947,1.952c-3.756-0.074-7.495,0.05-11.243-0.042c-1.402-0.032-1.779,0.406-1.771,1.787
		c0.055,9.515,0.075,19.044-0.008,28.549c-0.008,1.771,0.688,2.026,2.198,2.002c4.334-0.082,8.652,0.058,12.987-0.082
		c1.894-0.066,1.894,0.876,1.927,2.274c0.042,1.465-0.363,1.994-1.924,1.969c-5.567-0.091-11.151-0.14-16.719,0.009
		c-2.075,0.074-2.311-0.762-2.294-2.498C122.027,300.255,121.991,288.789,121.991,277.365z"/>
	<path fill="#8F90AA" d="M281.213,277.216c0-11.351,0.05-22.7-0.059-34.05c-0.02-2.043,0.551-2.548,2.548-2.498
		c5.002,0.14,10.007,0.115,15.006,0.008c1.747-0.05,2.317,0.397,2.301,2.209c-0.033,1.729-0.646,2.052-2.185,2.019
		c-3.938-0.083-7.888,0.05-11.828-0.059c-1.646-0.049-2.14,0.48-2.127,2.102c0.07,8.182,0.07,16.354,0,24.521
		c-0.013,1.653,0.524,2.158,2.155,2.101c3.644-0.1,7.305,0.083,10.957-0.083c1.969-0.083,1.777,1.001,1.86,2.317
		c0.092,1.521-0.404,1.984-1.927,1.935c-3.644-0.099-7.306,0.05-10.957-0.066c-1.664-0.057-2.102,0.481-2.089,2.118
		c0.07,9.315,0.07,18.639,0,27.978c-0.013,1.746,0.48,2.309,2.271,2.267c4.128-0.132,8.268,0.017,12.396-0.057
		c1.621-0.042,2.631,0,2.598,2.175c-0.017,2.094-0.977,2.044-2.45,2.019c-5.372-0.066-10.767-0.091-16.148,0.033
		c-1.913,0.059-2.365-0.537-2.352-2.399C281.249,300.279,281.213,288.756,281.213,277.216z"/>
	<path fill="#8F90AA" d="M307.627,307.692c0.794,0.496,1.348,0.852,1.936,1.157c6.188,3.376,11.979,1.391,14.377-5.303
		c2.963-8.247,1.539-15.933-3.971-22.732c-2.166-2.696-4.772-5.029-6.981-7.678c-6.205-7.478-7.595-15.857-3.904-24.825
		c2.961-7.188,9.894-10.052,16.181-7.255c2.357,1.034,2.615,2.357,1.556,4.476c-0.422,0.868-0.688,1.241-1.639,0.562
		c-5.278-3.722-12.31-1.919-13.896,7.371c-1.109,6.502,0.389,12.4,5.177,17.257c2.293,2.333,4.617,4.666,6.619,7.222
		c6.552,8.33,7.826,17.646,4.252,27.457c-2.904,7.975-10.025,11.325-17.224,8.554C306.105,312.415,305.89,311.869,307.627,307.692z"
		/>
	<path fill="#8F90AA" d="M192.981,279.523c0-10.762-0.042-21.533,0.039-32.313c0.011-1.836-0.402-2.598-2.362-2.423
		c-2.11,0.165-4.239-0.075-6.349,0.057c-1.61,0.092-1.932-0.628-1.879-2.035c0.042-1.249-0.017-2.158,1.755-2.134
		c7.123,0.082,14.241,0.082,21.355,0c1.663-0.024,1.883,0.646,1.833,2.027c-0.045,1.24,0.05,2.283-1.75,2.15
		c-2.002-0.157-4.045,0.133-6.042-0.099c-2.354-0.24-2.831,0.67-2.822,2.878c0.086,21.252,0.062,42.513,0,63.773
		c0,0.951,0.857,2.465-1.062,2.738c-1.73,0.223-2.792,0.058-2.764-2.3C193.048,301.082,192.981,290.311,192.981,279.523z"/>
	<path fill="#8F90AA" d="M104.085,127.5c0.663-3.755,1.428-7.521,1.94-11.309c0.331-2.515,2.125-1.555,3.45-1.704
		c1.306-0.157,2.423-0.083,2.623,1.721c0.206,1.895,0.732,3.755,1.107,5.634C110.462,124.19,107.349,125.969,104.085,127.5z"/>
</g>
</svg>
