<svg xmlns="http://www.w3.org/2000/svg" xmlns:xlink="http://www.w3.org/1999/xlink" width="158" height="60" viewBox="0 0 158 60">
    <defs>
        <path id="a" d="M0 .382h4.315v6.473H0z"/>
        <path id="c" d="M.118.178h1.15v2.301H.118z"/>
        <path id="e" d="M0 59.873h157.2V0H0z"/>
    </defs>
    <g fill="none" fill-rule="evenodd" opacity=".5">
        <g transform="translate(0 51.939)">
            <mask id="b" fill="#fff">
                <use xlink:href="#a"/>
            </mask>
            <path fill="#1D2258" d="M4.315 4.967c0 1.007-.845 1.888-2.122 1.888-1.204 0-2.04-.9-2.193-1.15l.665-.81c.45.585 1.025.881 1.528.881.585 0 .971-.386.971-.755 0-.54-.368-.863-.863-1.052C1.006 3.475.36 2.962.36 1.974c0-.918.826-1.591 1.887-1.591.198 0 .917-.036 1.717.7l-.629.845c-.279-.251-.62-.466-1.106-.466-.35 0-.719.188-.719.512 0 .378.27.575.72.755 1.07.431 2.085.863 2.085 2.238" mask="url(#b)"/>
        </g>
        <path fill="#1D2258" d="M10.341 56.852l-.845-2.014-.845 2.014h1.69zm.432 1.007H8.219l-.359.863H6.62l2.876-6.473 2.877 6.473h-1.241l-.359-.863zM16.26 52.393v5.25h2.157v1.079H15.11v-6.329z"/>
        <g transform="translate(21.322 57.393)">
            <mask id="d" fill="#fff">
                <use xlink:href="#c"/>
            </mask>
            <path fill="#1D2258" d="M.118.178h1.15L.838 2.48h-.72z" mask="url(#d)"/>
        </g>
        <path fill="#1D2258" d="M34.677 56.906c0 1.006-.845 1.888-2.122 1.888-1.204 0-2.04-.9-2.193-1.151l.665-.81c.45.585 1.025.882 1.528.882.584 0 .971-.386.971-.755 0-.54-.369-.863-.863-1.053-1.294-.493-1.941-1.006-1.941-1.994 0-.918.826-1.592 1.887-1.592.198 0 .917-.035 1.717.701l-.63.845c-.278-.251-.62-.467-1.105-.467-.35 0-.719.189-.719.513 0 .377.27.575.719.755 1.07.431 2.086.863 2.086 2.238"/>
        <mask id="f" fill="#fff">
            <use xlink:href="#e"/>
        </mask>
        <path fill="#1D2258" d="M37.7 58.722h1.15v-6.329H37.7zM43.311 53.472v1.906h1.583v1.078H43.31v1.187h2.158v1.079H42.16v-6.329h3.308v1.079zM53.095 52.393v6.473l-3.309-3.668v3.524h-1.15V52.25l3.308 3.667v-3.524zM59.858 52.393v1.079h-1.294v5.25h-1.151v-5.25h-1.294v-1.079zM64.032 53.472v1.906h1.582v1.078h-1.582v1.187h2.157v1.079H62.88v-6.329h3.308v1.079zM69.357 57.57h1.15l-.431 2.303h-.72zM83.744 52.393l-2.877 6.473-2.877-6.473h1.295l1.582 3.74 1.583-3.74zM86.336 58.722h1.15v-6.329h-1.15zM95.83 52.393l-2.876 6.473-2.877-6.473h1.295l1.582 3.74 1.583-3.74zM99.574 53.472v1.906h1.582v1.078h-1.582v1.187h2.158v1.079h-3.309v-6.329h3.309v1.079zM114.213 57.283l.612.863c-.521.424-1.241.648-1.915.648-1.924 0-3.407-1.448-3.407-3.236 0-1.79 1.483-3.237 3.407-3.237.674 0 1.394.225 1.915.648l-.612.862a2.197 2.197 0 0 0-1.294-.431c-1.16 0-2.266.773-2.266 2.158 0 1.384 1.106 2.157 2.266 2.157.503 0 .926-.153 1.294-.432M122.02 52.393v3.955c0 1.564-.953 2.446-2.158 2.446-1.24 0-2.157-.882-2.157-2.446v-3.955h1.151v4.027c0 .98.503 1.295 1.006 1.295.46 0 1.007-.324 1.007-1.295v-4.027h1.15zM126.482 52.393v5.25h2.157v1.079h-3.307v-6.329zM134.467 52.393v1.079h-1.294v5.25h-1.15v-5.25h-1.295v-1.079zM141.805 52.393v3.955c0 1.564-.953 2.446-2.157 2.446-1.24 0-2.158-.882-2.158-2.446v-3.955h1.15v4.027c0 .98.504 1.295 1.008 1.295.458 0 1.007-.324 1.007-1.295v-4.027h1.15zM146.6 55.701c.62 0 1.105-.485 1.105-1.114 0-.702-.485-1.115-1.105-1.115h-.333v2.23h.333zm1.105 3.021l-.962-1.951c-.062.009-.134.009-.206.009h-.27v1.942h-1.15v-6.33h1.276c1.708 0 2.463 1.026 2.463 2.195 0 .773-.396 1.482-1.07 1.878L149 58.722h-1.295zM155.17 56.852l-.846-2.014-.844 2.014h1.69zm.431 1.007h-2.553l-.36.863h-1.24l2.876-6.473 2.877 6.473h-1.24l-.36-.863zM24.986 32.234v-11.17H11.333V7.41h18.618V.001H0v45.504h11.332v-13.27zM135.403 35.85l6.67 9.655h14.786l-13.777-18.577 14.119-16.523h-14.894l-9.93 12.722V0h-12.411v45.505h12.412v-6.088zM53.306 40.594a8.674 8.674 0 0 1-8.688-8.688 8.674 8.674 0 0 1 8.688-8.688 8.674 8.674 0 0 1 8.688 8.688 8.674 8.674 0 0 1-8.688 8.688m21.1-8.688c0-11.016-9.31-19.859-21.1-19.859-12.645 0-21.1 8.843-21.1 19.859 0 5.277 1.98 10.052 5.413 13.599H68.8c3.502-3.547 5.607-8.322 5.607-13.6M94.177 38.102V0H81.765v45.505h31.326v-7.403z" mask="url(#f)"/>
    </g>
</svg>
