<?xml version="1.0" encoding="utf-8"?>
<!-- Generator: Adobe Illustrator 16.0.3, SVG Export Plug-In . SVG Version: 6.00 Build 0)  -->
<!DOCTYPE svg PUBLIC "-//W3C//DTD SVG 1.1//EN" "http://www.w3.org/Graphics/SVG/1.1/DTD/svg11.dtd">
<svg version="1.1" id="Capa_1" xmlns="http://www.w3.org/2000/svg" xmlns:xlink="http://www.w3.org/1999/xlink" x="0px" y="0px"
	 width="400px" height="400px" viewBox="0 0 400 400" enable-background="new 0 0 400 400" xml:space="preserve">
<rect fill="none" width="399.996" height="400"/>
<g>
	<g>
		<g>
			<g>
				<g>
					<path fill="#8F90AA" d="M89.454,190.083c-0.254-0.041-0.57-0.082-0.926-0.114c-0.353-0.033-0.66-0.042-0.938-0.042
						c-1.017,0-1.842,0.181-2.463,0.509c-0.631,0.352-1.1,0.844-1.395,1.483v12.704h-5.188v-19.417h4.906l0.139,2.32
						c0.488-0.845,1.091-1.492,1.816-1.976c0.717-0.476,1.545-0.705,2.507-0.705c0.275,0,0.565,0.024,0.877,0.082
						c0.304,0.066,0.549,0.09,0.739,0.147L89.454,190.083z"/>
					<path fill="#8F90AA" d="M100.552,204.984c-1.514,0-2.857-0.238-4.049-0.73c-1.193-0.483-2.201-1.164-3.033-2.016
						c-0.828-0.845-1.47-1.845-1.906-2.976c-0.442-1.147-0.656-2.385-0.656-3.688v-0.705c0-1.459,0.214-2.82,0.639-4.024
						c0.427-1.23,1.034-2.279,1.812-3.18c0.783-0.877,1.741-1.574,2.852-2.082c1.123-0.492,2.377-0.737,3.762-0.737
						c1.393,0,2.631,0.229,3.697,0.688c1.065,0.476,1.95,1.115,2.679,1.943c0.722,0.836,1.274,1.835,1.632,3.007
						c0.359,1.172,0.549,2.476,0.549,3.91v2.213H96.158c0.086,0.615,0.257,1.197,0.513,1.721c0.257,0.508,0.59,0.943,0.991,1.319
						c0.402,0.37,0.869,0.656,1.406,0.845c0.536,0.205,1.147,0.319,1.812,0.319c0.941,0,1.818-0.188,2.615-0.533
						c0.798-0.361,1.492-0.893,2.065-1.663l2.543,2.869c-0.307,0.434-0.692,0.877-1.164,1.277c-0.472,0.436-1.016,0.812-1.652,1.131
						c-0.635,0.337-1.347,0.6-2.143,0.787C102.367,204.885,101.493,204.984,100.552,204.984z M99.957,189.05
						c-0.561,0-1.062,0.098-1.479,0.295c-0.43,0.205-0.786,0.484-1.094,0.835c-0.312,0.345-0.549,0.763-0.745,1.254
						c-0.189,0.5-0.328,1.049-0.414,1.64h7.221v-0.411c-0.021-0.507-0.086-0.983-0.229-1.442c-0.135-0.426-0.344-0.828-0.628-1.139
						c-0.282-0.32-0.648-0.582-1.082-0.762C101.079,189.14,100.555,189.05,99.957,189.05z"/>
					<path fill="#8F90AA" d="M128.975,195.1c0,1.467-0.155,2.794-0.472,3.999c-0.307,1.213-0.775,2.255-1.401,3.123
						c-0.631,0.868-1.409,1.558-2.36,2.041c-0.946,0.483-2.049,0.722-3.31,0.722c-1.127,0-2.104-0.215-2.923-0.641
						c-0.824-0.418-1.528-1.023-2.135-1.787l-0.229,2.066h-4.664v-27.572h5.183v9.893c0.582-0.664,1.259-1.172,2.024-1.549
						c0.771-0.385,1.673-0.549,2.705-0.549c1.258,0,2.377,0.237,3.323,0.729c0.948,0.492,1.738,1.164,2.369,2.049
						c0.636,0.877,1.114,1.91,1.426,3.122c0.308,1.213,0.463,2.533,0.463,3.967V195.1L128.975,195.1z M123.792,194.714
						c0-0.763-0.046-1.492-0.16-2.188c-0.107-0.664-0.303-1.278-0.582-1.794c-0.284-0.508-0.669-0.901-1.144-1.213
						c-0.475-0.303-1.09-0.442-1.836-0.442c-0.872,0-1.586,0.172-2.138,0.524c-0.55,0.353-0.976,0.845-1.279,1.492v7.663
						c0.303,0.656,0.729,1.156,1.279,1.524c0.552,0.344,1.274,0.533,2.163,0.533c0.738,0,1.345-0.147,1.812-0.426
						c0.475-0.312,0.852-0.688,1.136-1.188c0.279-0.509,0.475-1.107,0.585-1.804c0.107-0.705,0.16-1.467,0.16-2.286v-0.394H123.792z
						"/>
					<path fill="#8F90AA" d="M143.433,204.631c-0.242-0.459-0.414-1.049-0.521-1.746c-0.524,0.591-1.192,1.091-1.983,1.5
						c-0.796,0.41-1.771,0.607-2.918,0.607c-0.939,0-1.803-0.14-2.614-0.435c-0.805-0.287-1.508-0.681-2.099-1.196
						c-0.587-0.51-1.057-1.131-1.39-1.853c-0.345-0.697-0.504-1.467-0.504-2.319c0-1.024,0.189-1.935,0.565-2.722
						c0.377-0.778,0.939-1.459,1.689-2.008c0.758-0.557,1.688-0.967,2.811-1.254c1.123-0.295,2.418-0.426,3.905-0.426h2.312v-1.124
						c0-0.885-0.229-1.615-0.688-2.155c-0.455-0.533-1.188-0.803-2.184-0.803c-0.874,0-1.558,0.204-2.041,0.622
						c-0.509,0.435-0.755,1.008-0.755,1.729h-5.188c0-0.844,0.196-1.63,0.59-2.393c0.381-0.754,0.938-1.41,1.655-1.976
						c0.717-0.557,1.586-1.008,2.606-1.336c1.012-0.335,2.148-0.491,3.406-0.491c1.131,0,2.168,0.139,3.13,0.426
						c0.956,0.287,1.784,0.721,2.471,1.287c0.701,0.574,1.238,1.278,1.627,2.139c0.386,0.853,0.582,1.845,0.582,2.992v8.213
						c0,0.557,0.021,1.048,0.049,1.483c0.036,0.442,0.091,0.828,0.14,1.188c0.056,0.336,0.144,0.664,0.237,0.943
						c0.091,0.277,0.213,0.557,0.345,0.803v0.303H143.433L143.433,204.631z M139.142,201.025c0.442,0,0.853-0.059,1.225-0.164
						c0.377-0.107,0.713-0.246,1.012-0.402c0.3-0.181,0.565-0.41,0.787-0.623c0.223-0.221,0.399-0.443,0.529-0.688v-3.344h-2.14
						c-0.679,0-1.269,0.082-1.782,0.229c-0.504,0.14-0.913,0.353-1.241,0.631c-0.316,0.262-0.554,0.582-0.709,0.942
						c-0.157,0.369-0.229,0.771-0.229,1.197c0,0.648,0.221,1.18,0.671,1.59C137.728,200.812,138.356,201.025,139.142,201.025z"/>
					<path fill="#8F90AA" d="M157.377,185.214v20.507c0,1.073-0.155,2.049-0.458,2.893c-0.295,0.844-0.722,1.558-1.288,2.139
						c-0.565,0.565-1.258,1-2.069,1.295c-0.816,0.296-1.759,0.427-2.815,0.427c-0.427,0-0.857-0.017-1.279-0.065
						c-0.417-0.05-0.853-0.14-1.283-0.238v-4.105c0.275,0.04,0.554,0.082,0.813,0.106c0.265,0.041,0.549,0.058,0.819,0.058
						c0.758,0,1.34-0.197,1.741-0.606c0.405-0.395,0.615-1.05,0.615-1.901v-20.507H157.377z M151.76,180.166
						c0-0.762,0.262-1.385,0.783-1.901c0.516-0.5,1.222-0.763,2.124-0.763c0.896,0,1.605,0.262,2.121,0.763
						c0.524,0.517,0.783,1.155,0.783,1.901c0,0.418-0.066,0.771-0.204,1.106c-0.14,0.345-0.341,0.615-0.587,0.853
						c-0.257,0.246-0.557,0.426-0.922,0.558c-0.353,0.139-0.758,0.196-1.197,0.196c-0.447,0-0.844-0.057-1.2-0.196
						c-0.361-0.123-0.668-0.312-0.915-0.558c-0.254-0.238-0.45-0.508-0.59-0.853C151.82,180.937,151.76,180.584,151.76,180.166z"/>
					<path fill="#8F90AA" d="M172.68,204.631c-0.246-0.459-0.405-1.049-0.516-1.746c-0.526,0.591-1.185,1.091-1.984,1.5
						c-0.798,0.41-1.766,0.607-2.921,0.607c-0.938,0-1.803-0.14-2.606-0.435c-0.808-0.287-1.512-0.681-2.099-1.196
						c-0.602-0.51-1.062-1.131-1.393-1.853c-0.336-0.697-0.504-1.467-0.504-2.319c0-1.024,0.188-1.935,0.562-2.722
						c0.381-0.778,0.946-1.459,1.696-2.008c0.753-0.557,1.693-0.967,2.808-1.254c1.118-0.295,2.421-0.426,3.905-0.426h2.314v-1.124
						c0-0.885-0.232-1.615-0.688-2.155c-0.468-0.533-1.186-0.803-2.184-0.803c-0.877,0-1.558,0.204-2.058,0.622
						c-0.493,0.435-0.738,1.008-0.738,1.729h-5.188c0-0.844,0.193-1.63,0.587-2.393c0.384-0.754,0.941-1.41,1.658-1.976
						c0.717-0.557,1.578-1.008,2.603-1.336c1.021-0.335,2.16-0.491,3.409-0.491c1.127,0,2.16,0.139,3.127,0.426
						c0.955,0.287,1.782,0.721,2.476,1.287c0.692,0.574,1.236,1.278,1.622,2.139c0.389,0.853,0.582,1.845,0.582,2.992v8.213
						c0,0.557,0.017,1.048,0.058,1.483c0.036,0.442,0.086,0.828,0.144,1.188c0.053,0.353,0.138,0.664,0.229,0.943
						c0.091,0.277,0.205,0.557,0.336,0.803v0.303H172.68L172.68,204.631z M168.393,201.025c0.443,0,0.857-0.059,1.227-0.164
						c0.381-0.107,0.72-0.246,1.012-0.402c0.298-0.181,0.565-0.41,0.786-0.623c0.221-0.221,0.394-0.443,0.533-0.688v-3.344h-2.135
						c-0.688,0-1.278,0.082-1.787,0.229c-0.5,0.14-0.905,0.353-1.238,0.631c-0.326,0.262-0.557,0.582-0.717,0.942
						c-0.152,0.369-0.237,0.771-0.237,1.197c0,0.648,0.229,1.18,0.689,1.59C166.983,200.812,167.603,201.025,168.393,201.025z"/>
					<path fill="#8F90AA" d="M186.163,180.511v4.704h3.626v2.558h-3.626v12.048c0,0.5,0.053,0.902,0.171,1.206
						c0.124,0.319,0.279,0.549,0.483,0.704c0.193,0.173,0.419,0.278,0.681,0.337c0.253,0.057,0.529,0.081,0.803,0.081
						c0.275,0,0.562-0.024,0.865-0.081c0.303-0.059,0.544-0.092,0.709-0.131v2.688c-0.262,0.082-0.607,0.146-1.021,0.238
						c-0.418,0.09-0.931,0.123-1.528,0.123c-0.611,0-1.185-0.092-1.737-0.254c-0.538-0.189-1.012-0.468-1.428-0.877
						c-0.4-0.42-0.729-0.943-0.966-1.615c-0.246-0.656-0.366-1.476-0.366-2.443v-12.023h-3.536v-2.558h3.536v-4.704H186.163
						L186.163,180.511z"/>
					<path fill="#8F90AA" d="M205.653,202.713c-0.615,0.713-1.382,1.271-2.309,1.672c-0.942,0.402-2.061,0.6-3.376,0.6
						c-0.964,0-1.825-0.132-2.606-0.395c-0.775-0.279-1.447-0.697-2.013-1.287c-0.562-0.573-0.996-1.319-1.299-2.221
						c-0.307-0.917-0.463-2.04-0.463-3.328v-12.54h3.323v12.573c0,0.885,0.102,1.606,0.3,2.172c0.205,0.574,0.472,1.008,0.814,1.345
						c0.333,0.336,0.717,0.558,1.144,0.68c0.439,0.14,0.885,0.197,1.332,0.197c1.357,0,2.438-0.263,3.258-0.771
						c0.819-0.524,1.423-1.205,1.8-2.058v-14.138h3.318v19.417h-3.155L205.653,202.713z"/>
					<path fill="#8F90AA" d="M225.241,199.484c0-0.369-0.058-0.697-0.156-1.024c-0.115-0.312-0.319-0.615-0.64-0.894
						c-0.314-0.287-0.77-0.55-1.356-0.787c-0.59-0.246-1.36-0.451-2.314-0.655c-1.075-0.23-2.046-0.492-2.906-0.812
						c-0.86-0.312-1.598-0.68-2.201-1.131c-0.606-0.434-1.073-0.935-1.388-1.549c-0.325-0.606-0.484-1.278-0.484-2.098
						c0-0.771,0.165-1.5,0.509-2.172c0.343-0.688,0.823-1.287,1.446-1.82c0.623-0.516,1.376-0.934,2.262-1.246
						c0.89-0.295,1.877-0.451,2.959-0.451c1.163,0,2.2,0.156,3.113,0.484c0.91,0.303,1.693,0.746,2.336,1.303
						c0.632,0.541,1.133,1.188,1.464,1.917c0.323,0.73,0.5,1.508,0.5,2.36h-3.34c0-0.385-0.089-0.786-0.266-1.188
						c-0.177-0.401-0.438-0.762-0.788-1.089c-0.351-0.312-0.77-0.574-1.27-0.771c-0.518-0.18-1.086-0.287-1.75-0.287
						c-0.685,0-1.277,0.083-1.763,0.246c-0.491,0.155-0.88,0.377-1.196,0.631c-0.307,0.278-0.536,0.582-0.68,0.918
						c-0.14,0.345-0.214,0.688-0.214,1.058c0,0.36,0.058,0.68,0.176,0.967c0.119,0.287,0.345,0.557,0.685,0.771
						c0.336,0.238,0.783,0.451,1.378,0.647c0.577,0.205,1.327,0.394,2.249,0.615c1.185,0.27,2.209,0.582,3.086,0.91
						c0.873,0.352,1.591,0.763,2.172,1.229c0.571,0.467,0.999,0.993,1.274,1.583c0.279,0.606,0.422,1.287,0.422,2.089
						c0,0.836-0.176,1.624-0.523,2.336c-0.349,0.696-0.861,1.303-1.525,1.803c-0.647,0.5-1.438,0.894-2.368,1.172
						c-0.919,0.279-1.942,0.418-3.065,0.418c-1.29,0-2.43-0.172-3.425-0.532c-0.984-0.36-1.816-0.837-2.477-1.427
						c-0.672-0.59-1.184-1.27-1.533-2.032c-0.344-0.746-0.519-1.524-0.519-2.336h3.318c0.038,0.672,0.197,1.263,0.496,1.722
						c0.295,0.45,0.659,0.828,1.098,1.114c0.438,0.278,0.935,0.491,1.464,0.615c0.527,0.122,1.045,0.171,1.569,0.171
						c0.685,0,1.277-0.072,1.799-0.204c0.513-0.14,0.946-0.353,1.299-0.606c0.353-0.246,0.623-0.541,0.794-0.885
						C225.146,200.246,225.241,199.877,225.241,199.484z"/>
					<path fill="#8F90AA" d="M240.44,200.812c0.479,0,0.918-0.073,1.303-0.213c0.394-0.131,0.746-0.32,1.025-0.565
						c0.286-0.262,0.507-0.565,0.672-0.926c0.163-0.353,0.249-0.738,0.258-1.18h4.864c-0.012,1.024-0.229,1.976-0.643,2.836
						c-0.419,0.877-0.996,1.623-1.71,2.245c-0.717,0.631-1.558,1.115-2.537,1.459c-0.979,0.345-2.027,0.525-3.146,0.525
						c-1.512,0-2.827-0.246-3.95-0.763c-1.124-0.509-2.049-1.205-2.799-2.082c-0.75-0.886-1.296-1.91-1.668-3.105
						c-0.378-1.188-0.558-2.467-0.558-3.853v-0.509c0-1.376,0.185-2.671,0.558-3.843c0.372-1.205,0.918-2.238,1.668-3.14
						c0.75-0.885,1.675-1.582,2.782-2.089c1.123-0.517,2.426-0.762,3.931-0.762c1.2,0,2.281,0.164,3.273,0.524
						c0.992,0.361,1.837,0.869,2.545,1.525c0.709,0.664,1.25,1.451,1.647,2.385c0.397,0.951,0.604,2,0.614,3.172h-4.864
						c-0.017-0.467-0.094-0.927-0.245-1.32c-0.144-0.418-0.361-0.779-0.635-1.09c-0.271-0.295-0.623-0.549-1.018-0.721
						c-0.414-0.181-0.88-0.271-1.404-0.271c-0.755,0-1.365,0.164-1.85,0.467c-0.475,0.312-0.853,0.729-1.123,1.254
						c-0.265,0.508-0.454,1.115-0.544,1.795c-0.09,0.688-0.143,1.393-0.143,2.114v0.509c0,0.738,0.053,1.459,0.143,2.139
						c0.095,0.673,0.279,1.279,0.544,1.795c0.268,0.516,0.64,0.926,1.123,1.213C239.034,200.648,239.662,200.812,240.44,200.812z"/>
					<path fill="#8F90AA" d="M263.163,202.664c-0.606,0.729-1.352,1.303-2.229,1.705c-0.869,0.418-1.901,0.615-3.081,0.615
						c-0.965,0-1.842-0.132-2.623-0.395c-0.791-0.279-1.472-0.697-2.041-1.287c-0.57-0.573-1.012-1.319-1.32-2.221
						c-0.303-0.917-0.463-2.024-0.463-3.303v-12.565h5.185v12.598c0,0.549,0.074,0.992,0.209,1.386
						c0.13,0.376,0.328,0.696,0.577,0.917c0.242,0.222,0.529,0.418,0.869,0.508c0.336,0.115,0.708,0.172,1.114,0.172
						c0.931,0,1.692-0.172,2.288-0.483c0.576-0.328,1.028-0.787,1.343-1.344v-13.753h5.21v19.417h-4.89L263.163,202.664z"/>
					<path fill="#8F90AA" d="M281.047,204.984c-1.508,0-2.864-0.238-4.057-0.73c-1.184-0.483-2.195-1.164-3.028-2.016
						c-0.836-0.845-1.472-1.845-1.914-2.976c-0.427-1.156-0.655-2.385-0.655-3.688v-0.705c0-1.459,0.221-2.82,0.639-4.024
						c0.428-1.23,1.029-2.279,1.815-3.18c0.788-0.877,1.737-1.574,2.856-2.082c1.12-0.492,2.369-0.737,3.759-0.737
						c1.393,0,2.631,0.229,3.696,0.688c1.064,0.476,1.966,1.115,2.675,1.943c0.723,0.836,1.271,1.835,1.644,3.007
						c0.361,1.172,0.546,2.476,0.546,3.91v2.213h-12.368c0.086,0.615,0.262,1.197,0.508,1.721c0.25,0.508,0.587,0.943,0.983,1.319
						c0.397,0.37,0.874,0.656,1.406,0.845c0.541,0.205,1.143,0.319,1.815,0.319c0.942,0,1.819-0.188,2.619-0.533
						c0.798-0.361,1.487-0.893,2.061-1.663l2.549,2.869c-0.312,0.434-0.695,0.877-1.159,1.277c-0.477,0.436-1.021,0.812-1.656,1.131
						c-0.639,0.337-1.344,0.6-2.146,0.787C282.854,204.885,281.985,204.984,281.047,204.984z M280.454,189.05
						c-0.57,0-1.054,0.098-1.489,0.295c-0.422,0.205-0.786,0.484-1.094,0.835c-0.302,0.345-0.55,0.763-0.745,1.254
						c-0.193,0.5-0.332,1.049-0.411,1.64h7.217v-0.411c-0.008-0.507-0.094-0.983-0.226-1.442c-0.135-0.426-0.348-0.828-0.63-1.139
						c-0.278-0.32-0.64-0.582-1.078-0.762S281.047,189.05,280.454,189.05z"/>
					<path fill="#8F90AA" d="M296.742,185.214l0.168,2.238c0.673-0.852,1.476-1.483,2.419-1.918c0.959-0.459,1.999-0.68,3.163-0.68
						c0.918,0,1.762,0.139,2.516,0.393c0.755,0.246,1.395,0.672,1.936,1.262c0.54,0.582,0.949,1.344,1.246,2.287
						c0.293,0.951,0.441,2.106,0.441,3.483v12.351h-5.18v-12.384c0-0.624-0.074-1.139-0.206-1.533
						c-0.138-0.41-0.334-0.746-0.604-0.967c-0.272-0.254-0.59-0.41-0.976-0.524c-0.378-0.091-0.819-0.147-1.329-0.147
						c-0.762,0-1.418,0.164-1.958,0.5c-0.55,0.343-0.991,0.794-1.319,1.368v13.687h-5.195v-19.408h4.879V185.214z"/>
					<path fill="#8F90AA" d="M318.761,180.428v4.778h3.328v3.803h-3.328v9.696c0,0.393,0.058,0.746,0.132,1
						c0.089,0.271,0.213,0.476,0.376,0.615c0.165,0.156,0.378,0.254,0.623,0.303c0.246,0.057,0.532,0.082,0.869,0.082
						c0.312,0,0.598-0.008,0.852-0.033c0.265-0.023,0.493-0.057,0.673-0.073v3.926c-0.425,0.14-0.901,0.237-1.401,0.328
						c-0.516,0.099-1.089,0.132-1.729,0.132c-0.853,0-1.616-0.1-2.304-0.313c-0.681-0.205-1.271-0.541-1.745-0.991
						c-0.493-0.45-0.869-1.058-1.123-1.778c-0.255-0.738-0.402-1.615-0.402-2.64v-10.253h-2.835v-3.803h2.835v-4.778H318.761z"/>
					<path fill="#8F90AA" d="M336.234,204.631c-0.245-0.459-0.408-1.049-0.524-1.746c-0.523,0.591-1.18,1.091-1.982,1.5
						c-0.786,0.41-1.771,0.607-2.918,0.607c-0.927,0-1.804-0.14-2.606-0.435c-0.803-0.287-1.508-0.681-2.106-1.196
						c-0.59-0.51-1.057-1.131-1.394-1.853c-0.336-0.697-0.499-1.467-0.499-2.319c0-1.024,0.18-1.935,0.565-2.722
						c0.367-0.778,0.941-1.459,1.696-2.008c0.753-0.557,1.688-0.967,2.803-1.254c1.122-0.295,2.426-0.426,3.901-0.426h2.312v-1.124
						c0-0.885-0.229-1.615-0.689-2.155c-0.458-0.533-1.18-0.803-2.179-0.803c-0.877,0-1.559,0.204-2.058,0.622
						c-0.493,0.435-0.747,1.008-0.747,1.729h-5.18c0-0.844,0.196-1.63,0.591-2.393c0.386-0.754,0.935-1.41,1.655-1.976
						c0.722-0.557,1.574-1.008,2.605-1.336c1.018-0.335,2.156-0.491,3.411-0.491c1.131,0,2.163,0.139,3.13,0.426
						c0.951,0.287,1.787,0.721,2.477,1.287c0.688,0.574,1.244,1.278,1.63,2.139c0.386,0.853,0.582,1.845,0.582,2.992v8.213
						c0,0.557,0.009,1.048,0.05,1.483c0.033,0.442,0.081,0.828,0.146,1.188c0.05,0.353,0.132,0.664,0.229,0.943
						c0.099,0.277,0.214,0.557,0.345,0.803v0.303H336.234L336.234,204.631z M331.948,201.025c0.442,0,0.853-0.059,1.222-0.164
						c0.385-0.107,0.721-0.246,1.016-0.402c0.312-0.181,0.565-0.41,0.788-0.623c0.221-0.221,0.393-0.443,0.524-0.688v-3.344h-2.132
						c-0.689,0-1.286,0.082-1.787,0.229c-0.499,0.14-0.918,0.353-1.237,0.631c-0.327,0.262-0.558,0.582-0.713,0.942
						c-0.164,0.369-0.237,0.771-0.237,1.197c0,0.648,0.229,1.18,0.68,1.59C330.531,200.812,331.154,201.025,331.948,201.025z"/>
					<path fill="#8F90AA" d="M355.2,199.263c0-0.279-0.05-0.524-0.163-0.746c-0.099-0.237-0.304-0.442-0.606-0.64
						c-0.295-0.188-0.706-0.385-1.214-0.565c-0.523-0.171-1.196-0.36-1.991-0.524c-1.009-0.213-1.927-0.484-2.763-0.811
						c-0.836-0.328-1.572-0.714-2.188-1.205c-0.615-0.467-1.09-1.024-1.435-1.664c-0.36-0.623-0.523-1.36-0.523-2.197
						c0-0.819,0.171-1.59,0.523-2.311c0.361-0.738,0.869-1.385,1.525-1.942c0.671-0.55,1.481-0.992,2.441-1.312
						c0.968-0.335,2.058-0.483,3.262-0.483c1.263,0,2.386,0.148,3.377,0.468c1.017,0.303,1.869,0.746,2.566,1.294
						c0.695,0.558,1.228,1.221,1.613,1.983c0.378,0.762,0.574,1.606,0.574,2.524h-5.196c0-0.754-0.237-1.369-0.722-1.852
						c-0.475-0.484-1.22-0.73-2.229-0.73c-0.886,0-1.559,0.197-2.033,0.598c-0.482,0.386-0.722,0.894-0.722,1.5
						c0,0.295,0.065,0.558,0.189,0.779c0.122,0.212,0.328,0.41,0.606,0.598c0.287,0.188,0.648,0.36,1.106,0.508
						c0.475,0.156,1.032,0.303,1.704,0.442c1.049,0.189,2.033,0.451,2.935,0.754c0.885,0.303,1.672,0.68,2.319,1.139
						c0.647,0.484,1.164,1.058,1.541,1.729c0.361,0.681,0.549,1.492,0.549,2.443c0,0.869-0.195,1.655-0.573,2.393
						c-0.402,0.729-0.935,1.345-1.646,1.868c-0.714,0.533-1.574,0.943-2.583,1.238c-0.999,0.312-2.13,0.451-3.368,0.451
						c-1.352,0-2.565-0.181-3.615-0.574c-1.032-0.394-1.909-0.893-2.623-1.516c-0.712-0.623-1.244-1.32-1.605-2.091
						c-0.353-0.778-0.54-1.565-0.54-2.352h4.925c0.025,0.508,0.131,0.934,0.337,1.303c0.196,0.352,0.458,0.655,0.77,0.885
						c0.328,0.221,0.706,0.401,1.131,0.5c0.419,0.105,0.869,0.155,1.329,0.155c0.999,0,1.754-0.181,2.262-0.565
						C354.955,200.361,355.2,199.877,355.2,199.263z"/>
				</g>
				<g>
					<path fill="#8F90AA" d="M361.938,203.893c0-0.27,0.082-0.49,0.229-0.662c0.164-0.173,0.41-0.279,0.729-0.279
						c0.313,0,0.55,0.106,0.713,0.279c0.164,0.172,0.247,0.408,0.247,0.662c0,0.247-0.083,0.468-0.247,0.632
						c-0.163,0.188-0.4,0.271-0.713,0.271c-0.319,0-0.565-0.082-0.729-0.271C362.02,204.369,361.938,204.14,361.938,203.893z"/>
					<path fill="#8F90AA" d="M370.035,203.606c0.278,0,0.532-0.033,0.779-0.131c0.254-0.099,0.483-0.213,0.671-0.368
						c0.189-0.156,0.353-0.346,0.468-0.551c0.114-0.221,0.196-0.449,0.213-0.704h1.459c-0.017,0.401-0.132,0.796-0.319,1.147
						c-0.205,0.361-0.467,0.681-0.778,0.943c-0.328,0.286-0.706,0.516-1.131,0.663c-0.427,0.163-0.886,0.255-1.346,0.255
						c-0.687,0-1.277-0.124-1.786-0.369c-0.5-0.238-0.917-0.566-1.262-0.984c-0.328-0.4-0.59-0.885-0.755-1.426
						c-0.163-0.549-0.245-1.131-0.245-1.745V200c0-0.607,0.082-1.18,0.245-1.729c0.165-0.557,0.427-1.024,0.755-1.442
						c0.328-0.402,0.762-0.721,1.253-0.984c0.501-0.229,1.092-0.352,1.771-0.352c0.534,0,1.018,0.073,1.442,0.254
						c0.436,0.156,0.813,0.385,1.124,0.68c0.312,0.295,0.558,0.639,0.745,1.041c0.172,0.409,0.271,0.836,0.287,1.287h-1.459
						c-0.024-0.279-0.091-0.524-0.196-0.77c-0.115-0.254-0.262-0.459-0.443-0.631c-0.18-0.189-0.4-0.336-0.647-0.435
						c-0.254-0.106-0.532-0.156-0.86-0.156c-0.475,0-0.869,0.099-1.181,0.295c-0.312,0.188-0.573,0.434-0.762,0.746
						c-0.188,0.303-0.328,0.64-0.417,1.041c-0.065,0.393-0.115,0.771-0.115,1.172v0.344c0,0.393,0.05,0.787,0.115,1.18
						c0.089,0.377,0.229,0.721,0.409,1.041c0.196,0.303,0.451,0.549,0.77,0.738C369.149,203.517,369.552,203.606,370.035,203.606z"
						/>
					<path fill="#8F90AA" d="M374.952,200.09c0-0.639,0.099-1.254,0.295-1.819c0.182-0.557,0.452-1.049,0.821-1.458
						c0.343-0.402,0.778-0.729,1.285-0.968c0.502-0.221,1.075-0.344,1.713-0.344c0.632,0,1.205,0.123,1.715,0.344
						c0.508,0.238,0.941,0.566,1.302,0.968c0.354,0.409,0.624,0.901,0.819,1.458c0.19,0.565,0.279,1.172,0.279,1.819v0.188
						c0,0.648-0.089,1.279-0.279,1.844c-0.195,0.549-0.466,1.033-0.819,1.435c-0.36,0.401-0.794,0.729-1.302,0.959
						c-0.501,0.229-1.075,0.36-1.715,0.36c-0.623,0-1.196-0.131-1.704-0.36s-0.943-0.558-1.294-0.959
						c-0.369-0.401-0.64-0.886-0.821-1.435c-0.196-0.565-0.295-1.18-0.295-1.844V200.09L374.952,200.09z M376.51,200.287
						c0,0.451,0.05,0.869,0.165,1.287c0.098,0.393,0.262,0.746,0.475,1.049c0.213,0.312,0.483,0.541,0.803,0.721
						c0.312,0.182,0.689,0.263,1.114,0.263c0.428,0,0.813-0.081,1.131-0.263c0.32-0.18,0.584-0.426,0.805-0.721
						c0.204-0.303,0.376-0.648,0.475-1.049c0.115-0.418,0.165-0.836,0.165-1.287v-0.18c0-0.451-0.05-0.869-0.165-1.279
						c-0.099-0.401-0.278-0.754-0.491-1.057c-0.204-0.32-0.477-0.549-0.803-0.738c-0.319-0.164-0.697-0.254-1.116-0.254
						c-0.425,0-0.803,0.09-1.114,0.254c-0.319,0.188-0.59,0.418-0.803,0.738c-0.213,0.303-0.377,0.656-0.475,1.057
						c-0.115,0.41-0.165,0.828-0.165,1.279V200.287L376.51,200.287z"/>
					<path fill="#8F90AA" d="M386.575,195.657l0.031,1.008c0.312-0.369,0.697-0.656,1.133-0.86c0.45-0.197,0.966-0.303,1.557-0.303
						c0.59,0,1.099,0.123,1.541,0.344c0.441,0.23,0.795,0.59,1.032,1.107c0.312-0.435,0.688-0.779,1.163-1.058
						c0.485-0.262,1.067-0.393,1.723-0.393c0.476,0,0.9,0.065,1.278,0.188c0.377,0.123,0.697,0.319,0.951,0.582
						c0.254,0.271,0.458,0.606,0.59,1.017c0.13,0.417,0.204,0.901,0.204,1.474v5.951h-1.548v-5.975c0-0.361-0.049-0.672-0.132-0.935
						c-0.099-0.237-0.221-0.442-0.386-0.598c-0.171-0.14-0.376-0.254-0.615-0.312c-0.237-0.065-0.499-0.09-0.794-0.09
						c-0.312,0-0.599,0.058-0.844,0.139c-0.246,0.115-0.45,0.237-0.632,0.418c-0.172,0.147-0.319,0.369-0.417,0.59
						c-0.099,0.229-0.165,0.484-0.189,0.746v6.016h-1.557v-5.958c0-0.335-0.041-0.639-0.132-0.893
						c-0.099-0.23-0.221-0.442-0.402-0.606c-0.163-0.156-0.367-0.262-0.598-0.336c-0.237-0.09-0.5-0.114-0.795-0.114
						c-0.558,0-0.999,0.123-1.327,0.36c-0.336,0.238-0.59,0.55-0.771,0.927v6.622h-1.531v-9.056H386.575z"/>
				</g>
			</g>
		</g>
		<path fill="#8F90AA" d="M3.097,171.757v24.662c0,8.499,3.311,16.481,9.327,22.506c6.016,6.016,14.011,9.327,22.498,9.327
			c17.547,0,31.821-14.277,31.821-31.833c0-16.458-12.86-30.399-29.285-31.71l-1.38-0.115l-0.627-3.311l-13.486,9.204l16.437,6.467
			l-0.513-3.41l2.656,0.672c10.184,2.573,17.286,11.711,17.286,22.203c0,12.646-10.278,22.932-22.917,22.932
			c-12.635,0-22.92-10.285-22.92-22.932l0.029-24.662H3.097L3.097,171.757z M48.499,195.836h-8.901v15.589
			c4.253-1.5,7.593-4.958,8.901-9.303V195.836z M30.25,183.961h-8.905v18.162c1.307,4.353,4.647,7.803,8.905,9.303V183.961z"/>
	</g>
</g>
</svg>
