<?xml version="1.0" encoding="utf-8"?>
<!-- Generator: Adobe Illustrator 16.0.3, SVG Export Plug-In . SVG Version: 6.00 Build 0)  -->
<!DOCTYPE svg PUBLIC "-//W3C//DTD SVG 1.1//EN" "http://www.w3.org/Graphics/SVG/1.1/DTD/svg11.dtd">
<svg version="1.1" id="Capa_1" xmlns="http://www.w3.org/2000/svg" xmlns:xlink="http://www.w3.org/1999/xlink" x="0px" y="0px"
	 width="400px" height="400px" viewBox="0 0 400 400" enable-background="new 0 0 400 400" xml:space="preserve">
<rect fill="none" width="399.996" height="400"/>
<g>
	<path fill="#8F90AA" d="M94.041,174.322c9.613,0,16.966,1.082,24.22,3.02c0.874,0.216,1.223,0.615,1.397,1.473
		c1.581,7.769,1.415,15.548,0.271,23.351c-1.563,10.673-4.75,20.814-10.614,29.973c-4.966,7.762-11.389,13.818-20.194,17.046
		c-3.333,1.239-6.822,1.996-10.358,1.963c-2.553-0.023-5.023-0.974-7.461-1.814c-17.075-5.831-29.587-16.854-37.557-33.059
		c-0.532-1.081-0.474-1.945,0.017-2.978c8.593-18.044,22.552-29.875,41.495-35.938C82.029,175.202,89.016,174.296,94.041,174.322z"
		/>
	<path fill="#8F90AA" d="M77.631,127.435c2.176-0.358,4.057-0.656,5.953-0.956c0.557-0.083,1.051,0.041,1.542,0.391
		c15.619,11.015,26.975,25.19,32.537,43.675c0.029,0.082,0.004,0.191,0.004,0.557c-15.819-5.408-31.865-6.63-48.121-2.778
		c-16.135,3.835-30.402,11.114-41.728,23.842c-0.208-4.294-0.042-8.428,0.624-12.553c2.112-13.302,7.877-24.815,17.237-34.482
		c3.951-4.103,8.419-7.521,13.313-10.424c0.845-0.516,1.156-0.333,1.577,0.473c5.582,10.94,14.979,16.648,26.663,19.143
		c1.48,0.317,2.977,0.566,4.475,0.699c2.517,0.199,4.643,1.214,6.609,2.729c1.635,1.265,3.299,2.479,5.441,2.819
		c1.332,0.217,2.642,0.159,3.89-0.273c1.281-0.424,2.379-1.148,2.583-2.67c0.22-1.565-0.192-2.904-1.514-3.886
		c-1.867-1.398-3.993-1.604-6.189-1.065c-1.115,0.274-2.226,0.633-3.345,0.999c-2.883,0.989-5.745,0.607-8.665,0.066
		c-7.108-1.306-13.867-3.493-19.731-7.936c-3.948-2.955-6.918-6.722-9.36-10.972c-0.448-0.791-0.532-1.257,0.454-1.74
		c2.051-0.973,4.098-1.921,6.189-2.778c0.537-0.216,0.878-0.275,1.257,0.317c3.672,5.665,9.197,8.967,15.174,11.587
		c3.044,1.305,5.819,2.903,8.194,5.249c2.005,2.005,4.479,3.111,7.416,2.646c2.529-0.407,3.564-2.447,2.301-4.675
		c-1.049-1.888-2.704-2.97-4.925-2.996c-1.439-0.025-2.804,0.341-4.18,0.648c-3.366,0.7-6.247-0.715-9.109-2.087
		c-5.075-2.437-9.884-5.283-13.468-9.792c-1.136-1.429-1.107-1.456,0.549-2.029c0.324-0.109,0.69-0.191,1.003-0.315
		c2.833-1.298,5.29-1.433,7.038,1.746c0.362,0.657,1.165,1.116,1.85,1.531c1.635,0.99,2.929,2.246,3.911,3.901
		c1.065,1.781,2.807,2.545,4.804,2.77c1.151,0.125,2.274-0.108,2.895-1.223c0.59-1.098,0.47-2.247-0.2-3.302
		c-0.932-1.448-2.404-1.931-4.014-2.063c-0.699-0.066-1.417-0.059-2.112,0.05C82.535,132.66,80.01,130.539,77.631,127.435z"/>
	<path fill="#8F90AA" d="M227.506,181.101c9.559-10.215,20.98-11.447,33.284-7.653c7.454,2.271,11.506,8.178,11.571,15.981
		c0.1,12.37,0.009,24.748,0.05,37.128c0.009,0.956-0.266,1.189-1.181,1.189c-3.952-0.066-7.896-0.092-11.83,0
		c-1.106,0.016-1.289-0.374-1.289-1.374c0.033-10.24,0.033-20.497,0-30.764c0-1.413-0.084-2.827-0.351-4.225
		c-0.813-4.185-3.327-6.946-7.462-8.044c-5.216-1.398-10.323-1.065-15.115,1.514c-5.166,2.769-7.611,7.204-7.645,12.985
		c-0.066,9.442-0.051,18.9,0.017,28.35c0.017,1.283-0.357,1.573-1.58,1.558c-3.786-0.109-7.604-0.109-11.373,0
		c-1.256,0.023-1.455-0.409-1.455-1.515c0.017-24,0.017-48.008,0-72.017c0-1.057,0.166-1.464,1.389-1.44
		c3.819,0.101,7.679,0.083,11.514,0.017c1.156-0.017,1.522,0.25,1.506,1.473c-0.058,8.335-0.033,16.669-0.033,25.005
		C227.506,179.82,227.506,180.345,227.506,181.101z"/>
	<path fill="#8F90AA" d="M174.19,205.584c0-6.922-0.025-13.859,0.041-20.781c0.016-1.223-0.358-1.464-1.506-1.421
		c-2.87,0.066-5.757-0.027-8.646,0.04c-0.833,0.009-1.145-0.199-1.119-1.089c0.054-2.72,0.054-5.449,0-8.194
		c-0.008-0.849,0.249-1.09,1.09-1.082c2.845,0.066,5.681-0.083,8.493,0.066c1.456,0.066,1.723-0.466,1.697-1.764
		c-0.066-2.718-0.199-5.448,0.158-8.169c0.841-6.156,4.094-9.541,10.258-10.665c5.957-1.047,11.971-0.35,17.96-0.167
		c0.624,0.026,0.857,0.317,0.857,0.95c-0.025,2.87-0.033,5.747,0.017,8.618c0.017,1.03-0.541,0.832-1.173,0.781
		c-2.913-0.25-5.841-0.448-8.761-0.191c-3.335,0.284-4.608,1.431-4.941,4.742c-0.158,1.655-0.033,3.327-0.125,4.991
		c-0.041,0.981,0.59,0.857,1.198,0.857c4.135,0,8.295,0.024,12.42-0.033c1.032-0.025,1.423,0.208,1.382,1.314
		c-0.083,2.578-0.083,5.159,0,7.711c0.041,1.107-0.342,1.349-1.373,1.349c-4.001-0.066-7.986,0.016-11.971-0.066
		c-1.281-0.027-1.688,0.249-1.688,1.647c0.074,13.675,0.025,27.384,0.092,41.052c0,1.432-0.45,1.715-1.764,1.681
		c-3.777-0.09-7.554-0.059-11.348-0.016c-0.981,0.016-1.247-0.233-1.247-1.24C174.224,219.519,174.19,212.53,174.19,205.584z"/>
	<path fill="#8F90AA" d="M108.674,128.917c2.683,0.158,4.961,1.439,7.383,2.396c0.524,0.216,0.391,0.732,0.378,1.172
		c-0.082,2.503-1.123,4.592-2.591,6.514c-1.172,1.53-1.846,3.22-1.56,5.208c0.133,0.816,0.407,1.572,0.861,2.229
		c1.686,2.387,4.068,2.48,5.902,0.2c1.54-1.93,1.814-4.118,0.944-6.422c-0.557-1.448-1.24-2.846-1.822-4.293
		c-0.265-0.666-0.477-1.33-0.627-2.03c-0.121-0.514-0.329-1.23,0.082-1.588c0.467-0.407,1.024,0.175,1.506,0.4
		c4.468,2.187,4.421,2.187,4.642,7.669c0.158,3.744-0.594,7.121-2.911,10.232c-2.134,2.862-1.968,5.765,0.023,8.385
		c1.76,2.347,3.965,2.371,5.741,0.026c1.859-2.456,2.155-5.283,0.673-7.83c-2.716-4.667-2.653-9.742-2.866-14.823
		c0-0.101,0.029-0.183,0.087-0.6c10.075,6.397,17.703,14.815,22.965,25.34c5.278,10.581,7.353,21.82,6.422,33.6
		c-0.461,0.174-0.578-0.192-0.757-0.384c-7.783-8.885-17.303-15.348-27.985-20.197c-1.16-0.55-1.779-1.156-2.159-2.397
		c-3.037-9.866-8.235-18.576-14.613-26.637c-5.548-6.997-11.671-13.376-19.145-18.351c-0.171-0.101-0.271-0.25-0.586-0.525
		c4.221-0.207,8.165,0.025,12.091,0.682c1.18,0.159,2.379,0.492,3.564,0.625c1.106,0.117,1.044,0.657,0.694,1.398
		c-0.407,0.882-0.861,1.723-1.256,2.587c-1.106,2.512-0.399,5.374,1.752,7.079c1.23,0.999,2.523,0.974,3.635-0.175
		c1.606-1.671,1.863-3.651,1.164-5.764c-0.415-1.29-1.055-2.488-1.605-3.728H108.674z"/>
	<path fill="#8F90AA" d="M125.686,180.111c4.043,1.223,7.637,3.337,11.194,5.541c5.603,3.435,10.681,7.562,15.343,12.23
		c0.804,0.822,1.107,1.571,0.862,2.776c-4.717,22.661-17.782,38.384-39.041,47.42c-0.083,0.023-0.171,0.039-0.387,0.107
		c0.008-0.674,0.458-1.123,0.736-1.59c6.132-10.175,10.328-21.063,12.396-32.777c1.914-10.848,1.822-21.652-0.985-32.383
		c-0.125-0.442-0.288-0.875-0.109-1.366L125.686,180.111z"/>
	<path fill="#8F90AA" d="M242.813,247.087c-2.473,0.184-2.473,0.184-2.571-2.005c-0.05-0.698-0.141-1.397-0.267-2.104
		c-0.207-1.323-0.981-2.063-2.38-1.972c-1.497,0.067-3.477-0.656-4.333,0.309c-0.725,0.807-0.143,2.77-0.258,4.217
		c-0.058,0.565,0.656,1.597-0.782,1.672c-0.882,0.017-1.207-0.157-1.189-1.147c0.059-4.135,0.049-8.286,0-12.421
		c0-0.839,0.241-1.115,1.106-1.098c1.913,0.075,3.835,0.009,5.748,0.033c2.288,0.025,3.693,0.856,4.25,2.472
		c0.658,1.854,0.068,3.618-1.779,5.058c1.182,0.74,1.614,1.896,1.688,3.17C242.13,244.542,242.056,245.797,242.813,247.087z
		 M235.683,239.31c0.858-0.042,1.73,0,2.563-0.151c1.438-0.215,2.179-1.223,2.062-2.661c-0.091-1.396-0.839-2.104-2.354-2.187
		c-0.856-0.01-1.713,0-2.562,0c-2.38,0-2.38,0-2.38,2.32C233.013,239.268,233.013,239.268,235.683,239.31z"/>
	<path fill="#8F90AA" d="M202.998,239.832c0-2.104,0.024-4.25-0.024-6.362c-0.009-0.691,0.184-0.933,0.931-0.924
		c2.788,0.05,5.541,0.05,8.319,0c0.731-0.009,0.965,0.207,0.965,0.924c0,0.831-0.432,0.856-1.057,0.856
		c-2.029-0.016-4.042,0.041-6.072-0.016c-0.79-0.027-0.981,0.215-1.015,1.005c-0.091,3.562-0.126,3.562,3.344,3.562
		c1.115,0,2.213,0.024,3.344-0.019c0.684-0.016,0.832,0.241,0.832,0.884c0,0.623-0.266,0.765-0.814,0.765
		c-1.855-0.025-3.728,0.041-5.599-0.025c-0.882-0.05-1.073,0.266-1.09,1.124c-0.092,3.835-0.107,3.835,3.644,3.835
		c1.206,0,2.429,0.025,3.643,0c0.732-0.041,0.933,0.216,0.958,0.964c0,0.749-0.416,0.767-0.966,0.767
		c-2.828,0-5.647-0.043-8.469,0.032c-0.815,0-0.873-0.366-0.873-0.998C203.015,244.084,202.998,241.946,202.998,239.832z"/>
	<path fill="#8F90AA" d="M272.146,238.202c0,1.54,0.082,3.12-0.025,4.667c-0.134,2.387-1.522,3.994-3.802,4.442
		c-1.515,0.3-3.012,0.274-4.501-0.167c-1.871-0.573-3.111-1.838-3.202-3.759c-0.184-3.379-0.117-6.772-0.166-10.134
		c-0.01-0.974,0.699-0.615,1.164-0.682c0.725-0.133,0.824,0.267,0.824,0.874c-0.033,2.812-0.066,5.632,0,8.459
		c0.049,2.405,1.256,3.694,3.518,3.92c2.488,0.273,4.135-1.098,4.168-3.61c0.059-2.58-0.033-5.158,0.059-7.72
		c0.033-0.683-0.782-1.947,0.948-1.956c1.839-0.033,0.924,1.298,1.007,1.996c0.149,1.215,0.05,2.438,0.05,3.669
		C272.187,238.202,272.17,238.202,272.146,238.202z"/>
	<path fill="#8F90AA" d="M178.374,232.546c1.198,0.117,2.595-0.183,4.001,0.25c1.955,0.557,2.887,2.046,2.788,4.433
		c-0.101,2.171-1.141,3.452-3.111,3.86c-1.54,0.333-3.111,0.226-4.668,0.184c-0.857-0.008-1.114,0.249-1.089,1.105
		c0.082,1.324-0.025,2.638,0.041,3.937c0.041,0.813-0.374,0.905-1.006,0.856c-0.549-0.043-1.106,0.116-1.106-0.782
		c0.041-4.334,0.033-8.687,0-13.036c0-0.689,0.308-0.815,0.897-0.807C176.145,232.596,177.16,232.546,178.374,232.546z
		 M178.766,239.466c0.757,0,1.53,0.093,2.262,0c1.439-0.223,2.138-1.172,2.112-2.66c-0.041-1.465-0.847-2.322-2.346-2.456
		c-0.549-0.049-1.114-0.039-1.671-0.039c-2.813,0-2.813,0-2.813,2.811C176.328,239.533,176.328,239.533,178.766,239.466z"/>
	<path fill="#8F90AA" d="M317.629,256.688c0-1.573,0-3.137-0.033-4.692c0-0.6,0.117-0.915,0.832-0.915
		c0.765,0,0.765,0.399,0.731,0.958c0,0.049,0,0.098,0,0.156c0.134,1.223-0.498,3.187,0.317,3.52
		c1.479,0.591,3.343,0.216,5.073,0.216c0.615,0,0.466-0.523,0.466-0.89c0.017-1.056,0.034-2.097,0.017-3.178
		c-0.017-0.583,0.233-0.782,0.816-0.767c0.516,0,0.698,0.226,0.698,0.725c-0.017,3.294-0.017,6.557,0.017,9.851
		c0,0.59-0.25,0.765-0.816,0.765c-0.648,0.018-0.731-0.357-0.731-0.857c0.017-1.13-0.016-2.229,0.017-3.353
		c0.018-0.64-0.183-0.923-0.849-0.84c-0.198,0.018-0.415,0-0.615,0c-1.397,0.025-3.161-0.424-4.109,0.259
		c-0.882,0.647-0.2,2.535-0.267,3.867c-0.033,0.549-0.049,0.941-0.781,0.941c-0.749,0-0.815-0.334-0.815-0.915
		C317.629,259.907,317.629,258.292,317.629,256.688z"/>
	<path fill="#8F90AA" d="M337.161,258.385c0-1.106,0-2.214-0.016-3.329c-0.018-0.956,0.814-1.13,1.114-0.665
		c0.5,0.808,0.716,0.383,1.148,0.108c0.498-0.332,1.164-0.631,1.713-0.382c1.647,0.724,3.179,0.366,4.859,0.05
		c1.746-0.342,2.578,0.657,2.612,2.454c0.016,1.572,0,3.11,0,4.707c-0.018,0.476,0.198,1.133-0.749,1.091
		c-0.933-0.041-0.666-0.707-0.666-1.198c-0.016-1.356-0.016-2.72-0.016-4.076c0-1.031-0.3-1.848-1.481-1.848
		c-1.148,0.043-1.98,0.541-2.014,1.799c-0.065,1.405-0.033,2.835-0.017,4.241c0,0.575,0.066,1.116-0.799,1.099
		c-0.849,0-0.682-0.558-0.682-1.041c-0.017-1.305-0.017-2.62,0-3.933c0.017-1.091-0.067-2.165-1.481-2.122
		c-1.28,0-2.03,0.849-2.112,2.104c-0.101,1.298-0.017,2.62-0.033,3.935c-0.033,0.457,0.199,1.057-0.665,1.057
		c-0.783,0-0.717-0.5-0.717-1.041C337.161,260.382,337.161,259.391,337.161,258.385z"/>
	<path fill="#8F90AA" d="M352.02,254.824c1.83-0.933,3.443-1.174,4.908,0.058c1.564,1.289,1.646,3.119,1.247,4.866
		c-0.632,2.671-2.396,3.062-5.224,2.504c-0.283-0.066-0.482-0.499-0.799-0.266c-1.83,1.307-1.547-0.158-1.547-1.199
		c-0.033-2.886-0.033-5.747,0-8.634c0-0.45-0.2-1.048,0.632-1.058c0.932-0.031,0.782,0.584,0.782,1.099
		C352.02,252.994,352.02,253.81,352.02,254.824z M356.861,258.318c0-1.764-1.048-3.021-2.496-3.021c-1.414,0-2.463,1.332-2.43,3.08
		c0.018,1.803,1.032,2.979,2.514,2.979C355.929,261.355,356.861,260.189,356.861,258.318z"/>
	<path fill="#8F90AA" d="M205.869,255.024c0-1.174,0.016-2.114,0-3.071c0-0.499,0.065-0.857,0.731-0.857
		c0.748,0,0.648,0.451,0.648,0.899c0,3.178,0,6.339,0,9.517c0,0.449,0.018,1.174-0.59,0.866c-1.374-0.684-2.597,0.373-3.886,0.058
		c-0.49-0.108-0.981-0.067-1.456-0.333c-1.738-1.016-2.404-4.201-1.289-6.229c0.989-1.79,3.211-2.322,5.241-1.191
		C205.402,254.74,205.519,254.824,205.869,255.024z M205.869,258.4c0.023-1.889-0.991-3.111-2.539-3.104
		c-1.388,0.043-2.336,1.215-2.387,2.995c-0.059,1.715,0.981,3.036,2.42,3.063C204.853,261.395,205.859,260.23,205.869,258.4z"/>
	<path fill="#8F90AA" d="M368.773,258.792c-0.6,0-1.215,0.058-1.797,0c-1.464-0.158-1.23,0.599-0.782,1.415
		c0.782,1.464,2.979,1.621,3.894,0.224c0.432-0.656,0.965-0.882,1.448-0.523c0.482,0.341-0.051,0.907-0.267,1.289
		c-0.849,1.339-3.744,1.779-5.224,0.815c-1.466-0.948-2.097-3.319-1.431-5.3c0.598-1.78,2.028-2.746,3.925-2.612
		c1.881,0.107,3.479,2.03,3.345,3.97c-0.033,0.506-0.166,0.747-0.699,0.739C370.388,258.774,369.572,258.792,368.773,258.792z
		 M368.141,257.462c0.217,0,0.417,0.058,0.6,0c0.516-0.135,1.414,0.415,1.53-0.343c0.101-0.657-0.516-1.246-1.215-1.597
		c-0.682-0.324-1.33-0.249-2.013,0.082c-0.615,0.309-1.147,0.899-1.048,1.515c0.1,0.717,0.915,0.208,1.414,0.343
		C367.643,257.52,367.892,257.462,368.141,257.462z"/>
	<path fill="#8F90AA" d="M174.439,256.645c0-1.513,0.041-3.045-0.017-4.549c-0.025-0.799,0.25-1.049,1.04-1.016
		c1.814,0.059,3.652,0.016,5.457,0.016c0.467,0,0.899-0.074,0.924,0.625c0.016,0.749-0.341,0.799-0.948,0.799
		c-1.306-0.042-2.612,0.05-3.926-0.042c-0.808-0.024-1.007,0.266-1.024,1.048c-0.033,2.422-0.074,2.404,2.33,2.422
		c0.689,0,1.406,0.008,2.112-0.018c0.483,0,0.75,0.184,0.75,0.715c0,0.518-0.2,0.716-0.716,0.716
		c-1.024-0.016-2.021,0.084-3.037-0.016c-1.073-0.101-1.597,0.141-1.422,1.371c0.1,0.875,0,1.822,0.025,2.722
		c0,0.549,0,0.973-0.774,0.998c-0.74,0.018-0.791-0.383-0.773-0.956C174.465,259.89,174.439,258.26,174.439,256.645z"/>
	<path fill="#8F90AA" d="M294.83,258.626c0.358,0.856-0.664,2.138,0.666,2.952c0.083,0.075,0.042,0.591-0.092,0.683
		c-0.432,0.333-1.131,0.333-1.422,0.084c-0.624-0.624-1.073-0.333-1.73-0.093c-0.99,0.367-2.104,0.342-3.128,0.042
		c-0.923-0.241-1.248-1.073-1.248-2.021c-0.008-1.105,0.549-1.854,1.53-2.154c0.907-0.317,1.864-0.433,2.804-0.615
		c0.559-0.117,1.148-0.225,1.123-0.974c-0.025-0.715-0.531-1.081-1.156-1.166c-0.974-0.141-2.029-0.156-2.438,0.966
		c-0.308,0.815-0.964,0.657-1.33,0.459c-0.492-0.259-0.108-0.8,0.074-1.207c0.607-1.23,2.521-1.822,4.435-1.423
		c1.556,0.325,1.93,1.423,1.879,2.804C294.83,257.462,294.83,257.96,294.83,258.626z M293.259,258.4
		c-1.015,0.2-1.979,0.333-2.879,0.574c-0.641,0.158-1.032,0.616-0.974,1.331c0.076,0.758,0.641,0.974,1.273,1.05
		C292.443,261.578,293.425,260.497,293.259,258.4z"/>
	<path fill="#8F90AA" d="M305.184,258.792c-0.615,0-1.198-0.05-1.813,0.017c-0.383,0.008-0.882-0.208-1.115,0.184
		c-0.249,0.44,0.066,0.897,0.3,1.272c0.815,1.406,2.962,1.514,3.894,0.117c0.399-0.625,0.915-0.791,1.348-0.51
		c0.6,0.376,0.033,0.892-0.199,1.258c-0.782,1.372-3.661,1.846-5.175,0.931c-1.464-0.931-2.146-3.286-1.497-5.282
		c0.565-1.797,1.996-2.77,3.893-2.679c1.964,0.092,3.627,2.112,3.411,4.052c-0.066,0.564-0.316,0.657-0.766,0.641
		C306.697,258.774,305.948,258.792,305.184,258.792z M304.436,257.462c0.199,0,0.415,0.041,0.582,0
		c0.549-0.117,1.446,0.356,1.563-0.3c0.134-0.75-0.532-1.332-1.297-1.665c-0.582-0.274-1.133-0.224-1.73,0.018
		c-0.699,0.315-1.299,0.873-1.232,1.555c0.134,0.808,0.983,0.25,1.515,0.393C304.019,257.52,304.235,257.462,304.436,257.462z"/>
	<path fill="#8F90AA" d="M215.685,258.542c0.333,0.891-0.674,2.245,0.757,3.086c0.158,0.066,0.133,0.508-0.124,0.65
		c-0.467,0.257-1.174,0.331-1.423,0.023c-0.648-0.674-1.115-0.273-1.747-0.05c-0.957,0.357-2.005,0.258-3.003,0.075
		c-0.874-0.158-1.281-0.89-1.357-1.763c-0.099-1.148,0.343-2.047,1.423-2.388c0.933-0.341,1.965-0.458,2.938-0.657
		c0.55-0.134,1.14-0.225,1.099-1.008c-0.018-0.739-0.549-1.056-1.166-1.148c-0.981-0.141-2.021-0.124-2.445,0.983
		c-0.274,0.739-0.807,0.615-1.197,0.473c-0.674-0.249-0.2-0.79-0.051-1.139c0.549-1.314,2.363-1.914,4.359-1.522
		c1.53,0.274,2.046,1.298,1.954,2.728C215.659,257.386,215.685,257.886,215.685,258.542z M214.162,258.442
		c-1.015,0.158-1.954,0.291-2.895,0.532c-0.633,0.158-1.058,0.641-0.974,1.349c0.125,0.697,0.623,0.956,1.307,1.032
		C213.347,261.538,214.295,260.522,214.162,258.442z"/>
	<path fill="#8F90AA" d="M335.133,258.542c0.332,0.857-0.666,2.245,0.78,3.053c0.051,0.033,0.018,0.541-0.132,0.657
		c-0.366,0.326-1.032,0.326-1.266,0.101c-0.748-0.725-1.314-0.233-2.062-0.059c-0.85,0.191-1.797,0.167-2.696,0.074
		c-0.981-0.133-1.397-0.905-1.464-1.82c-0.117-1.148,0.35-2.047,1.431-2.396c0.882-0.315,1.848-0.409,2.778-0.632
		c0.582-0.116,1.248-0.175,1.198-1.031c-0.05-0.833-0.649-1.107-1.349-1.148c-0.931-0.066-1.929-0.025-2.262,1.048
		c-0.25,0.782-0.849,0.541-1.198,0.432c-0.716-0.249-0.167-0.79-0.05-1.121c0.533-1.348,2.546-1.989,4.509-1.531
		c1.448,0.332,1.896,1.321,1.781,2.703C335.1,257.345,335.133,257.877,335.133,258.542z M332.752,258.583
		c-1.098,0.392-2.911-0.198-2.911,1.799c0,0.997,1.065,1.039,1.896,0.955c1.314-0.133,2.014-0.989,2.014-2.17
		C333.751,258.268,333.268,258.493,332.752,258.583z"/>
	<path fill="#8F90AA" d="M191.435,258.242c0-1.057,0.016-2.096-0.017-3.16c-0.033-0.965,0.798-1.156,1.098-0.716
		c0.625,0.948,0.965,0.199,1.415,0c2.254-1.057,4.225,0.133,4.275,2.596c0.033,1.456,0.025,2.928-0.008,4.375
		c-0.008,0.45,0.232,1.073-0.615,1.099c-0.841,0.018-0.683-0.558-0.683-1.041c0-1.305,0.025-2.603-0.016-3.917
		c-0.042-1.082-0.233-2.046-1.59-2.181c-1.205-0.099-2.22,0.691-2.354,2.03c-0.125,1.365-0.083,2.737-0.083,4.094
		c0,0.522,0.05,1.015-0.74,1.015c-0.823,0.018-0.682-0.5-0.682-1.015C191.435,260.363,191.435,259.308,191.435,258.242z"/>
	<path fill="#8F90AA" d="M263.942,262.419c-2.611,0.017-3.942-1.355-3.95-4.034c0-2.687,1.487-4.302,3.967-4.285
		c2.421,0,3.91,1.599,3.977,4.192C268.003,260.639,266.488,262.868,263.942,262.419z M261.479,258.342
		c0,1.764,1.049,3.014,2.496,3.014c1.456,0,2.446-1.215,2.446-3.014c-0.017-1.771-1.039-3.045-2.479-3.027
		C262.503,255.314,261.479,256.604,261.479,258.342z"/>
	<path fill="#8F90AA" d="M233.32,262.419c-2.604,0-3.943-1.381-3.951-4.042c-0.008-2.655,1.53-4.294,4.002-4.294
		c2.445,0.017,3.968,1.705,3.942,4.359C237.28,261.122,235.975,262.436,233.32,262.419z M230.892,258.377
		c0.017,1.813,1.015,3.002,2.495,2.979c1.456-0.019,2.412-1.176,2.396-3.021c-0.008-1.779-1.049-3.037-2.463-3.02
		C231.906,255.314,230.892,256.621,230.892,258.377z"/>
	<path fill="#8F90AA" d="M189.514,258.359c0,1.057,0,2.12,0,3.194c0.016,0.475-0.216,1.181-0.65,0.814
		c-1.297-1.081-2.346,0.3-3.561,0.117c-1.688-0.266-2.461-0.649-2.562-2.337c-0.107-1.706-0.033-3.419-0.074-5.134
		c-0.008-0.582,0.175-0.823,0.798-0.808c0.64,0.026,0.707,0.393,0.699,0.907c-0.008,1.415,0.008,2.838-0.008,4.235
		c-0.025,1.014,0.173,1.854,1.347,1.987c1.248,0.143,2.254-0.391,2.455-1.671c0.207-1.348,0.074-2.722,0.158-4.062
		c0.042-0.49-0.449-1.33,0.633-1.38c1.164-0.033,0.732,0.874,0.765,1.423C189.547,256.547,189.514,257.462,189.514,258.359z"/>
	<path fill="#8F90AA" d="M269.399,258.318c0-1.106,0.025-2.214-0.017-3.32c-0.032-0.915,0.857-0.989,1.024-0.682
		c0.631,0.998,1.098,0.233,1.604,0.024c2.155-0.964,4.084,0.158,4.209,2.463c0.067,1.556,0,3.127,0.018,4.676
		c0.017,0.599-0.074,0.974-0.799,0.956c-0.724-0.017-0.632-0.492-0.632-0.956c0-1.366-0.018-2.737,0.024-4.076
		c0.025-1.174-0.333-2.063-1.613-2.089c-1.291-0.018-2.163,0.674-2.288,1.98c-0.101,1.364-0.058,2.729-0.042,4.084
		c0,0.607,0,1.106-0.84,1.057c-0.856-0.025-0.624-0.632-0.633-1.08C269.383,260.348,269.399,259.333,269.399,258.318z"/>
	<path fill="#8F90AA" d="M238.92,258.311c0-1.107,0.041-2.206,0-3.329c-0.018-0.757,0.698-1.016,0.915-0.682
		c0.706,1.04,1.215,0.184,1.771-0.025c2.196-0.857,4.026,0.291,4.084,2.638c0.025,1.447,0.018,2.921,0,4.375
		c0,0.517,0.167,1.174-0.739,1.132c-0.94-0.041-0.65-0.74-0.658-1.215c-0.041-1.256-0.041-2.512,0-3.76
		c0.018-1.073-0.224-1.947-1.438-2.13c-1.174-0.175-2.33,0.633-2.471,1.914c-0.167,1.289-0.043,2.62-0.092,3.925
		c-0.042,0.5,0.349,1.332-0.724,1.266c-0.948-0.041-0.607-0.766-0.648-1.239C238.895,260.23,238.92,259.274,238.92,258.311z"/>
	<path fill="#8F90AA" d="M255.374,262.41c-1.664,0.25-2.828-0.449-3.477-1.988c-0.758-1.746-0.317-4.192,0.89-5.366
		c1.072-1.047,2.861-1.297,4.358-0.689c0.684,0.292,1.24,0.748,1.515,1.422c0.142,0.342,0.491,0.79,0.049,1.066
		c-0.415,0.265-1.03,0.308-1.305-0.3c-0.559-1.174-1.481-1.456-2.63-1.106c-1.33,0.382-1.672,1.514-1.738,2.729
		c-0.066,1.189,0.158,2.329,1.348,2.953c1.123,0.623,2.354,0.226,2.904-0.966c0.333-0.731,0.806-0.997,1.388-0.724
		c0.607,0.316,0.126,0.907-0.057,1.323C257.986,262.169,256.838,262.594,255.374,262.41z"/>
	<path fill="#8F90AA" d="M221.101,262.41c-1.689,0.209-2.879-0.416-3.527-1.988c-0.749-1.821-0.351-4.192,0.882-5.397
		c1.09-1.024,3.078-1.315,4.55-0.592c0.607,0.292,1.064,0.748,1.348,1.382c0.159,0.356,0.449,0.83-0.017,1.071
		c-0.424,0.21-1.006,0.259-1.298-0.356c-0.599-1.232-1.597-1.505-2.786-1.015c-1.464,0.632-1.556,1.963-1.497,3.318
		c0.074,1.215,0.564,2.213,1.838,2.495c1.072,0.21,2.046-0.107,2.438-1.256c0.249-0.706,0.808-0.864,1.289-0.64
		c0.641,0.324,0.159,0.891-0.024,1.315C223.671,262.169,222.531,262.594,221.101,262.41z"/>
	<path fill="#8F90AA" d="M280.597,262.41c-1.405,0.125-1.929-0.557-1.938-1.771c-0.023-1.315-0.023-2.62,0-3.951
		c0-0.616,0.051-1.231-0.897-1.165c-0.407,0.041-0.483-0.226-0.475-0.566c0.009-0.298-0.033-0.723,0.391-0.682
		c1.115,0.066,0.981-0.706,0.981-1.414c0-0.474-0.174-1.04,0.666-1.064c0.915-0.058,0.757,0.581,0.741,1.114
		c0,0.732-0.084,1.456,1.031,1.323c0.474-0.042,0.591,0.273,0.582,0.674c0,0.448-0.192,0.697-0.632,0.632
		c-0.981-0.133-1.007,0.49-0.981,1.198c0.033,0.907,0.023,1.822,0.008,2.703c-0.008,0.883-0.175,1.798,1.164,1.78
		c0.483,0,0.524,0.474,0.433,0.808C281.486,262.668,280.904,262.302,280.597,262.41z"/>
	<path fill="#8F90AA" d="M361.337,255.381c0.599-0.656,1.115-1.106,1.847-1.24c0.349-0.058,0.848-0.272,0.932,0.358
		c0.066,0.482,0.183,1.016-0.583,1.105c-1.797,0.226-2.279,1.481-2.313,3.021c-0.016,1.015,0,2.013,0,3.027
		c0,0.449-0.1,0.757-0.648,0.782c-0.582,0-0.782-0.241-0.782-0.808c0.033-2.054,0-4.125,0.033-6.18c0-0.45-0.315-1.066,0.5-1.215
		C361.204,254.083,361.037,254.857,361.337,255.381z"/>
	<path fill="#8F90AA" d="M284.615,255.34c0.549-0.541,0.974-1.016,1.572-1.148c0.399-0.074,0.965-0.39,1.114,0.241
		c0.108,0.475,0.284,1.082-0.648,1.199c-1.581,0.206-2.112,1.354-2.122,2.811c-0.024,0.998-0.033,2.014,0,3.021
		c0.01,0.565-0.041,0.956-0.798,0.973c-0.807,0-0.691-0.541-0.691-1.041c-0.016-2.004-0.033-4.009,0.018-6.031
		c0.025-0.407-0.325-1.039,0.532-1.156C284.457,254.117,284.357,254.799,284.615,255.34z"/>
	<path fill="#8F90AA" d="M310.99,256.87c0,1.464,0.033,2.928-0.018,4.376c-0.016,0.491,0.284,1.189-0.681,1.173
		c-0.85-0.009-0.6-0.641-0.6-1.082c0-3.026,0-6.048,0-9.058c0.017-0.483-0.299-1.215,0.683-1.184
		c0.964,0.066,0.582,0.791,0.598,1.258C311.023,253.851,310.99,255.355,310.99,256.87z"/>
	<path fill="#8F90AA" d="M227.572,258.359c0,1.123-0.017,2.213,0,3.319c0,0.49-0.107,0.782-0.666,0.757
		c-0.507-0.025-0.732-0.216-0.715-0.724c0-2.222,0-4.434,0-6.656c-0.018-0.572,0.158-0.831,0.782-0.831
		c0.599,0,0.599,0.375,0.599,0.8C227.556,256.146,227.572,257.244,227.572,258.359z"/>
	<path fill="#8F90AA" d="M232.307,253.151c0.897-1.113,1.014-2.753,3.077-2.104C234.46,251.862,234.127,253.218,232.307,253.151z"/>
	<path fill="#8F90AA" d="M227.539,251.82c0.091,0.716,0.033,1.09-0.648,1.074c-0.666,0-0.699-0.384-0.699-0.874
		c-0.018-0.566,0.041-0.956,0.79-0.925C227.755,251.105,227.488,251.646,227.539,251.82z"/>
	<path fill="#8F90AA" d="M125.694,180.069c-0.045-0.023-0.082-0.023-0.145-0.049c0.024,0,0.066-0.033,0.074-0.017
		c0.025,0.042,0.042,0.066,0.063,0.108L125.694,180.069z"/>
</g>
</svg>
