<svg xmlns="http://www.w3.org/2000/svg" xmlns:xlink="http://www.w3.org/1999/xlink" width="90" height="86" viewBox="0 0 90 86">
    <defs>
        <path id="a" d="M0 .4h89.674v73.27H0z"/>
    </defs>
    <g fill="none" fill-rule="evenodd" opacity=".5">
        <g transform="translate(0 .03)">
            <mask id="b" fill="#fff">
                <use xlink:href="#a"/>
            </mask>
            <path fill="#1D2258" d="M61.466 38.343c-8.215 0-16.43.004-24.644-.011-.462 0-.586.104-.585.58.015 10.366.014 20.733.002 31.1 0 .441.071.599.568.598 16.412-.015 32.824-.014 49.235-.002.45 0 .559-.099.558-.555-.014-10.384-.015-20.768.002-31.153 0-.496-.156-.567-.597-.566-8.18.012-16.36.009-24.54.009m-16.63-34.86c-13.727 0-27.454.004-41.181-.01-.474-.001-.582.122-.581.586.014 10.213.014 20.427 0 30.64-.001.471.117.583.584.583 27.454-.012 54.908-.012 82.362 0 .473 0 .581-.122.58-.586-.013-10.214-.014-20.427.001-30.64 0-.472-.118-.584-.584-.583-13.727.013-27.455.01-41.181.01m.038-3.07C59.6.412 74.324.413 89.051.4c.484 0 .623.094.622.606-.015 24.01-.015 48.018.001 72.027 0 .548-.16.635-.659.635-18.394-.013-36.789-.013-55.183 0-.502 0-.66-.09-.66-.636.02-11.367.011-22.734.029-34.102 0-.515-.142-.6-.622-.6-10.66.015-21.322.01-31.983.022-.456 0-.597-.093-.596-.58C.015 25.512.015 13.249 0 .986 0 .505.13.402.593.402c14.76.012 29.52.01 44.281.01" mask="url(#b)"/>
        </g>
        <path fill="#1D2258" d="M80.057 81.527c1.013-.72 1.696-.652 2.246.178.05-.041.11-.073.146-.122.392-.527.93-.65 1.515-.47.582.178.818.68.843 1.24.039.86.007 1.721.026 2.581.007.321-.2.247-.376.256-.197.01-.364.026-.355-.274.02-.67.01-1.342.004-2.014a4.133 4.133 0 0 0-.054-.613c-.057-.357-.241-.6-.627-.644-.394-.044-.664.143-.837.473-.112.215-.138.455-.135.701.01.688-.017 1.377.012 2.065.014.33-.16.3-.377.311-.244.011-.373-.023-.364-.323.022-.74.024-1.48 0-2.22-.024-.723-.338-1.054-.89-1.005-.463.04-.75.34-.753.806-.006.791-.015 1.583.005 2.374.007.293-.079.373-.37.374-.295 0-.372-.087-.368-.376.016-1.1-.002-2.202.016-3.304.003-.153-.18-.434.194-.47.324-.03.543.039.499.476M43.143 84.035l.77-2.54c.063-.21.08-.422.406-.421.304.001.362.162.431.395.242.82.501 1.635.792 2.575.198-.875.361-1.648.555-2.413.046-.181-.014-.457.229-.525.19-.053.438-.097.596.035.12.101-.023.287-.061.427-.292 1.075-.597 2.146-.894 3.22-.059.214-.074.417-.4.417-.299 0-.367-.142-.437-.38-.246-.827-.51-1.648-.804-2.586-.284.932-.538 1.755-.783 2.58-.066.223-.12.384-.428.388-.33.005-.347-.2-.405-.407-.306-1.088-.614-2.177-.908-3.27-.039-.143-.245-.389.084-.432.239-.032.557-.139.646.281.182.851.389 1.697.61 2.656M60.482 83.694c-.045-.112.1-.347-.144-.35-.387-.006-.79-.103-1.16.094-.238.128-.393.321-.404.608-.008.224.062.403.263.517.577.325 1.444-.188 1.445-.869zm.782.004c0 .396.01.792-.005 1.188-.005.124.178.35-.097.36-.205.009-.519.174-.607-.173-.07-.275-.173-.24-.347-.115a1.575 1.575 0 0 1-.911.304c-.67.01-1.13-.337-1.239-.928-.125-.69.158-1.169.813-1.416.35-.132.711-.085 1.068-.116.179-.016.463.15.524-.132.063-.295.064-.624-.217-.856-.351-.292-.974-.204-1.233.177-.056.083-.09.232-.157.245-.196.042-.443.116-.589-.038-.118-.124.007-.322.09-.468.322-.56 1.129-.835 1.875-.645.632.161.97.603 1.011 1.322.003.051.007.103.007.154v1.137h.014zM48.153 82.706c.51 0 .99.003 1.47-.002.122 0 .308.056.266-.183-.06-.344-.148-.69-.523-.822-.374-.131-.716-.053-.962.28a1.26 1.26 0 0 0-.251.727m1.222.593c-.258 0-.52.026-.773-.006-.502-.064-.537.184-.425.566.23.785.961 1.032 1.79.591.176-.094.299-.263.464.048.15.28.002.372-.181.479-.965.56-2.547.376-2.847-1.193-.106-.555-.105-1.097.106-1.622.364-.905 1.205-1.326 2.077-1.054.711.22 1.186 1.14 1.046 1.981-.032.194-.126.211-.276.21-.327-.002-.654 0-.98 0M73.113 83.15c.008.258.011.513.096.763.153.454.457.75.935.741.45-.007.76-.28.894-.724.169-.561.17-1.123-.036-1.669-.146-.383-.432-.61-.863-.615-.431-.005-.705.218-.877.595-.133.29-.146.598-.15.91m1.005-2.099c.773 0 1.32.341 1.6 1.055.293.751.286 1.509-.079 2.243-.294.593-.797.883-1.442.908-.648.025-1.191-.225-1.506-.8-.489-.89-.49-1.809.038-2.688.306-.506.785-.752 1.39-.718M67.873 81.052c.6-.032 1.08.177 1.376.715.084.15.248.41.064.484-.199.08-.53.215-.702-.155-.201-.43-.572-.513-.998-.415-.258.06-.421.225-.453.496-.035.295.149.448.392.528.372.124.763.196 1.126.339.48.188.81.508.76 1.09-.049.558-.393.859-.881 1.022-.844.281-1.748.01-2.1-.62-.112-.203-.293-.496-.033-.628.195-.1.533-.164.674.28.162.512 1.064.627 1.45.244.276-.274.212-.667-.172-.84-.278-.126-.586-.181-.88-.272-.828-.255-1.156-.653-1.06-1.282.09-.584.673-.984 1.437-.986M63.025 81.637c.273-.3.512-.517.847-.574.92-.156 1.572.33 1.615 1.265.039.857-.002 1.718.021 2.577.01.346-.201.272-.399.288-.226.017-.34-.023-.334-.298.018-.79.027-1.582-.005-2.37-.03-.735-.536-1.08-1.19-.831-.332.127-.572.342-.56.765.022.79-.007 1.581.014 2.371.007.297-.087.369-.373.37-.298.003-.37-.09-.366-.377.016-1.065-.005-2.13.018-3.195.003-.188-.205-.486.189-.576.433-.098.51.173.523.585M70.555 83.44c0-.464-.007-.928.003-1.392.005-.23 0-.422-.314-.373-.21.033-.315-.031-.301-.274.011-.198.028-.344.277-.312.453.058.324-.28.333-.508.04-.957.567-1.476 1.406-1.368.183.023.388.006.36.306-.022.25-.142.292-.368.304-.528.028-.91.748-.649 1.183.083.136.216.08.325.078.223-.002.391-.005.39.314-.002.3-.165.306-.36.274-.358-.06-.377.134-.373.414.014.912-.006 1.824.012 2.735.004.287-.07.384-.369.38-.278-.005-.396-.061-.379-.367.026-.463.007-.929.007-1.393M53.878 80.027c.363-.077.358.15.348.393-.017.372-.09.783.53.672.247-.044.19.173.208.318.021.196-.05.306-.255.265-.492-.096-.506.187-.492.557.024.619.01 1.238.007 1.857-.002.334.092.597.486.544.225-.031.22.099.245.23.035.17.003.277-.195.347-.574.204-1.196-.14-1.24-.771-.053-.77-.041-1.546-.035-2.319.003-.297-.021-.509-.4-.445-.16.028-.27-.035-.25-.224.013-.144-.048-.378.178-.353.586.066.478-.331.462-.652-.016-.312.038-.513.403-.419M56.415 81.596c.254-.284.502-.482.822-.494.125-.004.39-.168.389.13 0 .204.063.489-.326.52-.77.064-.888.217-.888.997 0 .687-.01 1.376.006 2.063.006.269-.039.384-.353.392-.34.007-.39-.115-.384-.413.016-1.066-.003-2.131.015-3.197.003-.173-.178-.464.22-.51.357-.042.496.118.5.512M77.481 81.61c.311-.333.578-.52.925-.514.104.002.323-.127.305.118-.013.194.071.464-.26.532-.957.197-.956.201-.956 1.193 0 .635-.019 1.273.008 1.907.014.324-.124.351-.39.353-.262.001-.354-.06-.349-.34.016-1.083-.003-2.166.016-3.248.003-.175-.183-.47.203-.523.337-.046.53.068.498.521M86.488 80.017c-.032-.035-.06-.085-.118-.042-.503.362-.614 1.197-.234 1.769.357.538 1.045.718 1.585.414.59-.332.83-1.177.513-1.808-.297-.59-1-.854-1.574-.58-.096.046-.287.058-.183.259l.01-.012zm2.166.996c-.01.913-.673 1.604-1.531 1.595-.855-.009-1.492-.712-1.487-1.639.004-.912.671-1.64 1.504-1.64.85-.001 1.524.75 1.514 1.684zM33.173 16.616c-.253-.207-.67-.026-.77-.251-.122-.276-.057-.638-.06-.962-.005-.698-.002-.699.706-.699 1.326 0 2.652.015 3.977-.008.369-.007.502.106.444.46-.01.051-.002.104-.002.155 0 1.048.002 1.055-1.025 1.34a.624.624 0 0 0-.362.26c-.504.695-.997 1.4-1.516 2.085-.144.19-.13.303-.005.487.76 1.126 1.52 2.252 2.249 3.398.23.361.587.323.903.388.26.054.329.15.34.401.058 1.37.064 1.37-1.28 1.37-1.05 0-2.1-.013-3.15.008-.317.006-.43-.077-.398-.4a3.857 3.857 0 0 0 0-.824c-.045-.392.087-.59.574-.54-.518-.838-.971-1.644-1.502-2.397-.245-.347-.709-.16-1.061-.134-.284.022-.128.334-.148.515-.027.238-.01.481-.006.722.005.343-.093.746.055 1.011.139.25.586.193.893.285.118.036.257.05.261.2.011.464.009.929.005 1.393-.002.182-.146.16-.263.16-1.618.001-3.236-.003-4.855.005-.215.001-.268-.089-.253-.278.01-.102.002-.206.002-.31 0-1.052-.004-1.065 1.026-1.326.252-.063.323-.157.323-.408-.008-3.408-.007-6.817-.002-10.225 0-.238-.045-.347-.323-.402-1.203-.24-1.185-.255-1.199-1.487-.004-.355.077-.469.449-.46a73.1 73.1 0 0 0 3.408 0c.384-.01.485.087.482.478a655.43 655.43 0 0 0-.003 7.643c.001.156-.142.411.142.467.232.046.45.031.618-.229.421-.645.883-1.264 1.326-1.89M60.877 16.02c.572-.69 1.216-1.23 2.102-1.42 2.187-.47 3.927.773 4.054 3.005.093 1.63.058 3.269.043 4.904-.004.416.09.601.521.674.838.142.833.168.833 1.008 0 .85 0 .85-.863.85-1.36 0-2.721-.01-4.081.006-.327.005-.488-.067-.433-.42.018-.118.003-.241.003-.362 0-.882-.001-.89.866-1.111.247-.063.356-.153.352-.44-.018-1.428-.003-2.858-.01-4.287-.005-.871-.323-1.386-.957-1.603-.771-.263-1.813.013-2.273.58-.147.182-.149.373-.149.58.001 1.55.015 3.1-.01 4.649-.005.352.122.52.436.536.582.029.76.298.727.88-.055.989-.015.991-.994.991-1.292 0-2.584-.015-3.875.01-.374.007-.498-.111-.438-.462.008-.05.001-.103.001-.155 0-1.037-.002-1.045 1.001-1.292.254-.062.352-.156.35-.436a355.59 355.59 0 0 1 0-5.63c.003-.316-.106-.388-.4-.441-1.068-.193-1.04-.21-1.077-1.322-.017-.481.08-.646.599-.622 1.048.048 2.1.023 3.15.009.282-.004.406.065.394.37-.01.305.01.617.128.951M52.907 19.935c.023-.766-.077-1.507-.41-2.207-.343-.718-.931-1.035-1.701-1.024-.758.01-1.336.354-1.618 1.066-.562 1.417-.565 2.853.006 4.266.287.71.876 1.029 1.634 1.04.758.01 1.33-.3 1.668-.988.334-.679.44-1.405.42-2.153m2.814 0c.024 1.594-.371 3.053-1.584 4.152-1.49 1.35-3.276 1.443-5.083.882-1.697-.527-2.598-1.854-2.952-3.54a7.223 7.223 0 0 1 .061-3.324c.684-2.625 2.766-3.9 5.424-3.543 2.553.344 4.077 2.228 4.133 4.96.003.137 0 .275.001.413M21.27 18.849c.481 0 .962.005 1.444-.004.117-.002.261.068.319-.147.19-.715-.44-1.77-1.179-1.938-1.152-.263-2.23.68-2.199 1.904.007.245.159.18.274.182.447.008.894.003 1.34.003M22.7 20.73c-.895 0-1.79.011-2.686-.005-.306-.006-.422.028-.345.39.267 1.277 1.075 1.954 2.385 1.963.826.006 1.616-.165 2.324-.573.406-.235.521-.085.64.26.071.21.183.406.272.61.324.747.329.757-.382 1.116-1.583.8-3.246 1.013-4.953.523-1.774-.51-3.063-2.19-3.208-4.147-.093-1.256-.053-2.505.484-3.693 1.3-2.881 5.318-3.64 7.423-1.386.82.876 1.091 1.967 1.15 3.125.026.481-.011.965.012 1.446.014.297-.086.383-.378.378-.912-.017-1.825-.007-2.738-.007M10.73 19.752c0-.896-.011-1.791.007-2.687.007-.3-.094-.369-.38-.373-1.146-.018-1.146-.028-1.146-1.147 0-.84 0-.84.829-.84.69 0 .69 0 .69-.71 0-.465.026-.931-.008-1.394-.026-.36.117-.425.437-.414.654.022 1.31.022 1.963 0 .324-.01.457.065.438.42-.03.583.005 1.17-.014 1.755-.009.276.084.361.352.348.378-.02.759.012 1.137-.01.28-.018.355.084.342.351-.021.395-.028.794 0 1.188.026.35-.066.502-.445.467-.359-.032-.723.002-1.085-.01-.225-.008-.299.08-.298.302.007 1.688-.012 3.376.013 5.064.01.743.363 1.03 1.217.921.561-.071.778.06.752.624-.011.237.043.478.073.717.089.692.088.683-.577.813a6.642 6.642 0 0 1-1.335.111c-1.827-.01-2.89-1.029-2.946-2.86-.026-.879-.005-1.757-.005-2.636h-.01zM40.3 19.7c0-.877-.012-1.755.006-2.632.006-.296-.09-.371-.38-.376-1.158-.02-1.157-.03-1.157-1.185 0-.802 0-.802.813-.802.138 0 .278-.014.413.003.262.032.315-.09.31-.325-.015-.602.007-1.205-.011-1.806-.009-.28.057-.399.365-.39.705.021 1.411.02 2.116 0 .283-.007.347.099.34.358-.016.585.01 1.17-.011 1.755-.013.306.058.44.393.411.358-.03.722.007 1.083-.011.26-.014.397.054.35.338-.006.033 0 .069-.001.103-.011.496.155 1.121-.085 1.451-.236.326-.897.092-1.37.098-.306.004-.37.114-.37.394.012 1.6-.005 3.2.01 4.8.008.927.32 1.206 1.306 1.096.478-.053.694.03.664.538-.01.185.044.374.061.562.087.938.088.946-.867 1.11a4.885 4.885 0 0 1-1.696.01c-1.472-.266-2.235-1.247-2.278-2.918-.022-.86-.004-1.721-.004-2.581M75.483 29.935c-1.755 0-3.51-.01-5.266.007-.361.004-.464-.11-.465-.468-.004-1.334-.017-1.334 1.335-1.334 3.166 0 6.333.009 9.499-.01.43-.003.546.108.537.537-.026 1.267-.006 1.268-1.252 1.268h-4.388M63.026 56.447c0 .637.008 1.274-.004 1.91-.004.236.044.436.201.616.527.602 1.205.749 1.962.653.74-.094 1.168-.555 1.348-1.24.34-1.293.331-2.593-.101-3.86-.446-1.31-2.143-1.63-3.085-.612-.218.235-.341.491-.328.83.024.567.007 1.136.007 1.703m.075-4.194c1.345-1.748 4.365-1.41 5.509.452.8 1.304.97 2.734.95 4.212a7.815 7.815 0 0 1-.372 2.33c-.994 3.048-4.817 3.4-6.288 1.317-.024.016-.065.03-.068.05-.156 1.042-.156 1.05-1.227 1.039-.442-.005-1.022.19-1.289-.079-.268-.27-.077-.85-.078-1.294-.006-3.667-.01-7.335.007-11.002.002-.401-.088-.553-.507-.619-.985-.155-.98-.185-.98-1.195 0-.71 0-.71.704-.71 1.05 0 2.1.015 3.15-.009.35-.008.425.104.422.433-.017 1.532-.011 3.065-.004 4.597.001.155-.08.336.071.478M54.16 57.275c-.324-.013-.738-.012-1.135.121-.904.302-1.294 1.441-.669 2.016.57.524 1.245.404 1.893.156.74-.283.994-.638.995-1.305 0-.988 0-.988-1.083-.988m1.195 3.387c-1.256 1.23-2.685 1.477-4.236.95-1.177-.399-1.765-1.298-1.859-2.535-.092-1.218.344-2.152 1.437-2.738.822-.44 1.716-.587 2.636-.603.516-.01 1.033-.02 1.55.004.301.015.401-.095.36-.379-.01-.067-.002-.137-.002-.206.002-1.716-1.217-2.468-2.812-1.754-.322.144-.361.387-.368.666-.011.453-.18.682-.682.613a3.58 3.58 0 0 0-.978 0c-.525.073-.662-.148-.601-.628a2.988 2.988 0 0 0-.002-.876c-.126-.71.237-1.036.832-1.316 1.69-.799 3.412-1.032 5.19-.385 1.491.541 2.24 1.654 2.244 3.232.003 1.515.009 3.03-.005 4.544-.003.39.03.683.531.643.27-.022.375.11.383.404.034 1.36.044 1.36-1.305 1.36-.448 0-.898-.035-1.342.009-.498.05-.782-.109-.847-.619-.015-.116-.071-.227-.124-.386M79.241 53.632c-.019.361.195.924-.065 1.177-.281.276-.852.034-1.29.096-.432.06-.633-.103-.663-.525-.043-.604-.303-1.016-.937-1.17-.707-.17-1.403-.253-2.025.202-.666.488-.546 1.329.226 1.698.611.29 1.286.36 1.934.521.67.166 1.322.377 1.915.738 1.599.976 1.78 3.15.365 4.393-.929.817-2.055 1.07-3.249 1.096-1.353.03-2.622-.264-3.758-1.04-.278-.19-.435-.388-.41-.754.036-.53.025-1.067-.002-1.6-.014-.258.059-.347.307-.325.137.012.275.001.413.003.396.004.86-.117 1.168.05.321.173.28.7.392 1.071a.6.6 0 0 0 .4.428c.719.258 1.447.297 2.174.068.4-.125.69-.38.745-.83.058-.48-.203-.787-.584-1.001-.53-.298-1.125-.41-1.711-.54-.74-.163-1.462-.382-2.117-.774-1.467-.88-1.795-2.686-.742-4.044.59-.76 1.384-1.184 2.31-1.334a7.65 7.65 0 0 1 4.43.572c.56.25.92.57.78 1.243-.034.166-.006.344-.006.58M46.934 53.202c0 1.981.012 3.962-.01 5.942-.005.405.108.569.511.635.846.14.842.161.842 1.01 0 .867 0 .867-.853.867-1.413 0-2.825-.011-4.237.008-.338.005-.475-.087-.42-.425.011-.067.002-.137.002-.206 0-1.044-.002-1.052 1-1.29.258-.06.352-.158.35-.44a1485.27 1485.27 0 0 1 .001-10.178c.001-.317-.108-.395-.401-.445-1.087-.187-1.057-.202-1.096-1.318-.018-.494.104-.643.613-.622 1.083.044 2.17.03 3.255.005.37-.009.453.112.451.463-.016 1.999-.008 3.996-.008 5.994"/>
        <path fill="#1D2258" d="M87.083 80.85c.24-.003.386-.081.376-.29-.01-.226-.204-.228-.373-.25-.24-.03-.217.134-.227.288-.015.206.081.273.224.252zm-.606-.82c.257-.004.516-.02.774-.006.334.02.656.243.54.534-.152.373.006.664.015.991.003.11.122.294-.109.33-.234.038-.242-.124-.242-.29 0-.137.023-.299-.118-.371a.561.561 0 0 0-.345-.046c-.231.047-.102.25-.13.383-.028.137.058.341-.202.325-.222-.015-.151-.193-.154-.314-.011-.516-.013-1.033-.018-1.549l-.011.012z"/>
    </g>
</svg>
