<svg xmlns="http://www.w3.org/2000/svg" xmlns:xlink="http://www.w3.org/1999/xlink" width="100" height="124" viewBox="0 0 100 124">
    <defs>
        <path id="a" d="M0 123.37h99.834V0H0z"/>
    </defs>
    <g fill="none" fill-rule="evenodd" opacity=".5">
        <path fill="#1D2258" d="M8.217 114.305a2.653 2.653 0 0 0-.588-.663 2.753 2.753 0 0 0-1.73-.605c-.595 0-1.099.114-1.513.344-.415.23-.751.538-1.008.924a4.043 4.043 0 0 0-.563 1.32 6.56 6.56 0 0 0-.177 1.528c0 .504.059.994.177 1.47.117.477.305.906.563 1.287.257.38.593.686 1.008.915.414.23.918.345 1.512.345.807 0 1.436-.247 1.89-.74.454-.493.731-1.142.832-1.949h2.554a6.102 6.102 0 0 1-.52 2.033c-.28.605-.65 1.12-1.11 1.546-.459.426-.997.75-1.613.975a5.92 5.92 0 0 1-2.033.336c-.919 0-1.745-.16-2.479-.479a5.32 5.32 0 0 1-1.856-1.319 5.845 5.845 0 0 1-1.16-1.975A7.253 7.253 0 0 1 0 117.153c0-.896.135-1.727.403-2.495a6.001 6.001 0 0 1 1.16-2.008 5.309 5.309 0 0 1 1.856-1.344c.734-.325 1.56-.487 2.48-.487.66 0 1.284.095 1.873.285.588.19 1.114.468 1.58.832a4.5 4.5 0 0 1 1.15 1.353c.302.537.493 1.153.572 1.848H8.519a2.15 2.15 0 0 0-.302-.832M14.989 114.414v1.614h.033a2.97 2.97 0 0 1 1.11-1.336c.245-.163.509-.288.789-.378.28-.09.571-.134.874-.134.157 0 .33.027.52.083v2.219a4.438 4.438 0 0 0-.402-.06 4.189 4.189 0 0 0-.454-.025c-.437 0-.807.074-1.11.219a1.918 1.918 0 0 0-.73.596 2.385 2.385 0 0 0-.395.883 4.8 4.8 0 0 0-.118 1.092v3.915H12.72v-8.688h2.269zM24.206 116.448c-.286-.314-.72-.47-1.303-.47-.381 0-.697.064-.95.193a1.753 1.753 0 0 0-.924 1.083 2.72 2.72 0 0 0-.109.572h3.882c-.112-.605-.31-1.064-.596-1.378m-2.697 4.57c.358.348.873.521 1.545.521.482 0 .896-.12 1.244-.361.347-.24.56-.495.638-.765h2.1c-.335 1.043-.85 1.787-1.545 2.235-.695.448-1.535.672-2.52.672-.684 0-1.3-.109-1.849-.327a3.83 3.83 0 0 1-1.395-.933 4.192 4.192 0 0 1-.882-1.445 5.29 5.29 0 0 1-.31-1.848c0-.65.105-1.255.319-1.815.212-.56.515-1.044.907-1.453.392-.41.86-.732 1.403-.967a4.495 4.495 0 0 1 1.806-.352c.74 0 1.384.142 1.933.428.548.286 1 .67 1.353 1.151.352.482.607 1.03.764 1.647.157.616.212 1.26.168 1.932H20.92c.034.773.23 1.333.589 1.68M33.632 119.06a3.81 3.81 0 0 1-.487.127 7.055 7.055 0 0 1-.547.084c-.19.022-.38.05-.57.083a4.5 4.5 0 0 0-.53.135 1.573 1.573 0 0 0-.454.227c-.129.095-.232.217-.31.362a1.16 1.16 0 0 0-.118.554c0 .213.039.392.117.538a.9.9 0 0 0 .32.344c.134.084.291.143.47.176.18.035.364.051.555.051.47 0 .834-.079 1.092-.235.258-.157.448-.345.571-.563.123-.219.199-.44.227-.664.028-.224.042-.403.042-.538v-.89c-.101.09-.227.16-.378.21m-4.714-3.37c.247-.369.56-.666.942-.89.38-.223.809-.383 1.285-.479a7.332 7.332 0 0 1 1.437-.143c.437 0 .879.032 1.327.093.448.061.857.182 1.227.361.37.18.672.428.907.748.235.319.353.742.353 1.269v4.52c0 .392.022.768.067 1.125.045.359.124.628.235.807h-2.42a3.564 3.564 0 0 1-.168-.84c-.38.392-.828.667-1.344.823a5.409 5.409 0 0 1-1.579.235c-.415 0-.801-.05-1.16-.151a2.643 2.643 0 0 1-.94-.47 2.186 2.186 0 0 1-.63-.807c-.152-.325-.227-.711-.227-1.16 0-.492.086-.898.26-1.217.174-.32.398-.575.672-.765.275-.19.588-.333.942-.429.352-.095.708-.17 1.066-.226.359-.057.712-.101 1.059-.135.347-.033.655-.084.924-.151.269-.067.482-.165.639-.294.157-.129.23-.317.218-.563 0-.258-.042-.462-.126-.614a.926.926 0 0 0-.336-.353 1.334 1.334 0 0 0-.487-.168 4.042 4.042 0 0 0-.597-.041c-.47 0-.84.1-1.11.302-.268.202-.425.538-.47 1.009h-2.386c.034-.56.174-1.025.42-1.395M43.017 114.414v1.597h-1.748v4.302c0 .403.067.672.202.806.134.135.403.202.806.202.134 0 .263-.005.387-.017a3.39 3.39 0 0 0 .353-.05v1.848a5.79 5.79 0 0 1-.673.067c-.246.011-.487.017-.722.017-.37 0-.72-.025-1.05-.076a2.452 2.452 0 0 1-.874-.294 1.555 1.555 0 0 1-.597-.622c-.146-.268-.218-.62-.218-1.058v-5.125h-1.445v-1.597h1.445v-2.604h2.386v2.604h1.748z"/>
        <mask id="b" fill="#fff">
            <use xlink:href="#a"/>
        </mask>
        <path fill="#1D2258" d="M44.226 123.102h2.386v-8.687h-2.386v8.687zm0-10.032h2.386v-1.966h-2.386v1.966zM50.645 123.102l-2.974-8.688h2.503l1.832 5.932h.034l1.831-5.932h2.37l-2.941 8.688zM62.483 116.448c-.286-.314-.72-.47-1.303-.47-.38 0-.697.064-.949.193a1.757 1.757 0 0 0-.924 1.083 2.726 2.726 0 0 0-.11.572h3.882c-.112-.605-.31-1.064-.596-1.378m-2.697 4.57c.358.348.874.521 1.546.521.481 0 .896-.12 1.243-.361.347-.24.56-.495.639-.765h2.1c-.336 1.043-.851 1.787-1.546 2.235-.695.448-1.535.672-2.52.672-.683 0-1.3-.109-1.849-.327a3.834 3.834 0 0 1-1.394-.933 4.187 4.187 0 0 1-.882-1.445 5.276 5.276 0 0 1-.312-1.848c0-.65.107-1.255.32-1.815.213-.56.515-1.044.907-1.453a4.26 4.26 0 0 1 1.403-.967 4.498 4.498 0 0 1 1.807-.352c.74 0 1.383.142 1.932.428.549.286 1 .67 1.353 1.151.353.482.607 1.03.764 1.647.157.616.213 1.26.168 1.932h-6.268c.034.773.23 1.333.589 1.68M69.767 111.104v9.78h5.847v2.218H67.13v-11.998zM81.873 119.06c-.15.051-.313.093-.487.127a7.134 7.134 0 0 1-.546.084c-.19.022-.38.05-.571.083-.18.034-.356.08-.53.135a1.575 1.575 0 0 0-.453.227 1.098 1.098 0 0 0-.311.362c-.079.145-.118.33-.118.554 0 .213.04.392.118.538a.91.91 0 0 0 .32.344c.133.084.29.143.47.176.18.035.364.051.554.051.47 0 .834-.079 1.093-.235.257-.157.447-.345.57-.563.124-.219.2-.44.228-.664a4.64 4.64 0 0 0 .041-.538v-.89c-.1.09-.226.16-.378.21m-4.713-3.37c.246-.369.56-.666.941-.89.38-.223.81-.383 1.285-.479a7.335 7.335 0 0 1 1.437-.143c.437 0 .88.032 1.328.093.447.061.857.182 1.226.361.37.18.672.428.908.748.235.319.353.742.353 1.269v4.52c0 .392.022.768.067 1.125.044.359.123.628.235.807h-2.42a3.36 3.36 0 0 1-.167-.84 3.11 3.11 0 0 1-1.345.823 5.408 5.408 0 0 1-1.58.235c-.414 0-.8-.05-1.158-.151a2.64 2.64 0 0 1-.942-.47 2.186 2.186 0 0 1-.63-.807c-.151-.325-.227-.711-.227-1.16 0-.492.087-.898.26-1.217.175-.32.398-.575.673-.765.274-.19.588-.333.94-.429.354-.095.71-.17 1.068-.226.358-.057.71-.101 1.059-.135a6.38 6.38 0 0 0 .924-.151c.268-.067.481-.165.638-.294.157-.129.23-.317.218-.563 0-.258-.041-.462-.126-.614a.928.928 0 0 0-.335-.353 1.337 1.337 0 0 0-.488-.168 4.037 4.037 0 0 0-.596-.041c-.47 0-.84.1-1.11.302-.268.202-.425.538-.47 1.009H76.74c.034-.56.174-1.025.42-1.395M92.737 117.708a2.765 2.765 0 0 0-.37-.89 1.939 1.939 0 0 0-.63-.614c-.252-.151-.557-.227-.916-.227-.347 0-.65.076-.907.227-.258.151-.47.356-.639.614a2.765 2.765 0 0 0-.37.89 4.65 4.65 0 0 0-.117 1.059c0 .358.039.705.117 1.042.079.335.202.632.37.89.168.258.38.462.639.613.257.152.56.227.907.227.359 0 .664-.075.916-.227a1.93 1.93 0 0 0 .63-.613c.168-.258.291-.555.37-.89.078-.337.117-.684.117-1.042 0-.37-.039-.723-.117-1.059zm-3.865-6.604v4.37h.033a2.544 2.544 0 0 1 1.185-.983 4.004 4.004 0 0 1 1.554-.312 3.306 3.306 0 0 1 2.445 1.093c.342.37.62.843.832 1.42.213.576.32 1.262.32 2.058 0 .795-.107 1.481-.32 2.059-.213.576-.49 1.05-.832 1.42a3.312 3.312 0 0 1-2.445 1.091c-.638 0-1.21-.1-1.713-.302a2.177 2.177 0 0 1-1.143-1.025h-.034v1.109h-2.268v-11.998h2.386zM97.948 113.105a.471.471 0 0 0 .177-.065.358.358 0 0 0 .122-.132.44.44 0 0 0 .046-.215.432.432 0 0 0-.102-.297c-.067-.077-.177-.115-.328-.115h-.798v.842h.67c.074 0 .145-.006.213-.018zm-.068-1.095c.23 0 .41.057.54.17.129.112.194.266.194.462a.73.73 0 0 1-.1.386.51.51 0 0 1-.32.226v.007c.07.014.128.036.171.067.044.033.079.07.105.114a.51.51 0 0 1 .057.147 1.546 1.546 0 0 1 .04.348c.001.06.007.12.016.18.01.058.022.114.04.167a.41.41 0 0 0 .075.14h-.358a.204.204 0 0 1-.046-.102 1.083 1.083 0 0 1-.015-.143l-.007-.171a1.97 1.97 0 0 0-.054-.346.414.414 0 0 0-.064-.14.321.321 0 0 0-.115-.094.425.425 0 0 0-.19-.035h-.784v1.03h-.32v-2.413h1.135z" mask="url(#b)"/>
        <path fill="#1D2258" d="M97.721 111.22a2 2 0 0 0-1.997 1.997 2 2 0 0 0 1.997 1.997 1.999 1.999 0 0 0 1.997-1.997 2 2 0 0 0-1.997-1.997m0 4.11a2.116 2.116 0 0 1-2.113-2.113c0-1.165.949-2.113 2.113-2.113 1.165 0 2.113.948 2.113 2.113a2.116 2.116 0 0 1-2.113 2.113M15.542 35.62c-.008-5.754 4.625-10.443 10.384-10.46 5.76-.018 10.449 4.634 10.465 10.395a10.408 10.408 0 0 1-10.384 10.456c-5.76.022-10.443-4.631-10.465-10.391M7.87 70.202c-.005-2.878 2.313-5.222 5.192-5.231a5.215 5.215 0 0 1 5.232 5.198 5.203 5.203 0 0 1-5.191 5.228 5.214 5.214 0 0 1-5.233-5.195M38.065 83.001c-.003-2.877 2.314-5.222 5.193-5.23a5.214 5.214 0 0 1 5.232 5.198 5.203 5.203 0 0 1-5.191 5.227 5.215 5.215 0 0 1-5.234-5.195M29.595 92.846c-.004-2.878 2.313-5.222 5.193-5.23a5.214 5.214 0 0 1 5.232 5.198 5.204 5.204 0 0 1-5.192 5.227 5.214 5.214 0 0 1-5.233-5.195M53.916 82.01c-.004-2.877 2.313-5.222 5.193-5.231a5.216 5.216 0 0 1 5.232 5.198 5.205 5.205 0 0 1-5.192 5.228 5.215 5.215 0 0 1-5.233-5.195M66.981 82.725c-.003-2.877 2.313-5.222 5.194-5.23a5.215 5.215 0 0 1 5.232 5.198 5.204 5.204 0 0 1-5.192 5.228 5.214 5.214 0 0 1-5.234-5.196M50.337 94.503c-.005-2.877 2.312-5.222 5.192-5.23a5.215 5.215 0 0 1 5.233 5.198 5.204 5.204 0 0 1-5.192 5.228 5.214 5.214 0 0 1-5.233-5.196M68.76 57.497c-.004-2.877 2.312-5.222 5.192-5.23a5.216 5.216 0 0 1 5.233 5.197 5.205 5.205 0 0 1-5.193 5.229 5.215 5.215 0 0 1-5.233-5.196M78.861 65.667c-.004-2.878 2.313-5.222 5.192-5.231a5.215 5.215 0 0 1 5.233 5.198 5.204 5.204 0 0 1-5.192 5.228 5.214 5.214 0 0 1-5.233-5.195M65.435 44.934c-.004-2.878 2.312-5.222 5.192-5.231a5.215 5.215 0 0 1 5.233 5.198 5.205 5.205 0 0 1-5.193 5.228 5.214 5.214 0 0 1-5.232-5.195M43.325 17.858c-.004-2.877 2.313-5.222 5.193-5.23a5.215 5.215 0 0 1 5.232 5.197 5.205 5.205 0 0 1-5.192 5.228 5.214 5.214 0 0 1-5.233-5.195M59.152 28.938c-.004-2.877 2.313-5.222 5.192-5.23a5.215 5.215 0 0 1 5.233 5.197 5.205 5.205 0 0 1-5.192 5.228 5.214 5.214 0 0 1-5.233-5.195M42.624 93.187a2.607 2.607 0 1 1 5.214-.017 2.607 2.607 0 0 1-5.214.017M8.369 40.002a2.607 2.607 0 1 1 5.214-.017 2.607 2.607 0 0 1-5.214.017M18.493 63.64a2.607 2.607 0 1 1 5.214-.017 2.607 2.607 0 0 1-5.214.017M69.917 69.964a2.607 2.607 0 0 1 2.596-2.616 2.608 2.608 0 0 1 .02 5.213 2.607 2.607 0 0 1-2.616-2.597M80.603 76.081a2.607 2.607 0 0 1 2.596-2.615 2.609 2.609 0 0 1 2.616 2.599 2.607 2.607 0 0 1-5.212.017M81.734 55.278a2.607 2.607 0 1 1 0 0M77.86 48.412a2.607 2.607 0 1 1 5.21-.017 2.607 2.607 0 0 1-5.21.017M77.518 40.551a2.606 2.606 0 1 1 0 0M59.39 39.086a2.607 2.607 0 1 1 2.616 2.598 2.607 2.607 0 0 1-2.616-2.598M70.429 34.763a2.607 2.607 0 1 1 5.214-.017 2.607 2.607 0 0 1-5.214.017M43.9 7.69a2.607 2.607 0 1 1 5.213-.017 2.607 2.607 0 0 1-5.213.017M56.086 20.24a2.607 2.607 0 1 1 5.21-.017 2.607 2.607 0 0 1-5.21.018M51.615 26.642a2.607 2.607 0 1 1 5.214-.017 2.607 2.607 0 0 1-5.214.017M61.996 90.472a2.608 2.608 0 0 1 2.597-2.615 2.608 2.608 0 0 1 .02 5.213 2.607 2.607 0 0 1-2.617-2.598M63.373 74.242a2.607 2.607 0 1 1 5.213-.017 2.607 2.607 0 0 1-5.213.017M6.176 52.709c-.006-4.315 3.47-7.832 7.789-7.845 4.32-.013 7.836 3.475 7.848 7.796a7.806 7.806 0 0 1-7.788 7.842 7.82 7.82 0 0 1-7.85-7.793M17.057 80.418c-.006-4.315 3.47-7.832 7.788-7.846 4.32-.012 7.836 3.476 7.849 7.797a7.806 7.806 0 0 1-7.788 7.842 7.82 7.82 0 0 1-7.85-7.793M46.69 1.308a1.304 1.304 0 1 1 2.607-.009 1.304 1.304 0 0 1-2.607.009M24.346 51.2a2.607 2.607 0 1 1 5.214-.016 2.607 2.607 0 0 1-5.214.017M34.904 77.343a1.304 1.304 0 1 1 2.608-.008 1.304 1.304 0 0 1-2.608.008M24.475 92.102a1.304 1.304 0 1 1 2.607-.008 1.304 1.304 0 0 1-2.607.008M50.14 86.538a1.304 1.304 0 1 1 2.607-.008 1.304 1.304 0 0 1-2.607.008M75.446 74.953a1.304 1.304 0 1 1 2.607-.008 1.304 1.304 0 0 1-2.607.008M67.264 64.799a1.304 1.304 0 1 1 2.607-.008 1.304 1.304 0 0 1-2.607.008M79.95 82.29a1.303 1.303 0 1 1 2.607-.009 1.303 1.303 0 0 1-2.606.01M23.942 68.66a1.304 1.304 0 1 1 2.607-.008 1.304 1.304 0 0 1-2.607.008M23.467 57.33a1.304 1.304 0 1 1 2.607-.007 1.304 1.304 0 0 1-2.607.008M6.527 62.673a1.304 1.304 0 1 1 2.607-.008 1.304 1.304 0 0 1-2.607.008M11.885 79.25a1.304 1.304 0 1 1 2.607-.007 1.304 1.304 0 0 1-2.607.008" mask="url(#b)"/>
    </g>
</svg>
