<svg xmlns="http://www.w3.org/2000/svg" xmlns:xlink="http://www.w3.org/1999/xlink" width="200" height="38" viewBox="0 0 200 38">
    <defs>
        <path id="a" d="M.052.08h12.91v12.587H.053z"/>
        <path id="c" d="M.01.067h12.593v12.6H.01z"/>
        <path id="e" d="M.04.078h12.613v12.589H.04z"/>
        <path id="g" d="M.004.064h5.162v5.104H.004z"/>
    </defs>
    <g fill="none" fill-rule="evenodd" opacity=".5">
        <g transform="translate(141.167 25.25)">
            <mask id="b" fill="#fff">
                <use xlink:href="#a"/>
            </mask>
            <path fill="#1D2258" d="M6.99 8.506c0-.236-.002-.472 0-.707.002-.12-.006-.208-.163-.23-.455-.066-.906-.126-1.36-.002-.308.084-.524.276-.604.575-.125.466-.173.952.175 1.344.35.392.835.334 1.286.242.555-.114.666-.284.666-.847v-.375zm-3.657 4.16c-.117-.154-.303-.1-.453-.133C.842 12.094-.238 10.498.12 8.435c.305-1.76 1.544-2.816 3.516-3.02a12.11 12.11 0 0 1 3.07.062c.22.033.31-.008.287-.243-.018-.193.005-.39-.012-.583-.052-.605-.344-.955-.939-1.05-1.006-.163-1.967-.04-2.81.585a.814.814 0 0 1-.534.176 35.166 35.166 0 0 0-1.54 0c-.201.004-.26-.065-.259-.262.008-.971.013-1.943-.003-2.915C.892.941 1.018.887 1.2.83 2.8.322 4.446.119 6.117.085 7.201.063 8.281.1 9.334.405c1.72.499 2.63 1.642 2.662 3.427.03 1.637.011 3.275.014 4.913.001.615.141.79.737.873.16.022.216.076.215.23-.005.667-.008 1.333 0 2 .003.205-.145.245-.277.313-.53.27-1.127.326-1.685.506H9.417c-.893-.18-1.695-.5-2.09-1.422-.88.83-1.442 1.117-2.492 1.314-.167.031-.36-.042-.502.108h-1z" mask="url(#b)"/>
        </g>
        <path fill="#1D2258" d="M100.422 31.702c.017.747.06 1.482.35 2.172.26.619.681 1.047 1.407 1.042.71-.004 1.144-.422 1.362-1.036a6.318 6.318 0 0 0 .028-4.203c-.213-.638-.664-1.055-1.382-1.077-.642-.02-1.15.364-1.436 1.069-.266.655-.308 1.347-.33 2.033zm.578 6.214c-.274-.177-.6-.16-.9-.232-3.23-.779-5.086-3.415-4.709-6.704.356-3.105 2.506-5.224 5.622-5.576 1.346-.151 2.66-.07 3.936.396 2.801 1.023 4.166 3.5 4.008 6.33-.175 3.144-2.308 5.228-5.456 5.7-.086.012-.201-.04-.251.086H101z"/>
        <g transform="translate(180.667 25.25)">
            <mask id="d" fill="#fff">
                <use xlink:href="#c"/>
            </mask>
            <path fill="#1D2258" d="M6.51 5.089c.11 0 .222.005.333-.001.356-.02.909.154 1.027-.064.196-.364-.023-.854-.174-1.271-.17-.472-.489-.756-1.014-.781-.546-.027-.978.15-1.244.65-.205.385-.274.809-.348 1.232-.032.18.028.244.214.238.402-.011.804-.003 1.206-.003zm-1.177 7.578c-.333-.182-.714-.16-1.07-.241C1.8 11.857.318 10.146.073 7.623c-.116-1.189-.096-2.362.286-3.497C1.155 1.76 2.893.54 5.295.172a9.173 9.173 0 0 1 3.312.102c2.248.477 3.58 1.969 3.894 4.301.112.83.109 1.66.097 2.493-.005.32-.086.418-.42.416-2.22-.016-4.442-.008-6.663-.008-.501 0-.493 0-.404.475.281 1.506 1.31 2.001 3.101 1.583a2.04 2.04 0 0 0 1.107-.7.494.494 0 0 1 .43-.19c.68.008 1.36.02 2.04-.004.31-.01.365.108.36.384-.018.735-.02 1.472 0 2.207.008.266-.093.394-.32.502-1.04.499-2.146.73-3.282.852-.1.011-.227-.05-.297.082H5.333z" mask="url(#d)"/>
        </g>
        <g transform="translate(64 25.25)">
            <mask id="f" fill="#fff">
                <use xlink:href="#e"/>
            </mask>
            <path fill="#1D2258" d="M6.552 5.089h.415c1.166 0 1.186-.029.82-1.17-.205-.644-.53-.923-1.103-.948-.648-.028-1.062.242-1.315.862-.136.335-.186.691-.252 1.044-.033.179.033.215.19.213.415-.005.83-.001 1.245-.001zm-1.135 7.578c-.326-.162-.69-.146-1.035-.225C1.806 11.85.34 10.19.094 7.548-.002 6.507.012 5.468.292 4.45.949 2.06 2.822.472 5.319.166 6.432.03 7.538.042 8.633.273c2.176.457 3.494 1.863 3.86 4.094.152.92.196 1.846.13 2.78-.02.281-.121.335-.376.334-2.25-.009-4.499.001-6.748-.012-.343-.002-.458.044-.37.43.172.756.431 1.45 1.255 1.657 1.024.257 2.028.18 2.838-.599.244-.235.47-.327.796-.316.624.022 1.25.016 1.874.002.22-.005.283.062.28.28-.013.778-.018 1.556.002 2.333.006.25-.088.368-.298.47-1.052.506-2.171.74-3.323.86-.13.014-.28-.048-.386.08h-2.75z" mask="url(#f)"/>
        </g>
        <path fill="#1D2258" d="M174.667 37.916c-.411-.165-.858-.161-1.282-.268-2.606-.654-4.142-2.503-4.297-5.197-.061-1.073-.02-2.138.338-3.165.747-2.149 2.339-3.322 4.497-3.75 2.017-.4 4.029-.246 6.013.289.27.072.372.192.366.487a65.102 65.102 0 0 0 0 2.914c.007.32-.093.4-.4.389-.65-.024-1.304-.013-1.956-.005-.209.003-.356-.025-.463-.246-.31-.638-.855-.87-1.542-.827-.715.046-1.216.407-1.435 1.076-.456 1.396-.473 2.818-.012 4.21.327.988 1.326 1.348 2.447.974.279-.094.577-.201.746-.434.324-.446.75-.486 1.237-.455.387.025.777.012 1.166.002.18-.004.24.057.238.239-.008.805-.01 1.61 0 2.415.004.215-.132.282-.278.365-.879.503-1.832.773-2.83.907-.102.014-.226-.035-.303.08h-2.25zM0 31.5c.146-.102.113-.275.147-.413.676-2.741 3.349-4.533 6.076-4.065 2.824.485 4.768 2.995 4.516 5.83-.23 2.602-2.346 4.677-4.975 4.882-2.583.202-4.976-1.542-5.608-4.078-.034-.139-.01-.308-.156-.407V31.5zM0 4.75c.06-.254.116-.509.183-.76C.848 1.5 3.367-.22 5.838.03c2.739.277 4.848 2.523 4.91 5.197.063 2.762-1.849 5.086-4.504 5.51-2.794.445-5.42-1.312-6.1-4.074-.034-.138 0-.31-.144-.414v-1.5zM125.763 27.259c.337-.304.63-.597.952-.854 1.202-.957 2.575-1.268 4.07-.972 1.032.203 1.743.81 2.032 1.904.292-.276.54-.527.806-.759 1.218-1.06 2.631-1.439 4.217-1.161 1.306.229 2.134 1.134 2.16 2.466.04 2.027.02 4.055.025 6.082.001.641.115.788.759.903.171.03.193.112.193.252-.003.777-.006 1.555.002 2.333.002.196-.065.269-.264.268a584.01 584.01 0 0 0-5.457.003c-.334.003-.26-.205-.26-.385-.002-2.32 0-4.639-.001-6.958 0-1.184-.138-1.32-1.313-1.294-.77.017-.77.017-.77.795 0 1.527.009 3.055-.007 4.582-.003.314.063.43.403.417.684-.025.684-.004.684.7 0 .61-.01 1.222.005 1.832.006.234-.062.311-.302.31a393.998 393.998 0 0 0-5.499.003c-.353.004-.29-.2-.29-.4l-.001-6.958c0-.153.003-.306-.007-.458-.038-.573-.222-.77-.79-.813a5.15 5.15 0 0 0-1.08.03c-.171.023-.231.093-.23.267a677.92 677.92 0 0 1-.001 5.208c-.002.23.093.268.295.275.783.025.783.032.783.82 0 .542-.016 1.084.006 1.624.012.3-.057.408-.385.406a596.96 596.96 0 0 0-6.498-.004c-.259.001-.368-.048-.36-.34a45.45 45.45 0 0 0 .003-2.208c-.005-.237.069-.305.306-.309.627-.01.83-.234.831-.866.002-1.514.002-3.027 0-4.54 0-.656-.213-.883-.866-.873-.27.005-.354-.065-.347-.342.019-.79.014-1.583.002-2.374-.004-.228.053-.31.296-.308 1.638.01 3.277.01 4.916.002.379-.002.586.192.723.513.155.362.173.754.259 1.18M56.89 7.513c1.204-.003 1.743-.348 1.977-1.294a3.76 3.76 0 0 0 .002-1.77c-.164-.71-.603-1.143-1.333-1.233-.342-.042-.692-.017-1.036-.048-.269-.025-.322.086-.32.332.012 1.108.006 2.217.006 3.326 0 .688 0 .688.703.687m-2.121-7.5c1.242.028 2.729-.056 4.212.068.846.07 1.678.214 2.477.509 1.756.648 2.688 1.934 2.866 3.774.083.86.07 1.722-.187 2.559-.502 1.625-1.688 2.512-3.246 2.994-1.344.416-2.73.475-4.118.458-.375-.005-.463.099-.447.457.03.707.023 1.416.001 2.124-.008.284.089.353.352.338.36-.02.722.003 1.083-.008.194-.005.27.058.267.261-.009.777-.009 1.555 0 2.332.002.205-.077.26-.27.26-2.61-.005-5.22-.006-7.83 0-.225 0-.282-.079-.28-.29a76.88 76.88 0 0 0 0-2.29c-.004-.233.092-.268.295-.274.822-.025 1.004-.225 1.004-1.059V3.98c0-.78-.198-.996-.97-.998-.255-.001-.335-.07-.33-.327.016-.778.018-1.555 0-2.332-.007-.275.1-.316.34-.314 1.512.01 3.026.005 4.78.005M56.186 26.904v1.081c0 1.185 0 1.185 1.194 1.1.74-.052 1.248-.447 1.453-1.155.182-.625.18-1.26.038-1.89-.16-.71-.598-1.13-1.327-1.247-.36-.057-.72-.017-1.078-.04-.217-.015-.29.061-.285.28.013.624.005 1.248.005 1.871m-1.432-5.308c1.244.027 2.73-.056 4.214.068.944.08 1.87.242 2.747.613 1.617.684 2.438 1.949 2.607 3.658.085.86.073 1.722-.183 2.56-.496 1.626-1.68 2.518-3.237 3.003-1.343.417-2.729.473-4.118.462-.347-.003-.481.057-.461.443.037.72.023 1.444.004 2.165-.007.265.08.335.331.32.36-.02.722.006 1.082-.008.212-.008.293.054.29.278a74.416 74.416 0 0 0-.001 2.29c.003.232-.096.274-.299.274-2.596-.005-5.192-.005-7.788 0-.207 0-.297-.047-.294-.275.012-.764.013-1.527 0-2.29-.004-.226.078-.272.287-.279.816-.023 1.012-.237 1.012-1.059v-8.33c0-.682-.239-.942-.918-.922-.33.01-.391-.103-.383-.402.02-.735.02-1.472 0-2.207-.008-.292.078-.372.37-.369 1.499.015 2.998.007 4.738.007M160.534 27.193c.888-.88 1.876-1.494 3.068-1.734.812-.163 1.625-.201 2.433.018 1.271.344 1.939 1.227 1.952 2.65.019 1.958.006 3.916.008 5.874 0 .617.114.76.742.867.141.024.188.072.187.207-.003.806-.006 1.611.002 2.416.002.192-.083.23-.251.23-1.805-.004-3.61-.01-5.416.004-.32.002-.273-.185-.273-.378 0-2.319.001-4.637-.002-6.956 0-.193-.019-.388-.045-.58-.049-.358-.27-.565-.613-.647-.509-.121-1.02-.086-1.532-.034-.183.019-.22.103-.22.269.006 1.735.006 3.471 0 5.207 0 .186.038.295.25.267.055-.007.11 0 .166 0 .933.004.933.004.933.958 0 .541-.007 1.083.003 1.624.004.194-.05.268-.257.267-2.332-.006-4.665-.006-6.998 0-.203 0-.26-.067-.258-.264.01-.777.01-1.555 0-2.332-.004-.207.073-.25.264-.258.717-.033.892-.225.892-.94V29.47c0-.654-.224-.897-.86-.884-.276.006-.387-.047-.378-.356a40.08 40.08 0 0 0 0-2.332c-.008-.292.1-.337.357-.335 1.597.01 3.194.016 4.79-.003.459-.005.707.212.827.605.097.317.147.648.23 1.027M102.449 5.6c.197-.173.367-.33.545-.478 1.334-1.104 2.86-1.563 4.574-1.304 1.521.23 2.326 1.162 2.34 2.702.019 1.971.005 3.943.006 5.915 0 .585.149.776.721.847.2.025.214.115.214.27-.004.777-.008 1.555.002 2.332.003.21-.084.255-.272.254-1.805-.005-3.61-.009-5.416.002-.338.002-.254-.216-.254-.391-.003-2.305-.002-4.61-.003-6.915 0-.153.006-.307-.012-.458-.059-.5-.251-.705-.743-.814-.082-.018-.163-.04-.245-.045-.459-.026-1.005-.146-1.339.11-.24.183-.064.732-.066 1.117-.008 1.403.004 2.805-.01 4.208-.003.275.077.358.348.344.316-.017.733-.105.926.055.228.19.064.624.074.95.016.486-.01.973.01 1.458.01.274-.046.385-.356.384-2.277-.014-4.555-.011-6.832-.003-.249.001-.338-.056-.332-.321.018-.75.014-1.5.002-2.25-.003-.217.064-.279.281-.286.689-.021.878-.228.878-.909v-4.54c0-.592-.24-.853-.827-.828-.335.014-.418-.092-.407-.415.024-.75.016-1.5.003-2.25-.005-.25.035-.365.332-.363 1.624.015 3.249.013 4.873.003.38-.002.587.183.727.506.15.343.162.718.258 1.113M71.102 12.206c0-1.043 0-1.043-.95-1.042-.993 0-1.478.673-1.178 1.635.165.53.622.74 1.359.621.603-.097.769-.287.769-.883v-.331zm.348 2.717c-1.278 1.32-2.862 1.57-4.57 1.237-1.777-.345-2.82-1.799-2.673-3.614.167-2.037 1.388-3.229 3.531-3.462a12.054 12.054 0 0 1 3.073.054c.208.031.316.015.294-.23-.017-.18 0-.362-.006-.542-.024-.626-.314-1-.924-1.098-1.006-.164-1.968-.044-2.812.583a.815.815 0 0 1-.535.176c-.5-.01-1-.012-1.5.001-.225.006-.318-.05-.315-.3.013-.957.015-1.916-.001-2.874-.005-.247.127-.298.308-.355 1.519-.485 3.082-.692 4.669-.742 1.042-.033 2.082-.018 3.106.222 2.05.48 3.005 1.621 3.047 3.724.032 1.583.01 3.167.012 4.75 0 .585.149.769.724.842.162.02.21.07.208.225-.006.653-.011 1.306.003 1.958.004.194-.091.271-.24.335-1.222.522-2.488.67-3.786.392-.77-.164-1.14-.489-1.613-1.282zM117.463 8.755h.374c1.235 0 1.288-.081.863-1.268-.18-.501-.487-.826-1.053-.85-.614-.026-1.017.195-1.275.735-.163.34-.234.706-.294 1.076-.036.224.003.327.262.312.373-.02.748-.005 1.123-.005m2.306 2.387c-1.125 0-2.25.006-3.374-.005-.269-.003-.388.015-.332.354.231 1.41 1.026 1.998 2.55 1.828.655-.072 1.241-.3 1.679-.816a.498.498 0 0 1 .427-.193c.694.01 1.389.013 2.083-.001.233-.005.31.06.306.3-.015.778-.016 1.556 0 2.333.005.233-.08.346-.28.443-.933.456-1.924.705-2.95.82-1.647.183-3.294.244-4.919-.193-2.261-.608-3.508-2.118-3.864-4.392-.188-1.204-.165-2.407.162-3.592.635-2.301 2.556-3.901 5.014-4.196 1.14-.136 2.271-.118 3.394.13 2.122.468 3.322 1.822 3.745 3.916.196.973.193 1.958.165 2.945-.007.258-.102.326-.348.323-1.153-.01-2.305-.004-3.458-.004M134.274 13.959c0-.458.01-.917-.004-1.374-.007-.23.058-.321.302-.316a60.03 60.03 0 0 0 2.083 0c.187-.002.297.065.413.21.628.783 1.92 1.12 2.84.753.275-.11.484-.294.483-.612-.002-.33-.231-.479-.522-.561-.779-.22-1.595-.2-2.38-.384-.053-.013-.11-.016-.163-.028-2.601-.594-3.794-2.914-2.773-5.402.482-1.176 1.434-1.799 2.595-2.153 1.35-.411 2.74-.383 4.129-.304 1.013.057 2.012.21 2.994.475.23.062.332.156.326.419a56.26 56.26 0 0 0-.002 2.498c.006.28-.054.397-.36.379-.429-.027-.86-.011-1.29-.006-.522.006-.971-.016-1.433-.425-.652-.575-1.521-.508-2.344-.327-.265.058-.456.223-.469.512-.013.308.212.437.462.51.655.194 1.338.232 2.008.34.657.107 1.307.24 1.93.487 1.056.42 1.684 1.187 1.876 2.303.12.69.122 1.383-.006 2.072-.328 1.77-1.51 2.67-3.169 3.055-1.632.378-3.282.288-4.93.124a13.827 13.827 0 0 1-2.283-.44c-.25-.069-.33-.179-.318-.43.02-.458.005-.917.005-1.375M91.147 37.719c-1.139 0-2.277-.008-3.415.005-.257.003-.333-.069-.327-.326.016-.736.011-1.472.002-2.207-.003-.212.023-.322.284-.326.663-.011.833-.2.833-.848.001-1.694-.007-3.388.008-5.081.002-.297-.084-.367-.37-.363-.826.013-.826 0-.826-.842 0-.611.01-1.222-.005-1.833-.006-.238.032-.358.31-.336.273.021.62.084.807-.05.206-.148.065-.517.087-.788.169-2.087 1.121-3.093 3.252-3.37a9.326 9.326 0 0 1 3.31.155c.294.068.4.196.387.507a32.67 32.67 0 0 0-.004 1.957c.004.217-.063.29-.282.284-.36-.01-.723-.032-1.076.068-.435.124-.725.753-.539 1.152.06.127.16.088.248.09.43.004.86.009 1.291-.001.194-.005.27.054.268.258-.01.833-.009 1.666 0 2.5.001.198-.063.266-.264.26-.416-.013-.833.007-1.249-.008-.225-.009-.31.046-.308.292.01 1.763.003 3.526.007 5.29 0 .465.25.702.722.714.097.002.195.011.29-.001.266-.035.326.086.32.334-.014.721-.017 1.444.002 2.165.007.275-.074.357-.348.354-1.139-.013-2.277-.005-3.415-.005M88.919 10.211c0-.957-.009-1.915.006-2.872.004-.263-.055-.353-.337-.35-.852.008-.852-.005-.852-.857 0-.625.01-1.25-.005-1.874-.005-.223.07-.28.284-.279.287.002.664.134.84-.053.19-.202.056-.581.061-.882.01-.638.012-1.277-.002-1.915-.004-.227.05-.31.295-.308 1.484.011 2.97.01 4.454 0 .243-.001.302.077.299.308-.013.832.008 1.665-.012 2.498-.007.299.093.378.378.364.457-.022.916.003 1.374-.01.209-.005.293.05.29.278a87.76 87.76 0 0 0-.001 2.456c.003.214-.055.294-.279.286-.471-.015-.944.013-1.415-.01-.279-.015-.348.078-.346.347.012 1.526-.001 3.053.009 4.58.007 1.049.313 1.343 1.376 1.374.678.02.678.02.678.711 0 .583-.003 1.166.002 1.748.001.18-.01.298-.24.35-1.426.323-2.86.406-4.291.097-1.687-.364-2.513-1.4-2.557-3.156-.024-.943-.004-1.887-.004-2.83h-.005zM26.893 5.396c.005-2.975 2.4-5.379 5.364-5.383 2.965-.004 5.4 2.44 5.391 5.412-.008 2.958-2.425 5.376-5.379 5.384-2.973.008-5.381-2.416-5.376-5.413M24.19 5.425a5.38 5.38 0 0 1-5.365 5.384c-2.962.007-5.399-2.44-5.39-5.413.007-2.957 2.43-5.382 5.378-5.383 2.98-.002 5.384 2.418 5.377 5.412M26.893 32.337A5.347 5.347 0 0 1 32.3 26.97a5.379 5.379 0 0 1 5.35 5.397 5.403 5.403 0 0 1-5.422 5.377c-2.956-.01-5.342-2.429-5.334-5.407M24.19 18.893a5.35 5.35 0 0 1-5.363 5.37 5.38 5.38 0 0 1-5.394-5.395c.007-2.977 2.43-5.38 5.42-5.373 2.961.007 5.342 2.414 5.337 5.398M26.893 18.883c-.002-2.982 2.382-5.384 5.346-5.388 2.987-.004 5.408 2.406 5.41 5.383a5.38 5.38 0 0 1-5.404 5.385 5.348 5.348 0 0 1-5.352-5.38M115.318 27.139c.28-.305.498-.577.751-.81.791-.73 1.719-1.031 2.795-.854.247.04.308.154.305.39-.011 1.027-.014 2.055.002 3.082.004.27-.066.354-.343.352-1.042-.004-2.08.048-3.105.27-.277.06-.354.17-.352.441.012 1.5.014 3 0 4.5-.004.297.09.371.376.37.895-.006.895.006.895.913 0 .528-.015 1.056.007 1.583.011.284-.09.349-.358.348-2.235-.01-4.471-.008-6.707-.001-.25 0-.376-.035-.366-.336.023-.735.015-1.472.003-2.208-.004-.232.062-.309.302-.313.642-.012.834-.222.834-.858v-4.541c0-.659-.213-.89-.857-.88-.258.003-.362-.048-.354-.336.02-.777.022-1.555-.001-2.333-.01-.307.1-.358.377-.356 1.556.013 3.111.006 4.667.007.602 0 .811.155.968.746.067.25.1.509.161.824M130.034 5.594c.296-.373.55-.687.858-.948.774-.654 1.658-.918 2.667-.758.233.037.326.13.323.379a120.837 120.837 0 0 0 0 3.123c.004.264-.087.325-.335.325-1.041 0-2.079.044-3.103.272-.253.056-.368.13-.365.421.016 1.514.014 3.027.001 4.54-.002.273.074.348.347.348.92 0 .92.01.92.924 0 .528-.01 1.055.005 1.583.008.243-.045.34-.317.338-2.263-.01-4.526-.01-6.789 0-.256 0-.331-.078-.326-.332.016-.736.02-1.472-.001-2.207-.007-.276.103-.316.34-.318.602-.006.82-.239.821-.834a2948.8 2948.8 0 0 0 0-4.623c0-.579-.25-.84-.835-.823-.295.008-.414-.047-.402-.38.028-.776.016-1.554.004-2.331-.003-.23.055-.314.3-.313 1.651.01 3.304.008 4.956.004.34-.001.533.178.666.467.157.342.187.714.265 1.143M83.48 5.555c.278-.302.496-.574.748-.807.79-.732 1.718-1.032 2.794-.857.24.04.314.144.311.386a94.52 94.52 0 0 0 .003 3.082c.006.312-.112.357-.384.357-1.028-.002-2.052.047-3.062.27-.26.057-.367.143-.365.428.015 1.5.018 3 0 4.499-.005.33.114.387.408.383.87-.011.87 0 .87.857 0 .542-.012 1.083.005 1.624.008.26-.051.366-.341.365a677.03 677.03 0 0 0-6.748 0c-.277 0-.358-.08-.351-.352.016-.722.013-1.444 0-2.166-.004-.241.049-.34.319-.342.634-.004.83-.222.831-.859v-4.54c0-.66-.211-.888-.857-.88-.26.003-.361-.05-.354-.336.021-.777.023-1.556 0-2.332-.01-.31.103-.358.378-.356 1.555.013 3.11.006 4.665.007.593 0 .796.142.956.706.075.262.11.534.175.863M83.097 27.148c.203-.233.374-.45.565-.647.803-.834 1.772-1.203 2.934-1.035.252.036.342.139.337.406a90.26 90.26 0 0 0 0 3.082c.006.283-.086.345-.351.345-1.042-.003-2.08.049-3.104.273-.253.056-.333.152-.33.412.012 1.513.015 3.027-.002 4.54-.003.31.11.357.382.355.883-.008.883.003.883.879 0 .541-.01 1.083.005 1.624.006.238-.036.344-.312.343-2.277-.011-4.554-.009-6.831-.003-.214 0-.29-.059-.287-.28.011-.764.011-1.528 0-2.291-.004-.22.07-.277.284-.284.69-.021.871-.222.872-.916v-4.457c0-.677-.221-.918-.883-.907-.264.004-.357-.055-.35-.338.02-.776.023-1.555 0-2.332-.01-.307.098-.357.375-.355 1.57.013 3.138.006 4.707.007.557 0 .765.15.92.698.078.277.12.563.186.881M158.94 5.83c1.435-1.24 3.018-1.923 4.869-1.898.29.004.583.035.868.09 1.26.248 2 1.056 2.075 2.354.106 1.817.023 3.638.04 5.457.007.666-.003 1.333.003 2 .006.604.233.852.838.812.445-.029.55.117.535.543-.033.946-.01.947-.959.947-1.402 0-2.805-.007-4.208.006-.274.003-.374-.073-.344-.35.04-.367-.156-.86.083-1.072.204-.182.685-.056 1.043-.062.603-.011.53.08.53-.532.003-2.07.002-4.139.001-6.208 0-1.578-.505-2.065-2.09-2.013-1.157.038-2.177.491-3.162 1.053-.137.078-.143.182-.143.31.001 2.375.004 4.75-.004 7.125-.001.236.094.274.295.267.375-.011.75.007 1.125-.007.2-.007.267.059.258.259-.014.318-.017.64 0 .958.014.236-.094.27-.296.27a561.709 561.709 0 0 0-5.083.001c-.242.001-.328-.08-.296-.31.008-.055 0-.111.001-.167.002-.305-.1-.671.033-.9.156-.269.554-.064.844-.106.404-.058.632-.318.633-.782.003-1.805 0-3.61 0-5.416 0-.68.006-1.361-.001-2.042-.005-.51-.262-.76-.768-.77-.83-.015-.83-.015-.83-.851 0-.723 0-.723.744-.723.875 0 1.75.012 2.625-.006.38-.008.55.173.642.51.107.392.052.794.098 1.253M152.764 9.375v4.374c0 .685.216.904.887.907.624.002.624.002.624.638 0 .841 0 .841-.848.841-1.43 0-2.86-.007-4.29.006-.28.003-.425-.058-.375-.363.009-.054 0-.111.001-.167.003-.291-.097-.647.035-.857.151-.241.536-.067.817-.097.392-.042.654-.278.655-.67.007-2.556.008-5.11 0-7.666-.002-.434-.275-.663-.726-.673-.872-.02-.872-.02-.872-.897 0-.678 0-.678.667-.678h2.749c.485.001.612.112.657.595.02.235.018.472.018.708.002 1.333 0 2.666.001 3.999"/>
        <g transform="translate(194.833 25.666)">
            <mask id="h" fill="#fff">
                <use xlink:href="#g"/>
            </mask>
            <path fill="#1D2258" d="M2.596 4.771c1.262-.004 2.13-.882 2.132-2.155C4.729 1.352 3.847.45 2.602.442 1.339.434.442 1.347.454 2.631c.012 1.282.876 2.145 2.142 2.14m2.57-2.144c-.003 1.481-1.09 2.546-2.595 2.541C1.074 5.164-.003 4.086.004 2.598.011 1.105 1.084.058 2.601.064 4.114.07 5.17 1.125 5.166 2.627" mask="url(#h)"/>
        </g>
        <path fill="#1D2258" d="M151.467 0c.793.006 1.437.653 1.42 1.426a1.433 1.433 0 0 1-1.424 1.387 1.42 1.42 0 0 1-1.437-1.412c.003-.786.641-1.407 1.441-1.4M197.091 27.677c.03.183-.121.47.276.44.276-.02.538-.026.548-.398.01-.37-.24-.395-.522-.422-.324-.031-.328.152-.302.38m.93.607c.243.11.315.32.393.526.04.103.057.223.123.304.085.107.335.147.203.33-.11.151-.335.037-.508.06-.192.026-.22-.103-.247-.252a5.458 5.458 0 0 0-.148-.56c-.083-.278-.312-.273-.54-.27-.108 0-.222.03-.187.152.06.21-.196.519.176.629.124.037.154.097.137.206-.02.12-.118.094-.194.095-.25.003-.499.005-.748-.001-.085-.002-.208.042-.22-.114-.006-.093.021-.163.122-.183.211-.043.186-.208.186-.36v-1.205c0-.167.022-.343-.211-.383-.115-.02-.102-.113-.088-.194.015-.09.093-.094.16-.094.498.004.999-.04 1.493.041a.622.622 0 0 1 .541.505c.087.383-.134.594-.442.768"/>
    </g>
</svg>
