<svg id="Capa_1" data-name="Capa 1" xmlns="http://www.w3.org/2000/svg" viewBox="0 0 426.79 169.22"><defs><style>.cls-1{fill:#fff;}</style></defs><title>LOGO_TUDU</title><path class="cls-1" d="M368.45,436.53a16.58,16.58,0,0,1-9.92,3.43c-7.06,0-10.64-4.58-10.64-13.62V395h21.74V366.91H347.46V333.49H317v33.42H297.6V395h19.17v32.16c0,26.13,13,41.11,35.79,41.11,10.24,0,19.67-2.93,26.63-8.13Z" transform="translate(-297.6 -299.09)"/><path class="cls-1" d="M723.32,366.91H692.85v51.76c0,12.74-7.19,21.29-17.88,21.29s-18.1-8.56-18.1-21.29V366.91H626.39v54.32c0,28.6,19.06,47.08,48.57,47.08,28.92,0,48.36-18.92,48.36-47.08Z" transform="translate(-297.6 -299.09)"/><path class="cls-1" d="M486.54,366.91H456.07v51.76c0,12.74-7.19,21.29-17.88,21.29s-18.1-8.56-18.1-21.29V366.91H389.61v54.32c0,28.6,19.06,47.08,48.57,47.08,28.92,0,48.35-18.92,48.35-47.08Z" transform="translate(-297.6 -299.09)"/><path class="cls-1" d="M576.18,334v41c-5.84-7.3-17.48-10.28-27.9-10.28-26.91,0-46.44,21-46.44,51.41,0,29.75,20,52.19,46.44,52.19,10,0,21.63-5.43,27.9-13.42v10.23h30.47V334ZM555.06,438.84A22.84,22.84,0,1,1,577.91,416a22.84,22.84,0,0,1-22.84,22.84" transform="translate(-297.6 -299.09)"/><polygon class="cls-1" points="379.53 45.19 426.79 16.13 416.87 0 369.62 29.05 379.53 45.19"/><polygon class="cls-1" points="365.36 31.67 365.34 31.68 354.68 14.62 338.62 24.66 359.25 57.66 375.27 47.81 365.36 31.67"/></svg>
