<svg xmlns="http://www.w3.org/2000/svg" width="75" height="76"><g fill="#00D2C3" fill-rule="evenodd"><path d="M43.425 21.912a1.77 1.77 0 0 0-.99-2.298A22.79 22.79 0 0 0 33.972 18C21.305 18 11 28.304 11 40.97c0 12.665 10.305 22.969 22.971 22.969 12.665 0 22.97-10.304 22.97-22.97 0-2.914-.54-5.755-1.603-8.445a1.77 1.77 0 0 0-3.291 1.301 19.342 19.342 0 0 1 1.355 7.144c0 10.714-8.717 19.43-19.43 19.43-10.716 0-19.433-8.716-19.433-19.43s8.717-19.43 19.432-19.43c2.475 0 4.883.459 7.156 1.363a1.77 1.77 0 0 0 2.298-.99"/><path d="M63.658 31.103a1.77 1.77 0 0 0-1.215 2.188 30.088 30.088 0 0 1 1.156 8.28C63.6 58.13 50.13 71.6 33.57 71.6c-16.56 0-30.031-13.471-30.031-30.03 0-16.56 13.472-30.032 30.031-30.032 2.82 0 5.61.39 8.294 1.161A1.77 1.77 0 0 0 42.84 9.3 33.576 33.576 0 0 0 33.57 8C15.06 8 0 23.06 0 41.57c0 18.51 15.06 33.57 33.57 33.57 18.51 0 33.568-15.059 33.568-33.57a33.63 33.63 0 0 0-1.292-9.253 1.77 1.77 0 0 0-2.188-1.214"/><path d="M33.37 32.539c.272 0 .539.012.792.035a1.77 1.77 0 1 0 .325-3.524c-.36-.033-.737-.05-1.117-.05C26.55 29 21 34.55 21 41.37c0 6.82 5.55 12.368 12.37 12.368 6.82 0 12.369-5.548 12.369-12.368 0-.36-.016-.724-.048-1.08a1.77 1.77 0 0 0-3.525.315c.022.251.034.51.034.765 0 4.869-3.961 8.83-8.83 8.83-4.87 0-8.831-3.961-8.831-8.83 0-4.87 3.962-8.831 8.831-8.831"/><path d="M60.664 23.56a1.78 1.78 0 0 1-1.25.517H52.94L63.767 13.25l7.206.001-10.309 10.308zm-9.709-9.71l10.31-10.308v7.206L50.437 21.574V15.1c0-.472.183-.916.517-1.25zm23.288-1.954a3.53 3.53 0 0 0-3.27-2.185h-6.17v-6.17a3.53 3.53 0 0 0-2.185-3.27 3.528 3.528 0 0 0-3.856.767l-10.31 10.31A5.272 5.272 0 0 0 46.9 15.1v10.013l-14.38 14.38a1.77 1.77 0 0 0 2.502 2.503l14.38-14.38h10.013c1.418 0 2.75-.552 3.753-1.554l10.309-10.31a3.528 3.528 0 0 0 .767-3.856z"/></g></svg>