<svg xmlns="http://www.w3.org/2000/svg" width="64" height="77"><g fill="#FF4B7D" stroke="#FF4B7D" stroke-width=".6"><path d="M62.25 73.5H58.5v-5h-6.25V55.722c0-3.375-1.678-6.51-4.486-8.382l-13.26-8.84 13.26-8.84a10.056 10.056 0 0 0 4.486-8.383V8.5h6.25v-5h3.75a1.25 1.25 0 1 0 0-2.5h-60a1.25 1.25 0 1 0 0 2.5H6v5h6.25v12.777a10.06 10.06 0 0 0 4.486 8.383l13.26 8.84-13.26 8.84a10.056 10.056 0 0 0-4.486 8.382V68.5H6v5H2.25a1.25 1.25 0 1 0 0 2.5h60a1.25 1.25 0 1 0 0-2.5zM8.5 6V3.5H56V6H8.5zm9.622 21.58a7.563 7.563 0 0 1-3.372-6.302V8.5h35v12.777a7.563 7.563 0 0 1-3.373 6.303L32.25 36.998 18.122 27.58zM14.75 55.722a7.563 7.563 0 0 1 3.372-6.302l14.128-9.418 14.127 9.418a7.563 7.563 0 0 1 3.373 6.302V68.5h-35V55.722zM8.5 71H56v2.5H8.5V71z"/><path d="M20.646 23.17a2.571 2.571 0 0 1-1.146-2.143V18.25a1.25 1.25 0 1 0-2.5 0v2.777c0 1.702.845 3.28 2.26 4.223l5.797 3.865a1.249 1.249 0 0 0 1.734-.346 1.251 1.251 0 0 0-.346-1.734l-5.799-3.865zm24.095 28.906l-5.797-3.865a1.25 1.25 0 1 0-1.388 2.08l5.798 3.865a2.568 2.568 0 0 1 1.147 2.142v2.778a1.25 1.25 0 1 0 2.5 0v-2.778a5.06 5.06 0 0 0-2.26-4.222z"/></g></svg>