<svg xmlns="http://www.w3.org/2000/svg" width="36" height="36"><g fill="#014592"><path d="M25.921 0H9.88C4.432 0 0 4.432 0 9.88v16.04c0 5.448 4.432 9.88 9.88 9.88h16.04c5.448 0 9.88-4.432 9.88-9.88V9.88C35.8 4.432 31.368 0 25.92 0zm6.704 25.921a6.711 6.711 0 0 1-6.704 6.704H9.88a6.71 6.71 0 0 1-6.704-6.704V9.88A6.711 6.711 0 0 1 9.88 3.176h16.04a6.711 6.711 0 0 1 6.704 6.704v16.04z"/><path d="M17.9 8.676c-5.086 0-9.224 4.138-9.224 9.225s4.138 9.225 9.225 9.225c5.086 0 9.225-4.138 9.225-9.225S22.987 8.676 17.9 8.676zm0 15.273a6.055 6.055 0 0 1-6.048-6.048 6.055 6.055 0 0 1 6.049-6.049 6.055 6.055 0 0 1 6.048 6.049 6.055 6.055 0 0 1-6.048 6.048zm9.613-17.966a2.34 2.34 0 0 0-1.646.681 2.34 2.34 0 0 0-.684 1.648c0 .612.25 1.213.684 1.648a2.347 2.347 0 0 0 1.646.681c.614 0 1.213-.25 1.647-.681a2.347 2.347 0 0 0 .682-1.648 2.34 2.34 0 0 0-.682-1.648 2.34 2.34 0 0 0-1.647-.681z"/></g></svg>