<svg xmlns="http://www.w3.org/2000/svg" width="35" height="32"><path fill="#FFF" stroke="#FFF" stroke-width="1.75" d="M31.107 24.828l-8.536-3.322a.54.54 0 0 1-.357-.321c-.035-.143.036-.286.179-.465.178-.214 4.286-5 4.286-10.035 0-5.286-4.286-9.572-9.572-9.572S7.536 5.4 7.536 10.685c0 5.035 4.107 9.857 4.285 10.035.143.179.215.322.179.465-.036.143-.179.25-.357.321l-8.536 3.322c-1.214.464-2.107 1.785-2.107 3v.857a2.431 2.431 0 0 0 2.429 2.428h27.285a2.431 2.431 0 0 0 2.429-2.428v-.857c0-1.215-.893-2.536-2.036-3zm.607 3.892c0 .536-.464 1-1 1H3.43c-.536 0-1-.464-1-1v-.857c0-.643.535-1.428 1.142-1.678l8.536-3.322c.643-.25 1.072-.714 1.214-1.321.143-.572-.035-1.214-.464-1.75-.036-.036-3.928-4.607-3.928-9.107a8.14 8.14 0 0 1 8.142-8.143 8.14 8.14 0 0 1 8.143 8.143c0 4.5-3.893 9.071-3.928 9.107-.429.5-.607 1.143-.465 1.75.143.571.608 1.071 1.215 1.321l8.535 3.322c.608.25 1.143 1 1.143 1.678v.857z"/></svg>