<svg xmlns="http://www.w3.org/2000/svg" xmlns:xlink="http://www.w3.org/1999/xlink" width="36" height="29"><defs><path id="a" d="M.008.013h35.983v28.436H.008z"/></defs><g fill="none" fill-rule="evenodd"><mask id="b" fill="#fff"><use xlink:href="#a"/></mask><path fill="#FF4B7D" d="M31.831 28.45H4.16A4.164 4.164 0 0 1 0 24.29V7.421a4.164 4.164 0 0 1 4.16-4.159h5.646l.494-1.667C10.502.682 11.336.013 12.317.013h11.358c.953 0 1.797.666 2.02 1.59l.013.057.45 1.602h5.674a4.164 4.164 0 0 1 4.16 4.16V24.29a4.165 4.165 0 0 1-4.16 4.16zM4.16 4.648A2.776 2.776 0 0 0 1.386 7.42v16.87a2.776 2.776 0 0 0 2.773 2.773h27.672a2.776 2.776 0 0 0 2.773-2.773V7.421A2.775 2.775 0 0 0 31.83 4.65h-6.723l-.759-2.707a.696.696 0 0 0-.675-.543H12.316a.688.688 0 0 0-.675.543l-.802 2.707H4.16zm13.837 19.61c-4.852 0-8.799-3.947-8.799-8.798 0-4.852 3.947-8.799 8.8-8.799 4.85 0 8.797 3.948 8.797 8.8 0 4.85-3.947 8.797-8.798 8.797zm0-16.21c-4.087 0-7.412 3.324-7.412 7.411 0 4.088 3.325 7.412 7.412 7.412s7.41-3.325 7.41-7.412-3.324-7.412-7.41-7.412zm12.94-.827a1.28 1.28 0 1 0 0 2.558 1.28 1.28 0 0 0 0-2.558z" mask="url(#b)"/></g></svg>