<svg xmlns="http://www.w3.org/2000/svg" width="26" height="26" viewBox="0 0 26 26">
    <g fill="#1D2258" fill-rule="nonzero" stroke="#F1F2F5" stroke-width=".5">
        <path d="M24.168 2.445h-4.765v-.718a.727.727 0 0 0-1.455 0v.718H13.7v-.718a.727.727 0 0 0-1.455 0v.718H8.177v-.718a.727.727 0 0 0-1.455 0v.718H1.776a.727.727 0 0 0-.727.727v16.433c0 .401.326.727.727.727H6.24c.715 3.056 3.461 5.34 6.732 5.34 3.271 0 6.017-2.284 6.732-5.34h4.464a.727.727 0 0 0 .728-.727V3.172a.727.727 0 0 0-.728-.727zM6.722 3.899v.657a.727.727 0 0 0 1.455 0V3.9h4.068v.657a.727.727 0 0 0 1.455 0V3.9h4.248v.657a.727.727 0 0 0 1.455 0V3.9h4.038v2.974H2.504V3.9h4.218zm6.25 20.318a5.467 5.467 0 0 1-5.46-5.46 5.467 5.467 0 0 1 5.46-5.462 5.467 5.467 0 0 1 5.461 5.461 5.467 5.467 0 0 1-5.46 5.461zm6.913-5.34l.003-.12a6.923 6.923 0 0 0-6.916-6.916 6.923 6.923 0 0 0-6.915 6.915c0 .041.002.081.003.122H2.503V8.328h20.938v10.55h-3.556z"/>
        <path d="M13.7 18.94v-3.518a.727.727 0 0 0-1.455 0v3.82c0 .192.077.377.213.514l1.671 1.671a.725.725 0 0 0 1.03 0 .727.727 0 0 0 0-1.028l-1.46-1.46z"/>
    </g>
</svg>
