<svg xmlns="http://www.w3.org/2000/svg" width="75" height="61" viewBox="0 0 75 61">
    <g fill="#FF4B7D" fill-rule="nonzero">
        <path d="M54.535 0H4.223A4.228 4.228 0 0 0 0 4.223v30.184a4.228 4.228 0 0 0 4.223 4.223h3.263v11.237a1.77 1.77 0 0 0 3.02 1.251l12.488-12.487h2.505a1.77 1.77 0 1 0 0-3.54s-3.323.003-3.358.007a1.762 1.762 0 0 0-1.131.512l-9.986 9.986s-.003-8.847-.009-8.892a1.769 1.769 0 0 0-1.761-1.612h-5.03a.685.685 0 0 1-.685-.685V4.223c0-.377.307-.685.684-.685h50.312c.377 0 .684.308.684.685v11.58a1.77 1.77 0 0 0 3.539 0V4.223A4.228 4.228 0 0 0 54.535 0z"/>
        <path d="M70.44 22H35.223A4.228 4.228 0 0 0 31 26.223v20.592a4.228 4.228 0 0 0 4.223 4.223h22.048l8.933 8.933a1.769 1.769 0 0 0 3.02-1.252v-7.681h1.216a4.228 4.228 0 0 0 4.223-4.224v-20.59A4.228 4.228 0 0 0 70.44 22zm.685 24.815a.685.685 0 0 1-.685.684h-2.984c-.931 0-1.693.72-1.763 1.633-.004.039-.007 5.316-.007 5.316l-6.424-6.424-.02-.02a1.76 1.76 0 0 0-1.236-.505H35.222a.685.685 0 0 1-.684-.685v-20.59c0-.378.307-.686.684-.686H70.44c.378 0 .685.308.685.685v20.592z"/>
        <path d="M52.77 35a1.77 1.77 0 1 0 0 3.54 1.77 1.77 0 0 0 0-3.54zM45.97 12h-32.2a1.77 1.77 0 1 0 0 3.538h32.2a1.77 1.77 0 1 0 0-3.538zM25.99 24H13.77a1.77 1.77 0 1 0 0 3.538h12.22a1.77 1.77 0 1 0 0-3.538zM44.77 35a1.77 1.77 0 1 0 0 3.54 1.77 1.77 0 0 0 0-3.54zM61.77 35a1.77 1.77 0 1 0 0 3.54 1.77 1.77 0 0 0 0-3.54z"/>
    </g>
</svg>
