<svg xmlns="http://www.w3.org/2000/svg" width="77" height="79" viewBox="0 0 77 79">
    <g fill="#00D2C3" fill-rule="nonzero" stroke="#FFF" stroke-width="1.05">
        <path d="M73.248 5.514H58.356V3.273a2.273 2.273 0 0 0-4.545 0v2.241H40.533V3.273a2.273 2.273 0 0 0-4.546 0v2.241H23.274V3.273a2.273 2.273 0 0 0-4.545 0v2.241H3.273A2.273 2.273 0 0 0 1 7.787V59.14a2.273 2.273 0 0 0 2.273 2.273h13.949C19.457 70.963 28.038 78.1 38.26 78.1s18.803-7.137 21.038-16.687h13.95a2.273 2.273 0 0 0 2.272-2.273V7.787a2.272 2.272 0 0 0-2.272-2.273zm-54.52 4.546v2.054a2.273 2.273 0 0 0 4.546 0V10.06h12.713v2.054a2.273 2.273 0 0 0 4.546 0V10.06h13.278v2.054a2.273 2.273 0 0 0 4.545 0V10.06h12.62v9.294H5.545V10.06h13.183zM38.26 73.554c-9.41 0-17.065-7.656-17.065-17.065 0-9.41 7.655-17.066 17.065-17.066s17.066 7.655 17.066 17.066c0 9.41-7.656 17.065-17.066 17.065zm21.602-16.687c.002-.126.01-.251.01-.378 0-11.917-9.695-21.611-21.612-21.611-11.916 0-21.61 9.694-21.61 21.61 0 .128.007.253.009.38H5.545V23.9h65.43v32.967H59.862z"/>
        <path d="M40.545 57.267V46.273a2.273 2.273 0 0 0-4.545 0v11.936c0 .603.24 1.18.666 1.607l5.223 5.224a2.267 2.267 0 0 0 1.607.666 2.273 2.273 0 0 0 1.607-3.88l-4.558-4.559z"/>
    </g>
</svg>
